/* XPM */
static char *result[] = {
/* columns rows colors chars-per-pixel */
"32 64 5 1 ",
"  c black",
". c #010101",
"X c #020202",
"o c gray1",
"O c None",
/* pixels */
"OOOOOOOOOOOOOOOOOOOOOOOOOOOOOOOO",
"OOOOOOOOOOOOOOOOOOOOOOOOOOOOOOOO",
"OOOOOOOOOOOOOOOOOOOOOOOOOOOOOOOO",
"OOOOOOOOOOOOOOOOOOOOOOOOOOOOOOOO",
"OOOOOOOOOOOOOOOOOOOOOOOOOOOOOOOO",
"OOOOOOOOOOOOOOOOOOOOOOOOOOOOOOOO",
"OOOOOOOOOOOOOOOOOOOOOOOOOOOOOOOO",
"OOOOOOOOOOOOOOOOOOOOOOOOOOOOOOOO",
"OOOOOOOOOOOOOOOOOOOOOOOOOOOOOOOO",
"OOOOOOOOOOOOOOOOOOOOOOOOOOOOOOOO",
"OOOOOOOOOOOOOOOOOOOOOOOOOOOOOOOO",
"OOOOOOOOOOOOOOOOOOOOOOOOOOOOOOOO",
"OOOOOOOOOOOOOOOOOOOOOOOOOOOOOOOO",
"OOOOOOOOOOOOOOOOOOOOOOOOOOOOOOOO",
"OOOOOOOOOOOOOOOOOOOOOOOOOOOOOOOO",
"OOOOOOOOOOOO o     X OOOOOOOOOOO",
"OOOOOOOOOO             OOOOOOOOO",
"OOOOOOOO                 OOOOOOO",
"OOOOOOO                   OOOOOO",
"OOOOOO                     OOOOO",
"OOOOO                       OOOO",
"OOOO                         OOO",
"OOOO                         OOO",
"OOO                           OO",
"OOO                           OO",
"OO             OOO            OO",
"OO            OOOOO            O",
"OO            OOOOO            O",
"OO           OOOOOOO           O",
"OO           OOOOOOO           O",
"OO           OOOOOOO           O",
"OO           OOOOOOO           O",
"OO           OOOOOOO           O",
"OO           OOOOOOO           O",
"OO           OOOOOOO           O",
"OO            OOOOO           .O",
"OO            OOOOO            O",
"OOO            OOO            OO",
"OOO                           OO",
"OOO                           OO",
"OOOO                         OOO",
"OOOO                        OOOO",
"OOOOO                       OOOO",
"OOOOOO                     OOOOO",
"OOOOOOO                   OOOOOO",
"OOOOOOOOO               OOOOOOOO",
"OOOOOOOOOO             OOOOOOOOO",
"OOOOOOOOOOOOO       OOOOOOOOOOOO",
"OOOOOOOOOOOOOOOOOOOOOOOOOOOOOOOO",
"OOOOOOOOOOOOOOOOOOOOOOOOOOOOOOOO",
"OOOOOOOOOOOOOOOOOOOOOOOOOOOOOOOO",
"OOOOOOOOOOOOOOOOOOOOOOOOOOOOOOOO",
"OOOOOOOOOOOOOOOOOOOOOOOOOOOOOOOO",
"OOOOOOOOOOOOOOOOOOOOOOOOOOOOOOOO",
"OOOOOOOOOOOOOOOOOOOOOOOOOOOOOOOO",
"OOOOOOOOOOOOOOOOOOOOOOOOOOOOOOOO",
"OOOOOOOOOOOOOOOOOOOOOOOOOOOOOOOO",
"OOOOOOOOOOOOOOOOOOOOOOOOOOOOOOOO",
"OOOOOOOOOOOOOOOOOOOOOOOOOOOOOOOO",
"OOOOOOOOOOOOOOOOOOOOOOOOOOOOOOOO",
"OOOOOOOOOOOOOOOOOOOOOOOOOOOOOOOO",
"OOOOOOOOOOOOOOOOOOOOOOOOOOOOOOOO",
"OOOOOOOOOOOOOOOOOOOOOOOOOOOOOOOO",
"OOOOOOOOOOOOOOOOOOOOOOOOOOOOOOOO"
};
