/* XPM */
static char *result[] = {
/* columns rows colors chars-per-pixel */
"32 64 4 1 ",
"  c black",
". c #020202",
"X c gray4",
"o c None",
/* pixels */
"oooooooooooooooooooooooooooooooo",
"oooooooooooooooooooooooooooooooo",
"oooooooooooooooooooooooooooooooo",
"oooooooooooooooooooooooooooooooo",
"oooooooooooooooooooooooooooooooo",
"oooooooooooooooooooooooooooooooo",
"oooooooooooooooooooooooooooooooo",
"oooooooooooooooooooooooooooooooo",
"oooooooooooooooooooooooooooooooo",
"oooooooooooooooooooooooooooooooo",
"oooooooooooooooooooooooooooooooo",
"oooooooooooooooooooooooooooooooo",
"oooooooooooooooooooooooooooooooo",
"oooooooooooooooooooooooooooooooo",
"oooooooooooooooooooooooooooooooo",
"oooooooooooooooooooooooooooooooo",
"oooooooooooo              oooooo",
"oooooooooo                oooooo",
"ooooooo                   oooooo",
"ooooooo                   oooooo",
"ooooooo                   oooooo",
"ooooooo                   oooooo",
"ooooooo                   oooooo",
"ooooooo                   oooooo",
"ooooooo                   oooooo",
"ooooooo                   oooooo",
"ooooooo      X            oooooo",
"ooooooo  . ooo            oooooo",
"ooooooo oooooo            oooooo",
"oooooooooooooo            oooooo",
"oooooooooooooo            oooooo",
"oooooooooooooo            oooooo",
"oooooooooooooo            oooooo",
"oooooooooooooo            oooooo",
"oooooooooooooo            oooooo",
"oooooooooooooo            oooooo",
"oooooooooooooo            oooooo",
"oooooooooooooo            oooooo",
"oooooooooooooo            oooooo",
"oooooooooooooo            oooooo",
"oooooooooooooo            oooooo",
"oooooooooooooo            oooooo",
"oooooooooooooo            oooooo",
"oooooooooooooo            oooooo",
"oooooooooooooo            oooooo",
"oooooooooooooo            oooooo",
"oooooooooooooo            oooooo",
"oooooooooooooooooooooooooooooooo",
"oooooooooooooooooooooooooooooooo",
"oooooooooooooooooooooooooooooooo",
"oooooooooooooooooooooooooooooooo",
"oooooooooooooooooooooooooooooooo",
"oooooooooooooooooooooooooooooooo",
"oooooooooooooooooooooooooooooooo",
"oooooooooooooooooooooooooooooooo",
"oooooooooooooooooooooooooooooooo",
"oooooooooooooooooooooooooooooooo",
"oooooooooooooooooooooooooooooooo",
"oooooooooooooooooooooooooooooooo",
"oooooooooooooooooooooooooooooooo",
"oooooooooooooooooooooooooooooooo",
"oooooooooooooooooooooooooooooooo",
"oooooooooooooooooooooooooooooooo",
"oooooooooooooooooooooooooooooooo"
};
