/* XPM */
static char *result[] = {
/* columns rows colors chars-per-pixel */
"32 64 4 1 ",
"  c black",
". c #010101",
"X c #020202",
"o c None",
/* pixels */
"oooooooooooooooooooooooooooooooo",
"oooooooooooooooooooooooooooooooo",
"oooooooooooooooooooooooooooooooo",
"oooooooooooooooooooooooooooooooo",
"oooooooooooooooooooooooooooooooo",
"oooooooooooooooooooooooooooooooo",
"oooooooooooooooooooooooooooooooo",
"oooooooooooooooooooooooooooooooo",
"oooooooooooooooooooooooooooooooo",
"oooooooooooooooooooooooooooooooo",
"oooooooooooooooooooooooooooooooo",
"oooooooooooooooooooooooooooooooo",
"oooooooooooooooooooooooooooooooo",
"oooooooooooooooooooooooooooooooo",
"oooooooooooooooooooooooooooooooo",
"oooooooooo X.     . oooooooooooo",
"ooooooo               oooooooooo",
"oooooo                  oooooooo",
"oooo                     ooooooo",
"ooo                       oooooo",
"ooo                        ooooo",
"oooo                       ooooo",
"oooo                        oooo",
"ooooo                       oooo",
"oooooo     oooo             oooo",
"oooooo  oooooooo            oooo",
"oooooooooooooooo            oooo",
"oooooooooooooooo            oooo",
"ooooooooooooooo             oooo",
"oooooooooooooo             ooooo",
"oooooooooooooo             ooooo",
"ooooooooooooo             oooooo",
"ooooooooooo              ooooooo",
"oooooooooo              oooooooo",
"ooooooooo              ooooooooo",
"ooooooo               oooooooooo",
"oooooo              oooooooooooo",
"oooo                       ooooo",
"ooo                         oooo",
"ooo                         oooo",
"ooo                         oooo",
"ooo                         oooo",
"ooo                         oooo",
"ooo                         oooo",
"ooo                         oooo",
"ooo                         oooo",
"ooo                         oooo",
"oooooooooooooooooooooooooooooooo",
"oooooooooooooooooooooooooooooooo",
"oooooooooooooooooooooooooooooooo",
"oooooooooooooooooooooooooooooooo",
"oooooooooooooooooooooooooooooooo",
"oooooooooooooooooooooooooooooooo",
"oooooooooooooooooooooooooooooooo",
"oooooooooooooooooooooooooooooooo",
"oooooooooooooooooooooooooooooooo",
"oooooooooooooooooooooooooooooooo",
"oooooooooooooooooooooooooooooooo",
"oooooooooooooooooooooooooooooooo",
"oooooooooooooooooooooooooooooooo",
"oooooooooooooooooooooooooooooooo",
"oooooooooooooooooooooooooooooooo",
"oooooooooooooooooooooooooooooooo",
"oooooooooooooooooooooooooooooooo"
};
