/* XPM */
static char *result[] = {
/* columns rows colors chars-per-pixel */
"32 64 5 1 ",
"  c black",
". c #020202",
"X c gray1",
"o c gray2",
"O c None",
/* pixels */
"OOOOOOOOOOOOOOOOOOOOOOOOOOOOOOOO",
"OOOOOOOOOOOOOOOOOOOOOOOOOOOOOOOO",
"OOOOOOOOOOOOOOOOOOOOOOOOOOOOOOOO",
"OOOOOOOOOOOOOOOOOOOOOOOOOOOOOOOO",
"OOOOOOOOOOOOOOOOOOOOOOOOOOOOOOOO",
"OOOOOOOOOOOOOOOOOOOOOOOOOOOOOOOO",
"OOOOOOOOOOOOOOOOOOOOOOOOOOOOOOOO",
"OOOOOOOOOOOOOOOOOOOOOOOOOOOOOOOO",
"OOOOOOOOOOOOOOOOOOOOOOOOOOOOOOOO",
"OOOOOOOOOOOOOOOOOOOOOOOOOOOOOOOO",
"OOOOOOOOOOOOOOOOOOOOOOOOOOOOOOOO",
"OOOOOOOOOOOOOOOOOOOOOOOOOOOOOOOO",
"OOOOOOOOOOOOOOOOOOOOOOOOOOOOOOOO",
"OOOOOOOOOOOOOOOOOOOOOOOOOOOOOOOO",
"OOOOOOOOOOOOOOOOOOOOOOOOOOOOOOOO",
"OOOOOOOOOOOOOOOOOOOOOOOOOOOOOOOO",
"OOOOO                       OOOO",
"OOOOO                       OOOO",
"OOOOO                       OOOO",
"OOOOO                       OOOO",
"OOOOO                       OOOO",
"OOOOO                       OOOO",
"OOOOO                       OOOO",
"OOOOO                       OOOO",
"OOOOO                       OOOO",
"OOOOOOOOOOOOOOO.           OOOOO",
"OOOOOOOOOOOOOO           OOOOOOO",
"OOOOOOOOOOOO            OOOOOOOO",
"OOOOOOOOOOO          XOOOOOOOOOO",
"OOOOOOOOOO           o OOOOOOOOO",
"OOOOOOOOOO               OOOOOOO",
"OOOOOOOOOO                OOOOOO",
"OOOOOOOOOO                 OOOOO",
"OOOOOOOOOO                  OOOO",
"OOOOOOOOOOO                 OOOO",
"OOOOOOOOOOOOOOOO            OOOO",
"OOOOOOOOOOOOOOOOO           OOOO",
"OOOOOOO   OOOOOO            OOOO",
"OOOOOO      OOO             OOOO",
"OOOOOO                      OOOO",
"OOOOO                       OOOO",
"OOOOO                       OOOO",
"OOOOO                      OOOOO",
"OOOOO                      OOOOO",
"OOOOO                     OOOOOO",
"OOOOOO                   OOOOOOO",
"OOOOOOOO               OOOOOOOOO",
"OOOOOOOOOOOO        OOOOOOOOOOOO",
"OOOOOOOOOOOOOOOOOOOOOOOOOOOOOOOO",
"OOOOOOOOOOOOOOOOOOOOOOOOOOOOOOOO",
"OOOOOOOOOOOOOOOOOOOOOOOOOOOOOOOO",
"OOOOOOOOOOOOOOOOOOOOOOOOOOOOOOOO",
"OOOOOOOOOOOOOOOOOOOOOOOOOOOOOOOO",
"OOOOOOOOOOOOOOOOOOOOOOOOOOOOOOOO",
"OOOOOOOOOOOOOOOOOOOOOOOOOOOOOOOO",
"OOOOOOOOOOOOOOOOOOOOOOOOOOOOOOOO",
"OOOOOOOOOOOOOOOOOOOOOOOOOOOOOOOO",
"OOOOOOOOOOOOOOOOOOOOOOOOOOOOOOOO",
"OOOOOOOOOOOOOOOOOOOOOOOOOOOOOOOO",
"OOOOOOOOOOOOOOOOOOOOOOOOOOOOOOOO",
"OOOOOOOOOOOOOOOOOOOOOOOOOOOOOOOO",
"OOOOOOOOOOOOOOOOOOOOOOOOOOOOOOOO",
"OOOOOOOOOOOOOOOOOOOOOOOOOOOOOOOO",
"OOOOOOOOOOOOOOOOOOOOOOOOOOOOOOOO"
};
