/* XPM */
static char *result[] = {
/* columns rows colors chars-per-pixel */
"32 64 6 1 ",
"  c black",
". c #010101",
"X c #020202",
"o c #040404",
"O c gray5",
"+ c None",
/* pixels */
"++++++++++++++++++++++++++++++++",
"++++++++++++++++++++++++++++++++",
"++++++++++++++++++++++++++++++++",
"++++++++++++++++++++++++++++++++",
"++++++++++++++++++++++++++++++++",
"++++++++++++++++++++++++++++++++",
"++++++++++++++++++++++++++++++++",
"++++++++++++++++++++++++++++++++",
"++++++++++++++++++++++++++++++++",
"++++++++++++++++++++++++++++++++",
"++++++++++++++++++++++++++++++++",
"++++++++++++++++++++++++++++++++",
"++++++++++++++++++++++++++++++++",
"++++++++++++++++++++++++++++++++",
"++++++++++++++++++++++++++++++++",
"++++++++++++++++++++++++++++++++",
"+++++++                    +++++",
"+++++++                    +++++",
"+++++++                    +++++",
"++++++                     +++++",
"++++++                     +++++",
"++++++                     +++++",
"++++++                     +++++",
"++++++                     +++++",
"++++++                     +++++",
"+++++          +++++++++++++++++",
"+++++          +++++++++++++++++",
"+++++                 ++++++++++",
"+++++                   ++++++++",
"+++++                     ++++++",
"+++++                      +++++",
"++++++                     +++++",
"++++++++                    ++++",
"+++++++++   +++             ++++",
"++++++++++++++++            X+++",
"+++++++++++++++++           .+++",
"+++++++++++++++++            +++",
"+++++++   ++++++             +++",
"++++++      +++              +++",
"++++++                       +++",
"+++++                       ++++",
"++++                        ++++",
"++++                       +++++",
"++++                       +++++",
"+++++                     ++++++",
"+++++++                  +++++++",
"+++++++++              +++++++++",
"++++++++++++O      o++++++++++++",
"++++++++++++++++++++++++++++++++",
"++++++++++++++++++++++++++++++++",
"++++++++++++++++++++++++++++++++",
"++++++++++++++++++++++++++++++++",
"++++++++++++++++++++++++++++++++",
"++++++++++++++++++++++++++++++++",
"++++++++++++++++++++++++++++++++",
"++++++++++++++++++++++++++++++++",
"++++++++++++++++++++++++++++++++",
"++++++++++++++++++++++++++++++++",
"++++++++++++++++++++++++++++++++",
"++++++++++++++++++++++++++++++++",
"++++++++++++++++++++++++++++++++",
"++++++++++++++++++++++++++++++++",
"++++++++++++++++++++++++++++++++",
"++++++++++++++++++++++++++++++++"
};
