/* XPM */
static char *result[] = {
/* columns rows colors chars-per-pixel */
"32 64 5 1 ",
"  c black",
". c #010101",
"X c #0E0E0E",
"o c #161616",
"O c None",
/* pixels */
"OOOOOOOOOOOOOOOOOOOOOOOOOOOOOOOO",
"OOOOOOOOOOOOOOOOOOOOOOOOOOOOOOOO",
"OOOOOOOOOOOOOOOOOOOOOOOOOOOOOOOO",
"OOOOOOOOOOOOOOOOOOOOOOOOOOOOOOOO",
"OOOOOOOOOOOOOOOOOOOOOOOOOOOOOOOO",
"OOOOOOOOOOOOOOOOOOOOOOOOOOOOOOOO",
"OOOOOOOOOOOOOOOOOOOOOOOOOOOOOOOO",
"OOOOOOOOOOOOOOOOOOOOOOOOOOOOOOOO",
"OOOOOOOOOOOOOOOOOOOOOOOOOOOOOOOO",
"OOOOOOOOOOOOOOOOOOOOOOOOOOOOOOOO",
"OOOOOOOOOOOOOOOOOOOOOOOOOOOOOOOO",
"OOOOOOOOOOOOOOOOOOOOOOOOOOOOOOOO",
"OOOOOOOOOOOOOOOOOOOOOOOOOOOOOOOO",
"OOOOOOOOOOOOOOOOOOOOOOOOOOOOOOOO",
"OOOOOOOOOOOOOOOOOOOOOOOOOOOOOOOO",
"OOOOOOOOOOOOOOOOOOOOOOOOOOOOOOOO",
"OOOOOOOOOOOOOo.      OOOOOOOOOOO",
"OOOOOOOOOOO             OOOOOOOO",
"OOOOOOOOO                 OOOOOO",
"OOOOOOOO                  OOOOOO",
"OOOOOOO                   OOOOOO",
"OOOOOO                   OOOOOOO",
"OOOOO                    OOOOOOO",
"OOOOO                   OOOOOOOO",
"OOOO                    OOOOOOOO",
"OOOO            OOOOOO  OOOOOOOO",
"OOO           OOOOOOOOOOOOOOOOOO",
"OOO           OO     OOOOOOOOOOO",
"OOO          O          OOOOOOOO",
"OOO                      OOOOOOO",
"OO                        OOOOOO",
"OO                         OOOOO",
"OO                         OOOOO",
"OO                         OOOOO",
"OOO            OO           OOOO",
"OOO           OOOO          OOOO",
"OOO           OOOO          OOOO",
"OOO           OOOO          OOOO",
"OOO           OOOO          OOOO",
"OOOO          OOOO          OOOO",
"OOOO            O           OOOO",
"OOOO                       OOOOO",
"OOOOO                      OOOOO",
"OOOOO                     OOOOOO",
"OOOOOO                    OOOOOO",
"OOOOOOO                  OOOOOOO",
"OOOOOOOO                OOOOOOOO",
"OOOOOOOOOO            OOOOOOOOOO",
"OOOOOOOOOOOOO  X   OOOOOOOOOOOOO",
"OOOOOOOOOOOOOOOOOOOOOOOOOOOOOOOO",
"OOOOOOOOOOOOOOOOOOOOOOOOOOOOOOOO",
"OOOOOOOOOOOOOOOOOOOOOOOOOOOOOOOO",
"OOOOOOOOOOOOOOOOOOOOOOOOOOOOOOOO",
"OOOOOOOOOOOOOOOOOOOOOOOOOOOOOOOO",
"OOOOOOOOOOOOOOOOOOOOOOOOOOOOOOOO",
"OOOOOOOOOOOOOOOOOOOOOOOOOOOOOOOO",
"OOOOOOOOOOOOOOOOOOOOOOOOOOOOOOOO",
"OOOOOOOOOOOOOOOOOOOOOOOOOOOOOOOO",
"OOOOOOOOOOOOOOOOOOOOOOOOOOOOOOOO",
"OOOOOOOOOOOOOOOOOOOOOOOOOOOOOOOO",
"OOOOOOOOOOOOOOOOOOOOOOOOOOOOOOOO",
"OOOOOOOOOOOOOOOOOOOOOOOOOOOOOOOO",
"OOOOOOOOOOOOOOOOOOOOOOOOOOOOOOOO",
"OOOOOOOOOOOOOOOOOOOOOOOOOOOOOOOO"
};
