/* XPM */
static char *result[] = {
/* columns rows colors chars-per-pixel */
"32 64 3 1 ",
"  c black",
". c #020202",
"X c None",
/* pixels */
"XXXXXXXXXXXXXXXXXXXXXXXXXXXXXXXX",
"XXXXXXXXXXXXXXXXXXXXXXXXXXXXXXXX",
"XXXXXXXXXXXXXXXXXXXXXXXXXXXXXXXX",
"XXXXXXXXXXXXXXXXXXXXXXXXXXXXXXXX",
"XXXXXXXXXXXXXXXXXXXXXXXXXXXXXXXX",
"XXXXXXXXXXXXXXXXXXXXXXXXXXXXXXXX",
"XXXXXXXXXXXXXXXXXXXXXXXXXXXXXXXX",
"XXXXXXXXXXXXXXXXXXXXXXXXXXXXXXXX",
"XXXXXXXXXXXXXXXXXXXXXXXXXXXXXXXX",
"XXXXXXXXXXXXXXXXXXXXXXXXXXXXXXXX",
"XXXXXXXXXXXXXXXXXXXXXXXXXXXXXXXX",
"XXXXXXXXXXXXXXXXXXXXXXXXXXXXXXXX",
"XXXXXXXXXXXXXXXXXXXXXXXXXXXXXXXX",
"XXXXXXXXXXXXXXXXXXXXXXXXXXXXXXXX",
"XXXXXXXXXXXXXXXXXXXXXXXXXXXXXXXX",
"XXXXXXXXXXXXXXXXXXXXXXXXXXXXXXXX",
"XXXXXXXXXXXXXXXXXXXXXXXXXXXXXXXX",
"XXXXX                       XXXX",
"XXXXX                       XXXX",
"XXXXX                       XXXX",
"XXXXX                       XXXX",
"XXXXX                       XXXX",
"XXXXX                       XXXX",
"XXXXX                       XXXX",
"XXXXX                       XXXX",
"XXXXX                       XXXX",
"XXXXX                       XXXX",
"XXXXXXXXXXXXXXXX           .XXXX",
"XXXXXXXXXXXXXXX             XXXX",
"XXXXXXXXXXXXXXX            XXXXX",
"XXXXXXXXXXXXXX             XXXXX",
"XXXXXXXXXXXXXX            XXXXXX",
"XXXXXXXXXXXXX             XXXXXX",
"XXXXXXXXXXXXX            XXXXXXX",
"XXXXXXXXXXXX             XXXXXXX",
"XXXXXXXXXXXX            XXXXXXXX",
"XXXXXXXXXXX             XXXXXXXX",
"XXXXXXXXXXX            XXXXXXXXX",
"XXXXXXXXXX             XXXXXXXXX",
"XXXXXXXXXX            XXXXXXXXXX",
"XXXXXXXXX             XXXXXXXXXX",
"XXXXXXXXX            XXXXXXXXXXX",
"XXXXXXXX             XXXXXXXXXXX",
"XXXXXXXX            XXXXXXXXXXXX",
"XXXXXXX             XXXXXXXXXXXX",
"XXXXXXX            XXXXXXXXXXXXX",
"XXXXXX             XXXXXXXXXXXXX",
"XXXXXX            XXXXXXXXXXXXXX",
"XXXXXXXXXXXXXXXXXXXXXXXXXXXXXXXX",
"XXXXXXXXXXXXXXXXXXXXXXXXXXXXXXXX",
"XXXXXXXXXXXXXXXXXXXXXXXXXXXXXXXX",
"XXXXXXXXXXXXXXXXXXXXXXXXXXXXXXXX",
"XXXXXXXXXXXXXXXXXXXXXXXXXXXXXXXX",
"XXXXXXXXXXXXXXXXXXXXXXXXXXXXXXXX",
"XXXXXXXXXXXXXXXXXXXXXXXXXXXXXXXX",
"XXXXXXXXXXXXXXXXXXXXXXXXXXXXXXXX",
"XXXXXXXXXXXXXXXXXXXXXXXXXXXXXXXX",
"XXXXXXXXXXXXXXXXXXXXXXXXXXXXXXXX",
"XXXXXXXXXXXXXXXXXXXXXXXXXXXXXXXX",
"XXXXXXXXXXXXXXXXXXXXXXXXXXXXXXXX",
"XXXXXXXXXXXXXXXXXXXXXXXXXXXXXXXX",
"XXXXXXXXXXXXXXXXXXXXXXXXXXXXXXXX",
"XXXXXXXXXXXXXXXXXXXXXXXXXXXXXXXX",
"XXXXXXXXXXXXXXXXXXXXXXXXXXXXXXXX"
};
