/* XPM */
static char *result[] = {
/* columns rows colors chars-per-pixel */
"32 64 8 1 ",
"  c black",
". c #010101",
"X c #020202",
"o c gray1",
"O c gray2",
"+ c gray3",
"@ c gray4",
"# c None",
/* pixels */
"################################",
"################################",
"################################",
"################################",
"################################",
"################################",
"################################",
"################################",
"################################",
"################################",
"################################",
"################################",
"################################",
"################################",
"################################",
"################################",
"############        ############",
"#########              #########",
"#######                  #######",
"######                    ######",
"#####                      #####",
"#####                       ####",
"####                        ####",
"####           ##           ####",
"####          ####          ####",
"####          ####          ####",
"####          ####          ####",
"####           ##           ####",
"#####                       ####",
"#####                      #####",
"######                    ######",
"########                ########",
"#######                   ######",
"#####                      #####",
"####                        ####",
"###                          ###",
"###           ####            ##",
"##            ####            ##",
"##.           #####           ##",
"##            ####            ##",
"##X            ###            ##",
"##                            ##",
"###                           ##",
"###                          ###",
"####                        ####",
"#####                       ####",
"######                    ######",
"########                ########",
"###########  O@. +o  ###########",
"################################",
"################################",
"################################",
"################################",
"################################",
"################################",
"################################",
"################################",
"################################",
"################################",
"################################",
"################################",
"################################",
"################################",
"################################"
};
