/* XPM */
static char *result[] = {
/* columns rows colors chars-per-pixel */
"32 64 6 1 ",
"  c black",
". c gray1",
"X c gray2",
"o c gray4",
"O c #0B0B0B",
"+ c None",
/* pixels */
"++++++++++++++++++++++++++++++++",
"++++++++++++++++++++++++++++++++",
"++++++++++++++++++++++++++++++++",
"++++++++++++++++++++++++++++++++",
"++++++++++++++++++++++++++++++++",
"++++++++++++++++++++++++++++++++",
"++++++++++++++++++++++++++++++++",
"++++++++++++++++++++++++++++++++",
"++++++++++++++++++++++++++++++++",
"++++++++++++++++++++++++++++++++",
"++++++++++++++++++++++++++++++++",
"++++++++++++++++++++++++++++++++",
"++++++++++++++++++++++++++++++++",
"++++++++++++++++++++++++++++++++",
"++++++++++++++++++++++++++++++++",
"++++++++++++++++++++++++++++++++",
"++++++++++++       +++++++++++++",
"+++++++++             ++++++++++",
"+++++++                 ++++++++",
"++++++                   +++++++",
"+++++                     ++++++",
"+++++                      +++++",
"++++                       +++++",
"++++                        ++++",
"+++            +            ++++",
"+++           +++            +++",
"+++          +++++           +++",
"+++          +++++           +++",
"+++          +++++            ++",
"+++           +++            O++",
"+++            +              ++",
"++++                          ++",
"++++                          ++",
"++++                          ++",
"+++++                        .++",
"++++++            o          X++",
"++++++++          .          +++",
"++++++++++      ++           +++",
"+++++++++++++++++            +++",
"++++++++ +++++++            ++++",
"+++++++                     ++++",
"+++++++                    +++++",
"++++++                     +++++",
"++++++                    ++++++",
"+++++                    +++++++",
"+++++                   ++++++++",
"++++++                 +++++++++",
"++++++++             +++++++++++",
"++++++++++++++++++++++++++++++++",
"++++++++++++++++++++++++++++++++",
"++++++++++++++++++++++++++++++++",
"++++++++++++++++++++++++++++++++",
"++++++++++++++++++++++++++++++++",
"++++++++++++++++++++++++++++++++",
"++++++++++++++++++++++++++++++++",
"++++++++++++++++++++++++++++++++",
"++++++++++++++++++++++++++++++++",
"++++++++++++++++++++++++++++++++",
"++++++++++++++++++++++++++++++++",
"++++++++++++++++++++++++++++++++",
"++++++++++++++++++++++++++++++++",
"++++++++++++++++++++++++++++++++",
"++++++++++++++++++++++++++++++++",
"++++++++++++++++++++++++++++++++"
};
