/* XPM */
static char *_073d0d264bc408fc94f3760d61e12b86iWB6zwfdAuiMjjh[] = {
/* columns rows colors chars-per-pixel */
"64 64 254 2 ",
"   c None",
".  c #390202",
"X  c #3F1706",
"o  c #0C0010",
"O  c #490301",
"+  c #560101",
"@  c #5A1901",
"#  c #4F1009",
"$  c #681800",
"%  c #670100",
"&  c #582602",
"*  c #5B3517",
"=  c #542C0F",
"-  c #672A00",
";  c #633302",
":  c #6A3805",
">  c #763904",
",  c #643B13",
"<  c #663A15",
"1  c #753C15",
"2  c #6D2B0D",
"3  c #4D3126",
"4  c #673B27",
"5  c #773831",
"6  c #774707",
"7  c #7B5306",
"8  c #6C4213",
"9  c #6B451B",
"0  c #734A1B",
"q  c #774916",
"w  c #7D521B",
"e  c #7A5317",
"r  c #6C4106",
"t  c #6B4723",
"y  c #744B25",
"u  c #795528",
"i  c #795835",
"p  c #6D4C35",
"a  c #644D30",
"s  c #735446",
"d  c #7C634F",
"f  c #543E4A",
"g  c #8A3503",
"h  c #891B00",
"j  c #864A02",
"k  c #875504",
"l  c #975B07",
"z  c #844C16",
"x  c #84541C",
"c  c #845A1C",
"v  c #875816",
"b  c #955819",
"n  c #964908",
"m  c #AB5605",
"M  c #8A631D",
"N  c #97631A",
"B  c #996909",
"V  c #A66919",
"C  c #B26E0E",
"Z  c #824C27",
"A  c #845B24",
"S  c #835D2C",
"D  c #865925",
"F  c #835D36",
"G  c #975C29",
"H  c #8C632B",
"J  c #8B6528",
"K  c #946324",
"L  c #9B6B24",
"P  c #92662B",
"I  c #99692A",
"U  c #896636",
"Y  c #946B32",
"T  c #966B36",
"R  c #9B7334",
"E  c #98753A",
"W  c #98752C",
"Q  c #A46C27",
"!  c #A6752A",
"~  c #B2792A",
"^  c #A37534",
"/  c #A77A38",
"(  c #B57C34",
")  c #AE6E2B",
"_  c #A35724",
"`  c #C6781B",
"'  c #CD7301",
"]  c #C87A2A",
"[  c #896A46",
"{  c #946D44",
"}  c #987747",
"|  c #987B56",
" . c #8A7351",
".. c #A47B43",
"X. c #A67C49",
"o. c #AC7C54",
"O. c #91786A",
"+. c #9B6E59",
"@. c #6CAA4E",
"#. c #67A848",
"$. c #6EAC51",
"%. c #72AD55",
"&. c #74AF58",
"*. c #76B15B",
"=. c #78B25D",
"-. c #7CB562",
";. c #61A33F",
":. c #B4860E",
">. c #A9833A",
",. c #B88639",
"<. c #B78C2F",
"1. c #9E833F",
"2. c #CC8B12",
"3. c #C78629",
"4. c #C78B3A",
"5. c #D0902F",
"6. c #E89A31",
"7. c #F3B232",
"8. c #D49E27",
"9. c #998757",
"0. c #918155",
"q. c #A98547",
"w. c #B58A47",
"e. c #BA9449",
"r. c #A78956",
"t. c #B28D55",
"y. c #AB9458",
"u. c #B89659",
"i. c #AB904E",
"p. c #BAA359",
"a. c #988A64",
"s. c #978E6A",
"d. c #A68965",
"f. c #A89769",
"g. c #B69866",
"h. c #A99776",
"j. c #B89B74",
"k. c #AA8D6C",
"l. c #84BA6B",
"z. c #82B868",
"x. c #8CBE73",
"c. c #9EA377",
"v. c #B8A46B",
"b. c #A9A676",
"n. c #B9A677",
"m. c #B9B479",
"M. c #AEA56B",
"N. c #C48D45",
"B. c #C79546",
"V. c #D69A48",
"C. c #C59A56",
"Z. c #D69D56",
"A. c #D7A44B",
"S. c #C9A558",
"D. c #D6A654",
"F. c #D2B154",
"G. c #E6A84A",
"H. c #E7B659",
"J. c #F7B959",
"K. c #EEAF51",
"L. c #C69D6A",
"P. c #C8A766",
"I. c #D9B86A",
"U. c #C5A978",
"Y. c #C3B678",
"T. c #D8BA79",
"R. c #D2AE6B",
"E. c #E9B664",
"W. c #EFB96B",
"Q. c #8EC075",
"!. c #93C37B",
"~. c #90C176",
"^. c #F9C45A",
"/. c #F3C256",
"(. c #D8C477",
"). c #CDC475",
"_. c #EBC468",
"`. c #F7C969",
"'. c #FBD56A",
"]. c #E7C677",
"[. c #F5CB75",
"{. c #FBD473",
"}. c #FDDB74",
"|. c #FDDB7B",
" X c #F6D57A",
".X c #EDD076",
"XX c #FDE37B",
"oX c #B09A85",
"OX c #B9A789",
"+X c #B9B787",
"@X c #B6AE92",
"#X c #B8B4A9",
"$X c #978B83",
"%X c #C8B886",
"&X c #C7B796",
"*X c #CEB38C",
"=X c #CBBAA8",
"-X c #DAAB8A",
";X c #98C681",
":X c #9ECA87",
">X c #9CC986",
",X c #A2CD8B",
"<X c #A7D58F",
"1X c #A8D58F",
"2X c #AAD593",
"3X c #AAD593",
"4X c #B4DA9D",
"5X c #B7D59B",
"6X c #BDCD95",
"7X c #B9DDA3",
"8X c #B8DBA1",
"9X c #BBE2A3",
"0X c #BEE1A8",
"qX c #B7E29E",
"wX c #CAC689",
"eX c #C7C896",
"rX c #D6C897",
"tX c #C5D69C",
"yX c #DADA94",
"uX c #D5CC87",
"iX c #F8D884",
"pX c #F6DA97",
"aX c #EACC8A",
"sX c #FCE483",
"dX c #FCE988",
"fX c #FDF18D",
"gX c #FCE697",
"hX c #FDF396",
"jX c #C3DCA3",
"kX c #C4DAA7",
"lX c #D7C8B5",
"zX c #D2C9B0",
"xX c #E8D7A7",
"cX c #E7D7B4",
"vX c #C3E4AD",
"bX c #CAE5AC",
"nX c #CDEAAE",
"mX c #C7E4A8",
"MX c #D3EAAC",
"NX c #C6E7B1",
"BX c #CBEAB2",
"VX c #C9E6B2",
"CX c #D3ECB3",
"ZX c #D4F2B4",
"AX c #D4F4B9",
"SX c #CFF3B4",
"DX c #FBE6A7",
"FX c #F8E8B7",
"GX c #FDF5B9",
"HX c #F8F1A7",
"JX c #DFE299",
"KX c #F7F3D0",
"LX c #FEFEEB",
"PX c #D4D9C8",
/* pixels */
"LX&X7 . P ~ ~ ! 4.~ ) 5.G.H.U #XPXL.F # ! 8.C 6 v v 1 { xXR.C Z.J.V.] 3.j u k t.wX..K N I q ) I j o.KXDXXX}.'.K.pXhXfXfXfXfXfXfX",
"aXR.} , w w z b L j P.T.P.<.=X&XR.W.=Xq j.DXI.R.u.T $ / W.K.] 4.V.4.5.G.R.p.^ L } S 6 j z j D.u.i._.DXiX}.{.iXgXiX XXXgXdXdXdXfX",
"5.P.0.; 9 . w ( ,.N u.f.9.3.=X=Xh.g.cXoXoX*XP.E.D./ g P F.W.H.D.Z.D.W.iXxXg.Q z @ : h.d.F X.D.u.P.}.XXXX[.{.iXiX'.iXgXiX|.{.XXsX",
"g.g.[ O * = / D.G.>.j ; } T.X.#X#Xf @XlXoXo , A.I.C.V 3 %XgX XD.E.[.dXgXcXo.I E F $ =X@XT g.OXu.F.|.dXsX X{.[.G.`.gXFX X'.{.}.|.",
"u.J ; 8 . E C.A.,.P k R U.zXs  .%XR.+ =X#Xd T B.lXzXo.+ oXFXpXC B.H..XfXGX#Xh.S.v.= i H x O.lX-X7.XXgXGXgXXXdX X[.W.W.E.[.|.sX|.",
"u 9 8 8 r L :.S.&XOXu.t.d. .i q.w.p I g.t.U t > g.zXlXm W.iXdX/.D.N.4.W.GXiXG./ p + r.o./ R.d.B./.XXsX|.|.}.|.{.H.G.W.W.sX`.`.sX",
"& * e v i rXR.! a.a.q.^ T k I / I - c L g.h.4 X.I h.lXaXpXfX'.7.6.5.` N.U.>.V Q ] L.Z.N.` V.> ~ E.XX}.`.J._.{.}.H.Z.W.aX{.`.[.|.",
"M w 6 c r.rXP.6 & j k v W q.I c M L - i k.f.F g.F d n.pXDXfX'.7.6.] ` m % $ @ b V.W.Z.6.2.3._ 4._.XX}.'._.H.{.'.J.H.W.iX[.[.[.{.",
",.Q 9 w 4.! v q v I 7 R p.u.M 7 L ,.q 9 : j E [ E u 7 A./. XXX'.6.4.4.( w.N.G 1 ) ' m ` 7.J.K.^.'.'.}.}.{.{.'.`.`.H.E.W.pXiX{.`.",
". y / >.r q v K K x 6 p.T.,.C L K N 6 8 e N K  .U q 6 I + @XFXXX`.`.'.{.DXzX+.h _ ` 6.G.K.^.J.J./.'.}.'.`.`.`.^.J.K.W.[.iXdXXXsX",
"t k j.&X$Xo v / I ^ >.e.P.aXyXP.2.:.J < w >.<.p.} v c k m %XFXKX}.XXdXhXGXgXT.X._ K.K.J.`..X^.^.dXFX'.'.{.`.J.gX[.G.E.iX}.XXsXsX",
"0 7 | oX%X6Xp.Q k e.1.N w.W.aX].].I.c + V B.e.0.U 7 e V H.|.hXHXdX}.}.dXGXHXaXe.m K.K.K.`.}.J.7.DXKXgX`.`.`.[.[.E.K.W.[.A.F._.J.",
"- d y 7 R.dX)...E ,.v { u.V.V.].aXL.> + v.(.<.: , 9 v 2. XfXXX}.fX'./.'.HXHXiXA.V V.H.E..X{.G.2.aXKXFX`./.[. XG.6. XpXP.1 n ~ 5.",
"> v.M.i i $ r.uXwX3 g R.aXt.F.5.~ j r i eXxX:.T P E q.2..XhXXX'.sX{.`.'.|.sX XH.] 5. XgXiXG.4.C A.iX(.D.J.'.J.J.^.gXcXf . O P A.",
"K u p u S n ..U.T.b.F 1 q.R.(.4.` C.C.<.F._.z - v.rXzXFXXX'.`./. X X_.K.'.}.'.J.V.5.pXrXC.3.V.,.,.D.K.5.7.K.A.K.K.N.s 4 @ b ( / ",
"x e r e J l H 9.v.0.i ; e r.w.I N B.H.<.<.F.} I S.n.j.zXsXXX`._.`._.`..XXX X'./.B.L.*Xn.V / ,.B.B.5.V.` ~ C C 6.V.I . H ^ ( ~ V ",
"r : c J W N 6 u Y 6 W ! M j > # e <.V.m o.U.j./ <.C m R.|.}.`.`.[.`.}.dXXX}.}./.5.g.u.R k R L e.D.C.4.( b 5 o.OXo.Z t ^ ( ( / ,.",
"6 p [ >.W ! c = e y.C.N.! Q W i Y ~ <.g d.+Xn.R ~ ( 2.A.[.{..X[.`.{.XXdX.X X|.{.Z.,.>./ R / J q.S.D.^ B.V O.lX#XO.g E I F P ,.A.",
"B %XOXU 9.).m.s.b.tX+Xh.n.uXyXuX%XM.).m.f.c.b.m.m.v.v.wXJXJXJXJXuXyXyXyXyXMXJXJX(.+XwXwXwXwXb.b.%XwX+XY.P.kXAXjXoXk.c.i & 8 Q 4.",
"e.g.q.U 6XZXnXmXNXSXNXbXnXZXnXnXmXnXZXMXSXZXnXSXnXbXnXBXAXAXZXZXZXZXZXZXZXZXZXSXnXMXnXnXnXnXVX0XnXMXBXMXCXBXBXSXvXCXCX+XeXM.L W ",
"C.B.B [ 9XnXqX<X3X3X3X3X3X<X<X3X<X<X<X<X<X<X<X<X2X<X<X3X<X<X<X<X<X<X<X<X1X1X1X1X<X1X<X<X,X3X<X<X<X<X<X3X3X3X3X3X<XNXAXwX%XOXk.h.",
"w.,.X.j.MX4Xl.;.%.$.%.%.%.%.%.&.%.%.%.*.$.%.%.%.%.%.%.%.%.%.*.*.*.%.%.*.&.&.&.&.%.&.&.%.%.*.*.%.%.%.*.%.%.%.$.@.#.,XbX+X>. .$Xh.",
"q.n j.xXbX9X~.#.-.-.&.-.x.,X:X:X:X:X:X:X:X:X:X:X:X:X:X:X:X:X:X,X<X:X:X:X>X>X,X:X>X>X:X,X,X,X,X,X:X:X;X-.*.=.=.*.$.3XbXM.Y 6 0 Y ",
"w M _ g.kX9X!.$.-.-.%.x.2XVX0XNXvXvXvXvXvXvXvXvXVX0XVX0XvXVX0X7X9XNXNXvXvXvXvXvXvXvXvXvXNX0X0X0XvXNX9XQ.*.=.-.=.%.3XBXy.t.C.Y.m.",
"V N j I kX9X!.$.-.-.@.Q.7XVXNX0XNXvXvXNXNXNXNXNXvXNXNXNXVX8X:X;X!.<X7XBXVXNXNXNXVX0XVXVXVXVXVXNXNXNX0X;X*.*.-.*.%.3XnX0.U T }  .",
"! ~ G D 6X9X~.$.-.$.-.<XNXVX0XNXvXvXvXvX0XNX0XNX7XNX0XvX2Xl.$.$.%.*.;X7XNX0XNX7XVX0X0X0X0X0X0XNX0X0XNX4XQ.$.*.*.%.3XnX+Xa O & O ",
"G ( ) u 6X9XQ.$.-.-.,X7XVX7XvXNXvXvXvXvXNX0XNX0X0XVXNX7Xx.@.=.x.;X-.-.,XNX0XNXkXVX0X0XVXNX0X0X0XNX0XNXNX<Xl.*.-.%.3XBXtX[ & t t ",
"( N e H 6X9XQ.$.x.2XvXNXvXvXvX0XvXNXNXvX0XNX0XNXNXVX7X:X*.x.4X7X0X0X,X;X8XNXNX0X0XVX0X0XNXVXVXNX0XNX0XNX0X8X;X-.%.3XnXs.t = y q.",
"x >.>.W tX9Xx.$.,XNXNXNX7XNXNXNXvX9X4X0XNXvXNXkXNXNX7Xl.;X8X7X<X4X2X;Xx.:XNXNX0XVX0XVX0X0X7X0X0XNXNX0XNXNX0X8X-.$.3X0X+X= - w ; ",
"Y E >.y.eX9Xx.%.,XNXNX7X7XNX7XNX4X!.x.;X4XNXNX7XNX0X4X-.<X0X7X;X:X-.$.-.;X0XNX0X0X0XVX8X>X-.;X4X0XNX0X0XNXNX7X-.$.<XNX+X%X| [ OX",
"1.u W 9.6X0Xx.$.,XvXNXNXNXNXVX7X!.#.$.$.;XvXNXNXNXNX2X&.;X4X7X4X2Xx.$.*.;X0XNX0XNXNX0X>X$.@.@.;X7XVXNX0XNX0X8Xl.$.3XNXs.%Xm.j.eX",
"E W M E 7X0Xx.%.,XNXvX0XNX7XVX8Xx.$.-.$.!.7XNX0XNX7X2X-.&.;X4X7X0X0X,X-.x.0XVX0X0X0X7X;X$.-.$.x.8XVXNX0XNX0X8X-.$.3XNXs.4 T.iX! ",
"u E u.+XkX0Xx.%.,XNX0XNX0XNXVX7X;X#.$.$.:X0XVX0XNXNX8X-.$.@.-.!.4X0X7X2X;X7XVX0X0XNX0X>X$.@.#.;X9XNX0X0XVX0X7X-.*.2XZX%Xq.) ^ b ",
"M H E a.kX9Xx.%.3XNXNX0XNX0XNXkX4X;Xx.>X7XVX0XNX0X0X8X-.-.-.-.l.,X7X0X4X;X0XVX0XvXNXNX8X;Xx.;X8X0XNX0XNX0XVX7X-.$.2XCXtXX.j m C ",
"M M 0 { jX9Xx.$.;X7XNX0X0XNXvXNX0X7X8X0XNX0XNX0XNXNX0X;X;X,X3X,X4X0X4X,X4X0XNX0XvX0XvXvX0X8X9XNXNXNXNX0XVX0X2X-.%.2XVXtXC.) C ] ",
"c J D | kX9XQ.$.x.:X8XNXNX0XNX0X0XNXVXVX0XNX0XNX0XNX0X2X:X4X7X8X0X2X!.Q.0XNXNX0XvXvXvXNXNXVXNX0X0X0XNXNX7X2Xx.*.%.2XNX$XU.V.' ] ",
"P R H  .jX7X!.$.-.@.!.8XNXvXvXvX0XNX0X0X0XNX0XNX0XNXNX7X>X=.-.Q.;X$.-.4XVX0XVX0XvXvXvX0XvXvXvXvXNX7X0X0X:X*.%.*.%.3XBX .s.L.5.2.",
"8 u : s.VX9XQ.$.-.&.%.>XvXNXvXvXVX0X0XVXNX0XNX0XNX0XNXNX7X:X-.%.*.x.4X0X0X0X0XNXvXvXvXvX0X0XvXvX0XNXNX<X-.%.-.*.*.3XBX0.a T 3.] ",
"; 0 :  .NX7XQ.$.-.-.@.Q.7XBXBXnXVXVXVXVXNXNXNXNXNXNXNXNXBX0X8X2X2X7X0XVX0XVXVXVXNXNXNXNXNXNXBXNXVXVXNX;X=.=.-.*.%.3XnXa., 6 K Q ",
"0 e q E jX9X!.$.-.-.*.-.,X9X8X4X9X7X7X7X8X7X7X8X7X8X7X7X7X0X9X9X0X0X0X7X0X7X7X7X7X7X7X7X7X7X8X8X7X7X4Xl.*.-.-.*.$.3XbXs.9 , z K ",
"u u J q.tX9XQ.@.-.=.*.=.l.~.Q.Q.Q.Q.x.x.x.x.x.!.Q.Q.Q.x.x.x.Q.~.;Xx.x.x.Q.Q.Q.Q.x.x.Q.x.Q.Q.Q.Q.Q.Q.x.-.*.=.=.%.%.3XnXa., e J I ",
", 8 c 1.5X4Xx.#.*.%.*.%.%.@.$.@.$.$.@.@.$.$.$.@.@.@.@.@.@.@.@.@.#.@.$.$.@.@.@.@.@.@.$.$.@.@.@.@.@.@.@.%.&.&.*.%.@.<X0Xa.9 u Y P ",
"1 0 i.I.mXSXmXqXqX9X9X9X9XqXqX9XqX9X9X9X9X9X9X9X9X9X9XqX9X9XqX9X9X9X7X9X9X9X9X9X9X9X9XqX9XqX9XqXqX9X9X9XqX9X9X9X4XAXAXf.= J <.1.",
"> Q e.p.6XnXnXtXtXmXmX7XmXmXmXtX7XNXNX7XjXbXvXmXvXmX5XtXjXjXjXtXjXkX7X8XjX5XmXjXtXmXmXmXjXjXtXmXjXjX7XmXjXjXBXbX8X7XjXf.# B <.<.",
"8 ! >.U f.m.).m.M.+Xb.f.p.p.m.M.M.+XMX+Xa. .a.yX&XOXc.s.f.f.f.f.m.OXb.f.b.f.a.9.r.y.yXrXM.s.s.s.9.0.s.M.t.%XMXeX+Xb.M.i.t r.u.W ",
"R ; i y.y.B.4.W i uXn.T j v ! L / U.KX=Xd : 4.~ V u.I.Q q @ S g.(.0.; U y./ y t Z g =XrXt.: ; < * < [ / w.( m D.T.P.! ~ T #X&XO ",
"v i.r.u 7 >.<.>.u.g.n.v.r.u 8 L ^ E C.C.4.,.S.l %X%X} 7 e w < i U.q.9 a.rXX.O O.lXj.w.aXxX{ + O t i y 7 P.W.3.J U E ! ,.>.p.f.u ",
": T H p h.q./ >.E / | } / B . ^ ,.L ! B.H.H.S.! 0.d , ; Y U y ; } u 9 [ k.* r.&X#XX.B rXGX(.m.s O F t.R / u.N.w.u # u ,.,.N [ v.",
"U 0 ; i +Xy.T K Y E 6 r } j.3 U w.T R Z.].].( ..k @ t u H U u < D q r c ^ x g.n.[ N E %XDX_.aXg.t H C.T ..u.t.t.F 9 J Q Q l E j.",
"p.E e Y r.q.A H q.E 6 y h.zXs S X.Y G C.].(.l R / T i T 0 r q 9 ^ x S q.p.w.w O - w.y.v.p.C H.P.q.l Q 7 n.aXw.O i q.R j z >.3.B ",
"r.} [ J J A 0 q w J l S $XlX{ j U A > U.aXT.V u q./ * < w w 8 q ^ j d.&Xs * & & 1 w.t.E 6 v e.>.D q T M u.g.Z z <.>.- 8 u L ~ B ",
"g.0.i J H i.J r R / r t @XKXn.8 - S c I uXpXk.Z D M 7 # H Y u 6 4.( C.P.< $ O w ,...E P v Y >.E K K D Y Q K > j B z + : V ~ N z ",
"v.g.[ 6 J w.E P / W u U j.xXn.| [ w D k r.U.r.6 q r.k.. u D y v ( ,.4.] z 1 O 1 T z u T E y u S / w.K > h.oX5 j.S.5.:.,.C.T 1 Q ",
"m.j.} r e W >.>.>.J U } 0.w.t.k.r.D } ..T H B J u d.%X{ S q 9 D I ) _ m Z y D x > u * i U @ & 0 E e.q.j j.&Xp Y.pXpXpXxXT.[ - _ ",
"%X} r A k q.i.w.,.,.w : K >.^ A D X.j.X.t.k.k ( H y r.-X} : e ^ I g m b 0 9 ,.,.L y.i # * < 8 v L / S.e./ m r - PXLXLXLX&XY > * ",
"b 0 w D 7 C.R.C.>.e ^ / / ! u.T Y t.U ..{ D e F >  .@XOXs - _ ] _ g g 1 u u J ~ ` E q.E ; , & * x ! Z.H.D.W + s cXKXpXj.{ q & = ",
"%Xr.J S c w.u.r.<.K 4.( P K L P ^ w.x A q.e.R y % +.=X#Xs % _ ] ` ) F 1 w U } ../ R P.r.9 [ d t i X.4.N.>.J A 4 %XaXF.6 j K H q ",
"%Xy.Y U Y / w.w.t.r.w.Q e z q.} P L D c ,.B./ y + +.oXOXs g g C ( X.T q q ..X.U S R q.r.y.y.i < } P.P x z v J 9 <.].*Xd 0 b J q ",
"- Q E U P / C.P.r.d./ P x z U.d.u : D I ^ ^ F S [ O.oXo.G j z V X.T Z x x } F F } H Z u.R.0.3 * i.P.> : c J : i <.uXlXO.t & = * ",
"0 ! ( Q j j.&Xj.> @ } t...j S t.r.$ q H E R x F *XFXlX2 @ 3 0 ( ( T D H T y z k.*X< OXU.T $ 6 q 1 = 8 & U >.e & N L w = * * * 8 ",
"e N.V.q.{ g.k.[ + & 0 S U E E U t p v.>.G [ F [ { t.k.% Y R H U q.q [ u.F 8 & [ d.9 [ @X&X+ q 9 : ; , # T q.0 w M v     = * t e ",
"U B.Z.w.{ g.k.[ u U i q J ..U x U | g.! L | | | oXk...Z P E } } U U } } < w - y r.a O s.*X[ 4 < 9 8 8 , 7 v u } ! N     a t r 7 ",
"[ q.,.( U k.O. . .y.U y u E q c { | Q Q Q { | d.@X*XX.w.^ W { } , P r.r.y x F } r.y O i | o.* ; t 9 8 ; d s.i E e./ O   [ [ [ } ",
"S b v U { ^ > 4 a.f.U : i [ 8 , = - Y T P x 1 o.k.{ j V.C.Y ; , 0 + | *XX.6 | g.X., ; < q G , * , < t . @XzXs 6 p.i.@ { } f.b.h."
};
