/* XPM */
static char *result[] = {
/* columns rows colors chars-per-pixel */
"64 64 219 2 ",
"   c #7A474C",
".  c #8A2402",
"X  c #852B03",
"o  c #8D2A03",
"O  c #932701",
"+  c #922D02",
"@  c #9B2A03",
"#  c #8C3201",
"$  c #953401",
"%  c #983902",
"&  c #92330A",
"*  c #8D3719",
"=  c #93381A",
"-  c #A22C04",
";  c #A03904",
":  c #AF360D",
">  c #A13D1A",
",  c #8A3F29",
"<  c #924007",
"1  c #9B4106",
"2  c #9A4D07",
"3  c #8C4217",
"4  c #96471C",
"5  c #994B1D",
"6  c #A44907",
"7  c #A54009",
"8  c #AE4508",
"9  c #B04E0A",
"0  c #BA4E0A",
"q  c #A1500D",
"w  c #AF550E",
"e  c #A5590E",
"r  c #BB5C0B",
"t  c #A0481B",
"y  c #AD5D12",
"u  c #AE690F",
"i  c #B56C10",
"p  c #B76718",
"a  c #B77613",
"s  c #994A26",
"d  c #995523",
"f  c #935238",
"g  c #AB4927",
"h  c #A2592A",
"j  c #A85834",
"k  c #9E6230",
"l  c #A56225",
"z  c #BC6D27",
"x  c #B97927",
"c  c #A46937",
"v  c #AD7835",
"b  c #C04717",
"n  c #C45E15",
"m  c #CA6813",
"M  c #C77616",
"N  c #DC7414",
"B  c #CD5925",
"V  c #D8682E",
"C  c #D47D2F",
"Z  c #925846",
"A  c #9B694C",
"S  c #9C785D",
"D  c #AC754C",
"F  c #B27947",
"G  c #845F61",
"H  c #9D7C63",
"J  c #987968",
"K  c #9C7D6C",
"L  c #8E7974",
"P  c #967B74",
"I  c #A67A63",
"U  c #A37F71",
"Y  c #E57F41",
"T  c #BF8717",
"R  c #CD8A17",
"E  c #C98218",
"W  c #D98017",
"Q  c #CD951C",
"!  c #DC9D16",
"~  c #EB9B0A",
"^  c #F39C02",
"/  c #FB9B04",
"(  c #E5811A",
")  c #E09019",
"_  c #E69E1D",
"`  c #F69515",
"'  c #FF9B10",
"]  c #F1961C",
"[  c #DFA71B",
"{  c #EBA807",
"}  c #F4A703",
"|  c #FCA204",
" . c #FCA806",
".. c #FFA40D",
"X. c #FCB305",
"o. c #F9BC05",
"O. c #F7B808",
"+. c #EDAF1F",
"@. c #F7A515",
"#. c #FEA815",
"$. c #FEA118",
"%. c #FEAF1A",
"&. c #EDB91C",
"*. c #FAB51F",
"=. c #FEB918",
"-. c #C98525",
";. c #D58F29",
":. c #D5992B",
">. c #C58B31",
",. c #E78A27",
"<. c #F69327",
"1. c #E99930",
"2. c #DFAB29",
"3. c #EDA52E",
"4. c #FAA523",
"5. c #E4B327",
"6. c #FCBF22",
"7. c #FFB628",
"8. c #F5A93F",
"9. c #EEB737",
"0. c #FBBA3F",
"q. c #E7C50E",
"w. c #FAC404",
"e. c #FACC04",
"r. c #F4C50B",
"t. c #FEC408",
"y. c #FCD20A",
"u. c #FCD909",
"i. c #FBC714",
"p. c #FFCA1E",
"a. c #FFD317",
"s. c #F9DB16",
"d. c #FFDC1E",
"f. c #FAE803",
"g. c #FEED08",
"h. c #FBF003",
"j. c #FBF608",
"k. c #FFE519",
"l. c #FFF916",
"z. c #FFF11A",
"x. c #EEC229",
"c. c #EDCB28",
"v. c #FBC12D",
"b. c #F4CB28",
"n. c #FDDD27",
"m. c #FDD42C",
"M. c #F3CA37",
"N. c #FDC933",
"B. c #FECC3D",
"V. c #F5D431",
"C. c #FADD35",
"Z. c #FCD53D",
"A. c #FFE524",
"S. c #FFEC22",
"D. c #FDE82F",
"F. c #FFF02B",
"G. c #FDF532",
"H. c #FDF83C",
"J. c #B98944",
"K. c #9F8166",
"L. c #9D826E",
"P. c #8F827A",
"I. c #9D8473",
"U. c #94877F",
"Y. c #9C867A",
"T. c #968A7E",
"R. c #998C7E",
"E. c #A4846A",
"W. c #A28574",
"Q. c #A38A73",
"!. c #A79178",
"~. c #E49F42",
"^. c #EF944C",
"/. c #D6A949",
"(. c #E8B146",
"). c #F9A959",
"_. c #EBBD57",
"`. c #D4A96B",
"'. c #FFB463",
"]. c #E5C245",
"[. c #F2CE4B",
"{. c #FCD745",
"}. c #FDDB4A",
"|. c #FCCA51",
" X c #FDD651",
".X c #FED15F",
"XX c #FBE34E",
"oX c #FEEC48",
"OX c #FCF040",
"+X c #FEF64C",
"@X c #FCE557",
"#X c #FEEB52",
"$X c #FEE95D",
"%X c #FDFB54",
"&X c #FEF15E",
"*X c #EFCF63",
"=X c #FEDC61",
"-X c #FCE970",
";X c #FFF674",
":X c #4672C2",
">X c #968780",
",X c #968981",
"<X c #9A8D85",
"1X c #9C8F88",
"2X c #9D9085",
"3X c #9E9189",
"4X c #8C8990",
"5X c #A09487",
"6X c #A1948C",
"7X c #CDA082",
"8X c #DFC09B",
"9X c #F1DA86",
"0X c #FFF98E",
"qX c #FBEB95",
"wX c #EAD3B5",
"eX c #FBF2B6",
"rX c #FFFDC8",
"tX c #FFFED8",
"yX c #FFFFE4",
/* pixels */
"U.U.U.,X,X,X<XU.,X,X<X,X3X,X,X<X<X<X3X3X3X3X3X3X1X6X3X3X3X1X1X3X6X1X3X3X1X<X3X<X,X2X,X,X<X2X3X3X3X3X3X6X1X3X<X3X<X3X6X1X1X3X1X<X",
",X,XU.,X,X,X1X,X,X,X1X,X3X1X,X<X<X<X3X3X1X3X1X3X<X6X3X3X3X1X3X5X5X1X3X1X3X<X3X<XR.<X<X,X,X3X<X3X3X3X6X6X3X<X3X<X1X3X6X<X<X<X2X1X",
",XU.,XU.,X,X,X,X,X,X,X,X3X<X1X,X<X<X3X6X3X3X1X3X3X6X3X<X1X5X1X6X3X1X3X3X1X3X5X<X2X,X,X,X<X3X3X3X3X3X3X6X1X<X1X1X1X2X6X1X<X1X3X3X",
">X,X,XU.,X,X3X,X,X,X,X,X1X1X<X,X>X<X3X3X3X3X3X3X3X6X3X3X3X1X1X5X6X1X1X3X3X3X3X<X,X<X,X,X<X3X<X3X3X3X6X6X3X<X<X3X<X1X3X<X<X1X1X3X",
"U.,X,X>XU.,X3X,X,X,X,X,X<X<X,X<X>X<X3X3X1X6X1X1X3X3X6X1X6X1X2X5X5X5X6X5X3X1X5X<X<X,X,X,X<X3X1X3X3X3X6X6X3X3X3X3X1X1X6X3X2X<X3X3X",
">XU.P.U.U.,X,X,X,X,X,X,X3X,X,X,X<X>X1X3X1X1X1X1XU U U U K K K L.W.Q.W.Q.W.E.W.J K R.,X,X,X3X,X3X<X3X3X6X<X<X3X6X<X1X6X3X1X<X<X<X",
"2X2X3X3X3X3X6X3X3X3X3X3X3X3X3X,X1X1X3X6X3XU U I j > s > > s 4 h h t z x l d d d c I I.3X6X3X,X1X1X3X1X6X6X6X6X6X6X6X6X3X3X6X6X3X",
"2X<X1X1X<X3X3X3X3X3X3X3X3X<X,X,X<X>X<X1XI j g > - : b : & + @ 6 p R Q ;.W M w % O d j H 3X1X,X,X,X<X,X3X6X6X6X6X6X6X5X1X3X3X3X1X",
"2X2X1X<X1X3X3X3X3X3X3X<X3X,X,X,X<X>X<XI h O : g V V b @ + y :.b.A.n.d.n.d.d.a.&.-.8 @ h E.2X,X,X,X,X<X3X6X6X6X6X6X6X6X1X1X3X3X3X",
"2X<X3X<X<X3X6X3X3X3X3X1X3X<X,X>X>X>XH h - B Y ^.V : O 6 _ m.d.u.w.o.O.O.o.r.r.a.d.b.E % d H ,X,X,X,X>X3X6X1X1X6X6X6X6X6X1X3X3X3X",
"2X2X1X1X3X3X6X3X3X3X3X1X3X<X,X,XU.S j 7 ^.'.'.Y - O a b.s.e.O.} ^ / / / ^ ^ | } r.u.k.&.6 k H ,X>X,X>X1X6X1X1X6X6X6X6X6X3X2X3X3X",
"3X3X3X3X3X6X3X3X3X3X3X3X3X3X,X,XS h 8 ).'.'.^.. + -.n.u.o.| / / ' ' ' ` ' / / / | } r.V.x.e k H U.U.>X1X6X6X3X6X6X6X6X6X1X1X1X3X",
"3X3X3X1X3X3X6X3X3X3X6X3X6X3X3XE.g 8 ^.).).^.7 o E n.y.} ^ / / ' N 0 8 8 0 N ' / / / ^ O.d.b.q k H <X,X6X6X1X1X1X5X5X6X3X3X1X2X3X",
",X<X,X,X,X<X6X3X3X3X3X3X6X3XE.j - C 1.,.^.8 . a n.e.} } / / / ' 0 % l p 1 ; ` / / / / ^ o.s.c.1 k H 3X6X<X<X<X<X<X1X1XU.,X,X<X,X",
"<X<X<X,X,X<X3X3X3X6X3X3X3XQ.F & -.(.3.8.V o y m.u.{ / / / / ' $.8 y OXH.>.% ` | / / / / ^ O.A.[ @ c I.6X<X<X<X<X<X<X<X,XU.T.T.<X",
"<X,X<X<X,X3X3X3X3X3X3X3X3XE.s z .X|..X).% % [ k.o.{ $...$.$.] ( % e S.l.E $ ,.4.#. .|  .| | r.A.M 5 H 6X<X<X,X<X,X<X1X,X,X<XR.<X",
"1X<X<X,X<X<X3X3X3X3X3X5XQ.d : _.=X X=Xz . E A.r.@.#.4.( m 6 # & # a z.l.Q X $ 9 N 4.#.}  .@.} y.b.6 h E.2X2X<X<X<X3X<XT.,X,X<XR.",
"3X3X1X<X,X<X6X6X3X3X6XY.F o C =X[. X(.& 2 b.a.} @.4.w o & u Q 5.b.s.j.j.f.5.T 2 X 9 ] 7.@.#.@.o.k.Q O k L.2X,X<X,X2X2X,XT.R.<X<X",
"1X<X<X<X<X<X3X1X3X3X3XL.h % 1.9.5.9.r o R A.r.@.7.) # -.V.F.l.l.j.j.j.j.j.l.l.n.Q < % ,.7.%.%.o.y.N.6 h I.2X<X,X<X<X2X,XR.<XT.,X",
"1X1X3X<X<X3X6X1X3X3X3XE.5 z B.5.[.9.; 1 b.s.O.%.7.1.# 2.l.h.h.h.j.h.g.h.h.g.h.j.l.c.2 % 3.*.%.*.r.A.R 4 E.3X3X3X3X3X3X3X3X3X3X3X",
",X,X,X,X>X,X3X<X<X3XI.c o _.$XXX-X/.X a A.r.=.=.i.8.$ Q l.h.h.h.h.g.h.h.h.g.g.h.h.l.x.% w (.=.6.=.s.c.% v K 3X,X,X<X3X3X3X3X3X3X",
",X1X,X,X>X,X3X,X,X2XL.l e -X%X&X;Xp X 2.A.=.v.v.v.8.% E z.f.h.z.z.z.h.h.j.h.h.h.g.f.S.Q X 1.v.v.v.t.A.u 4 J <X,XU.<X3X3X3X3X3X3X",
",X,X,X,X,X<X3X,X2X,XS 4 -.&XoX%X.X< 1 b.k.v.v.v.v.0.< a F.k.b.2.T Q k.g.q.c.S.f.f.f.h.c.# m B.v.v.i.S.Q 4 S T.,XP.,X3X1X3X3X3X3X",
",X,X,X,X,X<X3X3X2XI.c X :.V.c.V.2.o i A.s.v.N.N.N.(.2 p 9.u < # X e n.k.T X 5.g.f.f.g.n.w w B.N.N.b.k.c.% k L.T.P.,X3X2X3X3X1X2X",
",X>X>X>X,X,X3X,X3XL.l % 9.V.c.Z.-.. Q D.s.N.{.B.v.B.p X $ < z ~.q e n.A.E X u k.f.f.f.A.i 1 |.B.N.M.d.n.q l L.P.P.,X3X3X3X3X<X<X",
"3X3X3X,X3X3X3X3X3XI.d e $X+X%X&Xz X 5.D.V.B.B.B.{.B.(.i -.0.|.|.e e d.k.E . y s.f.f.y.k.a < |.B.B.B.m.S.i d L.,X<X<X3X3X3X3X2X1X",
"3X6X3X3X6X6X3X3X2XI.s x ;X%X%X&Xe # c.D.V.{.Z.Z.{.{.{.}.}. X X*Xe e a.d.x X _ s.s.u.u.A.i 1 |.Z.{.{.V.F.R 3 H 3X1X3X<X,X,X,X,X,X",
"3X3X3X6X3X6X6X3X2XQ.l >.%X+X%X@X1 2 C.A.Z. X{.{. X X{.{. X|.~.p X e a.u.[ +.a.u.u.u.u.m.e q  X{.{.}.C.F.! X v I.3X1X2X,X2XT.T.T.",
"6X3X3X3X3X3X6X6X3X!.J.-.C.c.V.9.$ e D.D.}.}.}.}.}. X X.X:.q o 6 M [ y.y.u.e.e.y.e.y.y.&.# x =X}.}.}.C.F.&.# s L.2X3X<XT.T.T.T.T.",
"3X3X3X3X3X3X6X3X3X!.J.:.m.c.V.5.o u F.D.XXXXXXXX@X@X.Xz X q ;.6.p.y.e.e.e.e.e.e.e.e.p.M # (.$XXXXXXXXXF.c.# 5 L.2X2X<XT.T.2XT.T.",
"3X3X3X3X3X6X6X3X3X!.J._.+XH.+X].X u F.D.@X@X@X@X@X=Xl . p 4.=.r.w.w.t.w.t.t.w.t.w.e.3.# l =X@X@X@X@XXXG.c.% 4 L.1X3X2XT.R.R.T.T.",
"3X3X3X3X3X3X6X3X3X!.>.].%X+X%X].o i G.OX$X$X$X@X-XC X m $./ ^ | | { O.o.t.t.w.t.p.3.7 % _.$X$X$X$X$X#XH.M.% 5 L.1X3X2XT.,X,X,X,X",
"<X<X2X2X2X3X6X3X3X!.>.(.%XH.%X].X i G.OX&X$X#XXX(.o 0 $./ / / / | ^ / }  .=.v.=.R $ % _ 6.x.{.@X&X%X$XH.M.% d K 3X6X3X3X3X1X1X3X",
"T.T.T.R.,X2X6X3X3X!.>.2.A.b.A.5.o i G.OX&XZ.&.7.i O ,.' / / / / | |  .| ` W n 1 # w ] =.X.} O.&.V.#X&XH.x.$ 5 K 3X3X3X<X1X,X1X,X",
"R.T.T.T.,X2X3X3X3X!.v R s.q.q.&.% w H.C.&.{ | @.8 8 ` / / / | ..' ( | #.m o % y ) 7.o.X.X.X. .} { [ M.H.5.X 5 H 3X3X3X<X<X<X,X1X",
"<XT.R.,XT.<X3X3X1X!.c -.G.D.F.Z.% 6 oXq.~ } | ] ; n #.| | |  .] 8 8 $.%.n % 3.6.i.o.X.X.X.X. .| X.{ ! D.2.X J.P.3X3X<X<X<X,X1X,X",
"T.T.T.T.R.<X3X3X1XI.l x %XG.H.oXq % {.i./ /  .] $ m | |  . .#.r O 0 #.=.i % *.t.o.o.o.=. .X. . .| / { H.;.3 K.<X1X3X3X<X1X,X1X<X",
"T.T.T.T.,X,X3X3X3XY.d u +XG.G.+Xu X ].C.^ /  .] - m X. . .X.4.8 O 9 %.=.m $ 4.i.=.4.W M ] X. .| / ^ { +Xx d L.<X<X3X3X<X<X,X,X,X",
"<X<X2X<X<X3X3X3X3XQ.l 2 M.u.s.A.M X /.oX{ / | ] ; n %. .X. .%.r . 9 %.=.m ; ,.W r % + o r #. .| | ^ &.$Xe d L.1X1X3X6X3X3X3X3X1X",
"<X2X<X<X<X2X3X2X3XP.v # [ q.q.r.) . x &X5./ | ' 8 w %.X.X.o.X.@.6 9 =.=.p . $ # 1 r ,.w 7 #.| | | } V.*X& d L.,X<X1X5X2X,X<X2X,X",
"<X<X<X<X<X1X<X,X1X<XE.4 -.A.s.n.x.% q $Xx.^ / #.n $ ] X.X.o.X.=.%.~ o.i.) M ;._ 7.=.N.i 1 4.| | / } %X/.X c I.<X,X<X2X2XR.2XR.R.",
",X<X,X1X,X<X<X,X<X1XL.5 p #XF.G.oXy # *X@X~ / ..( O m =.o.o.o.o.w.t.w.w.t.t.i.t.e.w.p.M % <.../ / 5.;Xx 4 H ,X<X<X<X2X2X2X2X2X2X",
",X,X<X<X<X3X3X,X,X<XY.v % [.F.D.+X:.X >.;X+.^ | $.r + ,.t.t.w.r.w.w.w.w.w.e.e.t.e.e.a.E $ <.| / ~ [.;X< c I.<X<X<X1X<X,X2X2X2X2X",
",X<X<X,X<X<X<X<X,X,X<XI 4 -.Z.b.V.5.+ q -X[.~ / | ` 7 % _ p.t.w.e.w.e.w.e.y.e.e.e.e.a.) o ,. .| [ ;X/.X A I.<X,X<X<X2XR.R.2X2XR.",
"<X3X<X2X<X1X<X,X<X>X<XK 5 6 3.{ { +.w . /.;X5.^ | ..,.% % M 6.d.y.e.e.e.u.e.e.y.u.s.p.M + ( ..~ (.0Xl d H <X,X<X,X3X3X,X2X2X2X2X",
"3X3X6X6X6X6X6X<X1X<X<XI.c O C v.&.9.:.. l qX*X~ | | $.] w o 6 N +.6.i.e.y.p.v.+.! a 7 + 8 ` | [ 0X`.# D R.3X3X1X3X3X3X<X2X2X3X3X",
"3X3X6X6X6X6X<X,X<X<X<XY.E.t y  XZ.Z.|.y X `.0X5.^ | | ..' N 8 & + i i.p.R q 6 $ O $ 8 N ] ' ~ *XqXl 4 K.3X<X<X,X,X2X,X,X,X3X3X,X",
"3X3X3X3X3X6X1X<X<X<X1X2XQ.c + >. XZ. X~.. s qX-X_ / | | / #.' ,.7 6 6.p.i O 0 m W ] ' #./ ` 9.0X`.# c Y.1X<X<X<X<X<X3X2X,X,X3X3X",
"6X6X6X6X6X6X3X,X<X<X<X,X3XE.h % ~.(.0.0.m . F eX.X+./ ^ | ^  .@.w w N.m.M % 4.#.| | / / ^ 5.0X9X< c L.<X3X<X<X<X3X<X<X,X<X<X3X<X",
"6X6X6X6X3X6X3X<X,X,X<X,X3X6XE.j ; ,.) ) ,.; . `.eX*X_ @.| | |  .9 7 M M 9 ; ] | | | | ~ 5.qXeXl 3 K.,X1X3X<X<X<X<X3X3X,X<X1X<X3X",
"6X6X6X6X6X6X<X,X,X,X<X,X6X6X6XE.5 0 <.] 1.-.- * 8XeX*X_ / / / $.N ; O @ - m $.| / / ` (.qXrXF . A P.,X1X3X<X3X<X<X3X<X,X,X<X1X<X",
"3X3X3X6X3X6X3X<X<X<X<X,X6X5X3XQ.j o z '.).'.C O 4 7XrX9X3.` / / ' ` ` ` ` ' / / / ~ _.eXrXD O A I.<X<X3X3X<X3X2X<X3X3X<X3X3X1X1X",
"3X<X,X,X,X<X<X,X,X,X,X,X<X>X>X>XE.F X n ).).).V + = 7XtXeX*X~._ ^ / /  ./ ^ ~ _ (.9XrXrXD X S K R.R.<X2X<X<X<XT.T.,X2X2X2X2XR.2X",
"<X,X,X<X,X,X3X,X,X,X,X,X<X<X>X,X,XI h O : Y ^.).B @ & D rXtXeX9X_.(.(.3.3.(.*XqXrXyX7Xs o f K Y.R.R.T.2X2XR.<X,X,X,X2XR.<X<X2XR.",
"<X,X,X,X,X<X<X,X,X,X,X,X,X,XU.,X<X>XE.j * - 0 V Y B : o s 7XeXyXyXyXrXrXtXtXyXtXwXF = k A I.R.2XR.T.T.2X<X<XT.,X,X,X2XT.2XT.R.2X",
",X,X,X,X,X<X<X,X,X,X,X,X,X,X,X,X>X>X<XW.U j > - : B B : @ . s D 7X7XwXrXwX8X7XZ * o Z P Y.,XR.,XR.T.T.2X<X,X,X,X,X<X2XT.R.2XR.2X",
",X,X<X,X,X,X<X,X,X,X,X,X<X,X,X,X,X,X,X3X3XW.I j g > @ - - @ . . o & O * = . . , A S P ,X1X<X,X,XR.<X<X3X1X,X,X,X,X,X<X,X,X<XR.2X",
",X,X<X<X,X<X1X,X,X<X,X,X1X,X,X,X,X,X3X3X3X3X2XI.U U j = f s A Z Z Z         G L P.T.<X,X1X1X,X,XR.R.<X3X<X<X,X,X,X2X1X<X,X<XR.R.",
"<X<X<X1X<X3X6X3X3X3X3X3X3X<X<X<X,X,X3X3X,X,X2X2X<X6XW.P W.P I P P.L :X:X:XL >X1X,X,X,X,X1X6X6X6X3X3X3X3X,X<X<X<X,X1X3X3X3X3X3X3X",
",X,X,X<X,X<X3X3X3X1X<X1X3X,X,X,X,X,X,X,X,XR.R.,XY.2X3X1X1X<XY.1X1X1XP.4X4X1X1X>XU.U.,XU.,X1X1X3X3X3X1X1X,X,XP.,X,X,X6X3X3X<X3X2X",
",X,X,X<X,X,X3X<X<X<X<X<X3X,X>XU.T.U.,X2XU.R.,X,XT.5X6X1X1X1X<X1X3X<X3X<X1X1X1X>X,XU.,XU.2X6X3X3X3X6X6X3XP.,X,X,X,X<X3X3X2X<X1X1X",
",X<X,X,X,X<X3X<X<X<X<X3X3XU.T.U.U.,X2X,XU.R.R.,XT.5X3X1X<X<X<X3X3X3X3X3X1X1X1X>XU.,X,XU.<X3X3X3X3X3X6X3X,X,XP.,X,X<X3X1X<X2X<X2X",
",X,X,X,X,X3X3X<X3X<X<X<X2XT.R.R.R.,X<X2XU.T.T.T.,X5X3X1X<X3X<X3X6X3X1X3X3X3X1X>X,X,X,XU.,X3X3X3X3X6X6X3XP.U.P.,XU.,X3X1X<X<X<X1X",
",X,X,X,X,X<X3X<X<X<X<X,X3X,XT.U.R.U.,X,XU.T.T.,X>X3X6X3X3X1X<X<X3X3X1X3X3X3X3X>X,XU.U.,X,X3X3X3X3X3X3X3X,X,X,XP.,X,X3X<X<X<X<X<X"
};
