/* XPM */
static char *result[] = {
/* columns rows colors chars-per-pixel */
"64 64 204 2 ",
"   c #753F42",
".  c #7C4240",
"X  c #862704",
"o  c #8D2D01",
"O  c #882A06",
"+  c #9A2602",
"@  c #932900",
"#  c #8B3401",
"$  c #873308",
"%  c #943001",
"&  c #9C3401",
"*  c #943A02",
"=  c #913A15",
"-  c #A63B04",
";  c #964604",
":  c #9E4206",
">  c #9A510A",
",  c #8B421D",
"<  c #984719",
"1  c #97521B",
"2  c #A94407",
"3  c #A24805",
"4  c #B14908",
"5  c #A9510B",
"6  c #A4590D",
"7  c #B7580D",
"8  c #A2551B",
"9  c #BC5F11",
"0  c #A76A0C",
"q  c #B06312",
"w  c #B46D15",
"e  c #BD6918",
"r  c #BE7914",
"t  c #8B4626",
"y  c #944623",
"u  c #91492A",
"i  c #9A5824",
"p  c #975334",
"a  c #A35823",
"s  c #A55D33",
"d  c #9B632E",
"f  c #9B6532",
"g  c #A56627",
"h  c #B3742F",
"j  c #B47A2C",
"k  c #A36A34",
"l  c #AA7339",
"z  c #C56014",
"x  c #C66A16",
"c  c #CF6B15",
"v  c #C97517",
"b  c #D67517",
"n  c #C07829",
"m  c #945D4A",
"M  c #9C7B5D",
"N  c #A26644",
"B  c #A26D4D",
"V  c #AB7B57",
"C  c #9A6E62",
"Z  c #9B7C65",
"A  c #9B7D6A",
"S  c #977E73",
"D  c #BC8318",
"F  c #C88619",
"G  c #D9841E",
"H  c #D09418",
"J  c #EC9C09",
"K  c #F49D02",
"L  c #FC9C03",
"P  c #F4990A",
"I  c #EA881B",
"U  c #E59E1C",
"Y  c #ED9F1E",
"T  c #F09614",
"R  c #FF9C10",
"E  c #F6951E",
"W  c #FB9919",
"Q  c #DBA81F",
"!  c #E7AA0C",
"~  c #F4A404",
"^  c #FCA303",
"/  c #F4AD05",
"(  c #FDA903",
")  c #FDA209",
"_  c #FFAE09",
"`  c #EABB0F",
"'  c #F5B607",
"]  c #FEB306",
"[  c #FCBB04",
"{  c #FFA711",
"}  c #FDA21E",
"|  c #F7AA18",
" . c #FFAB18",
".. c #FAB917",
"X. c #FDB31F",
"o. c #CB8631",
"O. c #D29433",
"+. c #E69421",
"@. c #DDB522",
"#. c #E6A420",
"$. c #FDAC2B",
"%. c #E7B824",
"&. c #F3B626",
"*. c #FDB923",
"=. c #FDBD28",
"-. c #E7A932",
";. c #ECAA3F",
":. c #F2BA36",
">. c #F6C005",
",. c #FCC404",
"<. c #FCCD04",
"1. c #FCC909",
"2. c #FCD203",
"3. c #FED30E",
"4. c #FED909",
"5. c #F7C617",
"6. c #FFC617",
"7. c #FDCF10",
"8. c #F7D912",
"9. c #FDDF14",
"0. c #FFD01D",
"q. c #FFDD1C",
"w. c #FBE106",
"e. c #FBEB04",
"r. c #FEEE0F",
"t. c #FCF203",
"y. c #FFF70F",
"u. c #FEE815",
"i. c #FCF719",
"p. c #EFC020",
"a. c #EDC72B",
"s. c #F4CB23",
"d. c #FEC32D",
"f. c #F3D827",
"g. c #FBDC27",
"h. c #FDC634",
"j. c #F7CA31",
"k. c #FDCD3B",
"l. c #F6D234",
"z. c #FED43E",
"x. c #FBE523",
"c. c #FFEC20",
"v. c #FEF121",
"b. c #FFFA2E",
"n. c #FAE734",
"m. c #AB8049",
"M. c #9D8066",
"N. c #9C826D",
"B. c #9C8473",
"V. c #9E8975",
"C. c #94877F",
"Z. c #9B857B",
"A. c #968A7E",
"S. c #998B7E",
"D. c #A38464",
"F. c #A2876D",
"G. c #A28673",
"H. c #A38A73",
"J. c #BD9B75",
"K. c #C6945C",
"L. c #E6BC45",
"P. c #F0B44E",
"I. c #EABE55",
"U. c #C39378",
"Y. c #D0A46E",
"T. c #FFC442",
"R. c #FFD243",
"E. c #F8D843",
"W. c #FDD749",
"Q. c #FDDD4D",
"!. c #FDDB57",
"~. c #FCE045",
"^. c #FEEC48",
"/. c #FFFD43",
"(. c #FCE353",
"). c #FFEA56",
"_. c #FDE55A",
"`. c #FFF359",
"'. c #EAC568",
"]. c #F9D864",
"[. c #F0D47D",
"{. c #FDED60",
"}. c #FFFC65",
"|. c #948780",
" X c #968981",
".X c #9A8D85",
"XX c #9C8F88",
"oX c #9D9085",
"OX c #9E9189",
"+X c #A09487",
"@X c #A1948C",
"#X c #D6B199",
"$X c #EAD098",
"%X c #F9EC8E",
"&X c #FFFF82",
"*X c #FFFC90",
"=X c #E3C6AC",
"-X c #F7E5A1",
";X c #FFFAA8",
":X c #F3E0BB",
">X c #FDF7BA",
",X c #FFFEC8",
"<X c #FFFEDA",
"1X c #FFFFE5",
/* pixels */
"C.C.C.|.C.XX XC.A. X.X.XXX X.X.X.X.XXX@XOXOXOXXXOX@XXXOXOXOXoXOXOXOXOXOXOX.XOX X X.X X X.XXXXX+XOXOXXX@XXXOX.XXXXXOX@XOXXXOXXX.X",
"|.|.|. X X XXXC. X X.X XOX.X X.X.XXXXXXXXXXXXXOXXX+X+XXXOXOXOXOXOXOXOXoXOX.XOX X X.XXXA. X+XXXXXOX+X@X@XOXXXXXXXXXOXOXXX.X.XXXOX",
" X X XC.|.XXXX|. X X.X|.XX.X.X X.X XXX@XXXOXXXXXXX@XOXXXOXOXOX@XOXOXOXOXOXOXOXoX X.X.X X.XOXXXOXOXXX@X@XXX.XXXXX.XOXOX.X.XXXOXOX",
"C. X|.|.|. X.X|. X X.X XXXXX X.X.X.XXXXXOX+XOXOXXX@X+XOXOXoXOXOX@XOXOXOXOXOXOXoX X.X X X.XXXXXXXOXXX@X@X.X.XXXOX.XOX+X.X.XXXXXOX",
"C. XC.C.C. X.X|. X X X.XXX X XXX.X.XXX@XXX+XOXOXXX@X@XOX@XOXoXoX@X@XOX@XOXOXOX X X.X X X.XOXXXXXOXOX@X@XXXXXOXOX.XOX@XOXOX.XOXOX",
"|.C.C.C.C. X.X|..X X X XXX X X X X.X.XXXOXXXXXOXXX@XH.H.G.H.V.H.H.G.G.G.V.F.H.B. X.X X X.XOX.X.XXXXXOX@XXX.XOX+X.XXX@XOX.X.X.X.X",
"OXOXOXOXOX+X+XXXXXXX+XXX+XXXOX X.X.X+X+XOX+XB.B.G.D.l i 8 h j o.O.o.h a < < h l M G.OXXXOXXX.X.XXXOXXX@X@X@X@X@X@X@X@XOXOX+X@XOX",
"oXOX XOXOXOX@XOXXXXXXXXX+XXX X X.X XXXXXG.Z k a 8 8 5 7 r F H Y Y H H F z 4 & X < l D.G.@X.X X X X.X X+X@X@X@X@X@X@X@X.XOXOXOXOX",
".X.X.XXX.XOX@XXXXX+XXXXX+X.X X|. X X.XM.k , # 3 v Q s.0.g.q.9.9.u.9.q.q.q.0.%.H q & < p V B.|. X X X XOX@X@X@X@X@X@X@XOXXXOXOXOX",
"+XXXXXXXXXOX@XXXXXOXXXXXOX.X XC.|.A M k # 6 Q s.u.q.3.,.>.' ' / / / ' >.,.<.0.u.3.%.r - < s Z .X X X XOX@XOXOXOX@X@X@XOXOXOXOXOX",
".XXXXXXXXXXX@XOX+XXXXXXXOX.X X XZ k 1 5 Q g.q.3.,.' ~ L K L L L L L K K K K / ,.7.9.q.&.x + a D.A  XA.OX@XOXOX@X@X@X@X@XOXOXOXOX",
"OX+XXXOX+X@X@XXXOX@XOXOXOX.X XZ i # G s.q.3.[ ~ K L L L L R R W E R R L L L L K ~ / 1.u.u.Q 2 = k Z C.OX@XOXOXOX@X@X@X@X.X.XOXOX",
"OX+XOXOXXX@X@X+X@X@X+X@X@X@XZ i ; Q x.4.>.~ K L L L L L L I 4 - - - 7 I L L L L L K ~ ' 3.u.a.q O l M.+X@XOXOXOX@X@X@XOXOXOXOXXX",
" X X.X X XXXXXXXXXXXXXOX@XZ d 5 %.u.3.' K P L L L K L L R 7 @ w w w @ c R L L L L L L J ~ 5.9.g.v @ u F..X.X.X.X.X.XXX X X X X X",
".X.X X.X X.X@XXX@XXXXXXXZ d > a.9.7./ ~ R L L L L ~ L R $.7 > E.b.l.* x  .L L ^ L L ) ) K ~ >.q.x.F @ h Z .X.X X X.X.X X XA. X.X",
".X X.X X X.X@XOXXX+X@XD.d 5 %.9.1./ ~ ) ) ) ) )  .W E I b * ; x.y.f.* e E } ) ) R ) ) ) ) ) / >.8.g.r o l G. X.X.X.X.X X X.XS..X",
"XX.X X.X X.X+XOXOXOXF.g * %.u.1./ { ) ( ( { W I x 2 * # ; ; 0 x.y.f.; # & 4 b $. .) ) ) { { { ~ >.9.g.q t M .X XXXOX.XA. X X XoX",
"OXXXXX.X.X.X@XOXOXG.l @ H c.8...|  . .| ' $.q o * 6 F Q a.f.v.t.t.y.f.@.F 6 @ - I $. .|  . . . ./ 5.u.a.; i Z XX.XXX.XA.A.S.S..X",
"XXXXXX.X X.X+XXXXXD.< q R.u.' &.X... .X. .P.& w l.c.i.y.y.y.t.t.t.t.y.i.i.c.@.> $ x $.X...X. . .| ` 8.x.Q $ l G. X.X.XA.A. X X X",
"XXXXXX.XXXOX@XXXB.l * a.x.1...X.X.X.X.X.X.$.* D b.t.t.t.t.t.t.t.e.t.e.t.t.t.y.x.D X x =.X.X.X.$.X.X.5.9.x.q , M +XOX@X+X@X@X+X+X",
" XXX.X X X.X.X.XD.1 r u.4...*.*.*.*.*.*.*.:.2 0 c.t.e.e.e.e.e.t.t.t.e.e.e.e.e.t.v.r X H =.*.*.*.*.*.*.1.r.%.o k N..X@XOXOXOXOXXX",
" X X X X|. XXXB.l # a.r.7.=.=.*.=.=.=.=.&.T.5 6 x.e.e.y.r.c.c.r.t.e.y.t.t.e.r.e.r.l.; 5 =.=.=.=.=.=.=.5.w.x.w g A  XOXOX+XOXXXOX",
" X X X X XXXOXM 1 w x.w.5.d.d.d.d.d.d.d.=.T.q > f.c.g.%.H r D u.t.8.Q f.u.e.e.e.e.u.H o ;.h.d.d.h.d.d.s.8.u.@.g M C.+XXXOXOXXXOX",
" X X X X XXXG.l % Q v.f.j.h.h.h.h.h.h.h.d.T.e 3 P.F ; o * % ; s.r.s.* > a.u.e.e.e.r.%.$ o.k.h.k.j.h.h.j.s.u.g.6 d N.OXXXXXOXOXXX",
" XA.C.C. X XG.8 3 f.u.f.j.k.k.k.k.h.k.k.k.R.O.@ # # 9 O.P.9 : 0.e.s.; X r 9.w.w.w.e.s.; j R.k.k.k.j.k.k.j.u.v.D 1 M @XOXOXOX.X.X",
"XXXXXXXX.X+XH.a w v.u.l.k.z.k.k.k.k.k.k.k.k.T.o.j P.R.R.!.e : s.e.p.- X r 9.w.9.w.w.s.* n W.k.R.k.k.k.k.l.f.v.Q # f V.OXoXOXoXOX",
"@X@X@X+X+X@XH.a H i.x.z.R.R.z.z.R.R.R.R.R.z.R.Q.W.W.W.Q.].q ; s.w.p.* > &.4.4.4.4.w.%.* n Q.R.R.R.z.z.z.z.g.c.a.; d M. X X X|.|.",
"OXOXOX+X+X@XD.1 @.i.n.E.W.W.E.E.W.W.W.W.W.E.E.W.Q.!.P.o.5 # > 5.4.5.H 5.3.2.2.4.2.4.#.o O.!.W.W.W.E.W.Q.E.n.c.x.6 i M.A.oX XA.A.",
"OXOX+XOXOXG.k % s.i.n.Q.Q.Q.Q.Q.Q.~.Q.Q.Q.Q.Q._.P.w # # 7 F #.6.2.<.3.2.2.2.2.2.2.0.v # L.(.Q.Q.Q.Q.Q.!.~.~.x.v.w i M.A.A.A.A.A.",
"@XOXOXOXOXS a & f.i.n.(.(.(.(.(.(.(.(.(.(.(.].o.$ & x &.d.0.3.<.<.<.<.<.<.<.<.1.1.:.; q _.(.Q.(.(.(.(.(.Q.~.x.v.D g N.A.A.oXA.A.",
"OXOXOXXXOXG.a 3 x.i.(._._._._._._._.).{._.].n X 4 I  ._ [ ,.,.,.1.,.,.,.,.,.,.1.=.7 # I.`._.(.(._._._.{.).^.i.i.F j F.A.S..XA.A.",
"OXXXXXXXOXA i 2 u.i.^._.{.{.{.{.{._.^.E.W.o.@ z W L L L K L ( / ,.>.,.,.,.,.6.&.7 @ G W.W.(._.(.{.{.{.{.).).n.y.F j V.A.A.A. X X",
".XoXoXoX XN.1 ; c.v.^._.{.{.).~.l.&...' U % 4 W L L L L L L K L ~ ^ | ..6.| v * @ G ..' ' p.a.l.E.).`.`.`.`.n.b.D h H.OXOXOXOXOX",
"A.A.A.A. XM.i ; f.v.^.`.(.j.../ / / / ..x % I ) L L L ^ K L { L ^ ^ I c 7 * # 7 Y ..[ [ ] ] ' / / ..j.Q.`.}.b.b.r d H. X.X.X.X X",
"A.A.A.A.A.M.t ; a.b.f.%.! ! ~ ^ ( ( ] | 2 4 W L L L ^ ^ { E b K ( T & % 3 e +.*...[ [ ] ] ] _ ( ( ~ ! ! %.j.n.b.w g N..X.X X.X.X",
" XS.S. X XB.m.# :./.` J ~ ^ ( ( ( ( ( | & z ) L ^ L ) { I - - W _ E & x =.6.,.[ [ [ [ ] ] ] ( ( ( ^ ^ ~ ! ! x.^.6 i N.oX.X.X.X X",
"A.A.A.S.A. XF.1 O./.5.J L ^ ^ ^ ( ^ ] T @ c _ ^ ( ) ( } 4 + 2 $.] T & v 6.>.>.,.[ ....] _ _ ( ( ( ^ L ^ L ! n.E.; g B..X.X X.X.X",
"A.A.A.A. X XV.d j `.f.~ L ^ ^ ^ ( ( _ T & c _ ^ ( ( _ Y & & 2 | [ J % v s...*.$.G 9 G ] ( ] ( ^ ( ^ L ^ K ` `.L.$ k B..X.X.X X X",
".XXXoX.X.XOXN.d > (.^.! K ^ ^ ^ ( ( _ P & z ../ ( / ] { 4 @ 2 | [ Y & z I v 7 * o # o E ] ( ( ( ^ ^ ^ L K a.}.F t F.OXOXOX.XOXXX",
".X.XXXoX.X.XB.m.X L.}.p.K L ^ ^ ^ ^ ( { 2 4  ./ ] ] ] ] +.5 : { ,.Y * o # o - e +.G o G ] ' ( ( ^ ^ ^ L ! ^.{.6 , N.OXoXoX.X.X.X",
" XXX.X.X XXX.XN.1 j }.E.J ^ L ^ ^ ) (  .c % +...' [ [ [ ..X.U [ ,.' b G +.Y 6.6.7.Y # b _ / ) ^ ^ ~ L L %.}.I.# m.N.oXoXoXoXS.oX",
" X.X.X.X XXX.XV.1 ; ].}.&.L ^ ^ ^ ^ ^ ] +.& 7 X.] [ [ [ [ ,.,.,.[ 1.6.6.1.1.1.,.<.&.# x  .^ ) ^ ^ L L J ~.}.j < N.oXoXoXS.oXoXS.",
" X X.X.X.XoX.XN.m.O o.&XW.J L L ^ ^ ( (  .c # v *.[ >.>.,.,.,.,.,.,.1.1.<.<.<.<.1.=.; q  .^ / ) L L K a.&X'.* m.V.oXoXS.oXoXoXoX",
" X.X.X X.X.X.X XN.i * [.&Xa.J L ^ ^ ^ ^ ^ } 7 @ v *.6.,.,.,.,.2.<.1.1.1.<.<.<.<.<.h.2 7 } ^ ^ ^ L P ! `.*Xn < D.oXoX.XA.S.S.oXoX",
".XoXoXoX XOXOX X.XM.u j *X{.Y P ~ ~ ^ ) ( ( } 7 O 5 U 6.s.7.7.<.2.2.2.2.2.3.7.0.6.-.: 4 } ^ ^ L L J E.&X'.# f V..XXXOX.XoXoX.XoX",
"OXOX@X@XOX@XOXXX.XV.m.o Y.%X!.U K ^ L L ^ ^ ^ } b * o 5 G #.` 1.<.<.5.5...#.+.e : % & b { ~ L L J L.*X%X> d H.OX.XOXOX XoXOXOXOX",
"OXOX@X@X@XOXXX X.X.XS t = [.*X].J L ^ ^ ^ L ) ( _ E c 2 # @ 5 ..7...5 : & o @ % 4 c I } L L L J :.*X;Xh < M..X X X.X.X X XOXOX.X",
"OXOX@X@XOXOXXX.X.X.XZ.p O 6 -X*XE.J L L L ^ ^ ^ ^ (  .} I 4 : *.<.&.* 2 z b I E  .( ( ^ ^ L J :.%X;XK.O m.A..X.X.X.X.X.X.X.XXX.X",
"@X@X@X@X@X@XOX.X.X.X.XA B X k -X;X].U K L L L ^ ^ ^ ^ )  .9 : d.q.&.& c $.{ / ) ) K L L L J :.%X>XK.$ m.V..X X.X.X.X.X|..XOX.XOX",
"@X@X@X@X@X@XoX X.X X.X XB.B O s -X>X[.-.J ^ ^ L L L L ^ { 9 @ x x e & c ) L L ) L ^ L P #.'.;X>XJ.X t M.OX.XOXoX.XOXOX X.X.XOX.X",
"@X@X@X@X@X@X.X X X|..X XOXG.B X y $X,X%XI.#.J K ^ ^ ) ^ ) I - & - - 4 I ( ^ ^ L L K J -.%X,X,XV $ t M.oXOX.XOXoXoXOX.X X.X.X.X.X",
"OXOX@XOXOXOXOX.X.X.X.X X@X+XS B O * Y.,X,X%XI.#.K L L L L L W E E E W R ^ L K L T P.$X;X,X$Xs X B N..XOXOX.XOXoX.XOXOX.XXXOX.XXX",
"oX.X X X|..X.X X X X X XXX X|.A U.p X s =X,X,X-X'.P.I J J K K L ^ K P P P Y -.I.[.>X<X:XK.$ , B A  XA.oXoX X.XA. X XoXoXoXoXoXS.",
".X X X.X X X.X.X X X X X.X.X|. XS A B , $ V =X<X<X,X-X[.'.P.P.P.P.-.L.I.$X-X>X<X1X:XU.y O B Z N.A. XA.oXoX.XoX X XA.oXS..X XS.oX",
".X X X X X.XXX X.X X X X.X XC.|. X XG.S B t $ s Y.:X<X1X1X1X<X<X<X<X1X1X1X<X,X#XV < p p m M.S.S. XA.A.oX.X.XA. X X XoXS.oX.XoXoX",
" X X.X X X.X.X|. X X XC. X X X X X XXX@XH.A B N t = s V U.#X=X=X=X=X#X#XU.m = X s m G.S V..X X.X.XA.A.oX.X X X X X X.XA.S.S.S.oX",
" X X.X X X X.X X X X X X.X.X X X X X XOX@XOXG.V.S B N u N t u O $ O X X p p C C B.|..X|.OX.X XS.A.oX.XOX.X X X X X X.X X XA.oXA.",
" X.X X.X X.X.X X.X X X XXX X X X X|..XOXXXOXoXOXXXG.S S S S S m . .   C S S Z.Z..XXX.X.XOX.X X.XA.A..XOX.X.X X X.XoXXX.X XoXA.oX",
".XXX.X.XXXOX@X+XOXXXOXOXOX.X.X.X.X XXX+X.X.XS.OX.X@XOXXXXX@XXXG.Z.S |.Z.XXXX@XXX X X X XOXOXOX@XOXOXOX@X.X X.X.X X.X@X@XOXOXOXOX",
" X X.X X X.XXXXXXX.XXXXXXX XC. X X X X XC.A.A. XA.OXXXXXXXXX.XXX@XXXXXXXXX.XXX|.C.|.A.C.|.OXOXOXOXOXOXOX|.|.C.C. X XOXOXOXoXOXoX",
" X X.X XA..XXXXX.X.X.XXXOX XC.A.A.A. X.XA.A. XS.A.@X@XXXXXXX.XXXOXXXXXXXXX XXX X XC. X XoX@XOXOXOX@X@XOX|. XC.C. X.XOXOXoX.XOX.X",
" X X X XA.XXOX.XXXXX XXXXXC.A.C.C.A.XX.XC.A.A. X XOXOXXX.XXX.XoXOXOXOXOXXXXXXX XC. XC.C..XOXOXOXOXOX@XOX|.C.C.C.|..XOXXX.X.X.XOX",
" X X X X XXXOX.X.XXX.X.XXXA.A. XA. X.XXXA.A.A.A.A.OXOXOX.XoXXXXXOXOXXXXXOXXXXX X X X XA. XOXOXOXOX@X@XOXC.C.C.C.C. XOXXX.XXX.X.X",
".X X X X X XOX.X.X.X.XXXXXA.A.A.S.C. X XC.A.A.A.A.OX@XOXOXXX.XXXOXOXXXOXXXXXOX X XC.C. X XOXOXOXOXOXOXOX|.C.C.C.C. XOX.X.X.X.X.X"
};
