/* XPM */
static char *result[] = {
/* columns rows colors chars-per-pixel */
"64 64 217 2 ",
"   c #7E3422",
".  c #704D5C",
"X  c #7A616E",
"o  c #822903",
"O  c #8B2D03",
"+  c #9A2604",
"@  c #932D00",
"#  c #873306",
"$  c #963601",
"%  c #9B3503",
"&  c #903801",
"*  c #9D3E03",
"=  c #8B2F12",
"-  c #943F1D",
";  c #A83D0A",
":  c #974002",
">  c #934E05",
",  c #9D4B07",
"<  c #974719",
"1  c #974B1E",
"2  c #9B4C1B",
"3  c #A14104",
"4  c #A64706",
"5  c #B34D0D",
"6  c #A4520B",
"7  c #A85A0F",
"8  c #B35C0E",
"9  c #BB590D",
"0  c #A04E1A",
"q  c #BC660D",
"w  c #AF6810",
"e  c #B96E12",
"r  c #B87814",
"t  c #8F4F2D",
"y  c #984A2D",
"u  c #9A582A",
"i  c #8B4A35",
"p  c #9A5639",
"a  c #A05627",
"s  c #A45D25",
"d  c #A35932",
"f  c #9B612A",
"g  c #9D6333",
"h  c #A56629",
"j  c #AE6828",
"k  c #B56327",
"l  c #B76C28",
"z  c #A56837",
"x  c #AC7433",
"c  c #C6630E",
"v  c #CC6818",
"b  c #C77C14",
"n  c #C57418",
"m  c #D37516",
"M  c #D67F18",
"N  c #CA7F2E",
"B  c #956B58",
"V  c #9B785D",
"C  c #A26A4D",
"Z  c #AD774B",
"A  c #A2775A",
"S  c #9E7B64",
"D  c #9A7C6B",
"F  c #8C7877",
"G  c #A27E61",
"H  c #BD852F",
"J  c #C6831B",
"K  c #CB911C",
"L  c #E99D0C",
"P  c #F59C03",
"I  c #FE9B04",
"U  c #F1990D",
"Y  c #E1801A",
"T  c #EE8C1E",
"R  c #EC9C1C",
"E  c #FD9E10",
"W  c #F49F1C",
"Q  c #F3A503",
"!  c #FCA303",
"~  c #FBAA02",
"^  c #FFA90E",
"/  c #F4B404",
"(  c #FDB205",
")  c #FBBD05",
"_  c #F2B00B",
"`  c #FFBE0E",
"'  c #E5AA10",
"]  c #FFA510",
"[  c #F9A910",
"{  c #FDA11B",
"}  c #F7AC1B",
"|  c #FFA818",
" . c #F5B710",
".. c #FFB013",
"X. c #FEB31B",
"o. c #F1BD18",
"O. c #FDBA1E",
"+. c #DD8926",
"@. c #D4893A",
"#. c #D49F3C",
"$. c #E39720",
"%. c #F49621",
"&. c #D7A422",
"*. c #EAA326",
"=. c #E0AC21",
"-. c #FEA925",
";. c #F5AE28",
":. c #E9B324",
">. c #E5BB20",
",. c #FEB427",
"<. c #FCBB27",
"1. c #FEBF2F",
"2. c #F1A232",
"3. c #E9B136",
"4. c #FBC404",
"5. c #FDCB04",
"6. c #FBCA0A",
"7. c #FAD005",
"8. c #FED60B",
"9. c #FDDD0C",
"0. c #FEC21B",
"q. c #FFCA1B",
"w. c #F7D316",
"e. c #FFD117",
"r. c #FFDD1C",
"t. c #FCE607",
"y. c #FCEE04",
"u. c #FBF204",
"i. c #FCF90A",
"p. c #FCEB17",
"a. c #FCE61D",
"s. c #FFF216",
"d. c #E8C525",
"f. c #F3C027",
"g. c #F6CB25",
"h. c #F7C528",
"j. c #FBD121",
"k. c #FBD92D",
"l. c #EDC535",
"z. c #FEC532",
"x. c #FDC935",
"c. c #FDCE3A",
"v. c #F6D231",
"b. c #FBD43C",
"n. c #F2E124",
"m. c #FFEC24",
"M. c #FFE328",
"N. c #FFF420",
"B. c #F8F229",
"V. c #FCE73C",
"C. c #FFF730",
"Z. c #A8825F",
"A. c #9D836D",
"S. c #9D8473",
"D. c #94877F",
"F. c #9D8578",
"G. c #968A7E",
"H. c #998C7E",
"J. c #A38365",
"K. c #A2856D",
"L. c #A0886F",
"P. c #A18571",
"I. c #A38A76",
"U. c #AF9175",
"Y. c #E3AD42",
"T. c #EABA50",
"R. c #C09164",
"E. c #D1A771",
"W. c #FCC343",
"Q. c #F0D643",
"!. c #FDD242",
"~. c #FCD945",
"^. c #FDD648",
"/. c #FEDA4D",
"(. c #E2C25C",
"). c #FED152",
"_. c #FCE44B",
"`. c #FFF84E",
"'. c #FCE252",
"]. c #FDEC55",
"[. c #FCE65A",
"{. c #FEF05C",
"}. c #F7D661",
"|. c #EECE74",
" X c #FDEA61",
".X c #FFFA61",
"XX c #FBEF7A",
"oX c #FFFB71",
"OX c #5F5C87",
"+X c #516CAF",
"@X c #4574C5",
"#X c #867C83",
"$X c #8B878C",
"%X c #948582",
"&X c #968981",
"*X c #9A8D85",
"=X c #9C8F88",
"-X c #9D9085",
";X c #9E9189",
":X c #A09487",
">X c #A1948C",
",X c #959DB5",
"<X c #D7B28F",
"1X c #E7D69F",
"2X c #F9EB8F",
"3X c #FEFB87",
"4X c #EAD3B8",
"5X c #F7E5A5",
"6X c #FFFCA6",
"7X c #FBEEB5",
"8X c #FFFEBB",
"9X c #8EA2C9",
"0X c #EEDFCC",
"qX c #FFF7C5",
"wX c #FFFECF",
"eX c #F9E9DA",
"rX c #FFFEDD",
/* pixels */
"D.D.D.&XD.*X*XD.&X&X*X*X=X&X&X*X=X=X=X>X=X-X=X=X=X>X=X:X=X=X=X=X>X=X:X=X=X*X>XH.H.&X-X&X-X;X;X;X;X;X;X;X*X;X=X*X=X;X>X;X;X;X*X=X",
"&X&XD.&XD.*X*XD.&X&X*X&X;X*X&X*X&X=X=X:X=X=X:X=X=X>X=X=X:X=X:X>X>X=X=X=X=X=X>X&X*X&X&X&X&X;X*X;X;X;X>X>X;X=X*X;X*X;X;X*X*X*X;X*X",
"&XD.&XD.%X*X*X&X&X&X*X&X=X=X*X&X&X*X=X>X-X=X=X=X=X>X>X=X=X=X=X>X:X=X=X>X=X>X>XH.-X&X*X&X&X;X;X;X;X;X;X>X;X*X;X;X;X;X;X=X*X;X;X;X",
"D.&X&XD.&X&X*X&X&X&X&X&X=X=X&X*X*X&X=X;X>X;X>X=X=X>X:X=X>X=X=X>X>X*X=X=X=X=X>X&X*X&X&X&X*X;X-X;X;X;X>X>X*X*X;X;X&X;X;X;X*X*X;X;X",
"D.&X%XD.D.*X*X&X&X&X&X&X*X*X&X*X&X*X=X>X=X>X>X=X=X>X>X;X;X;X=X=X>X;X;X=X>X=X>X&X&X*X&X&X*X;X=X;X;X;X;X>X;X;X;X;X=X;X>X;X;X*X=X;X",
"&XD.D.D.D.&X&X&X*X&X&X&X;X&X&X*X*X&X=X>X=X=X=X=X=X>XP.K.S.K.K.K.P.P.K.K.A.S.>X&X&X&X&X&X&X;X*X*X;X;X;X>X=X;X;X;X*X;X>X;X*X=X*X*X",
"*X=X-X-X=X>X>X;X>X;X;X=X>X=X*X*X=X=X;X>X:X>X>XP.K.G z s s 2 s j k s 2 s s z J.K.F.-X;X;X>X;X*X*X=X;X;X>X;X>X>X>X;X>X>X;X;X;X;X;X",
"-X=X=X=X*X;X>X-X=X=X;X;X;X&X&X&X&X&X*X;XD K.G z < < + * 6 8 q e e q 9 6 * @ < 2 z G S.=X>X*X&X&X&X&X&X;X>X>X>X>X>X>X;X;X;X;X;X;X",
"-X-X=X*X*X;X>X=X=X-X=X=X>X&X&X&X&X&X=XG d 2 0 % w J &.<.h.j.j.9.r.r.r.j.o.$.b 7 $ < d A I.&X&X%X&X&X&X;X>X>X>X>X>X>X>X;X;X;X;X;X",
"-X*X=X=X*X;X>X;X=X>X=X=X:X&X&XD.&XD V u O * b :.j.j.t.8.7.6.4.) ) 5.6.6.8.r.r.g.&.b 3 2 x A S.&X&X&X&X;X>X;X;X;X>X>X>X;X;X;X;X;X",
"-X=X=X=X=X;X>X;X>X=X=X=X>X*X&X&XV u < : J h.r.9.5.4./ ! ! P P P P P Q P Q / 4.8.r.M.f.b : 2 z G &X&X&X;X>X;X;X>X>X>X>X>X;X=X;X;X",
";X-X;X;X;X>X>X;X=X>X;X-X;X*X&XS a O e f.r.8.6./ Q P P P I ! E ! I E I I I P P P / 6.9.a.:.8 @ u S D.%X;X>X;X;X;X>X>X>X>X*X=X;X;X",
";X;X;X;X;X>X>X;X;X>X;X>X>X;XS u $ K k.r.6.~ Q Q I I I I E m c c c m %.I I I I I P P / 6.r.k.K $ u V *X>X;X;X;X;X>X>X>X;X;X;X;X;X",
"*X&X&X&X&X*X;X=X;X;X-X;X>XS u , :.M.w./ Q P I I I I I E m O * * * @ v E I I I I I I P Q  .8.a.&.* t V >X=X*X&X*X*X*X*X&X&X&X&X&X",
"*X*X*X&X&X*X;X=X;X>X;X;XG f > f.p.7./ P P I I I I I I E c : l.V.b.6 9 { I I I P I I ! Q Q / w.a.:.: a G *X*X=X&X*X&X-X&X&X&X&X*X",
"&X&X*X*X&X*X>X;X;X;X;XS f 6 3.a.6._ Q E I ! ! ! ! ] { -.v > n.i.m.6 5 T W { | ] ! I E ! ~ Q _ 7.p.:.: u J.*X&X*X*X*X-XD.&XG.-X&X",
";X*X&X*X&X*X>X-X;X;XA.f : :.a.7._ ~ [ ] ^ ] ! ] -.%.v 5 $ > n.i.m.7 o $ 3 5 v T W | ] ] ] ] ] _ 8.m.=.& u A.G.&X-X-X&X&X&XG.-XG.",
";X;X=X=X*X*X>X>X;XF.d O &.a.w./ [ ^ ^ / / [ -.%.c & O 6 r &.p.i.s.>.&.K e 6 $ O ; M -.| ^ ^ ^ [  .8.p.K # x A.-X&X;X-XG.G.*XG.-X",
";X=X*X&X&X=X;X=X;XV < e M.9.o._ X...| } } ,.+.* # r d.a.N.N.s.i.u.i.N.N.s.M.d.&.6 * 2.-........._ 4.8.k.w < Z.*X&X;X-X&XH.&X&X&X",
"=X=X=X=X=X=X>X=XS.h : g.p.5. .,.X.X.,.X.,.+.O , l.s.i.u.u.u.u.y.y.y.u.u.u.u.i.C.N & ;.<.X.X.X.X.X. .6.p.d.& u A.;X;X;X;X;X>X;X;X",
"&X=X&X&XD.*X=X*XV 2 K m.w.o.O.,.O.,.<.O.2.& 6 v.p.y.u.y.y.y.y.y.y.y.y.y.y.u.y.p.e * ,.,.,.X.<.X.<.,.o.9.m.J O u A.*X;X;X;X;X;X;X",
"&X&X*X&XD.&X-XA.g , v.p.g.O.O.<.<.<.<.1.8 & l.p.y.y.y.y.y.u.y.y.y.s.i.u.y.y.y.m.8 6 1.<.<.<.<.<.<.<.<.6.p.g.: 1 F &X;X;X>X;X;X;X",
"&X&X&X&X%X*X;XZ.< K s.9.g.1.1.1.1.1.z.2.O r p.y.y.y.y.y.a.w.t.y.p.=.&.g.r.p.s.M.6 8 W.g.g.1.1.1.1.1.1.f.9.m.r 2 B D.;X;X;X;X;X-X",
"&X&X&X&X%X*XS.x $ g.p.j.g.z.z.z.z.z.c.+.# >.y.y.y.y.t.k.r > w.y.r., # & > r =.c., l W.f.x.z.1.z.z.z.z.g.j.s.>.$ i OX;X*X;X;X;X;X",
"&X&X%XD.D.&XL.2 w m.a.j.x.x.x.x.x.x.b.n & g.y.t.t.t.p.K o * d.t.e.6 5 @.8 & O 6 O @.).x.z.z.z.x.x.x.x.x.h.a.M.7 t +X*X*X;X;X*X*X",
";X;X;X-X=X=XJ.< K N.e.v.c.b.c.c.c.c.^.l : w.t.9.9.t.r.w O , g.t.e., j }.^.W.@.6 7 T.c.c.c.c.c.c.c.c.c.c.c.a.s.J   X %X;X=X;X=X=X",
">X;X;X;X>XI.x + d.s.k.b.b.b.!.!.!.b./.l : z.9.9.9.9.9.&.# * f.9.8., l ).~.b./.).).^.b.b.b.!.!.!.!.!.!.b.b.k.s.=.o . $X%X&X&X&X&X",
";X;X;X;X=XP.h 4 n.p.k.^.~.~.!.^.^.^.'.N & :.9.8.7.8.8.j.&.r o.8.e., $ @.Y.)./.Q.~.^.~.!.^.^.^.^.^.^.^.~.b.k.s.g.@ X %XD.*XG.D.&X",
";X;X;X;X;XL.s 6 a.p.V.^././.Q.~.^.^.'.Y.o K 8.5.7.7.7.7.8.8.7.7.e.K 7 & O 6 #.).'././././.~./././.^././._.V.p.k., s A.G.H.H.G.G.",
";X;X;X;X=XI.0 e B.p._.'.'.'.'.'.'.'.'.}.> 7 0.7.7.6.6.7.7.7.5.7.5.e.q.;.Y 6   6 T.[.'.'.'.'.'.'.'.'.'.'.'.V.p.n.7 h A.G.G.*XG.G.",
";X;X;X;X;XI.s b s.p.].[.[.[.[.[.[.[.[. X#.o J h.6.4.5.4.5.4.5.4.4.4.5.5.0.-.m $ & #.[.[.[.[.[.'.'.[.[.[.'.V.s.s.w h A.G.H.H.G.G.",
";X;X;X;X=XL.x J C.B.]. X[.[. X X X[.'.'.).w O M 0.5.4.) 4.4.4.) ( ( ! Q Q Q ] T 4 O Y.'.]. X[.].].[. X X[.].p.B.r h A.G.&X&X&X&X",
"*X-X-X-X*XL.x J C.B.{. X X{.{.].~.b.h.o.o.;.9 # 8 *.<.0.` ( / ~ Q ! ! ! ! ! ! ..%.3 : ;.o.d.v._._.{.{. X{.].B.C.w h I.-X;X;X;X;X",
"G.G.G.G.D.J.h r C.B..X.X]._.l.o._  ./ ~ / ` X.m $ @ 8 m T L I ! ! ! Q ! ~ ! ! ~ ..Y $ m ../ _ _ O.f.~.].{.`.B.V.w h S.*X&X-X&X&X",
"G.G.G.G.H.A.0 w V.B.].l.>.' Q ~ ~ ( ( ( ( ) ( ` } n 3 @ @ 5 U ^ ! U | ^ ~ ~ ~ ~ ~ -.4 5 ..( ~ ~ Q Q Q >.l.V.B._.7 h A.*X=X&X&X;X",
"&XG.H.H.G.A.s 6 V.B.' L P ! ! ~ ~ ~ ( ~ ) ( ) ) 4.0.,.*.9 % %...{ 4 9 W ( ( ( ( ( X.c % W ( ~ ~ ! ! ! P Q ' B.V.4 h A.-X*X&X;X&X",
"H.G.G.H.G.A.h * Q.V._ I I I ! ! ~ ~ ( ( / ( 4.) ) ) ) g.n $ W ( W ; O 9 ..( ( ( ( ` m @ R ( ~ ~ ! ! ! I I _ C.l.& h A.&X*X&X*X&X",
"G.G.G.G.&XA.g O 3.`.o.Q ! ! ! ~ ~ ~ ~ ( ..%.+.-.O.0.4.q.n $ W ( ] ; + % R ) ( ) ) ` M @ $.( ~ ~ ~ ! ! ! P o.`.#.o g S.;X;X&X&X*X",
"*X;X-X-X=X;XZ.2 H .Xv.P ! ! Q ! ~ ~ ~ ( R * @ % 8 M L ,.v $ W ) [ 4 O ; | ) ) ) 4.0.n $ %.( ~ ! ! ! ! I L k..Xr < K.;X;X;X;X;X;X",
"=X&X=X*X&X-XA.f 7  XV.Q I P ! ! ~ ~ ~ ..M @ v 9 * @ @ % % % W ) } * $ $.4.4.4.4.4.0.8 3 { ~ ~ ! ~ ! ! I ' `.[., u A.;X-X*X*X-X&X",
"&X*X;X&X*X;XS.g @ (..Xo.P I ! I ! ~ ~ ..m @ R O.-.R M q q q } 4. .b *.O.4.4.5.5.6.;.$ 9 ..~ ! ! Q ! ! P f..X3.# Z A.-X-XH.-XH.-X",
"&X&X&X;X&X;X*XV < H oX^.L I ! I ! ! ~ ..v $ U ) ( ` ` ` 0.O.) ) ) 6.4.4.4.4.6.4.e.b + M ( ~ ! ! I I I L _.oXj < J.H.-X-X-X-X-XH.",
"&X&X=X&X*X;X*XS.u % ).oX:.Q ! ! ! ! ! ^ 9 * | ) ) ) 4.4.4.4.) 4.5.4.4.6.6.6.4.e.R O 9 | ~ ~ ! I I I P d.oX(.& Z S.-X-XH.-X-X-X-X",
"=X&X&X*X&X*X*X&XV < H 3X[.' P ! ! ! ! | 5 3 O.` 4.4.4.4.4.4.4.5.4.5.6.7.7.7.g.R $ 3 U ~ ! ~ ! I I P ' [.2Xl < J.*X-X-X&XH.H.-X-X",
"*X;X-X-X*X;X;X&XA.z $ |.3Xl.U P ! ! ! ] 4 4 ,.q.5.6.6.4.4.5.6.7.7.7.7.8.e.<.n @ ; T ^ ~ ! ! ! I I L Q.3X(.# Z S.*X=X;X&X-X-X*X-X",
";X;X>X>X;X>X;X=X=XI.< 7 2XXX3.U Q ! ! { 9 @ 4 n R ;.0.q.e.e.6.7.5.q.O.*.b * O 9 %.] I ~ ! I P ! U d.3X2X6 f K.-X*X;X;X*X-X;X;X;X",
";X;X>X:X;X>X=X&X*XA.Z.o Z.6XXX3.P I ! Q { m 5 + + $ 4 8 q n O.5.0.q 3 $ @ 5 Y | Q Q ~ Q ! I ! L 3.XX6Xl < A.*X&X&X*X*X&X&X=X;X*X",
";X;X>X>X;X;X*X*X*X*XI.h $ E.6XXX} P I Q I ] { %.M c 9 4 $ $ :.7.O.: 3 m T { ^ ! ! ~ ! ! ! I U 3.2X6XR.O Z G.*X*X*X=X*X*X*X*X=X*X",
">X>X>X>X:X>X;X*X*X&X*XF.t # E.6X2X3.U I I I ! ! ] | W -.v : f.8.h.* 9 -.! ~ ! E ! ! I I I L 3.2X6XE.O x L.*X*X*X*X=X=XD.*X=X=X=X",
">X>X;X>X>X>X;X*X*X&X*X&XA.t & E.8X2XT.L P E I I I ~ ! ^ c % +.$.+.% 9 ] ! ! ! ! Q ! I P R T.2X8XE.O t K.;X*X=X*X=X=X=X&X*X=X-X*X",
">X>X>X>X;X>X*X&X&X&X&X&X-XD t # E.8X6X}.=.U I I I ! ! ] M % @ $ $ % m ] ! ! I ! I I U 3.|.8XqXR.O i S.=X*X;X;X-X*X=X=X&X&X*X=X*X",
";X>X;X>X;X;X;X*X*X*X=X&X>X;XA.t O Z 7XwX5X(.*.U P I ! I E T M Y M T { I ! ! Q P L *.|.7X8X5XC o C P.&X>X;X=X;X-X=X=X:X&X-X=X=X=X",
";X*X&X&X&X*X=X&X&X&X&X&X*X&XD.F p o - <XqXwX5X|.3.R U U I I ] ] ] I I I U L *.Y.|.6XwXqXE.- i C D =XD.-X-X*X*XD.G.&X-X-X-XH.-XH.",
"*X&X&X*X&X&X=X&X&X&X&X&X*X*X&X&X#X. = = z <XrXeXqX5X|.T.3.*.$.R R R $.3.T.|.5XqXrXwX<Xd o C D S.D.*XH.-X-XH.-XD.&X&X-XH.H.-XH.-X",
"*X&X&X&X&X*X*X&X&X&X&X&X&X&XD.D.&XF F A i # z <X4XrXrXwXwXqX7X7X7X7X8XwXwXrXrX1X<Xd O y C S.*XG.H.G.G.*X*XH.D.&X&X&X-XG.-XH.-X-X",
"&X&X&X&X&X=X*X&X*X&X&XD.*X&X&X&X&X%X*X*XP.C y o y z U.<X4X0XeXeXeXeX0X4X<XR.U.I.I.C C S F.*XG.*X*XG.G.=X*X*X&X*X&X&X-XG.G.-XH.-X",
"&X&X*X&X&X&X*X&X&X&X&X&X*X&X&X&X&X&X*X;X>XF.K.A C p y = = - y y y - - = = B $X=X*XG.S.&X;X&XG.G.G.-X-X;X*X*X&X&X&X&X-X&X&XH.*XH.",
"&X&X*X&X&X&X;X&X&X&X&X&X=X&X&X&X&X&X*X;X;X;X-XH.#XD D C p p p p y y i . $X=X=X=X*X*X-X&X;X;X&X-XG.H.-X;X*X&X&X&X&X;X;X&X&X*XH.-X",
"=X=X;X*X;X;X;X;X;X;X;X;X;X*X*X*X&X&X*X-X*X-XH.-X>X>X>XD #XI.D G ,X9X@X@X=X=X>X=X&X&X&X&X;X;X;X>X;X;X;X;X&X*X*X*X&X;X>X;X;X;X;X;X",
"&X&X*X&X&X&X;X;X;X=X*X;X;X&X&X&X&X&X&X*XD.D.H.&XI.>X;X;X;X>X*X=X;XF $X>X=X%X=X@X$X&XD.D.&X;X;X;X;X;X;X=X&X%XD.G.&X&X>X;X;X*X-X-X",
"&X&X*X&X&X&X;X=X;X&X&X;X;X&X%XD.D.G.*X*XG.G.*XH.F.>X;X;X=X=X*X=X>X=X=X=X=X&X=X$X&XD.&X&X-X>X;X;X;X;X>X;XG.%XD.D.&X&X;X;X;X-X=X=X",
"&X&X&X&X&X*X;X;X*X=X*X=X=XD.D.G.G.D.*X*XD.G.G.&X&X>X;X*X*X*X*X=X;X:X=X=X=X=X=X&XD.&XD.D.*X;X;X;X;X;X>X;XD.D.D.D.&X*X;X=X*X*X*X*X",
"&X&X&X&X&X;X;X&X=X*X=X*X;XG.G.H.G.D.=X*XD.G.D.H.&X;X>X;X-X=X*X=X;X=X=X=X;X;X;X&X&X&X&XD.&X;X;X;X;X>X>X;XD.D.D.D.&X&X;X;X*X=X*X;X",
"*X&X&X&X&X&X;X;X;X&X&X-X-XG.G.G.H.D.*XD.D.G.H.D.&X;X>X;X=X=X*X=X>X=X=X;X=X;X;X&X&XD.D.&X&X;X;X;X;X;X>X;X%XD.D.D.D.&X;X*X*X*X&X*X"
};
