/* XPM */
static char *result[] = {
/* columns rows colors chars-per-pixel */
"64 64 218 2 ",
"   c #7F372A",
".  c #842704",
"X  c #8B2101",
"o  c #8B2A02",
"O  c #912400",
"+  c #962D02",
"@  c #992B05",
"#  c #883100",
"$  c #943202",
"%  c #9E3504",
"&  c #913A03",
"*  c #9B3D03",
"=  c #852D11",
"-  c #8D3415",
";  c #933B1D",
":  c #A82F02",
">  c #A93D07",
",  c #A33E09",
"<  c #B53C11",
"1  c #8A3D24",
"2  c #934404",
"3  c #9C4907",
"4  c #9E580F",
"5  c #964519",
"6  c #9B4C1C",
"7  c #995013",
"8  c #A94407",
"9  c #A34709",
"0  c #A4500B",
"q  c #AB5009",
"w  c #AA5C0E",
"e  c #B7500A",
"r  c #B55B0C",
"t  c #B14915",
"y  c #B95D16",
"u  c #B0541B",
"i  c #AB6F0E",
"p  c #BA700E",
"a  c #AC631A",
"s  c #BF6312",
"d  c #B76912",
"f  c #B7761A",
"g  c #8E4128",
"h  c #954429",
"j  c #9C5123",
"k  c #9B5A25",
"l  c #894A39",
"z  c #944C34",
"x  c #A04F23",
"c  c #A35A27",
"v  c #A85E37",
"b  c #B15737",
"n  c #9C6132",
"m  c #B2672A",
"M  c #A66835",
"N  c #AC7132",
"B  c #C34F15",
"V  c #C86D16",
"C  c #D06712",
"Z  c #C07116",
"A  c #C87619",
"S  c #DC7716",
"D  c #C56829",
"F  c #DB602D",
"G  c #C47A24",
"H  c #D67526",
"J  c #D77231",
"K  c #E57035",
"L  c #996F5F",
"P  c #9D795D",
"I  c #A46D42",
"U  c #AE7940",
"Y  c #A4785A",
"T  c #9A7A67",
"R  c #8C7F77",
"E  c #997D72",
"W  c #A57B65",
"Q  c #BD8E31",
"!  c #C9851C",
"~  c #DC8317",
"^  c #C69418",
"/  c #DC931A",
"(  c #E8960E",
")  c #F49A05",
"_  c #FE9B06",
"`  c #EA8518",
"'  c #ED981A",
"]  c #F79717",
"[  c #FE9E1D",
"{  c #D8B315",
"}  c #ECA305",
"|  c #F6A002",
" . c #FBA006",
".. c #F1AD06",
"X. c #FAAA03",
"o. c #FEA40B",
"O. c #FAB204",
"+. c #FABB06",
"@. c #FEBF0F",
"#. c #EFA41E",
"$. c #FEA515",
"%. c #FFAA11",
"&. c #FCAB1A",
"*. c #E9B613",
"=. c #FAB61B",
"-. c #F4B918",
";. c #C5872E",
":. c #D28C2A",
">. c #D29C26",
",. c #EC8E2A",
"<. c #E69428",
"1. c #F49324",
"2. c #E78C3F",
"3. c #E59E37",
"4. c #DBA421",
"5. c #D8A033",
"6. c #E9A128",
"7. c #F7A028",
"8. c #E6B22C",
"9. c #EBBC29",
"0. c #F6BF27",
"q. c #FDB42A",
"w. c #FFAE36",
"e. c #F6A63D",
"r. c #EAB83D",
"t. c #F9BA36",
"y. c #EBCB0E",
"u. c #FBCB04",
"i. c #FBC308",
"p. c #FECF0C",
"a. c #F2CA10",
"s. c #FEC71A",
"d. c #FFD811",
"f. c #FFD41C",
"g. c #FAEF05",
"h. c #FEE80C",
"j. c #FAF508",
"k. c #FBE114",
"l. c #FFEE16",
"z. c #FFF61E",
"x. c #ECCD23",
"c. c #FECF23",
"v. c #F7CA2A",
"b. c #FAD827",
"n. c #ECC432",
"m. c #FEC534",
"M. c #F8C938",
"N. c #F4D237",
"B. c #FFD731",
"V. c #FDDE35",
"C. c #F7E126",
"Z. c #FBEB38",
"A. c #FEF234",
"S. c #FEFC36",
"D. c #B3854D",
"F. c #9F8067",
"G. c #9E836D",
"H. c #8F827A",
"J. c #9D8373",
"K. c #94877F",
"L. c #998279",
"P. c #968A7E",
"I. c #998C7E",
"U. c #A2846B",
"Y. c #A18472",
"T. c #A28A72",
"R. c #A38879",
"E. c #AB9577",
"W. c #CB9749",
"Q. c #FC9B4D",
"!. c #EC9652",
"~. c #DCB349",
"^. c #E4AA40",
"/. c #F6AF4C",
"(. c #FDAC56",
"). c #FFB65E",
"_. c #C79876",
"`. c #DDB77E",
"'. c #E9C94F",
"]. c #FDCE41",
"[. c #FBD341",
"{. c #F7D841",
"}. c #FEDA44",
"|. c #FCDE4E",
" X c #F7CB52",
".X c #FAC758",
"XX c #FDD650",
"oX c #FCD859",
"OX c #FEE543",
"+X c #FBEF48",
"@X c #FFF34F",
"#X c #FDFA4A",
"$X c #FCED55",
"%X c #FBE958",
"&X c #FEFE56",
"*X c #E9C266",
"=X c #FBD967",
"-X c #EECD74",
";X c #FFEB67",
":X c #FEF462",
">X c #516BAD",
",X c #948780",
"<X c #968981",
"1X c #9A8D85",
"2X c #9C8F88",
"3X c #9D9085",
"4X c #9E9189",
"5X c #A09487",
"6X c #A1948C",
"7X c #E4CB86",
"8X c #F8DF81",
"9X c #FCEC96",
"0X c #DFC0B0",
"qX c #E9CEAE",
"wX c #FCF0AC",
"eX c #FCF0BE",
"rX c #FFFDCC",
"tX c #FBF2D7",
/* pixels */
"K.P.,X,X,X1X1XK.,X<X1X1X2X<X1X1X2X1X3X4X4X4X2X4X2X6X4X4X4X2X2X4X5X4X4X2X4X2X4X<XI.<X1X<X1X4X3X5X2X6X2X6X2X2X2X5X2X2X6X2X2X2X2X1X",
",X,X,X,XK.1X1XK.<X1X1X<X2X1X1X<X<X2X3X4X4X4X4X4X2X4X4X4X4X4X4X4X4X4X4X2X2X1X4X1XI.1X1X,X<X4X2X2X6X4X6X6X2X1X2X1X2X2X4X1X1X2X2X2X",
"<X,X<X,XK.1X2X,X<X<X<X<X2X1X1X<X1X<X4X4X4X4X2X3X3X6X4X2X2X4X4X6X4X4X4X4X4X4X5X<X1X1X<X<X1X4X2X4X5X2X6X6X2X1X2X2X2X5X5X2X1X2X5X4X",
",X<X,XP.P.<X1X<X<X<X1X<X2X1X1X<X1X2X4X4X2X4X4X4X4X6X4X4X4X4X4X4X6X2X2X4X4X4X5X2X<X<X1X<X1X4X2X3X2X2X4X6X2X2X2X2X1X1X5X2X1X2X2X4X",
"P.,XK.K.K.<X2X,X<XK.1X<X1X1X<X1X1X<X2X4X4X4X4X3X4X4X6X4X6X4X4X4X4X4X4X4X4X4X4X<X<X<X1X<X1X5X2X5X2X6X6X6X2X2X2X2X1X4X6X4X2X1X2X2X",
",X,XK.K.K.<X<X<X1X<X<X<X2X1X<X1X1X<X2X4X4X4X4X3X2X6X4X4X4X4X1X4X6X4X2X4X4X2X4X1X<X<X<X,X1X2X2X3X2X2X6X6X1X1X6X6X1X1X6X4X2X1X1X2X",
"3X2X4X2X3X6X6X2X4X4X4X2X6X2X1X1X2X2X4X6X4X4X3X3X4XR.G.G.G.G.T Y.Y.W U.E E E 6X6X2X2X4X2X2X2X2X<X2X2X2X6X6X6X6X6X6X6X6X4X4X5X6X5X",
"3X2X2X2X2X5X6X2X2X2X2X2X4X1X,X,X<X<X2X3X2X2X1XJ.T M c 5 x x x x x x 5 h h z T 4X2X2X2X2X6X2X<X<X<X1X<X5X6X6X6X6X6X6X6X2X4X4X4X2X",
"3X3X2X1X1X4X4X4X2X2X2X2X4X1X,X<X<X1X2X2X2X2XT l 1 $ w A ! d > @ : < B < : @ z T 1X1X2X1X6X2XK.,X<X1X<X4X6X6X6X6X6X6X6X2X2X4X4X4X",
"3X1X2X2X2X4X6X4X2X6X4X2X4X1X<XK.<X<X<X5X1XL l = 0 4.c.f.f.f.9.d @ : F K F B + c W 1X5XI.<X1X<X<X,X<X<X4X6X4X4X6X6X6X6X6X4X4X4X4X",
"3X2X2X2X2X4X4X4X5X4X4X1X4X1X<X<X,X<X2X2XJ.M o w v.k.u.+.+.u.d.b.! @ : K 2.2.K , c W 1X1X2X,X,X1X,X<X,X4X6X2X4X4X6X6X6X6X4X4X4X2X",
"2X2X4X4X4X6X6X4X4X5X4X4X4X1X1X<X<XP.<X2XP 5 q v.f...| ) ) } ..i.B.D O B (.(.(.!., c U.I.1X1X<X1XK.K.K.2X6X4X4X6X6X6X6X6X2X1X4X4X",
"5X2X2X2X4X6X6X4X4X6X4X4X6X4X1X2X3X1X4XU.c $ 8.d...) _ ] 1.1.] } i.m.w X J ).(.(.!.% v T 4X4X2X1X1X1X1X6X6X2X4X6X5X6X6X5X4X2X4X2X",
"1X1XK.1X<X1X4X4X4X4X4X4X6X6X4X4X1X1XL.n o ! B...) [ V : @ > S _ } c.8.$ , !./.e.(.D 5 L <X6X5X2X2X1X4X6X1X1X1X<X1X2X2XK.<X<X<X<X",
"1X1X1X1X<X1X4X2X4X6X4X4X6X4X2X4X3X3XP 7 9 v.-.) ) ] * 0 :.* e _ ) ..b.A O D 2.,.<.2.9 c T 6X4X2X1X2X4X4X1X1X1X1X<X1X2XK.<X<X1X<X",
"1X<X1X<X<X1X6X4X4X4X4X4X6X4X1X2X1XJ.v . :.c.} ) _ $.* f $X4 e $. .| s.9.& > e.3.3./.J + M R.2X4X4X4X2X6X1X2X<X1X<X1X2X<X<XI.1XI.",
"2X1X1X1X<X1X4X2X4X4X4X4X6X4X1X1X2XE k 2 9.+.| $.7.S $ f +X0 8 7.o.| X.b.i X 2.=X X.X.Xu t U.4X4X4X4X4X6X2X3X1X<X2X2XI.K.<X<X1X1X",
"2X2X1X1X1X1X6X6X4X4X6X4X6X4X1X2X3XP 7 p c...$.~ * # 2 ^ Z.i # e 1.&.} s./   r =XXX|.=XW.o I L.3X4X4X4X6X2X1X1X1X1X1X3XP.P.I.I.1X",
"2X2X1X1X1X1X4X2X4X4X3X2X6X4X3X2XJ.n # 4.s.&.S o 4 4.b.l.j.C.>.& 8 7.&.+.v.3 % ).XX[. X.X, M Y.3X2X2X2X6X2X1X<X1X1X3X3XP.<X<XI.<X",
"2X2X2X3X1X2X6X2X4X4X4X4X6X4X2X2XT k 3 v.+.q.r 3 }.z.j.j.j.j.z.8.# y w...f.f X :.r.8.8./.y x G.4X4X4X2X6X2X6X6X4X2X2X6X2X6X6X5X5X",
"<X1X1X<XK.1X1X1X1X2X2X1X3XK.K.K.F.6 d B.-.q.s 3 C.j.j.g.j.j.g.z.! o <.=.p.4.X V M.9.9.M.:.x Y 3X2X1XI.2XI.1X2X<X,X<X6X2X4X6X2X2X",
"<X<X<X<XK.1X2XI.<X1X2X1X3XK.K.K.F.6 :.B.-.t.s 2 b.l.h.h.g.g.g.l.b.& V t.s.n.$ u =X%X}.%X X3 N L.3X3X3X2XK.P.<X1X,X1X6X2X5X2X2X4X",
"<X<X<X<X<X1X4X1X1X1X1X1X2X<X<XE N # 8.v.0.m.Z 2 N.z.l.h.h.j.g.g.l.a 3 w.v.c.0 $ =X:X%X%X;Xa 6 G.3X5X3X2X1XP.P.1XR ,X6X2X4X2X2X2X",
"<X<X<X<X<X1X2X1X1X1X1X1X1X<X,XT 6 3 M.c.0.m.G &  Xn.i ^ C.{ k.h.l.^ O e.m.C.p . ~.$X+X%X:X;.6 U.I.3X1X5X1XP.1XP.R <X5X2X2X5X4X2X",
"<X,XL.,X,X<X2X1X1X1X2X<X1X<XK.T 6 q m.v.m.].:.$ :.2 . f }.4 { h.l.4.# 3.M.b.:.X :.{.x.N.N.:.6 F.1X1X3X4X3X2X<XH.K.,X5X2X2X2X2X1X",
"2X4X2X2X1X4X6X4X6X2X2X2X6X4X1XW x d Z.v.m.].3.X . u % Z V.7 ! h.h.4.# 3.[.B.5.O G N.x.x.N.5.# M J.4X3X4X3X2X2X1X2X2X6X2X2X5X2X2X",
"6X6X6X6X6X6X6X2X4X4X4X4X6X6X5XT.c ! V.N.].]. X3.4.)., p }.7 ^ h.h.*.o 3.M.V.8.o f ;X+X+X#XoX* M G.3X<X6X4X4X4X4X2X5X1X1X<X<X<X,X",
"2X2X6X5X4X4X6X2X4X4X4X4X6X6X4XT.N ^ Z.M.[.}.M.%X|..X* Z B.i 9.d.k.4.# 3.XXV.n.$ k :X&X&X&X:X0 c G.1X1X4X4X4X2X4X5X2X1X,X1XP.P.P.",
"6X2X4X6X2X4X6X6X4X2X4X4X6X4X5XT.;.4.Z.{.XX{.N.oX).m o Z c.*.f.u.d.>.# ^.|.V.N.* 7 ;X&X#X#X:Xa j J.1X1X3X4X2X4X4X3X4XI.P.I.I.I.<X",
"6X2X5X4X2X6X6X4X5X4X6X4X6X6X4XE.Q 8.Z.{.XX}.|. X4 & Z -.p.p.u.u.f.Z *  X|.OX{.3 3 N.N.C.b.{.y c G.3X1X4X4X2X4X4X3X3X3XP.P.<XI.P.",
"2X4X4X4X4X6X6X6X6X6X4X4X6X6X6XE.~.8.+XXX%X|.oXa o <.c.u.p.u.u.u.s.0 0 XX%XOXV.0 * n.x.x.x.N.y N J.1X1X3X2X3X4X4X3X4X3XP.I.P.P.P.",
"4X2X2X2X2X5X6X4X4X4X4X2X6X6X2XE.~.n.+X%X%X;XW.X C &.O.i.i.u.u.p.6.o W.;X%XOXOX0 * N.+XZ.Z.+XG m G.2X2X4X4X1X2X2X3X4X3XK.1XP.1X,X",
"1X3X3X3X1X4X6X6X6X6X6X4X6X6X6XE.'.r.+X$X$X;X7 > ] _ | X.+.+.@.q.q 2 =X;X%X$X+X0 & OX&X#X&X&X;.m T.3X3X6X2X2X3X4X4X4X6X2X4X2X2X2X",
"P.P.P.I.,X2X6X4X6X4X4X4X6X4X2XE.|.r.@X$X$X3.o C o._ _ | | &.q.s o ~ M.Z.:X%XOX0 & {.#X#X#X&X;.m T.3X3X5X2X2X2X2X4X4X4X<X1X1X1X1X",
"P.P.I.P.I.3X4X4X4X4X1X4X6X4X1XE.~.~.&X%Xm.A + ` o._ | o.o.S 8 $ A =...-.{.%X+X0 * n.C.C.b.V.f m T.3X3X5X4X4X2X2X4X4X3X1X1X1X1X1X",
"1XP.<X,XP.1X5X4X4X4X4X2X4X2X1XE.~.r.OX*.#.V % ' o.o.$.~ 1.8 * / =.O.X...} v.}.9 & x.y.y.y.x.r c G.3X3X6X3X3X2X2X4X4X4X2X1X<X1X1X",
"P.P.P.I.P.1X4X2X4X4X4X4X4X4X1XT.Q ^.0.) &.e > $.X.%.s r w., r s.+.X.X.X.o.} N.3 3 N.C.C.C.V.r k G.3X3X5X4X4X2X2X2X4X3X1X1X,X1X1X",
"P.P.P.P.P.1X4X1X4X4X4X4X4X2X2XT.N 5.v.) %.e 8 $.X.$., y w., r 0.@.=.O.X._ ..M.$ 4 $XS.S.S.@Xw j G.I.3X4X4X3X1X2X2X2X4X2X1X1X<X<X",
"1X2X3X1X2X2X4X2X6X6X4X4X6X6X2XT.M ;.v._ &.e 8 &.O.$.3 y w., r 1.V e ' X.) -.r.# a #XS.S.S.+X3 k G.4X4X6X4X3X3X2X2X4X6X3X4X2X2X2X",
"1X1X1X3X1X3X4X1X4X4X4X4X6X4X4XY.k G M.) $.B , &.O.&.q r w.9 9 % @ X s %.| -.~.. f C.k.k.k.n.* k G.3X3X6X1X2X1X1X1X2X4X1X1X1X2X<X",
"1X1X1X1X1X1X1X<X2X1X3X1X4X4X5XY.k a M.} %.C * 1.+.@./ p q.8 * r 3.> e %.) v.5.. ! a.y.y.a.( # n L.1X2X4X1X<X1X1X<X<X3XI.3XI.3XI.",
"1X<X1X1X<X2X2X<X1X2X2X1X4X4X4XG.k 4  X( o.S $ <.@.+.+.-.-./ 6.=.=.9 e &.) M.;.. >.C.y.a.C.:.6 P 3X4X1X4X<X1X<X<X1X4X3X3X3X3X3X3X",
"<X<X1X<X1X3X2X<X<X1X1X1X6X4X4XI.I & '.-.o.1.$ V 0.+.i.i.i.p.p.i.s.q e $.} XXa # '.S.A.A.#XZ 6 G.2X3X2X4X1X1X1X1X1X2X3XP.I.3X3XI.",
"<X1X<X1X1X1X2X<X<X<X1X1X6X6X4X4XU.5 ~.M.) 1.e , q.@.i.i.u.u.u.u.p.q > $... X5 2 |.A.A.A.OXq c G.3X4X2X4X1X<X1X<X<X2X3X1X3X3X3X3X",
"1X3X<X3X1X4X2X<X1X<X,X1X6X6X4X3XJ.g W.XX) %.S . A c.i.u.u.p.u.u.f.y 8 ] 9.*Xo y [.b.b.V.r.$ M J.2X2X2X3X1X1X<X1X1X1X2X1X1X1X3X3X",
"4X6X6X6X4X6X4X1X1X1X1X3X6X6X6X6XT.M k ;X}  .[ r # / c.p.u.p.p.f.t.9 8 ] .XW.X C #.*.*.-.A 5 P 3X2X2X2X6X4X4X4X2X1X4X4X1X3X3X4X3X",
"4X4X6X6X6X6X2X<X1X1X1X1X4X6X3X6XJ.I $ -Xt.) o.] 8 + p -.s.-.6.A * $ S #.=XN o <.v.-.*.t.q 6 T 1X1X<X<X3X1X2X1X<X<X1X1X<X<X4X3X1X",
"6X4X6X6X4X4X2X1X1X1X1X3X4X6X5X6X4XU.5 W.=X) | o.1.B o d m.w o + e ` ] r.-X& 3  X[.N.OX^.$ M E 1X<X1X<X4X2X1X1X1X1X2X1X1X1X1X3X1X",
"6X6X6X6X6X6X3X,X1X1X1X,X4X6X4X6X6XT.M c 8X#.|  .o.&.* d m.3 8 ,.[ o.( =XW.X G oX[.].XXG 5 W <X1X1X1X,X2X3X2X1X1X1X1X2X,X1X2X2X2X",
"6X6X6X6X6X6X3X1X1X,X1X<X6X6X6X6X6XJ.M # `.XX}  .o. .* s /.9 e &.| ) /.9Xc @ 3.t.t.t./., 1 G.<X<X<X,X<X4X2X2X1X2X2X3X4X,X1X3X3X1X",
"6X6X6X6X6X6X1X,X1X,X1X,X6X6X6X6X6XR.D.o U 9X6.) _ ] > % y + e $. .( 8X`.O t <.( / ' a = N E ,X1X<X<X<X2X2X2X1X1X2X2X2X,X<X1X2X1X",
"4X4X4X6X4X6X4X1X1X1X1X<X6X5X3X4X4X1XJ.I # 7X8X' ) o.S e > e ,.o.) '.wXj O H <.<.<.` : l W 2X<X1X1X2X1X4X4X3X3X3X1X2X4X1X4X2X2X2X",
"1X1X1X,X<X1X2X,X,XP.<X,X1X,X,X,X1X<X,XT.5 c eX*X( _ %.$.$.o.$.) 3.wX_.  u )././.(.u 1 W 3X1X<X1X<X<X1X3X3X1X3X1XP.<X3X3X3XI.3XI.",
"1X<X,X1X,X,X3X1X<X1X1X<X1X1X,X,X,X<X1XI.I X _.rX*X<.) ) _ ) ( ^.wXqX# + !.(.(.).D O b E 3X1X<XK.K.1XP.3X3XP.3X<X<X<X3XI.<X3XI.3X",
"1X1X<X1X1X1X1X,X1X,X<X,X1X<X,X1X<X<X2X4XF.I # `.rX8X~.<.6.3.-XrXwXx X D Q.Q.(.J @ b W 2X1X1XP.P.,XP.I.3X1X<X<X<X<X<X1XI.3XI.3X3X",
"<X,X,X,X,X3X1X,X1X<X,XK.1X,X,XP.<X<X1X4X4XF.z - _.tXrXrXrXrXtXqXx O t K K J t + h W 2X1X3X3XP.1X<XP.P.3X1X,X<X<X<X<X1XP.I.3XI.3X",
",X,X,X1X,X<X1X1X,X<X1X,X2X<X<X<X<X<X1X4X6X4XR.z = Y 0XtXtXqX_.- O < F F B : @ z T 3X3X1X1X1XK.P.P.3X3X4X1X<X<X<X<X1X1X<X<XI.3XP.",
"<X1X1X1X<X1X1X,X,X1X,X,X2X<X<X<X<XK.1X5X2X4X3XR.W 1 = ; h - X @ : : : : x ; z L 1X1X3X1X3X1X1X1XP.I.3X4X1X1X<X<X<X1X4X1X<X3XP.3X",
"1X2X1X1X2X2X6X5X5X4X4X4X6X2X2X<X1X<X2X2X1X1XI.2XY.R.W l 1   1 l l z ; b L T L.2X<X1X<X<X2X6X4X6X4X4X4X4X1X<X1X1X<X2X4X6X4X4X4X4X",
"<X,X1X1X,X1X2X2X2X1X2X2X2X,XP.I.P.K.<X2XK.K.I.I.<X4XK.2X2X2X>XL E E E E 2X2X2X<X,XK.K.K.<X4X4X4X4X4X4X4X,X,XK.,X<X<X4X4X4X3X3X3X",
"<X<X1X<X,X1X5X2X1X1X1X4X4XP.,XP.P.K.<X<XP.P.I.1XK.6X6X2X2X2X1X2X4X2X4X2X2X2X2X,X<XK.<X<X3X4X4X4X4X4X6X4X,X<XK.K.<X1X4X4X2X1X1X2X",
"1X<X1X,X,X1X4X2X2X1X1X1X2XK.P.P.P.<X2X1XK.P.P.<X<X4X2X2X1X1X1X4X4X4X2X2X2X2X2X<XK.<X,XK.1X4X4X4X4X4X6X4X,XK.K.K.,X<X6X1X1X3X1X2X",
"<X<X,X<X,X2X4X1X1X1X1X1X3XP.P.,XP.P.2X1XK.P.P.I.<X4X5X2X1X2X1X2X4X4X2X4X4X2X2X,X<X<X<X,X<X4X4X4X4X6X6X4XK.K.K.,X,X<X4X4X1X1X1X1X",
"<X<X<X<X,X1X4X1X2X1X1X1X2X<XP.P.P.P.<X<XK.P.P.K.I.2X6X4X4X4X1X4X4X4X2X4X2X2X2X1X<XK.K.<X<X4X4X4X4X4X6X4X,XK.K.K.,X<X4X1X1X1X1X1X"
};
