/* XPM */
static char *result[] = {
/* columns rows colors chars-per-pixel */
"64 64 216 2 ",
"   c #822400",
".  c #8A2200",
"X  c #832B05",
"o  c #8D2C01",
"O  c #952C02",
"+  c #9E2A07",
"@  c #8F3C04",
"#  c #903300",
"$  c #9A3203",
"%  c #9C3B04",
"&  c #832E17",
"*  c #883719",
"=  c #953F19",
"-  c #A43106",
";  c #A53D06",
":  c #B2340A",
">  c #9D3F22",
",  c #9C480A",
"<  c #974519",
"1  c #9C451A",
"2  c #AC440A",
"3  c #A54809",
"4  c #A94D0B",
"5  c #B94F0C",
"6  c #A5530A",
"7  c #A85C0C",
"8  c #B1530C",
"9  c #BD5C0E",
"0  c #B1491A",
"q  c #A0591F",
"w  c #B15C14",
"e  c #B6680D",
"r  c #B1780D",
"t  c #AC6215",
"y  c #B76A1C",
"u  c #B9761E",
"i  c #9D4A25",
"p  c #9C5527",
"a  c #8C4335",
"s  c #9B5435",
"d  c #A55B25",
"f  c #A8572F",
"g  c #A35828",
"h  c #9D6435",
"j  c #B16F2B",
"k  c #AF732F",
"l  c #AA6639",
"z  c #AC753E",
"x  c #C5511E",
"c  c #C0630F",
"v  c #C36A16",
"b  c #CF6A11",
"n  c #C77718",
"m  c #DA791A",
"M  c #CD5921",
"N  c #CC7A2D",
"B  c #D1702F",
"V  c #E1622B",
"C  c #E87534",
"Z  c #905448",
"A  c #9D6747",
"S  c #9F795C",
"D  c #AD7444",
"F  c #A5795B",
"G  c #9C7C68",
"H  c #987E74",
"J  c #A67964",
"K  c #A37C64",
"L  c #BB8014",
"P  c #BE852B",
"I  c #B9843B",
"U  c #C88917",
"Y  c #C9961E",
"T  c #D8971F",
"R  c #EC9806",
"E  c #F39D03",
"W  c #FB9E05",
"Q  c #FD9908",
"!  c #E08517",
"~  c #E49618",
"^  c #EC931A",
"/  c #F89618",
"(  c #FC9E1E",
")  c #DFB811",
"_  c #E9A20B",
"`  c #F1A504",
"'  c #FCA205",
"]  c #FCAA03",
"[  c #FDAD0F",
"{  c #E9B205",
"}  c #F4B209",
"|  c #FDB309",
" . c #F4BD0A",
".. c #FEBC08",
"X. c #E2A41E",
"o. c #FEA414",
"O. c #F1A41D",
"+. c #EDB11E",
"@. c #ECB918",
"#. c #FCB61B",
"$. c #C58024",
"%. c #DF892E",
"&. c #CB9127",
"*. c #D49826",
"=. c #CD8B32",
"-. c #C5923D",
";. c #CA9638",
":. c #E98720",
">. c #E39A29",
",. c #E1923F",
"<. c #F29333",
"1. c #D5A22C",
"2. c #DEAE31",
"3. c #E8A52E",
"4. c #FDA722",
"5. c #E8B729",
"6. c #FEB327",
"7. c #E8A639",
"8. c #EDBC37",
"9. c #F7B638",
"0. c #E4C805",
"q. c #FAC407",
"w. c #FACD04",
"e. c #FDC809",
"r. c #FDD10A",
"t. c #FEDB0E",
"y. c #F2CD17",
"u. c #F0CC1F",
"i. c #FDCA18",
"p. c #EFD416",
"a. c #FDEA08",
"s. c #F7F002",
"d. c #FCF407",
"f. c #F7E619",
"g. c #FFF914",
"h. c #EBCF27",
"j. c #F2C12B",
"k. c #FFC828",
"l. c #FFD121",
"z. c #FFDE23",
"x. c #F2D729",
"c. c #FBD12C",
"v. c #FCDA2A",
"b. c #FDC231",
"n. c #F4CC32",
"m. c #FECD3C",
"M. c #FBD431",
"N. c #F7DB3E",
"B. c #FBE825",
"V. c #FDE935",
"C. c #FEFA31",
"Z. c #B7855D",
"A. c #9D826C",
"S. c #8F827A",
"D. c #9D8473",
"F. c #94877F",
"G. c #9D8578",
"H. c #968A7E",
"J. c #998C7E",
"K. c #A48364",
"L. c #A2846E",
"P. c #A28B6F",
"I. c #A8916F",
"U. c #A28573",
"Y. c #A38B74",
"T. c #A48A76",
"R. c #C29B4A",
"E. c #EA8343",
"W. c #ED9544",
"Q. c #DCA440",
"!. c #DFB345",
"~. c #E3A84E",
"^. c #F8A146",
"/. c #F5B643",
"(. c #FAA556",
"). c #E4BD52",
"_. c #FEB05C",
"`. c #F2BD59",
"'. c #C4956E",
"]. c #D6AC67",
"[. c #F4CF43",
"{. c #FCCD4C",
"}. c #FCD342",
"|. c #FDDD44",
" X c #FED84C",
".X c #F1C853",
"XX c #F3DA56",
"oX c #FDD059",
"OX c #FEDA5E",
"+X c #FDE848",
"@X c #FEF346",
"#X c #FEFC46",
"$X c #FDE952",
"%X c #FCE759",
"&X c #FDF751",
"*X c #FEFE57",
"=X c #F4CF6F",
"-X c #F9DE7C",
";X c #FFEE61",
":X c #FFFC67",
">X c #948780",
",X c #968981",
"<X c #9A8D85",
"1X c #9C8F88",
"2X c #9D9185",
"3X c #9E9189",
"4X c #A09487",
"5X c #A1948C",
"6X c #D6B493",
"7X c #F4DF99",
"8X c #FEED90",
"9X c #FBEDAB",
"0X c #F2DFC2",
"qX c #FDF7C2",
"wX c #FBEDD4",
"eX c #FFFFDD",
/* pixels */
"F.H.>X>X,X,X1XF.,X,X,X1X1X,X,X1X<X<X1X5X3X3X3X1X2X5X1X3X3X3X1X5X3X3X3X3X1X<X3XT.J.,X<X,X<X3X1X4X3X5X1X5X1X2X1X1X<X4X5X3X1X3X1X<X",
">X>X>X>X,X,X<XF.,X,X1X,X1X1X,X<X<X<X1X3X1X1X3X1X1X5X3X1X3X1X3X3X3X1X3X3X3X<X1X<XJ.1X<X>X,X3X1X1X3X4X5X5X1X1X1X1X1X2X3X1X<X<X1X2X",
",X>X,X>X>X1X1X>X,X,X,X,X1X<X<X,X<X,X3X5X3X3X2X3X1X5X3X1X1X3X3X5X3X3X3X3X1X1X5X<X<X,X<X,X<X5X1X1X1X1X5X5X1X<X1X1X1X2X3X<X<X1X3X3X",
">X,X>XH.,X,X,X,X,X,X<X,X1X1X<X,X<X<X1X3X1X3X3X3X1X5X5X3X3X3X1X5X5X1X<X3X3X1X3X<X<X,X,X,X,X4X1X1X1X1X5X5X<X1X1X1X<X1X5X<X<X1X1X3X",
"H.>XF.F.F.,X1X,X,X,X<X,X<X1X,X<X,X<X1X3X1X5X5X1X2X5X5X5X5X5X3X3X5X4X1X4X3X3X5X,X,X,X<X,X,X4X1X1X3X3X5X5X1X1X3X1X<X3X5X3X3X<X3X3X",
">X>XF.F.F.,X,X,X,X,X,X,X2X,X,X<X<X<X1X3X1X1X1X1X1X5X5X5X3X3X3X5X5X1X1X2X3X1X5X,X,X,X,X>X,X2X1X1X1X1X4X5X<X<X5X5X<X1X5X3X<X<X<X<X",
"2X1X3X1X2X5X5X1X3X3X3X2X5X1X<X<X1X<X3X5X5X3X5X1X2X5X5XH J J H H U.U.L.L.L.U.5X5X1X1X1X1X5X4X1X<X1X1X1X5X5X5X5X5X5X5X5X3X5X3X5X3X",
"2X1X1X1X1X4X4X1X3X3X3X1X3X,X,XH.,X,X<X1X1X1X1X1XH U.F l > > > > > g g g d l J U.1X1X1X1X5X1X,X,X,X1X,X4X5X5X5X5X5X5X5X<X3X3X3X3X",
"2X1X1X<X<X3X5X<X1X3X1X1X3X,X,X,X,X,X1X1X1X<X5XJ l i 1 : 0 x : + O 4 v m n 4 < l S 2X2X2X4X1X>X>X,X,X,X3X5X5X5X5X5X5X5X1X1X3X3X3X",
"2X<X1X1X<X3X5X3X3X3X3X3X3X<X,XF.,X,X1X1X1X,XJ f + - M V C x + @ U 5.c.v.v.k.*.% p K.2X,X1X,X,X,X,X,X,X3X5X3X3X3X5X5X5X5X1X3X3X3X",
"2X2X1X1X1X3X5X3X3X3X3X<X4X<X,X,X>X,X1X3X<XJ l O 0 E.E.E.M - $ X.z.r. . .e.r.v.5.4 g K.2X<X,X,X,X>X,X>X3X5X1X1X5X5X5X5X5X3X3X3X3X",
"3X2X3X3X3X5X5X3X3X3X3X3X5X<X,X<XH.H.<X3XG l + 0 (._._.W.- O *.z. .` E ` E ` } t.5.% d A.1X1X,X,XF.F.F.1X5X5X3X5X5X5X5X5X<X<X1X3X",
"3X3X3X3X3X5X5X3X3X5X3X3X5X1X1X<X1X<X1X5XJ = ; (.(._._.x . n v. .E ( / / / Q E { v.*.o z T.3X1X<X<X,X<X5X5X1X3X3X5X5X5X3X3X3X3X3X",
"<X,X,X,X,X<X3X3X3X3X3X3X5X5X3X1X<X<X3XH f $ ,._.^._.E.O 4 n.e.E W b - $ ; m Q E } v.y < K.5X4X2X1X1X3X5X<X<X<X<X,X1X<X>X,X,X,X,X",
"<X<X<X,X,X<X3X1X3X5X3X3X5X3X1X3X3X1X1XS 1 9 W.>.>.W.6 o *.i._ Q / ; 3 &.3 5 Q Q ` i.8.$ z Y.1X1X1X1X3X5X<X<X<X<X<X<X<X,XH.<X,X<X",
"<X,X<X<X,X<X5X3X3X3X3X3X5X3X<X1X3X3XH p ; W.7.<.7.%.O 6 k.} ` W / % r #X7 5 o.W W ` i.y < K 1X2X3X3X1X5X<X<X,X<X,X<X<X,X,XJ.<XJ.",
"1X,X<X<X,X<X5X1X1X5X1X4X5X1X,X1X1X1XK.1 N =XoXoX=XB O *.l.` ' o.<.% r C.7 ; :.O.o.` y.2.# z G.3X3X1X1X5X1X1X,X,X1X1X<XF.,X,X<XJ.",
"3X3X1X<X,X<X5X5X5X1X5X1X5X5X1X1X2XU.s - .XOXoXoX`.% % 8. .` o.:.3 X &.C.r @ o 6 ! o.} c.w < A.2X2X5X3X5X1X<X<X1X<X1X<XF.J.J.J.<X",
"3X1X<X<X,X1X3X1X1X4X1X1X5X1X1X1X<XK.1 y oX{.{.oX2.  y c.} 6.:.o , 2.B.d.B.n.&.6 # ! [ l.U < F 3X<X1X1X5X1X<X<X,X,X1X<XJ.J.>X<X>X",
"1X1X2X<X<X3X5X<X1X4X4X4X5X1X<X1XD.z O =.5.5.5.9.y   *.i.} o.3 , x.g.d.d.d.d.C.6.$ b 6.q.5.# z G.5X3X1X5X3X5X5X1X2X4X5X4X5X5X4X3X",
">X<X,X,X,X,X1X<X,X1X1X<X1X>XF.>XA.q ; !.j.8.j.9.2 @ j.#.6.n o 5.g.s.s.d.d.s.d.h.# m 6. .c.6 d A.<X<X<X<XJ.<X4X,X>X<X3X3X3X3X3X3X",
",X,X<X,X>X<X1X,X<X1X1X1X1X>XF.>XA.i y OX$X X$X`.O 7 M.i.9., 7 V.s.s.a.a.d.s.a.5.O m b. .z.u < A.2X2X1X1XH.H.,X<X>X,X5X3X4X3X1X3X",
",X<X<X,X,X<X3X<X1X,X<X<X1XF.>X>XA.1 R.:X&X%X:X!.. L v.b.7.O Y f.s.a.d.a.a.g.g.5.o %.b.j.M.*.1 F 2X2X2X4X,XH.H.,XS.>X3X3X3X3X1X3X",
">X>X,X,X,X<X1X<X1X,X<X<X1XH.>X>XK.1 ).;X$X@X%X=.. *.M.b.%.O 5.g.a.p.) B.L u M.5.X Q.b.j.c.5.# l K 1X<X4X1XJ.<XF.S.>X3X<X3X3X3X1X",
">X>XF.F.F.,X1X,X2X<X1X>X1X,XF.G z % 8.n.h.h.[.y o 2.M.m.N # u.a.g.U r V.7   4 N o E.m.j.c.n.; d G 2X2X3X3X<X>XS.S.>X3X3X3X3X<X<X",
"1X3X3X1X<X1X5X3X5X5X1X1X5X1X<XL.d 4 n.h.h.h.[.8 $ 8.M.m.n $ u.a.z.7 r V.7 4 3   @ /.m.n.c.}.4 i A.2X2X5X3X3X2X<X<X3X5X2X<X3X3X1X",
"5X5X5X5X5X5X5X3X3X3X3X3X5X5X4XT.d y ;X+X@X&XXX, , M.c.}.n , u.a.z.7 e V.6 w `.=./.{.m.m.M.|.e q A.<X>X3X3X3X3X3X3X3X<X<X>X<X>X>X",
"2X3X1X5X1X5X5X1X3X3X3X1X5X4X3XT.d I :X*X*X:XXX@ 6 v.M. X$.$ 5.t.t.*.r z.6 t OX X X}.}.}.M.+Xu d A.<X<X3X3X3X3X3X3X3X<XH.2XJ.H.H.",
"5X1X3X5X1X3X5X1X3X3X3X3X5X3X3XT.k R.:X&X&X*X.Xo t V.N.OX=.# 5.t.r.i.@.l.7 o =.oXm.N. X XN.+XU * S ,X,X5X<X1X3X3X2X3X2XH.H.H.H.H.",
"5X3X5X1X1X5X5X5X5X3X5X3X5X5X5XI.z &.N.x.x.x.7.. u V.N.OX~.X ~ r.w.r.r.r.5.w   j oX|. X XN.@XY   R.D.,X4X3X3X3X3X2X2X<XH.H.<XH.H.",
"1X2X5X1X2X5X5X5X3X3X3X3X5X5X5XT.;.T x.y.y.x.1.. n V.+X;X.X@ n i.w.w.w.w.r.b.n X P OX X$X X+X*.  R.H 1X1X3X1X3X3X3X3X2XH.J.J.H.H.",
"3X1X1X1X1X5X5X2X3X5X3X3X5X5X1XT.-.2.@XV.V.@X2.. N @X+XXX%Xd % #.e.e.q.e.e.| o.5 X ).;X+X$X@XX.* I.1X,X5X3X<X<X1X2X3X2XH.,X,X,XH.",
"<X2X2X2X2X3X5X5X5X5X3X3X5X3X3XI.;.).*X#X#X*X!.X $.@X$X$X;X~.o v k.q...| ' E ' :.o k ;X$X%X&XX.* I.3X3X3X<X1X3X3X3X3X3X3X3X1X1X1X",
"H.H.H.H.,X<X5X3X5X3X3X3X5X3X3XY.P ).*X#X#X*X!.X P @X%X;X|.b.e o n #.[ ' W ' ' o.5 @ .X$X%X*X2.;.Y.3X2X3X1X2X<X1X3X3X1X<X1X<X,X<X",
"H.H.H.H.H.2X3X3X3X3X1X<X5X3X<XI.P 1.V.h.f.B.7.X P &X$Xn.{ } 4.9 O 5 ! ] o.' ] [ m O %.n.$X*X1.I I.2X2X3X3X1X1X2X3X3X3X<X,X<X<X<X",
"H.<XH.,XH.<X3X3X3X3X3X3X3X3X2XY.P U u.0.0.p.1.o u +X@._ [ | | 6.n O 9 o.! o.] | :.+ m } @.$X*.I I.2X2X5X3X1X1X1X3X3X3X1X1X,X<X<X",
"H.H.H.J.H.<X3X3X3X3X3X3X3X3X1XP.I &.V.f.f.B.8.X y n._ ' ] ] }  .6.% 9 4.3 ! | | ^ + b [ R b.P I P.2X2X3X3X3X1X1X2X3X1X<X<X<X,X<X",
"H.H.H.H.>X,X3X2X3X3X3X3X3X2X<XD.j &.#XC.C.#X[.o d [.` ' ] [ #.q.6.- 9 6.; 9 #.| O.$ b [ E n.L k A.2X3X3X3X3X<X<X1X1X3X2X1X,X,X,X",
"<X3X2X2X1X3X3X1X5X5X3X3X5X5X<XL.p u #XC.C.C.N.% , [.` ' [ ! 8 v ^.; c 4.3 8 #...O.$ b [ W m.u q P.3X3X3X3X2X2X2X2X3X3X3X3X1X3X1X",
"<X<X<X<X<X2X3X3X3X3X3X3X5X3X3XY.p 7 n.f.p.f.x.3 , [.` W ( 2 O o ; $ e 6.; v i...O.O b [ E m.7 p D.3X2X3X2X2X<X<X<X1X3X<X2X<X<X<X",
",X<X<X<X,X1X,X,X1X1X3X<X3X3X3XG.p , @.0.0.0.p.6 o !.5.W / ; c :.4 o c 6.t O.q.e.~ O m o._ {., p D.1X1X3X,X<X,X<X,X,X3XJ.2XJ.2XJ.",
",X<X<X<X<X1X3X,X<X<X<X<X3X3X4XU.q O 5.f.p.p.x.u   2.9.E ( % e b.#.~ _ ..} i.q.e.m O ^ ' +..X, h D.1X1X3X<X,X<X<X<X1X2X2X2X2X2XJ.",
",X,X,X,X<X1X1X,X,X<X<X1X5X3X3XJ.A . 7.@XV.V.@X1.  -.[.E / ; v e.q.e.e.q.q.w.q.k.8 ; ( E j.!.< P.<X2X1X3X<X,X<X<X<X1X2XJ.2X2X2X2X",
"<X<X<X<X<X1X1X,X,X,X<X<X5X3X3X3XG , P @XV.@X@X!.X j oX` / O v i.q.q.q.e.w.w.r.3.O c [ R [.-.q D.1X1X1X3X<X,X,X<X<X<X2X,XJ.J.2X2X",
"<X<X<X<X,X3X3X,X<X>X<X,X5X5X3X3XA.h d m.x.x.x.[.% , %XO.! $ m i.e.e.w.w.w.r.l.w O ^ ' E OXj s D.2X1X<X1X1X<X<X<X<X1X1X<X2X2X<X2X",
"3X5X5X5X3X5X3X<X2X<X<X<X5X5X5X5XY.A $ *.) { { +.8 X )./.:.O 9 b.i.e.w.w.r.k.n . b [ E 5.=X, p G.1X2X1X3X3X1X1X<X<X3X1X<X2X3X3X1X",
"3X3X5X4X5X5X3X>X<X<X<X,X3X5X2X3X3XA.1 n j.@.@.5.N   -.OX^ c O 3 U +.i.i.X.w o 9 4.' E .X].O D G.,X<X<X1X<X<X<X<X,X2X<X>X,X1X2X<X",
"3X5X5X5X4X3X3X<X2X,X2X2X5X5X4X5X3XA.1 8 {.}.}.|./.O q -X3./ m 2 @ # v k.6 o b o.' ' R -XD p G >X<X<X,X1X<X<X<X<X<X<X<X<X<X<X1X2X",
"5X5X5X5X5X5X2X<X<X,X<X>X5X5X3X5X5XI.z o 2.oX}.}.{.8 o =X.XR o.( :.$ e k.3 5 4.W ' E 5.-X< h D.<X,X<X>X1X3X2X<X<X<X<X<X>X<X1X2X1X",
"5X5X5X5X5X5X2X<X<X>X<X>X4X5X4X5X5X4XK.= w /.9.9./.=.. D 8X1.E ' ( ; c m.2 5 o.` ' ~ -X].p G >X,X,X,X,X1X1X<X<X1X1X1X1X,X<X1X1X2X",
"5X5X5X5X5X5X<X>X,X>X<X>X5X5X5X5X5X3XT.l $ m >.~ ^ %.- @ 8X.XR ' / - ; w O 9 4.' W /.8Xq s A.,X,X>X,X,X1X2X1X1X<X<X1X1X,X<X<X<X<X",
"3X3X3X5X3X5X3X<X<X<X<X<X5X3X3X5X3X2X5XL.f 2 <.^ ~ <.M . Z.9X7.E o.m 2 3 8 :.o.W 1.8X].. A H.<X<X2X2X<X3X3X1X1X2X<X3X3X<X<X1X1X1X",
"<X<X>X,X>X<X<X>X<X,X>XH.<X>X>XH.,X>X<X3XK = B _./._.^.- O 6X9X%.W o.o.( ( ' W ~ -X9Xi s A.,X,X,X,X<XH.3X2X,X2X,XH.J.2XJ.2X2XJ.2X",
"<X>X<X<X>X<X3X>X,X>X,X>X<X<X>X>X<X,X<X3XU.f O E._.(._.B o s qX8X3.R Q Q Q E >.=X9XD * T.3X<XH.H.H.,XH.2XJ.2X2X,X,X<X2X<X<XJ.2XJ.",
"<X,X,X,X>X<X<X<X<X>X<XH.<X,X>X>X,X,X<X3X3XK s - C (.^.(.0 O D wX9X`.7.*.3.).7XeX'.# A G.<X2XJ.J.H.H.H.3X2X,X,X,X,X,X2XJ.J.<XJ.2X",
",X,X,X,X>X3X<X>X<X,X>XF.<X>X<X>X>X>X<X3X3X3XK i $ M B C V : . D 0XeXqX9XqXeXwXZ.X F H ,X<X<XH.<X,XH.H.2X<X,X,X,X,X,XJ.H.<XJ.2X2X",
">X,X<X,X,X,X1X,X>X,X,X>X1X<X>X,X,X,X,X5X5X1X3XJ i + : x V V : . s 6X0XwX0X6Xf X A S.<X,X2X<XH.H.J.2X<X3X<X,X,X,X,X<X<X,X<X<XJ.<X",
",X<X,X<X,X,X1X>X>X<X>XH.1X,X,X,X,X,X1X4X1X1X2X2XS s = = - - - - + . & < < . & A A.<X<X,X3X2X<X<XH.J.<X3X<X<X,X,X,X<X<X<X,X<XJ.J.",
"1X1X1X1X1X3X5X4X4X1X3X3X4X1X1X<X,X,X1X4X<X<X<X<X,XH G J s 1 A Z Z a s 1X3X1XT.F.,X<X,X,X3X3X3X5X3X5X3X3X<X,X<X<X,X<X5X3X3X3X3X3X",
",X,X,X,X,X<X1X1X1X1X1X1X1X>XF.H.,X>X,X,XF.J.J.J.,X5X5X1XG.H H H H 1X1X1X1X,X1X,XF.,XF.F.>X3X3X3X3X3X3X3X>X>XF.>X,X,X5X3X3X2X3X2X",
",X,X<X,X>X1X2X<X<X<X1X<X3X>X>XJ.J.F.,X1XF.H.J.,X,X3X5X2X<X1X<X1X3X<X3X1X<X<X1X,X,XF.,X,X2X3X3X3X3X5X5X3X>X>XF.F.,X<X5X3X2X<X<X1X",
",X,X,X,X>X<X4X1X<X<X<X<X1XF.F.H.H.>X1X,XF.J.J.,X,X3X3X<X<X<X1X3X5X3X3X<X1X1X1X,XF.,XF.F.,X3X3X3X3X3X5X3X>XF.F.F.>X<X3X<X<X<X2X1X",
",X,X,X,X,X1X3X<X<X1X<X<X1XF.J.<XJ.>X1X,XF.H.H.H.,X5X5X3X<X3X<X3X3X3X3X3X3X3X3X,X,X,X,XF.,X3X3X3X3X5X5X3XF.F.F.F.>X,X3X1X<X<X<X<X",
",X,X,X,X>X<X3X<X<X<X<X<X1XH.H.H.J.,X,X,XF.J.H.H.,X3X3X3X3X1X<X<X3X3X<X3X3X1X3X,X,XF.F.,X,X3X3X3X3X3X5X3X>XF.F.F.>X,X3X<X<X<X<X<X"
};
