/* XPM */
static char *result[] = {
/* columns rows colors chars-per-pixel */
"64 64 173 2 ",
"   c #AA340A",
".  c #B03808",
"X  c #AE4B07",
"o  c #AC470C",
"O  c #AA4D09",
"+  c #AD5008",
"@  c #AC580D",
"#  c #AF4A13",
"$  c #BA4317",
"%  c #AA5411",
"&  c #A65C11",
"*  c #A64724",
"=  c #A75623",
"-  c #A95527",
";  c #AA572A",
":  c #A75E2A",
">  c #AA5B2B",
",  c #B1512D",
"<  c #BC5A2F",
"1  c #A45334",
"2  c #B65530",
"3  c #BE5C30",
"4  c #A96327",
"5  c #A4662A",
"6  c #A5682A",
"7  c #B8662A",
"8  c #BB752D",
"9  c #BC6933",
"0  c #C64D18",
"q  c #D04F1A",
"w  c #C85518",
"e  c #C55F1D",
"r  c #D2521F",
"t  c #C37D0F",
"y  c #C36F15",
"u  c #CE5022",
"i  c #DE5B26",
"p  c #D85C2A",
"a  c #CE662A",
"s  c #CA7521",
"d  c #C57E24",
"f  c #CF702D",
"g  c #C76235",
"h  c #D0663B",
"j  c #CF7534",
"k  c #CE7738",
"l  c #D07831",
"z  c #E46C28",
"x  c #EA6F2D",
"c  c #E76E31",
"v  c #EE7436",
"b  c #AD5F40",
"n  c #AF6041",
"m  c #9A7767",
"M  c #9C7C6A",
"N  c #8C7F77",
"B  c #A27C66",
"V  c #A17E6E",
"C  c #A27F70",
"Z  c #BB8229",
"A  c #BD8333",
"S  c #BC8239",
"D  c #C7831C",
"F  c #C98C18",
"G  c #DF8C1B",
"H  c #E38A16",
"J  c #E7AA08",
"K  c #E3A81A",
"L  c #EFBB1D",
"P  c #F0B019",
"I  c #CB9324",
"U  c #CE9D27",
"Y  c #D1912E",
"T  c #D09B2E",
"R  c #CD8634",
"E  c #D08B34",
"W  c #CD9536",
"Q  c #CD9B35",
"!  c #CB9F3A",
"~  c #EA8F21",
"^  c #ED9227",
"/  c #E79128",
"(  c #EB823B",
")  c #EC9531",
"_  c #EEB227",
"`  c #EAB629",
"'  c #EAA836",
"]  c #F3B432",
"[  c #F3B935",
"{  c #F9B83F",
"}  c #E9C501",
"|  c #E9CB0F",
" . c #F2C917",
".. c #F2CC1C",
"X. c #F0D914",
"o. c #F1D41B",
"O. c #F1D81E",
"+. c #F5E01D",
"@. c #EFCD2B",
"#. c #F6C02F",
"$. c #EFD324",
"%. c #EED12E",
"&. c #F8DD22",
"*. c #F5D128",
"=. c #F1C332",
"-. c #F1CB38",
";. c #F2D137",
":. c #F9D634",
">. c #FCD93D",
",. c #F8E92B",
"<. c #FDE933",
"1. c #FDF233",
"2. c #FDFB37",
"3. c #FAF23D",
"4. c #9C816D",
"5. c #9F8371",
"6. c #94877F",
"7. c #968A7E",
"8. c #988C7F",
"9. c #A1836E",
"0. c #A28A6E",
"q. c #A28572",
"w. c #A48B72",
"e. c #A88E74",
"r. c #A98D7A",
"t. c #A79072",
"y. c #AA9476",
"u. c #EE8543",
"i. c #F89847",
"p. c #FA9B4D",
"a. c #F1A541",
"s. c #F9A948",
"d. c #F0B045",
"f. c #FEB24B",
"g. c #FAA850",
"h. c #FEAA5A",
"j. c #FEB053",
"k. c #FEB35B",
"l. c #FFB85A",
"z. c #FFAA64",
"x. c #FFB264",
"c. c #FFBC67",
"v. c #F9CB46",
"b. c #FCD542",
"n. c #F8D24A",
"m. c #FCCD55",
"M. c #FFD652",
"N. c #FCD258",
"B. c #FAD859",
"V. c #FEE54E",
"C. c #FEEA4C",
"Z. c #FEF141",
"A. c #FEFC44",
"S. c #FDF54C",
"D. c #FFFD4C",
"F. c #FDEC53",
"G. c #FEE45F",
"H. c #FAF055",
"J. c #FDFF56",
"K. c #FDF35B",
"L. c #FFD365",
"P. c #FFDB67",
"I. c #FEED63",
"U. c #FFFB64",
"Y. c #948780",
"T. c #968981",
"R. c #9A8D85",
"E. c #9C8F88",
"W. c #9D9085",
"Q. c #9E9189",
"!. c #A09487",
"~. c #A1948C",
"^. c #A59890",
/* pixels */
"6.7.Y.Y.Y.R.T.6.T.T.R.T.E.T.T.E.R.R.Q.Q.Q.Q.Q.E.W.~.Q.Q.Q.E.E.Q.~.E.Q.Q.E.R.Q.T.7.R.T.T.R.W.Q.Q.Q.Q.Q.~.W.Q.E.E.E.Q.~.W.E.E.E.R.",
"Y.Y.Y.Y.6.R.E.6.T.T.R.T.Q.E.T.T.R.E.Q.Q.E.Q.Q.Q.R.~.Q.E.Q.E.!.Q.~.E.E.Q.Q.E.!.R.R.T.R.7.T.Q.E.Q.Q.Q.~.~.Q.R.R.E.E.Q.Q.R.E.R.W.E.",
"T.Y.T.Y.6.R.E.Y.T.T.R.T.E.E.E.T.R.T.E.~.Q.Q.E.W.Q.~.Q.E.E.Q.E.~.Q.E.Q.Q.E.Q.!.R.R.R.R.T.R.Q.R.Q.Q.Q.~.~.E.R.E.Q.E.W.Q.E.R.E.Q.Q.",
"Y.T.Y.7.Y.T.E.Y.T.T.R.T.E.E.T.R.T.R.E.~.E.Q.Q.Q.Q.~.Q.Q.!.E.E.!.~.E.E.E.Q.E.Q.R.T.R.T.T.R.Q.R.Q.Q.Q.Q.~.E.R.R.R.R.E.~.R.E.E.E.Q.",
"7.Y.6.6.6.T.R.Y.T.Y.T.R.R.E.T.R.T.R.R.Q.Q.!.Q.E.E.Q.~.Q.Q.Q.E.E.Q.Q.E.E.Q.Q.Q.R.R.R.T.T.R.Q.R.Q.Q.Q.Q.~.E.Q.Q.E.E.E.~.Q.E.R.E.W.",
"Y.Y.6.6.6.T.R.T.R.T.T.T.W.T.T.T.R.R.E.Q.E.W.E.E.E.~.!.!.C C q.C C C C C q.E.E.R.T.T.Y.Y.R.Q.R.E.R.E.Q.~.R.R.E.R.R.E.~.W.R.E.R.E.",
"W.E.Q.E.W.~.~.E.Q.Q.Q.Q.~.W.E.R.R.R.Q.~.Q.Q.!.Q.Q.~.~.B 1 * * g g , , , b q.^.Q.E.R.Q.E.Q.Q.R.R.R.Q.R.^.~.~.~.~.~.~.~.~.Q.~.Q.Q.",
"W.E.E.E.E.!.!.E.E.E.E.E.!.T.T.7.R.T.R.Q.E.E.E.W.R.Q.V 1   u q u r q p . , C ~.E.E.E.E.Q.Q.R.T.T.R.R.T.Q.~.^.^.^.~.~.Q.E.Q.Q.Q.W.",
"W.E.E.R.E.Q.Q.Q.Q.E.Q.R.Q.R.Y.Y.T.T.E.E.E.R.E.R.R.!.9.; . c x x c c v w , C !.E.E.E.R.R.Q.R.T.T.T.R.T.Q.~.~.~.~.~.^.Q.Q.E.Q.Q.Q.",
"W.R.E.R.R.Q.~.Q.Q.Q.E.E.!.R.T.Y.T.T.E.E.E.T.R.E.E.W.9.; . u.( ( ( v u.y , q.Q.E.Q.E.!.8.R.R.T.T.Y.T.T.Q.~.Q.Q.Q.~.~.~.Q.Q.Q.Q.Q.",
"W.W.E.E.Q.Q.Q.Q.Q.Q.Q.E.Q.R.T.R.T.T.E.E.E.T.R.R.R.E.4.; # z.h.h.h.h.z.k 3 w.Q.E.R.R.R.8.R.T.T.R.Y.T.R.Q.~.Q.Q.Q.~.^.~.Q.W.Q.Q.W.",
"Q.Q.Q.Q.Q.~.~.Q.Q.!.Q.E.Q.R.R.T.Y.Y.R.R.R.R.R.E.R.E.M ; # x.k.k.k.x.c.k 9 r.~.Q.W.!.R.W.R.R.T.R.6.6.N E.~.~.Q.~.~.~.~.Q.E.E.E.Q.",
"Q.Q.Q.W.Q.Q.~.Q.Q.Q.Q.~.~.Q.E.E.E.T.W.~.E.E.E.E.E.~.V ; o g.s.s.s.s.j.f 9 r.~.Q.W.W.E.T.W.Q.R.R.E.T.R.~.Q.Q.!.Q.Q.~.~.Q.Q.Q.E.Q.",
"R.T.R.T.T.R.Q.Q.Q.Q.Q.Q.~.Q.E.E.E.E.!.E.7.Y.T.T.6.!.q.: o / / / / / ) e 9 q.W.E.R.E.R.6.R.~.Q.Q.E.R.Q.~.R.R.R.T.T.E.E.6.T.T.T.T.",
"R.R.T.R.R.R.Q.Q.Q.~.Q.Q.~.Q.Q.E.E.E.E.R.6.6.Y.T.Y.E.q.: o a.' ' ' ' d.s 9 9.Q.W.E.R.E.7.T.Q.Q.R.E.E.Q.~.R.R.R.R.E.R.E.6.7.R.7.R.",
"T.R.R.T.T.R.Q.Q.Q.Q.Q.Q.Q.Q.R.Q.Q.E.!.T.6.6.Y.Y.Y.!.q.: # m.N.N.m.m.L.R 9 q.E.E.E.R.W.R.T.Q.Q.Q.Q.Q.E.~.R.E.T.R.R.T.E.T.7.T.8.R.",
"E.R.R.R.R.R.Q.Q.Q.Q.Q.Q.~.Q.T.E.E.E.Q.T.T.T.6.T.6.Q.q.: % L.B.B.B.N.P.E 8 w.E.E.E.Q.~.R.E.~.!.E.Q.Q.Q.Q.E.E.R.T.E.E.T.7.T.T.R.8.",
"Q.E.R.R.T.R.~.Q.Q.Q.~.Q.~.Q.E.E.Q.R.Q.R.T.Y.6.T.6.Q.q.4 % m.n.n.n.v.N.R 8 q.!.E.E.Q.Q.E.E.!.E.Q.Q.Q.Q.~.W.T.T.E.R.E.R.7.7.8.8.R.",
"E.E.R.R.R.R.Q.E.!.E.Q.E.~.Q.Q.R.R.R.Q.T.N 6.6.6.6.Q.q.: o ] ` ` ` _ [ y 8 4.~.E.R.R.R.R.Q.Q.E.E.E.E.E.Q.Q.E.T.R.R.R.R.7.T.T.T.T.",
"R.Q.E.R.R.Q.~.E.Q.Q.Q.!.~.E.E.E.R.T.!.Q.~.Q.~.~.Q.~.5.: O d.=.=.=.#.v.D 8 t.^.~.~.~.~.~.~.~.E.!.Q.Q.Q.~.E.~.~.E.E.!.~.!.~.~.!.!.",
"Y.R.T.T.Y.R.R.R.R.E.E.R.E.Y.6.6.R.T.T.~.~.~.~.~.^.Q.5.5 % I.F.V.F.F.I.W 8 e.~.!.Q.Q.Q.E.Q.E.7.8.E.R.R.R.7.R.!.T.Y.R.~.E.!.!.E.E.",
"T.R.T.T.Y.T.E.R.T.E.E.R.E.T.6.6.Y.N R.Q.Q.~.Q.~.Q.~.4.5 % I.K.K.K.H.U.Q S w.~.~.~.Q.Q.E.W.E.T.R.R.W.R.E.7.7.T.T.6.R.~.E.~.E.E.Q.",
"T.T.R.T.Y.R.Q.R.R.T.T.R.E.6.6.6.Y.T.R.Q.Q.Q.Q.~.Q.~.4.5 % G.F.C.F.V.K.W S w.~.~.!.Q.Q.E.Q.R.R.8.W.W.R.!.T.7.7.E.N Y.!.E.E.Q.E.E.",
"T.T.T.T.T.R.E.R.E.R.R.E.E.7.6.6.6.Y.R.Q.Q.Q.Q.Q.Q.Q.M 5 O -.%.@.@.@.b.d S r.~.~.Q.Q.Q.E.!.R.8.R.r.E.W.!.E.7.R.7.N Y.~.E.E.!.E.E.",
"Y.Y.6.Y.6.T.W.R.E.E.R.T.E.T.6.6.Y.6.T.Q.Q.Q.Q.Q.~.~.V 4 O -.%.%.%.@.b.d S w.Q.Q.Q.Q.Q.Q.Q.R.7.R.8.R.R.Q.Q.R.T.6.6.Y.~.E.E.E.R.R.",
"E.Q.W.E.E.Q.~.Q.Q.Q.E.E.~.E.E.R.E.E.Q.~.~.~.~.~.~.~.q.5 % K.S.S.S.S.U.W S w.^.Q.Q.Q.~.Q.~.Q.R.E.!.E.E.~.E.E.R.R.R.E.~.Q.E.!.E.E.",
"~.~.~.~.~.~.~.Q.Q.Q.Q.Q.~.~.Q.Q.Q.Q.~.~.~.~.~.~.Q.~.q.5 & U.J.J.J.J.U.! S 5.Q.Q.Q.Q.Q.E.~.Q.R.R.E.R.R.Q.!.Q.!.E.Q.!.E.T.T.T.7.T.",
"Q.Q.Q.Q.Q.~.Q.Q.Q.Q.Q.W.~.~.Q.Q.Q.Q.~.^.~.Q.Q.Q.~.~.q.6 % K.S.S.S.S.U.Q A 0.Q.Q.W.Q.Q.Q.Q.Q.R.E.R.T.R.Q.Q.E.E.E.Q.E.R.6.R.7.7.7.",
"Q.Q.Q.Q.Q.Q.~.Q.Q.Q.Q.Q.~.~.Q.Q.Q.Q.Q.~.~.Q.Q.~.Q.^.q.6 O ;.$.$.$.$.>.D A 5.Q.Q.Q.~.Q.Q.Q.Q.R.E.E.R.7.Q.E.E.!.Q.E.E.8.7.8.7.7.7.",
"Q.Q.Q.Q.Q.~.~.~.Q.Q.Q.Q.~.~.~.Q.Q.E.Q.~.Q.~.Q.~.Q.~.q.5 O -.$.$.$.$.:.D Z t.Q.Q.E.E.Q.Q.Q.E.E.R.R.E.R.!.E.!.Q.Q.E.!.W.7.7.R.7.7.",
"Q.Q.Q.Q.Q.~.~.Q.Q.Q.Q.Q.~.~.Q.~.Q.E.Q.~.Q.Q.Q.Q.Q.^.q.6 & H.3.Z.Z.3.D.Y A 5.Q.Q.Q.R.Q.Q.~.Q.R.E.E.E.R.E.W.E.W.E.E.!.R.7.8.8.7.7.",
"Q.E.E.E.E.Q.~.Q.Q.~.Q.Q.~.~.Q.Q.Q.Q.!.Q.Q.E.Q.Q.Q.~.q.6 & U.D.A.D.A.J.T A 0.Q.Q.Q.Q.Q.E.Q.Q.R.E.R.R.R.!.E.E.E.E.E.E.E.7.7.R.T.7.",
"R.R.R.!.R.R.^.~.^.~.~.!.^.!.Q.!.Q.Q.~.Q.W.Q.E.Q.Q.~.q.6 & J.A.A.A.A.J.T Z t.^.~.~.~.~.Q.~.~.!.W.!.!.W.~.E.E.E.!.Q.~.~.E.E.E.E.E.",
"7.7.7.7.T.R.~.Q.E.!.Q.E.~.E.R.R.W.Q.Q.Q.R.Y.Y.T.R.Q.5.6 O ;.O.$.$.o.*.D Z t.~.!.Q.~.~.E.E.E.R.R.R.W.R.!.E.E.E.E.E.!.E.R.R.R.R.R.",
"7.7.7.7.7.E.!.Q.E.~.E.E.~.E.R.E.E.R.Q.Q.E.T.R.R.Y.Q.q.6 X #.| | | | *.D Z e.^.E.!.E.E.E.!.E.E.!.W.W.W.!.E.E.W.R.E.!.E.R.R.R.R.R.",
"7.8.8.7.6.E.Q.Q.~.E.E.E.E.E.E.E.R.R.Q.Q.Q.Q.R.Y.T.Q.q.5 % <.,.,.,.,.Z.I Z t.^.Q.Q.Q.Q.E.Q.E.E.R.R.W.W.~.!.Q.W.E.E.E.E.E.R.T.R.R.",
"8.7.7.8.6.R.!.E.E.Q.Q.E.Q.E.E.E.R.R.Q.Q.Q.Q.Q.R.Y.Q.5.6 & S.2.2.A.2.A.U Z y.^.Q.!.E.Q.R.E.!.R.W.W.8.R.~.W.E.E.R.E.Q.E.R.R.T.R.R.",
"7.7.7.7.T.R.Q.E.!.E.E.E.Q.E.E.T.R.T.Q.~.~.Q.Q.Q.E.W.5.6 & S.2.2.2.2.A.U Z y.~.Q.E.E.E.E.E.W.R.E.W.W.E.E.!.E.E.E.E.E.E.E.R.T.T.T.",
"R.E.E.R.R.E.!.E.~.~.~.!.^.Q.E.E.E.Q.Q.^.Q.Q.~.Q.Q.~.0.5 + *.X.X.X.X.&.F Z t.^.~.~.~.!.E.~.!.E.~.!.!.E.^.Q.E.E.E.E.Q.!.E.E.E.E.E.",
"R.R.E.R.R.E.E.E.E.Q.Q.E.~.~.Q.Q.Q.Q.Q.R.Y.E.Q.W.T.Q.q.6 X L } } } }  .t Z w.~.Q.E.E.E.E.~.~.E.Q.Q.W.E.~.R.R.E.T.T.E.!.R.E.R.R.R.",
"T.R.R.R.T.E.T.T.E.E.W.R.W.!.~.E.Q.E.~.E.6.E.E.R.T.E.q.4 + :.+.+.&.&.<.F Z 9.Q.Q.Q.E.E.Q.!.~.E.~.Q.E.E.Q.T.R.T.R.R.T.!.8.8.8.R.8.",
"T.R.E.R.T.!.E.T.R.R.E.R.~.~.E.E.Q.E.Q.T.7.Y.T.E.R.E.9.4 @ C.1.1.2.1.S.U Z 0.Q.Q.Q.W.W.E.E.~.E.Q.Q.E.R.Q.R.T.R.R.E.W.W.!.W.!.!.8.",
"T.T.T.T.R.E.E.T.T.R.R.E.Q.Q.E.!.E.E.Q.E.T.Y.T.E.R.E.q.= @ C.1.1.1.<.S.U 8 w.~.E.Q.Q.Q.E.E.!.Q.Q.R.E.R.Q.R.T.R.R.T.E.R.8.8.W.W.R.",
"T.E.R.R.R.E.E.T.T.T.R.R.~.~.Q.Q.Q.E.Q.E.T.T.Y.7.R.!.q.= + -....... .:.D 8 q.Q.!.E.Q.W.E.E.!.E.W.E.Q.E.E.R.R.R.T.R.E.R.8.8.W.!.8.",
"T.R.R.R.T.!.E.T.Y.T.R.T.~.~.Q.Q.Q.E.Q.E.Y.T.E.Y.Y.~.q.: o K J J J J P y 8 0.E.E.Q.Q.Q.E.E.!.E.R.E.E.R.W.R.R.T.R.T.E.E.T.W.E.R.E.",
"~.~.~.^.~.~.!.E.E.R.R.E.~.~.~.~.!.Q.~.~.W.Q.E.W.R.^.q.: X [ L L L L #.s 8 e.^.!.Q.Q.Q.W.Q.E.E.E.E.E.E.~.!.!.E.E.E.Q.!.E.!.Q.!.E.",
"E.Q.~.!.~.~.R.T.T.E.E.Y.Q.~.W.Q.Q.Q.~.W.R.E.E.R.R.E.q.: O M.b.>.<.>.M.Y 8 w.!.E.W.R.R.8.E.R.7.E.R.T.T.W.R.R.E.T.T.E.E.6.7.E.E.R.",
"Q.~.~.!.!.~.R.R.E.T.E.E.!.~.!.~.Q.Q.~.Q.Y.W.Y.R.T.~.q.: % m.b.b.n.b.M.E 7 w.Q.E.W.W.8.8.R.E.T.T.T.R.T.Q.E.R.R.R.T.E.E.T.R.R.E.R.",
"~.~.~.~.~.~.W.R.T.R.R.T.Q.~.!.~.~.!.~.W.E.E.R.R.T.!.q.> X { ] ] [ ] { s 7 9.W.E.W.W.W.7.T.E.T.E.R.T.T.Q.Q.R.R.R.E.R.R.T.R.R.E.E.",
"~.~.~.~.~.~.E.T.R.T.T.T.Q.~.~.~.~.!.~.!.R.R.R.R.T.Q.q.: o G H H H H ~ w 7 V E.T.8.W.!.8.R.E.Y.T.T.T.T.Q.Q.R.R.R.R.Q.E.T.R.E.Q.R.",
"~.^.~.~.~.~.R.Y.T.T.T.T.Q.^.~.~.~.!.~.E.T.R.R.R.Y.E.M ; . / / ^ ^ ^ ) e 7 9.E.T.R.8.R.W.R.R.T.T.T.T.T.E.R.Q.W.E.R.Q.R.T.T.R.R.R.",
"E.Q.~.Q.Q.~.E.R.R.R.R.R.~.Q.Q.!.Q.E.!.~.Q.Q.Q.Q.E.~.q.; # j.f.f.f.f.l.l 7 q.!.E.R.E.W.E.Q.W.Y.E.R.R.T.~.Q.E.Q.W.E.E.Q.R.Q.Q.E.E.",
"R.T.Y.Y.Y.R.R.R.T.T.T.Y.R.T.6.6.Y.T.R.Q.Q.E.E.!.E.!.M ; # h.j.j.k.j.l.j < 9.E.E.R.R.R.R.E.R.7.7.R.T.7.W.W.R.R.7.6.R.W.T.R.r.R.R.",
"R.T.R.R.Y.R.R.R.T.T.T.T.R.R.Y.T.R.T.R.E.Q.W.E.R.E.E.M - # p.i.i.i.i.p.a 2 9.E.T.Y.E.R.R.E.R.7.7.7.T.7.W.R.8.R.7.7.T.W.8.8.W.8.R.",
"R.T.Y.T.T.R.R.T.R.T.T.Y.R.T.6.Y.T.T.R.~.!.E.E.E.E.E.M - . c z z z z x 0 2 V E.R.R.R.T.R.R.R.R.8.7.7.7.W.R.R.7.T.Y.R.W.8.W.8.8.W.",
"T.T.R.Y.T.R.R.Y.R.T.T.6.R.T.T.T.Y.Y.R.Q.!.E.E.E.E.E.M -   p i p p i i $ , M W.E.E.Y.R.R.E.R.7.8.R.7.7.E.R.T.T.T.T.T.R.8.8.8.W.W.",
"Y.Y.T.R.T.R.R.T.T.T.R.Y.R.T.T.T.T.Y.R.E.!.E.!.E.E.E.N 1 * * # h h 2 2 2 n V Q.E.R.E.R.T.E.R.7.7.8.W.R.Q.T.E.T.T.T.T.T.T.T.W.8.W.",
"T.R.R.R.Y.R.R.T.T.T.T.T.R.R.T.T.T.7.E.!.E.Q.E.!.E.E.6.M M m m V q.9.V V C E.Q.E.R.E.R.T.W.E.R.T.7.8.8.Q.E.T.E.Y.T.W.E.R.T.8.8.8.",
"R.R.R.R.R.Q.~.Q.Q.Q.Q.Q.~.R.R.R.R.T.E.Q.R.R.R.R.8.~.Q.Q.E.E.E.!.~.E.Q.Q.E.E.Q.E.T.R.E.Y.E.~.~.~.~.Q.~.~.T.T.E.T.T.W.~.~.Q.Q.Q.Q.",
"R.T.T.R.T.R.Q.E.E.R.R.E.E.T.6.Y.6.6.T.E.Y.7.7.7.7.!.E.E.E.E.R.R.!.R.E.E.R.R.E.6.6.6.6.6.Y.!.Q.Q.W.~.Q.Q.6.7.6.Y.Y.E.Q.Q.Q.W.Q.W.",
"Y.R.T.R.Y.R.Q.R.R.R.R.E.Q.T.6.7.7.6.T.T.7.7.8.R.7.!.~.E.E.R.E.E.Q.E.Q.E.R.R.E.7.Y.Y.Y.Y.E.Q.Q.Q.Q.~.~.Q.6.Y.6.7.Y.T.Q.Q.W.R.E.E.",
"T.T.T.Y.T.R.Q.R.R.R.R.R.E.6.7.7.7.Y.E.R.7.7.7.7.7.!.E.E.R.R.R.E.Q.Q.E.W.E.E.W.Y.7.R.Y.7.Y.Q.Q.W.Q.Q.~.Q.6.6.6.6.Y.R.Q.E.R.E.R.E.",
"T.T.T.T.T.E.Q.R.R.E.R.R.E.7.7.7.7.7.E.R.6.7.7.T.T.Q.!.E.E.E.E.E.!.E.E.E.Q.W.Q.Y.Y.Y.Y.7.Y.Q.Q.Q.Q.~.~.Q.6.6.6.6.Y.T.Q.W.R.E.T.W.",
"T.T.Y.R.T.R.Q.R.R.R.R.R.E.T.7.7.7.7.T.T.6.7.7.T.Y.Q.~.E.W.E.E.E.Q.Q.E.Q.Q.E.Q.R.Y.Y.6.6.R.Q.Q.Q.Q.Q.~.Q.6.6.6.6.6.R.Q.E.T.E.T.E."
};
