/* XPM */
static char *result[] = {
/* columns rows colors chars-per-pixel */
"64 64 217 2 ",
"   c #842300",
".  c #8C2200",
"X  c #852800",
"o  c #8A2C02",
"O  c #942604",
"+  c #912B00",
"@  c #982A02",
"#  c #883603",
"$  c #933402",
"%  c #9B3E03",
"&  c #953B1A",
"*  c #A42E06",
"=  c #A03704",
"-  c #A83703",
";  c #B43D15",
":  c #984B06",
">  c #934009",
",  c #8B4518",
"<  c #94461A",
"1  c #9B421D",
"2  c #9A4D1D",
"3  c #9C5216",
"4  c #A54104",
"5  c #AB4207",
"6  c #A3490B",
"7  c #AB4F0B",
"8  c #B14808",
"9  c #B84E0C",
"0  c #AA5B0A",
"q  c #B35C0F",
"w  c #BD5C0F",
"e  c #A44E1A",
"r  c #B55514",
"t  c #9D6004",
"y  c #B5610F",
"u  c #B76B0F",
"i  c #BC701B",
"p  c #9A4929",
"a  c #9F542A",
"s  c #9C5B2A",
"d  c #954930",
"f  c #995936",
"g  c #A44322",
"h  c #A35626",
"j  c #A15925",
"k  c #AB552D",
"l  c #A65932",
"z  c #9D6233",
"x  c #AF6722",
"c  c #AB6726",
"v  c #BB7628",
"b  c #A96A36",
"n  c #B47838",
"m  c #C44C1B",
"M  c #CD6714",
"N  c #C16519",
"B  c #C67519",
"V  c #D67B1C",
"C  c #CB5223",
"Z  c #CA662B",
"A  c #C47B27",
"S  c #DB6933",
"D  c #E97031",
"F  c #965E43",
"G  c #976147",
"H  c #A36241",
"J  c #AC7744",
"K  c #A2795C",
"L  c #9B7A64",
"P  c #997968",
"I  c #9C7D6B",
"U  c #957F73",
"Y  c #A37C63",
"T  c #A27C6B",
"R  c #BF8013",
"E  c #BF8518",
"W  c #C6811D",
"Q  c #C88C1A",
"!  c #D68C19",
"~  c #C89B16",
"^  c #EC9D04",
"/  c #EF970F",
"(  c #F99705",
")  c #F49B02",
"_  c #FC9D06",
"`  c #E88C14",
"'  c #F68E1D",
"]  c #FD9B14",
"[  c #F49E19",
"{  c #D3A41C",
"}  c #EBA809",
"|  c #F2A205",
" . c #FAA505",
".. c #F5AE07",
"X. c #FEA20D",
"o. c #EAB10A",
"O. c #FDB003",
"+. c #F7BC05",
"@. c #FDB60A",
"#. c #ECA91F",
"$. c #FFA516",
"%. c #FCAC16",
"&. c #FCA01E",
"*. c #FFA91F",
"=. c #F8BB1B",
"-. c #CC852D",
";. c #DD8221",
":. c #D99527",
">. c #C18735",
",. c #D09036",
"<. c #D5973A",
"1. c #E88520",
"2. c #EA9724",
"3. c #F99821",
"4. c #F0963B",
"5. c #DFA731",
"6. c #D8A739",
"7. c #E0A424",
"8. c #E5AC27",
"9. c #FFAC2E",
"0. c #E8BC25",
"q. c #E9B52B",
"w. c #F4B62A",
"e. c #FEB529",
"r. c #E7A238",
"t. c #EDAC3A",
"y. c #EDBE36",
"u. c #FBBD3B",
"i. c #EBC70D",
"p. c #FCC205",
"a. c #FACD04",
"s. c #FCC808",
"d. c #F8D103",
"f. c #FDC415",
"g. c #F9D915",
"h. c #FFD21C",
"j. c #FCEC05",
"k. c #F7F503",
"l. c #FEF10F",
"z. c #FEE410",
"x. c #EFCE21",
"c. c #F7C725",
"v. c #FEC028",
"b. c #ECD02A",
"n. c #F3D222",
"m. c #FEDA21",
"M. c #FED42B",
"N. c #FFC736",
"B. c #F8CF30",
"V. c #F9C939",
"C. c #F9D835",
"Z. c #FAD539",
"A. c #FEE329",
"S. c #FFF325",
"D. c #FDEC35",
"F. c #FBF837",
"G. c #AC8156",
"H. c #9D826D",
"J. c #8F827A",
"K. c #9D8373",
"L. c #94877F",
"P. c #9C8678",
"I. c #968A7E",
"U. c #988C7F",
"Y. c #A28263",
"T. c #A5876B",
"R. c #A2846E",
"E. c #BB8163",
"W. c #A18572",
"Q. c #A28A77",
"!. c #EA8642",
"~. c #F19851",
"^. c #DCA945",
"/. c #DDBA44",
"(. c #F0AA48",
"). c #EBB742",
"_. c #F7A857",
"`. c #FBB555",
"'. c #CBA36E",
"]. c #FFAF65",
"[. c #E3BC65",
"{. c #FEB762",
"}. c #F4CC4A",
"|. c #EED34A",
" X c #FCD443",
".X c #FCDB47",
"XX c #FAD84D",
"oX c #E9C352",
"OX c #FCCC53",
"+X c #FDDF53",
"@X c #FDDA5B",
"#X c #FEEB47",
"$X c #FFF343",
"%X c #FEFE45",
"&X c #FEF44D",
"*X c #FBEA55",
"=X c #FEEF5E",
"-X c #FEFB51",
";X c #F8D367",
":X c #FDE46E",
">X c #FFFB63",
",X c #948780",
"<X c #968981",
"1X c #9A8D85",
"2X c #9C8F88",
"3X c #9D9185",
"4X c #9E9189",
"5X c #A09487",
"6X c #A1948C",
"7X c #DFC59E",
"8X c #F2DB88",
"9X c #FCEF92",
"0X c #F0DBBA",
"qX c #F8E6AD",
"wX c #FEF8B0",
"eX c #F9ECCC",
"rX c #FFFDD3",
/* pixels */
"L.I.,X,X<X<X2XL.<X<X<X2X2X<X<X2X1X1X4X4X4X4X3X4X2X4X4X4X2X2X2X2X6X2X4X4X2X2X4X<X1X1X<X<X1X2X4X4X4X6X2X6X2X4X1X2X2X4X6X4X1X2X3X1X",
",X,X,X,X<X<X1XL.<X<X2X<X2X2X<X1X1X2X4X4X2X4X2X4X2X6X4X4X6X2X6X6X6X2X2X4X4X1X5X1X<X1X1XI.<X5X2X2X4X5X6X6X4X1X2X2X4X3X4X4X1X2X4X2X",
"<X,X<X,X,X2X2X,X<X<X<X<X2X1X1X<X<X<X4X6X4X4X2X4X3X6X4X2X2X4X2X6X2X2X4X4X4X4X5X<X1X<X1X<X1X6X2X2X4X2X6X6X4X1X1X2X1X4X4X1X1X4X4X4X",
",X<X,XI.<X<X<X<X<X<X1X<X2X2X1X<X1X1X1X6X4X4X4X4X4X6X4X4X4X2X2X6X6X2X2X2X2X4X6X1X1X<X<X<X<X5X2X2X2X2X6X6X1X1X4X2X1X2X6X1X1X1X2X4X",
"I.,XL.L.L.<X2X<X<X<X<X<X1X2X<X1X1X1X1X4X4X4X4X4X4X4X6X6X6X6X2X4X5X4X4X4X4X2X6X<X<X<X<X<X<X4X2X4X2X4X6X6X2X2X4X2X1X4X6X4X4X2X1X4X",
",X,XL.L.L.<X<X<X1X<X<X<X3X<X<X1X1X<X2X4X4X2X2X4X2X6XT T T T I T W.H.H.T.R.T W.<X<X<X<X<X1X4X1X2X2X4X6X6X1X1X6X6X1X2X6X4X1X1X2X1X",
"3X2X4X2X3X6X6X2X4X4X4X4X6X2X1X1X1X2X4X6X4X4X4X4XW.K d g g g g g g h 2 k 1 2 f Y 2X2X5X4X5X6X2X1X1X4X2X6X6X6X6X6X6X6X6X4X4X6X6X4X",
"3X2X2X2X2X5X5X2X4X2X4X3X4X<X<XI.1X,X1X4X4X1X3XR.a g * ; C C * O $ y Q ~ W 9 @ l L 2X2X2X6X<X<X<X<X1X<X5X6X6X6X6X6X6X6X1X4X4X4X2X",
"1X2X2X1X1X4X4X4X4X2X2X2X4X<X<X<X<X<X2X4X1X1XY g @ 8 S D D ; * : 7.h.m.m.A.N.:.$ s Y 2X1X5X2X,X,X<X<X<X6X6X6X6X6X6X6X6X2X2X4X4X2X",
"5X1X4X1X1X4X6X4X4X4X4X2X4X1X<X,X<X<X1X4X<XY d * Z !.!.!.m O r u.m.a.+.@.+.d.m.8.> j Y.U.1X1X,X<X<X<X,X3X6X4X4X4X6X6X6X6X4X4X4X4X",
"3X2X4X2X4X4X6X4X4X4X4X1X6X1X<X<X<X<X2X4XY k O S ]._.].S O 6 B.h...^ ) ( ( | p.h.8.% a Y.3X<X<X<X,X<XL.2X6X2X4X6X6X6X6X6X4X4X4X4X",
"4X3X4X4X4X6X4X4X4X5X4X4X4X1X<X1X<X<X<XQ.l o Z {.`.{._.= @ 8.h...( _ ] ] ] ] ) ..A.Q # c H.2X<X<XL.L.L.2X6X6X4X6X6X6X6X6X1X1X4X4X",
"4X4X4X3X4X6X6X4X4X6X4X4X6X4X1X2X2X<X4XY & - _._.(.`.Z . i A.o.) [ V 5 > 8 ` _ ) +.B.0 2 L 4X2X2X2X<X1X6X6X2X2X6X6X6X6X4X4X4X4X4X",
"1X<X1X<X<X2X4X4X4X4X4X4X6X6X4X2X2X1XQ.b @ V 2.:.2.1.@ % =.+.^ _ ] * 6 i @ 9 ] ( ) h.8.+ b Q.5X2X2X2X6X6X1X1X<X1X<X2X2XL.<X<X<X<X",
"1X1X<X<X<X1X4X4X4X6X4X4X6X4X2X4X4X2XY.< r t.t.t.(.Z X W h.| ] _ 3.= Q &X6 8 $._ ) ..M.y e Y.5X2X1X2X2X6X1X1X1X1X1X1X1X<X<X<X<X1X",
"1X<X1X1X<X1X4X4X4X4X4X4X6X4X1X2X4XP.J $ (.;XOXOX`.6 $ 0.p.| $.&.1.$ W $X: 8 9. .X.| c.:.o b K.3X4X2X2X6X2X1X<X1X1X<X2X<XI.U.1XU.",
"2X1X1X1X<X1X6X2X4X4X4X4X6X4X1X1X2XY.& x ;X;XXX@X^.  q M...*.1.9 $ # ~ F.t X N [ $.) @.c.4 h W.4X4X4X4X6X2X2X<X<X2X2X<XI.<X<X1XU.",
"4X2X1X1X1X1X6X4X4X4X6X4X6X4X1X2XP.J + <.@X}.}.@XA   :.c.%.! $ : Q c.z.l.b.W # 7 9.%...M.i 2 W.3X4X4X4X6X2X2X2X1X2X2X1XI.I.U.U.1X",
"4X2X1X1X1X1X6X2X4X4X4X1X6X4X3X2XK.b = r.q.8.q.t.6 $ y.=.e.7 = B.S.l.l.l.l.S.{ o w 9.%.h.7.3 Y.3X2X2X2X6X5X<X<X1X<X2X1XI.I.<X1X<X",
"1X2X4X1X1X2X6X1X4X6X4X4X6X4X2X1XK.< y V.y.c.N.r.+ 0 M.=.u.r 7 S.k.j.j.k.k.j.S.R X 2.w.=.c.% b W.4X4X2X6X2X6X6X2X2X5X6X5X6X6X5X5X",
",X1X<X<X,X1X1X1X1X2X2X1X3X,XL.L.H.< <.=X*X#X=X<.  W m.=.).w : A.k.j.j.k.k.j.l.b.$ N u.=.M.q 2 H.1XQ.<X3X<X1X5X<X,X<X6X2X4X6X2X2X",
"<X<X1X<X,X<X2X1X<X1X1X2X3X,XL.I s # oX>X=X*X>Xv X 7.m.=.N.N % m.l.l.l.j.l.j.j.A.y 6 u.e.M.R 2 H.2X5X2X5XI.I.<X<X,X<X6X2X5X2X2X4X",
"<X<X1X<X<X1X4X1X1X1X1X2X2X,XL.P j 6 @X*X#X*X:Xq o y.M.=.N.A % Z.C.Q { A.i.z.j.l.Q $ t.v.M.{ < K 1X5X1X3X<XI.I.1XU ,X6X2X2X4X2X2X",
"<X<X<X<X,X1X2X1X2X1X<X1X3X,X,XP j r }.b.b.b.y.: : B.B.V.V.A % <.: X i A.t 0.j.l.7.# r.N.M.q.$ b H.1X3X5X2XI.1XI.U <X5X2X5X4X4X2X",
",X,X,XL.L.<X2X1X2X2X2XI.2X<X,XI s v Z.b.b.C.).$ 0 Z.Z.V. X<.@ + 6 $ R A.: Q z.j.8.# ,.N.B.V.% j H.1X1X4X3X1X<XJ.,X,X4X3X4X4X2X2X",
"2X4X4X2X2X2X6X3X6X2X2X2X6X2X1XT < <.>X&X-X>XoXX u A.B.V.V.OX-.A _.> R A.: Q z.j.8.o <. XB.Z.6 j H.3X3X6X3X2X2X2X2X2X4X2X3X4X2X2X",
"6X6X6X6X6X6X6X3X4X4X2X4X6X5X5XT.< /.>X-X-X-X^.  E A.Z. X XZ. X*XOX> R M.t 8.z.z.7.o 6..XC.C.0 j H.1X<X4X4X4X4X4X2X4X2X1XI.1X,X,X",
"2X4X2X6X2X6X6X2X2X4X4X4X6X5XK.f $ oX-X&X-X>X<.  Q D. XXX+XZ. X;X-.o B M.o.g.d.g.2.o ^..X XD.u j H.<X2X4X4X4X4X4X4X2X1X,X1X<XI.I.",
"6X2X6X4X2X6X6X2X4X4X4X4X6X6XR.2 $ q.C.x.b.C.-.. :.#XXX+X+XXXOXx   y q.h.a.a.a.g.i # oX+X.X$Xi c W.1X<X4X4X2X4X4X4X3X1XI.U.U.I.U.",
"6X3X4X6X1X6X6X6X6X4X4X4X6X6XW.j % q.n.x.x.C.A o 5.#X+X+X*X;Xx X ! h.a.a.a.s.s.h.0 3 *X+X#XF.i x W.3X3X4X3X2X4X4X3X3X3XI.I.<XI.I.",
"4X3X4X2X2X6X6X6X4X4X6X4X6X6XT j % XXF.F.F.-X>.X 5.&X+X+X:X<.o M 9.O.p.s.a.a.f.#.# >.=X*X*X#XR n K.2X1X3X4X4X3X3X3X4X1XI.U.1XI.I.",
"4X2X2X2X2X6X6X3X4X6X2X2X6X6XT j 6 *X%X%X%X>X>.X 5.&X*X*X=X3 = ' ( ^ ..@.p.p.e.y $ [.=X*X*X&XR >.W.1X2X4X3X2X2X2X3X4X1XI.I.I.<X<X",
"1X1X3X3X1X4X6X6X6X6X6X4X6X6XR.j > *X%X%X%X-X>.  5.-X*X=X^.o M $.( _  . .O.e.B o B u.#X*X*X&XR >.H.3X3X6X2X3X4X4X4X4X4X4X4X2X2X2X",
"I.I.I.I.I.1X6X4X6X4X4X2X6X3XL s % 0.g.n.n.Z.A   5.-X.Xc.B O `  .| _ X._ ` 9 o u e...} V.*X&XQ n H.3X3X5X2X1X1X2X4X4X2X1X2X1X<X1X",
"U.I.I.I.U.1X6X4X4X4X2X2X6X4XI 2 $ 8.i.i.i.n.E X 6.#X} %.N - 3. . .[ ` &.5 $ V =.O.O. .} 0.#Xi c Q.3X3X5X4X2X3X2X4X4X4X1X1X<X1X1X",
"I.U.U.1XI.1X4X4X4X4X4X3X4X3XP a @ y.D.A.D.$X,.  :.0.) 9.8 - &. .%.M w 9.4 r e.+.O.@. . .^ B.i s H.3X3X6X4X4X2X2X4X4X4X2X2X1X2X<X",
"I.I.I.U.U.1X6X3X4X4X4X4X4X4XK.d # /.%XF.F.-X6.  -.B.) $.8 8 $. .*.5 w 9.4 q =.=.@.O. .X.| V.q z H.U.3X4X4X3X2X1X1X4X4X1X1X<X2X1X",
"I.I.I.I.,X<X4X1X4X4X4X4X4X2X1XK 1 6.%XF.F.%X/.X v V.) $.8 8 $.O.&.> y 9.4 q 9.B M [  . .} }.3 s H.3X3X6X4X4X3X1X2X4X2X3X1X<X<X<X",
"1X2X1X1X2X2X4X2X6X6X4X4X6X6X2XW.j W A.g.g.A.q.+ x  X^ $.8 4 %.O.%.6 y e.5 - 5 o + M %.| } }.: z P.4X4X6X4X3X4X2X2X4X4X4X4X2X3X2X",
"1X1X3X1X1X3X4X2X4X4X4X4X6X4X4XT p q f.i.i.i.%.% 3 }.| $.w = %.@.%.! u e.4 o 5 1.- 9 *.) =.).$ s H.3X3X6X3X3X1X1X1X3X4X3X1X1X1X1X",
"<X2X1X1X<X2X1X<X2X2X2X1X5X5X6XW.p 0 B.z.g.n.C.0 $ }...$.M @ 2.p.@.=.o.@.! :.e.e.6 9 *.) v.^.X J P.2X2X4X1X<X1X1X<X<X3XU.3XU.U.3X",
"<X1X2X1X<X4X2X<X1X1X1X1X6X5X2XW.b % |.F.D.D.&Xi X /.w._ ` o ! f.+.p.p.s.f.a.+.=.7 7 $.^ Z.,.< R.3X4X1X4X1X<X1X<X1X4X3X1X3X3X3XU.",
",X<X1X<X1X4X1X<X<X2X2X2X6X2X2X4XK < 6.-XD.D.$X,.  <.OX) 3.- 7 e.s.p.p.s.a.p.a.f.0 4 ] | @Xc s K.1X4X1X4X1X<X1X1X1X2X3XU.U.3X3X3X",
"1X1X<X1X<X1X1X1X<X<X<X2X6X6X6X2XH.2 i Z.n.n.g.6.o x ;X^ $.B + ! h.a.s.a.a.d.a.h.q 4 ] #.;X: b K.4X4X2X4X2X<X1X<X<X2X3X1X3X3X3XU.",
"<X1X1X1X1X4X2X<X<X<X<X<X6X6X2X2XI < 5 #.o.o.o.#.% > ;X8._ ] 5 $ 8.h.a.a.a.g.g.e.7 - / V.[.o z I.1X2X2X3X1X1X<X1X1X1X2X1X3X3X3X3X",
"6X6X6X6X6X6X4X1X2X2X2X2X6X6X6X6XW.b @ :.v.w.=.V.q X [.}.} X.' = $ ! f.a.f.w.! 6 + M ] ;X>.& Y.1X3X3X2X6X4X4X4X2X1X4X4X1X3X3X4X2X",
"4X5X6X5X6X6X2X<X<X2X<X<X6X6X4X5X2XY & i XX X.X+X<.  J :X^ ^  .` 8 . B N.y % # 4 V 3.8.:X3 c P 1X<X<X<X3X2X1X1X<X<X1X1X<X<X2X3X1X",
"4X6X5X6X6X6X2X1X1X2X2X<X6X6X5X5X5XT 1 % ).XX X.X`.% % 8X).^  .X.3.% u N.5 - V [ _ / }.[.o K K.,X1X2X<X4X2X1X1X1X1X2X1X1X1X1X2X1X",
"6X6X6X6X6X6X4X1X1X<X2X<X5X6X4X6X6XT.J + A u.e.w.).N . '.:X/ | X.[ > B V.4 9 *._ ) 7.9XJ , W.1X1X<X1X<X3X4X2X1X1X2X1X2X,X1X2X2X1X",
"6X6X6X6X6X6X2X<X1X<X<X<X6X6X6X6X6X3XE.1 % 1.` ` 3.V @ 3 9X)./ X.[ = - B * 9 $._ / ;X8X# G.K.,X,X<X<X<X4X3X2X2X1X1X2X3X,X1X2X2X3X",
"6X6X6X6X6X6X1X,X<X,X1X<X5X6X6X6X6X6XQ.b O r 4.2.2.4.9   '.9Xr.) $.M - * 5 ;.%./ t.wXn f W.1X,X<X<X<X,X4X2X2X3X1X2X3X2X,X<X1X2X1X",
"4X4X4X6X4X6X5X1X1X1X1X<X6X4X4X5X6X2X6XT b @ ,._.(.].~.@ & qX8X7.( ] ] ' ] ] / r.9X7X# G K.3X1X1X2X2X<X6X4X3X3X3X1X2X4X2X3X2X2X2X",
"<X<X<X<X,X2X2X<X<X<X<X<X2X<X,X,X<X<X1X6XT h % !.]._.].Z . H wX8Xr./ | _ _ / ^.qXqXp F W.4X1XI.,X<X<XI.3X3X<X1XU.I.<X3X3X3X3XU.3X",
"2X<X<X2X,X<X4X<X1X<X<X<X<X<X<X<X<X<X1X2X2XT h = !.~.~.4.5   E.rXqX[.t.r.).;XeXeXH G H.3X2X1XI.I.,X<XI.3X3X1X1X<X,X<X3XU.<X3XU.U.",
"1X<X<X<X<X1X1X<X<X<X<X,X2X<X,X,X<X<X<X6X2X6XL h * C D D S - . E.eXrXrXrXrXrX0Xl F K.<X1X1X1XU.U.<XI.I.3X1X1XI.<X<X<X3XU.3X1X3X3X",
"<X<X<X<X<X2X1X,X1X<X<XL.<X<X<X<X<X<X1X2X6X2X2XY h O 5 m S C * . p '.7X0X7XY & K K.<X1X1X1X1XU.1X1XI.I.3X1X<X<X<X<X1XU.I.U.U.U.3X",
"<X<X<X1X<X<X2X<X<X<X<X<X2X<X<X<X<X,X2X5X2X6X4X3XY l & g g g g g f f f E.d d K T 1X4X1X,X2X1XI.I.U.3X3X4X1X1X<X<X<X<X2X,X<X1XU.1X",
"<X<X1X<X<X<X1X,X<X<X<X,X2X<X<X<X<X,X1X5X2X2X3X3X2XW.L L P P P I L.U 1XQ.L.W.<X2X1X1X1X1X4X2XI.1XU.U.U.4X1X<X1X,X<X3X3X1X<X1XU.U.",
"2X2X2X1X2X4X6X5X5X2X5X2X5X2X2X1X1X<X2X4X<X1X1X3X<X6X4X4X1X2X4X4X5X2X4X4X2X1X6X1X,X1X1X,X1X6X6X6X4X4X6X6X1X,X1X1X<X3X4X4X4X4X4X4X",
"<X<X1X<X<X1X2X2X2X2X2X2X2X<XL.,X<X,X<X1X,X<XU.U.I.5X4X2X2X1X1X1X2X2X2X2X1X1X2X,XL.L.I.I.,X6X4X4X4X4X4X4XL.,XL.,X,X1X6X4X4X3X4X3X",
"<X<X1X<X,X<X5X2X1X2X1X2X5X,X,X,XI.L.<X<XI.I.U.U.I.5X6X2X2X2X1X2X4X2X3X2X2X1X2X<X<X,X,X<X1X6X4X3X4X6X6X4X,X,XL.L.<X2X6X3X3X1X3X2X",
"<X<X<X<XI.2X6X1X2X<X1X2X2X,XI.I.I.,X1X1XL.I.I.1X,X5X4X2X1X1X1X4X6X6X3X2X2X2X2X<X,X<X,X,X,X4X4X4X4X4X6X4X,XL.L.L.,X<X4X2X1X3X2X3X",
"<X<X<X<X<X2X5X1X1X1X1X1X2XI.I.I.I.I.1X1XL.I.I.<X<X5X6X2X1X2X1X2X2X2X2X2X6X2X4X<X,X<X,X,X1X3X4X4X4X6X6X4XL.L.,X,X,X<X4X2X1X2X1X1X",
"<X<X<X1X<X<X2X1X2X1X1X2X2X<XI.I.I.I.1X<XL.I.I.,X,X4X6X2X4X2X1X2X6X2X2X4X2X2X4X<X,X,X,X,X<X4X4X4X4X4X6X4X,X,X,XJ.,X<X3X1X1X2X<X1X"
};
