/* XPM */
static char *result[] = {
/* columns rows colors chars-per-pixel */
"64 64 212 2 ",
"   c #7D3B35",
".  c #775663",
"X  c #842300",
"o  c #8A2300",
"O  c #872A01",
"+  c #8E2C00",
"@  c #862C0C",
"#  c #932C02",
"$  c #992901",
"%  c #982E0D",
"&  c #8D3101",
"*  c #8A3800",
"=  c #9A3301",
"-  c #943904",
";  c #9A3E04",
":  c #953B19",
">  c #A52D03",
",  c #A23805",
"<  c #AC3008",
"1  c #AD3F09",
"2  c #8B3D21",
"3  c #993F22",
"4  c #974709",
"5  c #8D4616",
"6  c #97491B",
"7  c #A04506",
"8  c #A34C0A",
"9  c #AD490A",
"0  c #A25509",
"q  c #A2441D",
"w  c #B84A10",
"e  c #AD5712",
"r  c #B95513",
"t  c #A8610B",
"y  c #AF6E16",
"u  c #B76313",
"i  c #B97414",
"p  c #964C29",
"a  c #9C5626",
"s  c #8E4A33",
"d  c #8E4B34",
"f  c #985735",
"g  c #A24E28",
"h  c #A25825",
"j  c #9E6535",
"k  c #A46427",
"l  c #AF6F2F",
"z  c #B7742B",
"x  c #A66836",
"c  c #C0530F",
"v  c #C64D1E",
"b  c #C76112",
"n  c #CA6910",
"m  c #C2771B",
"M  c #CC7719",
"N  c #D87517",
"B  c #D97D12",
"V  c #D36029",
"C  c #DF6D30",
"Z  c #D17239",
"A  c #844D47",
"S  c #986142",
"D  c #97725D",
"F  c #A96642",
"G  c #AA7448",
"H  c #AB7658",
"J  c #8F756C",
"K  c #977667",
"L  c #9C7B64",
"P  c #9A7C6C",
"I  c #997E72",
"U  c #A27D62",
"Y  c #AE7C60",
"T  c #C9871E",
"R  c #C7891D",
"E  c #D68816",
"W  c #CC991B",
"Q  c #D9951A",
"!  c #EB9C0A",
"~  c #F49A04",
"^  c #FC9D05",
"/  c #FC9908",
"(  c #E88914",
")  c #E1811A",
"_  c #E2971B",
"`  c #F3931A",
"'  c #D7A41F",
"]  c #ECA40C",
"[  c #E6AE0E",
"{  c #F5A103",
"}  c #FBA304",
"|  c #F3A904",
" . c #FDAB05",
".. c #FCB604",
"X. c #F4BE04",
"o. c #FDBE04",
"O. c #F4B10B",
"+. c #FFBE0D",
"@. c #FEA014",
"#. c #FEAB13",
"$. c #FEA51C",
"%. c #FBAF1E",
"&. c #E9B91E",
"*. c #FFB515",
"=. c #F4B519",
"-. c #C98B2C",
";. c #DC892A",
":. c #D59926",
">. c #CF9838",
",. c #E78D23",
"<. c #EC9D20",
"1. c #F89B20",
"2. c #EF9331",
"3. c #DDA928",
"4. c #E8A526",
"5. c #F4A520",
"6. c #ECB123",
"7. c #FBB525",
"8. c #FBBE26",
"9. c #EDA73E",
"0. c #E8B330",
"q. c #EABF30",
"w. c #F8B439",
"e. c #FDC304",
"r. c #FCCB05",
"t. c #FDC50B",
"y. c #FCD405",
"u. c #FEDF04",
"i. c #E7C517",
"p. c #F9C717",
"a. c #FED312",
"s. c #FEDA17",
"d. c #F9D61C",
"f. c #FBEB06",
"g. c #FBF203",
"h. c #FCF80B",
"j. c #FFE515",
"k. c #F4E31B",
"l. c #FFF216",
"z. c #EBC927",
"x. c #F8C02E",
"c. c #F8DE27",
"v. c #F8D328",
"b. c #F8C336",
"n. c #FCCB3B",
"m. c #F3D332",
"M. c #FDDD30",
"N. c #FFE124",
"B. c #FFEA25",
"V. c #FAE62A",
"C. c #FFF62D",
"Z. c #FBE839",
"A. c #FDFB38",
"S. c #9E826E",
"D. c #8F827A",
"F. c #9C8373",
"G. c #94877F",
"H. c #9B8479",
"J. c #968A7E",
"K. c #998C7F",
"L. c #A48369",
"P. c #A28472",
"I. c #A28972",
"U. c #A38B7B",
"Y. c #C69552",
"T. c #E18A42",
"R. c #E19D42",
"E. c #F39050",
"W. c #DFB247",
"Q. c #EEB741",
"!. c #ECBE55",
"~. c #FAB154",
"^. c #FFAE63",
"/. c #E5C043",
"(. c #FCD343",
"). c #FDD748",
"_. c #FEDC4A",
"`. c #F7C855",
"'. c #FAD958",
"]. c #FBE94C",
"[. c #FDF147",
"{. c #FEFB49",
"}. c #FCE253",
"|. c #FCED55",
" X c #FEF95A",
".X c #DEC37D",
"XX c #F8D567",
"oX c #EAC973",
"OX c #FDEC60",
"+X c #FFEF69",
"@X c #FBF46E",
"#X c #4B74C2",
"$X c #948780",
"%X c #968981",
"&X c #9A8D85",
"*X c #9C8F88",
"=X c #9D9085",
"-X c #9E9189",
";X c #A28E81",
":X c #A09487",
">X c #A1948C",
",X c #D1A282",
"<X c #F8E18C",
"1X c #FFF989",
"2X c #FAEB9D",
"3X c #EAD1AA",
"4X c #FFFCA8",
"5X c #FDF2BC",
"6X c #F0DCCF",
"7X c #FCF3CD",
"8X c #FFFBD2",
"9X c #FDFCE5",
/* pixels */
"G.J.$X$X$X&X%XG.%X%X&X&X*X&X%X&X&X&X-X>X-X-X*X*X*X>X*X*X-X*X*X>X>X*X-X-X*X&X-X&XK.&X$X&X&X-X-X-X-X-X-X>X*X-X&X&X-X-X>X*X*X&X*X&X",
"$X$X$X$X$X&X&X$X%X&X&X%X*X&X%X&X&X*X*X-X&X*X*X-X*X>X:X*X-X-X-X:X-X*X*X-X-X&X-X&XK.&X&X$X$X-X&X-X-X-X>X>X-X&X-X*X&X-X:X*X&X*X-X*X",
"%X$X%X$X$X&X&X$X%X%X%X%X*X*X&X%X&X%X-X>X-X-X-X-X-X>X-X*X&X:X*X>X>X*X-X-X-X-X:X%X&X&X&X%X&X-X-X-X-X-X>X>X-X&X&X*X*X-X>X&X&X-X-X-X",
"$X%X$XJ.$X&X&X%X%X%X&X%X&X&X%X&X%X&X*X-X-X-X-X-X-X>X:X-X-X-X*X>X>X&X*X*X*X-X>X&X%X&X%X%X&X-X&X-X-X-X-X>X&X&X-X*X&X&X>X&X&X&X*X-X",
"J.$X$X$XG.%X&X$X%X$X%X&X&X&X%X&X%X&X*X-X*X>X-X*X&X>X>X-X>X-X&X:X>X:X-X-X-X:X-X&X%X&X%X%X&X-X&X-X-X-X>X>X*X*X-X-X&X*X>X-X-X*X*X-X",
"$X$XG.G.G.%X&X%X&X%X%X%X-X&X$X&X&X&X&X>X-X-X*X>X&X>X>X>X-X-X&X:X>X:X&X&X-X&X>X%X%X%X%X$X%X-X&X-X&X-X:X>X&X&X>X>X&X*X>X*X&X&X&X&X",
"-X-X-X:X*X>X>X*X-X-X-X*X>X*X&X&X&X&X-X>X-X-X*XI U I P P.P P P P P.P.I.I.I.I.I.U.-X&X-X-X-X-X=X&X&X-X&X>X>X>X>X>X>X>X>X:X-X>X>X:X",
"=X&X&X&X&X:X>X*X-X*X-X&X-X&X%X$X&X%X&X-X*XI D d 3 g q q 6 p 6 a q a z k p q k x U H.&X-X>X*X%X%X&X&X$X>X>X>X>X>X>X>X>X*X*X-X-X*X",
";X&X*X&X&X-X-X-X*X-X-X*X-X&X$X%X%X%X*X*XK g : $ > 1 w < > $ $ 4 u m M R i t ; & 3 x L.S.-X&XJ.$X$X&X%X-X>X>X>X>X>X>X>X*X*X-X:X*X",
"-X&X*X-X*X-X>X-X-X-X-X*X-X&X%XG.%X$XI U d o < v C V 1 $ - u ' p.d.c.d.d.s.d.i.:.e % 6 j L &X$X%X%X%X%X-X>X-X*X>X>X>X>X>X-X-X>X*X",
"-X&X-X&X*X-X>X-X-X-X-X&X>X&X%X%X$XD d 6 < V T.E.V > + u 6.v.s.a.e.o.o.X.t.r.s.N.v.Q 0 @ k L J.&X$X%X$X*X>X*X*X>X>X>X>X>X*X*X*X*X",
"-X-X-X-X-X>X-X-X-X:X-X*X-X&X%X&XD s @ w E.^.^.Z $ # T c.s.r.O.| { ^ / ~ { { | ..r.j.v.i o p L &XG.G.G.*X>X>X*X>X>X>X>X>X*X*X*X:X",
"-X:X*X*X-X>X>X-X-X>X-X:X>X-X*XK s @ r ^.^.^.Z # - :.M.a.O.] { ^ / ` ` ` / / / ~ | X.s.M.-.# p L &X&X&X>X>X*X*X>X:X>X>X:X:X*X*X*X",
"&X%X&X%X%X&X>X*X-X-X-X*X>X-XI d $ r ~.~.^.T.$ = 3.N.t.| ~ ^ / ( 1 # & = c / / ^ / ~ | t.N.T # x U *X*X>X&X&X&X%X&X*X&X%X%X&X%X$X",
"&X&X%X&X%X&X-X*X-X>X-X-X>X:XU 2 1 2.2.,.;., % :.N.r.{ ^ / / / b - R W r $ ) } ^ / / / | r.N.m # x P.-X>X&X&X&X&X&X&X&X%X$XK.%X&X",
"&X%X&X%X%X&X>X-X-X-X-X-X>XL.x $ T.Q.4.R.r # i V.t.| ^ ^ ^ ^ $.b 4 Z.C.3.O ,.$.} ^ / / { | a.v.e 6 U *X>X*X&X%X&X&X%X&X%X%XK.&X&X",
"*X&X&X&X&X&X>X*X*X*X>X>XU.x o >.XX`.XXT.# 0 c.a.| }  .} #./ ` w 4 V.h.' X r N E 1.$.@.@.{ O.s.&.; k L >X-X=X&X&X&X&X%X%X%X%X&XK.",
":X*X&X*X%X&X>X:X>X>X>X*XU.2 e XX'.XX`.8 # 3.c.X.|  .] 5.,.9 & * 0 k.h.6.0 8 - * ; u ) 5.#.| X.V.-.& x U.=X%X&X&X&X-X=X%XJ.K.K.=X",
"*X&X&X&X&X*X>X*X*X*X;XU.x # R.'.`.`.>.X u M.r.O.#.%.` r X 8 W &.k.h.h.l.B.c.z.' y 4 # M #. .O.d.v.8 a L =X=X%X&X&X&X=X%XK.&X%X%X",
"*X*X*X&X&X*X>X&X>X;XY Y @ w Q.0.0.w.9 & &.j.O.%.8.5.9 O -.N.l.l.h.h.f.g.g.h.h.h.l.n.; e 7.#.O.t.j.W # f K.-X-X*X&X-X-X-X-X-X-X-X",
"%X%X&X%X$X$X*X&X&XH.a Y   :.b.q.b.,.# t c.r.=.7.w.e * 3.C.h.g.g.g.g.g.g.g.g.g.g.g.M.4 u 7.%.8.%.s.v.4 a S.%X=X&X%X%X-X-X-X-X-X-X",
"%X&X$X%XG.&X*X%X&X%XU : ; XX].}.OXz X ' j.t.7.w.;.O W B.g.g.g.f.f.f.g.g.g.g.g.g.h.v.- M b.%.7.7.p.B.m 5 D J.%X%XG.*X-X-X-X-X-X-X",
"&X$X&X%X%X&X-X&X&X&XU p y @X|.OXoX4 4 v.d.8.x.w.9 0 c.g.g.g.f.f.h.f.f.f.j.B.l.l.g.z.& N x.x.7.8.=.j.&.& j S.J.&XD.G.-X-X-X-X-X-X",
"%X%X%X%X%X&X*X&X*XI f # !.|.]. XW.O y N.v.8.n.Q.& R l.f.f.f.j.z.W d.l.i.0 i W z.B.6.* ;.n.x.8.x.x.s.c.0 k J J.J.D.%X-X*X-X-X-X=X",
"$X%XG.G.$X%X*X&X&XI h 1 q.m.z.(.i X :.B.p.w.n.,.+ 6.g.f.u.f.v.0 4 d.l.' O ; * * i -.O ,.(.b.w.b.8.d.B.i 5 L %XD.D.%X-X-X-X-X*X&X",
"*X*X-X&X&X-X>X-X>XI q e `.z.z.n.e * z.B.v.8.).-.& 6.f.f.u.j.' # 4 d.f._ & R.9.m = o - Q.n.n.n.n.n.v.B.' + j F.*X*X*X-X=X-X-X=X*X",
">X>X>X>X>X>X>X-X&XL.g -.@X[.{.'.7 4 c.c.M.n.).-.& &.u.u.u.j.6.& 4 d.j.Q o Q.).).Q.-.9.).n.n.(.n.n.m.B.z.= k S.-X=X-X*X%X%X%X%XJ.",
"*X-X-X:X-X-X>X*X-XU 6 W.@X X X'.# e V.c.(.n.).-.# 6.u.y.y.f.d.i 4 p.j.Q # R.'.).).).).(.(.n.).(.).m.N.c.4 k S.-X-X*X&XJ.&XJ.J.J.",
">X*X:X>X*X>X>X-XF.f & /. X{. XW.o i B.M.).).}.R.& _ f.r.y.y.y.p.[ p.s.3.# - e R.`.'.(.n.).).).).).(.V.V.0 k S.=X*X=X=XJ.K.J.J.J.",
">X-X-X-X&X>X>X>XP a = Q.V.v.Z.:.o R C.M.}._.}.`.- i v.y.y.y.y.y.y.r.y.t.4.m 7 O e W.XX]._._._._._._.Z.Z.y a I.=X=X=X=XJ.J.&XJ.J.",
"-X-X-X-X-X>X>X-XL.a - 0.v.i.m.R o :.C.Z.}.}._.'.z * 6.t.r.r.r.r.r.r.r.r.r.p.8.) , = >.}.'.}.}.}.}.}.Z.C.i k F.*X*X-X=XJ.J.&XJ.J.",
"-X*X&X*X*X>X>X-XF.a 7 '.Z.Z.[.-.X ' C.Z.}.}.}.+X!.* t 8.r.r.r.r.r.t.e.e.e...O.#.,.9 O >.+X}.}.}.}.'.Z.C.R l I.=X*X-X=XJ.J.J.%X%X",
"&X&X=X-X*X:X>X>XI.a 4 OX{.{. X-.  ' C.].OXOXOXOXOX>.O u 7.v.e.o.o.o... .{ { { { } 1.9 * !.+XOXOXOX|.[.A.R z I.-X-X-X-X-X-X-X*X*X",
"J.J.J.J.$X&X>X*XF.f 4 |.{.{. X-.X 3.A.|.OXOX|.n.z.8.M * 7 N %.*.#.| { } } } } } }  .,.& l '._.OXOXOX].A.R z I.=X-X-X*X&X&X&X%X&X",
"K.J.K.J.%X&X>X*XF.a 4 b.k.k.V.R o Q A. X|.(.&.O.O.O.*.( 9 # , r N @.}  .#.} }  . . .#.u $ ` =.b.]. X|.[.R k I.=X-X-X-X=X&X&X&X&X",
"K.J.K.%XK.&X:X-XF.a * 0.i.i.d.-.o :.{.m.&.] | | ......*.7._ u = , `  .( B *. . . . ...;.$ ) *.] [ z.Z.[.i h S.&X-X-X-X*X&X%X&X&X",
"J.J.J.K.J.&X:X*XF.6 - Q.V.k.V.3.o -.[.' ~ ^ }  . ... .O...t.v.n = 1.*.N # n #. .......<.$ M #.} ~ ! &.[.t h S.=X=X-X*X*X&X%X&X&X",
"J.J.J.J.J.&X-X&XF.f * W.{.A.A./.X y [.| ^ ^ }  . .*.*.+.o.X.+.n = ` *.B $ = _ ......o.5.= n #.} } { i.].0 h S.=X*X*X*X=X&X&X$X&X",
"&X*X&X&X&X-X>X&X:XU 6 >.{.A.A.(.- 0 |.p./ / }  .$.n e B 5.*.p.n = 5.+.B $ % E +...+.e.5.= n #. .^ ! v.'.; h S.-X=X-X-X*X-X&X*X*X",
"&X&X&X=X&X-X*X&X*XS.h i V.k.k.v.8 * '.v.! ^ } } E $ , # = e M w = 5.+.E o 4 O.o.o.o.t.<.# N #./ ^ ! Z.Q.O h S.J.*X&X-X*X=X&X&X&X",
"&X&X*X&X%X*X%X&X=XF.a 8 =.e.[ i.u o W.Z.! ^ } #.N $ ,.,.u 7 # # ; 5.+.E 7 _ e.o.e.e.t.E # (  .^ } ] |.>.O l F.%X%X&X=X=XK.=XK.K.",
"%X&X&X&X%X-X*X%X&XS.j = 0.c.k.N.R X -. X[ ~ ~ #.n = ` *.*.%.] _ _ ..t.O.=.+.e.r.r.t.8.e , 1.} ^ ~ 6.+Xy 6 S.%X&X&X*X=X=X=X=X=X=X",
"$X%X%X%X&X-X&X%X&X&XL.5 >.{.Z.A./.* e +Xq.^ } #.b = 5.e.e.o.e.e.t.e.e.t.r.e.r.r.r.t.<.O n $.{ ^ ~ (.XX4 G F.=X&X%X*X&XK.K.=X=X=X",
"&X&X&X&X&X&X*X%X%XK.S.p y |.C.Z.}.0 & XX'.! ^ $.c ; %.e.e.o.o.e.e.r.e.e.r.r.r.r.v.7.7 , 1.} } ^ ] +XW.6 S.*X%X%X&X*X=XJ.=X=X=XK.",
"&X&X&X&X&X-X*X%X$X&XF.l - 0.V.d.V.M o Y.1X6.~ @.w 9 8.t.e.e.t.r.r.r.r.e.r.r.r.a.6.8 - ) #./ } ! z.1Xk p F.&XK.*X&X*X*X&X=X=X=X=X",
">X>X>X>X-X>X-X&X*X&X&XL.p n &.[ O._ = 6 <X'.! @.9 > ,.8.p.a.a.r.r.r.t.y.y.a.8.E - & N $.} } ~ ! +XoX$ G K.*X-X=X=X-X*X&X=X=X-X*X",
"-X-X>X:X>X>X*X%X&X&X&XS.6 9 4.8.8.x.u o Y.1X0.~ ) , # 4 u E 4.6.=.t.y.p._ M 4 # 9 ,.#.} } } ~ b.1Xz 5 L.*X*X&X%X$X=X&X$X%X*X*X&X",
">X-X:X>X>X>X*X&X&X&X&XP f $ -._.m._.R.O 4 <X+X4.@.` N w , $ - = 8 =.a.Q & = w N $. .} } ^ / [ 1XoX* G U.&X&X&X&X&X*X&X&X&X&X*X=X",
">X>X:X>X>X>X:X&X&X&X&X$XL.a ; !.).n.'.z o Y.4X!.~ } / @.` ( N 9 ; =.a.Q + ) $.#. .} } } / ! '.4Xl 6 L &X-X&X&X&X&X&X&X$X&X*X&X-X",
">X>X>X>X>X>X&X%X&X$X&X%X>XL.6 l ~.w.b.9., & .X4X0.~ ^ ^  . .%.b = w.v.;.# (  .} } } } | ! !.4XY.o G F.-X-X&X&X*X*X-X-X$X&X-X-X&X",
">X>X>X>X>X>X&X%X$X%X&X$X:X;XG $ b 2._ ` V $ p 2X2X0.! ^ ^ {  .n # e r 1 $ (  .} / ^ ^ Q /.4X3X; f P J.-X&X-X=X=X&X-X*X$X%X&X&X&X",
"-X>X-X>X-X>X-X&X&X&X&X&X>X>XP.g $ C 2._ 2.c o F 5X2XW.! ^ } ^ ` c 1 1 9 n @.} ^ } ^ ! `.4X3X4 S L.-X$X-X-X*X-X-X&X-X-X&X-X-X*X*X",
"&X$X%X%X$X&X&X%X%X%X%X$X&X$X$XL d 1 T.~.~.~.9 X x 5X4X!.<.~ ^ @./ $./ $./ } } { ! 4.XX4X3Xa S P J.%XJ.-X=XJ.&X$XJ.%X=X=X=X=XK.=X",
"&X%X%X&X$X&X*X%X%X$X&X%X&X&X$X%XK d : T.^.^.E.9 o F 3X7X<XW.Q ~ / ^ ^ / / ~ ` <.!.2X8X3Xp S P J.J.K.J.=XK.&X=X%X$XJ.=XK.&XK.K.K.",
"&X%X%X%X$X&X&X&X&X%X%X$X&X%X$X$X%XK d > V E.^.E.9 o p 3X9X8X<X`.0.4.<.<.4.W.oX2X7X8X.X@ S P %XJ.J.J.J.-X=X=XJ.%X%X&X=XJ.=XJ.=X=X",
"%X%X&X$X$X*X&X$X%X%X%XG.&X%X%X%X%X%XK f @ , v C C w $ @ H 3X9X9X8X5X5X7X5X8X9X7X3XF o S F.=XJ.=XK.J.J.-X&X%X$X%X%X%X=XJ.K.=XK.=X",
"$X%X&X&X$X$X&X&X&X%X&X$X&X%X$X%X%X$X&XP d 2 $ < v V v > # : F ,X3X6X6X7X6X3X,XF @ p H F.&X&XJ.J.K.&X=X-X*X%X%X%X%X%X&X$X%X=XK.&X",
"%X$X&X&X%X&X*X$X%X%X%X$X*X&X%X%X%X$X&X:XI K d q : $ > < < > $ $ - : p p : @   2 H F.H.%X*X*X%X&XJ.K.=X-X%X*X%X%X&X=X-X&X%XK.K.K.",
"&X&X&X&X*X*X>X:X:X*X:X*X>X&X&X&X&X%X&X*X*X&XP P D g : p d p p d f A A     . . J H.%X%X%X*X>X-X>X-X-X-X>X*X%X*X%X$X*X-X-X-X-X-X-X",
"%X&X%X&X%X&X*X*X*X&X*X*X*X%X$X$X$XG.&X&XJ.J.K.%X*XI I I I I I I H.I *X*X%X#X&XI G.$XJ.G.$X-X-X-X-X-X-X=XG.G.G.%X$X&X>X-X-X=X-X=X",
"%X%X&X%X$X&X:X&X&X&X&X*X:X$X$X%XJ.$X%X&XG.J.K.%X%X>X>X*X&X-X&X-X>X&X-X&X%X&X*X%X%XG.%X%X=X>X-X-X-X>X>X-X%XG.G.G.%X*X-X-X-X&X*X&X",
"%X&X%X$X$X&X-X*X&X&X&X*X*XG.G.K.J.$X&X&XG.K.K.K.%X>X*X*X&X&X&X-X-X-X-X-X*X*X*X%X$X%XG.G.%X-X-X-X-X-X>X-XG.G.G.G.G.%X-X*X*X*X&X*X",
"%X%X%X&X%X*X-X&X*X&X&X&X&XG.J.K.J.J.&X&XG.J.J.%X%X;X>X*X&X*X*X&X-X-X*X*X>X*X>X%X$X%X%X$X%X-X-X-X-X>X>X-XG.G.G.G.G.%X-X-X*X=X&X*X",
"%X%X$X%X$X&X-X*X&X&X&X&X*XK.J.J.K.G.&X%XG.J.J.K.%X*X>X*X-X-X&X*X-X-X*X*X*X*X*X%X%XG.G.J.%X-X-X-X-X-X>X-XG.G.G.G.G.%X=X*X%X&X%X&X"
};
