/* XPM */
static char *result[] = {
/* columns rows colors chars-per-pixel */
"64 64 217 2 ",
"   c #7B3F3E",
".  c #7D4544",
"X  c #822502",
"o  c #8C2200",
"O  c #862B03",
"+  c #8C2D01",
"@  c #8D2D0F",
"#  c #982702",
"$  c #922C00",
"%  c #873501",
"&  c #8E3302",
"*  c #8C3D02",
"=  c #933402",
"-  c #9A3101",
";  c #953D05",
":  c #9C3902",
">  c #8F3A19",
",  c #A22B03",
"<  c #A83506",
"1  c #813D37",
"2  c #994206",
"3  c #9A4D09",
"4  c #8F4E1F",
"5  c #98491B",
"6  c #A04107",
"7  c #AB420A",
"8  c #A44B08",
"9  c #AE4F0C",
"0  c #A3590D",
"q  c #AB5A0E",
"w  c #A24D1E",
"e  c #BB4815",
"r  c #B95F13",
"t  c #B06610",
"y  c #B66E18",
"u  c #8E4726",
"i  c #954C26",
"p  c #9C5222",
"a  c #9D5629",
"s  c #995835",
"d  c #A54B25",
"f  c #A25827",
"g  c #A85D36",
"h  c #9B6231",
"j  c #AD6F2F",
"k  c #B26A26",
"l  c #A76636",
"z  c #C55E0F",
"x  c #CA6511",
"c  c #C3661D",
"v  c #D36F14",
"b  c #C87417",
"n  c #C17A18",
"m  c #DD7A1A",
"M  c #C65623",
"N  c #CD662C",
"B  c #C47A2E",
"V  c #D47729",
"C  c #E26D37",
"Z  c #87534B",
"A  c #9A775E",
"S  c #AC7945",
"D  c #B1784F",
"F  c #A1785E",
"G  c #9B7965",
"H  c #9C7E6D",
"J  c #957C75",
"K  c #A37C63",
"L  c #A37B68",
"P  c #C0821A",
"I  c #D98E17",
"U  c #D0881A",
"Y  c #CE961D",
"T  c #E89C06",
"R  c #FC9704",
"E  c #F49B04",
"W  c #FC9E03",
"Q  c #FE9F0D",
"!  c #E28F1E",
"~  c #E8891A",
"^  c #F48F1B",
"/  c #E99917",
"(  c #FB9817",
")  c #EAAA08",
"_  c #F6A004",
"`  c #FBA305",
"'  c #F2AE07",
"]  c #FCAC04",
"[  c #FEA80A",
"{  c #EBB60A",
"}  c #FDB507",
"|  c #F7BD03",
" . c #F5B809",
".. c #FEBE0A",
"X. c #E7AB1B",
"o. c #FFA511",
"O. c #FEAC15",
"+. c #F9A61A",
"@. c #EFB71F",
"#. c #FDB21E",
"$. c #F6BF1B",
"%. c #CA8C30",
"&. c #D6913A",
"*. c #EA962A",
"=. c #F39825",
"-. c #EB963B",
";. c #DAA122",
":. c #D8AA3C",
">. c #E3A525",
",. c #F8AC25",
"<. c #E1B224",
"1. c #E6BD22",
"2. c #FDBC25",
"3. c #E7A739",
"4. c #E5BF30",
"5. c #EEBB36",
"6. c #FAB231",
"7. c #FCBF32",
"8. c #E9C807",
"9. c #FCC405",
"0. c #FCCD05",
"q. c #F7CA0C",
"w. c #FDD304",
"e. c #F7DA09",
"r. c #FEDA0C",
"t. c #ECCC1D",
"y. c #F0C117",
"u. c #FFC115",
"i. c #FDD012",
"p. c #FFDC1E",
"a. c #FDEA05",
"s. c #FEE409",
"d. c #FAF104",
"f. c #FEFD0F",
"g. c #FEEF12",
"h. c #FDE11C",
"j. c #FFF616",
"k. c #EEC82E",
"l. c #F4C924",
"z. c #FFC920",
"x. c #ECD02F",
"c. c #F0D420",
"v. c #FDD321",
"b. c #F7D72C",
"n. c #FDC735",
"m. c #F8CF34",
"M. c #F1C43A",
"N. c #FCDB35",
"B. c #FEE925",
"V. c #FEE32C",
"C. c #FDEE30",
"Z. c #FBE73D",
"A. c #FCF835",
"S. c #FDF03E",
"D. c #B08147",
"F. c #9E8067",
"G. c #9E826E",
"H. c #8F827A",
"J. c #9D8472",
"K. c #94867E",
"L. c #9B847A",
"P. c #968A7E",
"I. c #988C7F",
"U. c #A68465",
"Y. c #A2846D",
"T. c #A38973",
"R. c #A28975",
"E. c #C89D53",
"W. c #EF8C4E",
"Q. c #F38540",
"!. c #DAB349",
"~. c #F1A953",
"^. c #FFB156",
"/. c #C28E70",
"(. c #D8B474",
"). c #FDB265",
"_. c #F1CD46",
"`. c #FECE40",
"'. c #FCD843",
"]. c #FDD74A",
"[. c #FECA52",
"{. c #F5D557",
"}. c #FFDB53",
"|. c #FFFC41",
" X c #FCE352",
".X c #FBEC5B",
"XX c #FEF351",
"oX c #FDFD51",
"OX c #EDC663",
"+X c #FFD465",
"@X c #F1D971",
"#X c #FFE463",
"$X c #FFF862",
"%X c #FFF978",
"&X c #4B70B9",
"*X c #4672C0",
"=X c #8D898F",
"-X c #948780",
";X c #968981",
":X c #9A8D85",
">X c #9C8F88",
",X c #9D9085",
"<X c #9E9189",
"1X c #A09487",
"2X c #A1948C",
"3X c #CCA181",
"4X c #F2DB8E",
"5X c #FDF18D",
"6X c #FCF59A",
"7X c #DEC0A6",
"8X c #ECD3BE",
"9X c #FFFAAE",
"0X c #F7E5BE",
"qX c #FEF9BF",
"wX c #FFFDC8",
"eX c #FFFFD5",
"rX c #FFFEE0",
/* pixels */
"K.K.K.;X;X;X:X-X;X;X:X:X>X:X;X:X:X:X,X2X<X<X>X<X>X2X>X,X<X,X>X2X<X<X<X<X>X:X<X:X;X:X;X;X>X>X<X1X>X<X>X2X<X<X:X:X<X<X2X<X>X<X>X:X",
";X;XK.;X;X;X:X-X;X;X:X;X<X:X;X:X:X>X<X<X>X>X<X,X>X2X<X<X<X<X<X<X<X<X<X>X,X>X,X:X;X:X:X-X;X2X>X,X<X2X2X2X<X:X>X>X:X<X<X>X:X:X>X>X",
";XK.;XK.-X:X:X-X;X;X:X;X>X:X:X;X:X;X>X2X,X<X>X>X>X2X<X>X>X<X<X2X<X<X<X<X,X<X2X;X:X>X>X;X;X2X>X>X2X>X2X2X>X:X>X>X<X<X2X:X:X>X1X<X",
";X;X;XK.;X;X:X;X;X;X;X;X>X>X:X;X;X:X>X<X>X2X<X<X>X2X2X<X<X<X,X<X2X>X>X,X<X>X2X:X;X;X;X;X>X>X:X>X>X>X2X2X:X>X>X>X:X:X1X:X>X>X:X<X",
"K.;XK.K.K.;X:X;X;X-X:X;X:X:X;X:X:X:X>X2X>X2X<X<X>X2X1X2X1X<X,X<X2X1X>X>X<X>X2X;X;X;X;X;X:X<X>X<X>X<X<X2X>X>X<X>X:X<X2X<X>X:X<X<X",
"-XK.K.K.K.;X:X;X;X;X;X;X>X:X;X:X;X:X>X<X<X<X:X,XJ.Y.T.T.Y.T.G.T.Y.H H L L J.Y.H ;X;X;X;X;X<X:X:X>X>X2X2X:X:X2X2X:X:X2X<X:X>X:X:X",
":X<X<X<X<X2X2X<X2X<X<X<X2X>X:X;X:X:X<X2X<X<XJ.K l f f p k %.k f w 5 d d d d i g L H Y.>X2X<X:X:X:X1X>X2X1X2X2X2X2X2X2X<X<X2X2X<X",
",X:X:X<X:X<X<X<X<X>X>X>X>X:X;X;X:X;X:X<XJ.K g 5 = 6 r n Y Y U y q : $ , , < M < < d g L 2X:X;X;X;X:X;X2X2X2X2X2X2X2X1X>X<X<X<X>X",
",X,X<X:X:X<X<X<X>X,X,X>X2X:XP.-X;X:X:XK h w $ t ;.l.p.p.p.p.p.p.v.1.U 7 $ < M C N 7 , g K H ;X-X;X;X;X<X2X2X2X2X2X2X2X<X:X<X<X<X",
",X:X>X:X>X<X2X<X>X2X>X>X<X;X;XK.;X;XG h & 8 ;.m.p.w.0.|  .'  .| 0.r.p.l.n - # e Q.W.C e 5 l L ;X;X;X;X>X2X>X>X2X2X2X2X2X<X<X<X<X",
",X,X>X>X<X<X2X<X<X<X>X>X2X:X;X;X;XA u $ y l.h.q. ._ E E E R E E _ ' | r.p.>.8 + M ~.^.~.N # i K K.;XK.1X2X>X1X<X2X2X2X2X<X<X<X<X",
"<X<X<X<X<X2X<X<X<X2X<X>X<X>X;X:XA u $ n N.r. ._ E R R Q Q ( ( o.R E W ' 0.p.5.8 o M ).).).V $ i A K.K.>X2X2X2X2X2X2X2X2X:X:X<X<X",
"<X<X<X<X<X<X2X<X<X<X<X2X2X<X>XG h & n N.i.' E E W W ( z 7 7 7 x ( W W R _ | p.k.7 o N ^.~.^.N # g K :X1X2X>X>X2X2X2X2X2X<X<X<X<X",
":X;X;X;X;X:X2X<X<X<X<X<X2X<XJ.h O y N.i.' R W W R Q v $ q t 9 + m Q R R E T  .h.,.: # V *.~ -.e o g R.2X>X:X;X;X;X>X>X-X;X;X;X;X",
":X>X;X:X;X:X<X<X2X<X<X<X2X<XA 5 3 l.v.' R W W W W o.v = m.S.5.& m o.W W W Q E | h.;.+ 6 -.3.3.~.7 > K <X:X:X:X:X;X;X>X-X;X;X;X:X",
":X;X:X;X;X<X<X<X<X<X<X<X<XJ.h = >.h.{ _ o.` ` Q o.,.x * c.f.1.% r ~ ( +.o.o.` ' q.h.y O B +X[.{.~.= f L :X>X;X>X;X>X>XL.;XI.:XI.",
">X:X:X:X;X:X<X<X<X<X<X<X2XU.5 y V.q.' [ O.` O.=.x 2 + * c.f.k.* = $ : 9 v =.+.` { r.l.2 * ~.+X{.+XB   0 J.,X:X:X:X>X:XK.;X;X,X,X",
"<X<X:X:X:X:X2X<X<X<X2X<XT.D.* k.p.' ] O.X.,.m : % t Y 1.g.d.g.c.k.;.P 0 % - m ,.+.y.h.U X k +X_.{.~.6 p J.:X:X:X:X:X,XP.P.P.P.;X",
">X>X:X:X:X>X<X<X<X<X<X<XU.4 n V.y.O.O.#.6.b O 0 4.B.j.j.d.d.d.f.f.f.j.B.k.3 9 +.O.' r.m.2 - 3.@.;.5.c 2 U.,X;X:X:X:X:XP.:XP.:XP.",
":X>X<X:X:X<X<X>X,X<X<XJ.j 3 k.p.| #.#.7.V X P B.j.d.d.d.d.d.d.d.d.d.a.a.S.0 9 6.#.#.q.B.P o B n.k.M.3.- S I.<X<X>X<X2X<X<X2X<X<X",
";X;X;X:X;X:X>X;X:X:X>XG.p t V.i.2.O.$.3.- t C.a.d.d.d.d.d.d.d.d.a.d.d.d.V.3 r 7.#.#.y.h.4.= 9  X#X.X#Xk 5 G ,X:X;X;X<X<X<X<X<X<X",
";X:X;X;X-X;X>X:X:X:X>XF.5 Y B.y.2.2.n.c & k.g.a.d.d.a.d.d.d.d.g.g.d.d.d.b.; b n.2.2.y.i.V.q O ^.$XXX$X:.  l J.;X-X:X<X<X<X<X,X<X",
";X:X;X;X;X:X<X:X:X:XJ.j 2 x.v.u.7.n.n.< t B.a.a.d.a.N.1.e.g.t.P Y l.c.B.7.$ V n.7.7.n.t.B.U X %..XZ..X_.; j G.:XH.-X<X<X<X<X<X<X",
";X-X;X;X;X:X>X:X:X;XG.5 0 V.v.z.n.`.3.& Y g.a.s.d.B.y * t.j.<.O O % 3 Y !.+ &.`.7.n.n.l.B.1.+ r m.k.x.M.9 3 J.;XH.-X<X,X<X<X<X,X",
"-X-X-XK.K.;X>X:X:X:XG.5 y A.v.n.n.`.3.O >.a.s.s.s.1.& ; y.a.X.= B &.q * & O 3.`.n.n.n.m.B.b.2 6 M.x.x.].y 4 G.K.H.-X<X<X<X<X:X:X",
">X<X<X>X:X<X2X<X2X<XF.5 Y B.b.m.m.].&.+ X.a.s.e.s.l.& = y.s.X.+ &.}.[.3.y %.`.m.`.`.`.m.b.b.q & ~.oXXX$X:.5 U.:X:X<X2X<X,X<X<X<X",
"2X2X2X2X2X2X2X,X,XT.h % k.B.b.'.'.}.3.O >.s.e.e.r.v.y % 1.s.X.% -.#X].}.].].].'.'.m.'.N.b.C.n X !.$XoX$X!.% s J.<X<X:X;X;X;X;XK.",
"<X<X<X<X>X2X2X>X<XG.f 2 x.V.N.'.].}.3.& U r.e.w.w.r.n.Y y.r.X.$ 2 B !.}.].].].].].].].'.N.C.Y X !.$XXXXX{.; i H <X<X,X-X,XP.P.P.",
"<X<X2X<X<X<X2X<X<XG.f 8 b.B.'.'.}.}.[.2 t v.e.w.w.w.q.i.w.w.y.I q 2 % k ~.#X'.]. X].}.'.N.C.;.O k Z.t.b.M.: i H <X<XI.P.P.P.P.P.",
"<X<X<X<X>X2X2X2X<XG.0 0 V.B. X X}. X$Xk & 6.i.q.0.0.0.q.0.0.9.i.z.,.b $ 2 !.#X X X X X XZ.A.<.O y b.t.p.M.7 a J.,X<X,XP.P.:XP.P.",
"<X<X<X<X<X2X2X<X<XJ.j q C.C..X X.X.X.X!.* r 2.9.9.9.9.9.9.9.9...9. .#.~ 7 % !.+X X X X X XA.4.X y XXS.S..Xq p G.,X<X:XP.I.I.P.P.",
"<X>X,X>X>X2X2X<X<XT.h q C.C..X.X.X.X.X#X%.X y 2.$.9.9.9...} } ] ` E E o.=.2 2 OX$X.X.X#X.XA.k.O y oXoX|.oXq f G.,X<X,XP.:X;X;X;X",
",X:X<X<X:X<X2X2X2XT.f q A.S.#X.X.X Xm.$.2.b O 8 *.2.u.} ] ` E ` ` ` W ] O.~ = y ]. X.X.X.XA.4.  t XXA.A.XXq f G.<X2X2X<X<X<X>X<X",
"P.P.P.P.;X<X2X<X<XG.p q Z.S.$X Xk.{ ' ] } $.I : + 9 v ~ ` ` ` ` ] ] [ ] ] O.r = =.@.k. XXX|.k.O t p.c.c.m.8 p G.<X2X<X;X:X;X:X;X",
"P.P.P.P.;X,X<X<X<XG.p 8 Z.Z.k.) ) ] [ ] } } #.,.b 8 # : / ] / ~ O.` ] } ] } ~ $ m O.) X.k.S.:.O b c.8.8.5.2 p F.,X<X<X:X:X:X:X:X",
"I.P.I.;XK.,X,X<X<XR.l 2 '.t.T ` ` ` [ ] } } } ..u.2.b $ ~ } ~ - v O.] ] } } =.: x O.` E T Z.:.X %.|.B.C._.2 p G.<X<X<X:X:X;X:X:X",
"P.P.P.I.P.,X<X,X<X<XU.p _.b.W ` ` ` ] ] } ....| 9.u.U = ^ } ~ # , / } } } ..,.: z O.` W ) |.P X :.oXA.|._.* s G.>X<X<X:X:X;X:X:X",
"P.P.P.P.P.:X<X,X<X<XT.p !.Z.E ` ` ` ] O.I b ! #.u.u.U $ / ..~ $ $ b ..} | 9.,.: z O.` E { XXk O 4.|.A.|.:.5 F :X:X<X<X:X:X:X-X:X",
":X,X:X:X:X,X<X<X<X<XT.p %.XX) W ` ` ] =.< + + 8 x ! b - / ..~ - - / 9.| | ..+.- x [ E E t..X8 : k.p.e.V.P 4 G.,X>X<X2X<X<X>X>X>X",
":X:X:X,X:X<X<X<X<X,XT.p k .X1.E ` ` ` ~ $ V m 9 = $ $ $ / u.I + b u.9...9.9.! $ m [ W E N.{.$ 9 $.8.8.y.9 f G.:X:X>X<X,X:X:X:X;X",
":X:X:X:X;X:X:X;X:X>XR.j 2 .Xm.E ` ` [ m $ ! 2.#.+.! b U ' ..+.X.u.9.9.9.9.z.b $ ^ [ E E XX!.o n V.e.h.M.6 p H :X;X:X,XI.,X,XI.I.",
";X:X:X:X:X>X>X;X:X:XJ.S % !. XE W W ` m $ / ..9...u.u.u.| 9.9.9.9.9.9.9.9.1.- e +.W E @.%Xk o :.|.A.A.!.+ S G.;X:X:X,X,XI.,X,X,X",
";X;X:X;X:X>X>X-X;X:X:XG.> j %X1.R W o.v $ X.9.| 9.| 9.9.9.9.9.9.0.0.9.0.u.t $ ~ [ ` E '.OX; 8 {.S.C.XXy w U.:X:X:X>X:X:XI.,X,X,X",
";X:X:X:X:X>X:X:XP.:X:XJ.a 2 #X XT ` o.x - ,.9.9.9.9.9.9.9.0.w.0.r.w.i.u.b O x o.` _ X.%X%.  b m.c.b.M.6 p G.:X;X:X:X,XI.,X,X,XI.",
";X,X:X,X;X,X<X:X;X;X:XG.D.X E.%XX.E o.z - *.z.i.i.0.0.e.0.0.0.w.w.v.6.q o z Q W ` T M.5Xa + I { ) ,.P $ S G.:X:X;X>X<X:X,X,X,X,X",
"<X2X2X2X<X2X<X:X,X:X:X:XK 5 3 5X{.T o.m - - q U >.$.u.i.0.0.q.1./ b = $ v +.` Q E X.5X(.O q 7.y.$.6.7 w T.>X,X>X:X<X<X:X,X,X<X<X",
"<X<X2X2X<X2X>X;X:X:X:X;XJ.h X E.6XM.E +.^ z < $ $ < 8 q 1.i.X.2 O - r ~ +.` ` _ T {.6Xa O -.].N.}.&.$ s J.:X:X;X;X,X:X-X;X>X,X:X",
"2X<X2X2X<X<X>X:X:X:X,X:X2XT.h ; 4X5X>.W ( +.( ~ v z 7 = X.i./ + x ( o.[ W W ` T 5.6XE.X t [.'.].^.6 a K >X:X:X:X:X>X:X:X:X:X<X:X",
"2X2X<X2X2X2X<X:X;X,X:X-X<X2XT.5 k 9X@X/ E Q ` o.` ,.V = ,.p.>.O m O.` W ` R E 3.5X4X; - -.n.6.^.y w K 1X>X:X:X:X>X:X>XK.>X>X:X>X",
"2X2X2X2X2X2X<X;X;X;X:X;X<X<XR.S O /.9X@X/ E W W ` [ v $ c b c $ m o.W ` W E !.6X6Xf # z *.I *.c $ s H >X>X:X>X:X>X,X>X;X:X>X:X>X",
"2X2X2X2X2X2X:X-X;X;X:X-X2X2X2XT.S & (.wX@XX.R R W W ^ 7 - - - 9 ^ ` W W / 3.5X9XD o e -.*.=.m , d A K.>X>X>X>X>X>X>X>X;X;X>X:X:X",
"<X<X2X2X<X<X<X:X,X:X:X:X2X<X<X2XR.i & (.wX4X!./ W W Q ( / ^ ^ ( Q ` _ ;.^.9XwXD X < ~.^.^.-.< i G >X;X2X2X>X,X,X:X>X1X;X>X>X>X1X",
",X:X-X;X-X:X:X;X;X;X;X;X,X;X;XK.;XL i & /.eX9X@X:.X.E W ` ` ` E / X.!.4XwX0XD o 7 W.^.).&.- p A ;X;XP.,X>XP.:XP.P.P.1X:XI.I.I.1X",
":X;X:X:X;X;X<X-X;X;X;X;X:X;X;X;X;X;XH i X D wXeXqX4XOX3.3.3.3.~.OX4XwXrX7Xi o , W.).W.M # i A ;XP.:XI.,XI.:X:X;X;XI.:XI.I.1XI.I.",
":X;X-X;X;X:X:X:X:X;X;X;X:X;XK.K.;X;X<XH Z o i 3X0XrXrXeXwXqXwXeXrXrX8XD @ # < C C M < 5 a L ;XI.P.P.P.,X,X:XP.;X;X;X,XI.:XI.:X1X",
";X;X:X-X;X,X:X-X:X;X;XK.;X;X;X;X;X;X:X2XT.U.s X u D 3X7X8X8X8X7X/.f @ # , M M M < # d K H :XI.:XI.P.P.>X>X;X;X;X;X:X:XI.I.I.1XI.",
";X;X;X;X;X;X:X;X;X;X:X-X:X;X;X;X;X-X:X<X2XJ.R.U.Z s # @ > > > @ o # , , , , # > i g L :X:X:X-X;XI.:XP.>X:X:X;X;X;X;X;XP.;X:XI.:X",
";X;X:X:X;X:X>X;X;X;X;X-X:X:X;X;X;X-X:X2X>X>X<XR.J J Z     . Z Z . . 1 Z Z 5 N K H Y.<X:X<X:XR.:XI.I.I.2X:X;X:X;X;X>X>X;X:XI.I.I.",
":X>X>X:X:X<X2X<X<X<X<X<X2X:X:X:X:X;X>X>X:X:X:X,X;X2XJ *X&X&XJ J -XJ J J J J ;X>X:X;X;X;X:X2X<X2X2X2X2X2X:X;X;X:X;X>X2X2X1X2X1X2X",
";X;X:X;X;X:X<X:X<X:X:X<X<X;X-X-X;XK.;X:XK.P.P.I.L.<X<X=X=X=X:X:X<X>X2X>X>X;X>X-XK.K.;XK.:X<X<X<X>X2X2X>X-X-XK.;X;X;X2X2X>X:X>X>X",
";X;X;X:X-X:X<X>X:X:X:X<X<X-X-XP.P.K.;X:XK.P.:XI.;X,X2X>X>X>X:X<X<X:X<X:X>X>X>X;X;XK.-XK.;X2X2X>X,X2X2X>XK.;XK.K.;X;X2X>X>X:X>X>X",
";X:X;X;X;X:X<X:X>X:X:X:X:X-XP.P.P.K.:X:XP.I.P.;X;X2X2X>X:X:X:X<X<X<X<X<X<X>X>X;X-X;X;XK.;X2X>X>X2X2X2X>X;XK.K.K.K.P.2X>X;X>X:X:X",
";X;X;X;X;X>X<X:X:X:X:X:X,XP.P.;XP.P.:X:XK.P.P.P.-X2X<X>X:X>X:X<X2X<X>X>X<X>X<X;X;X;X-XK.;X>X>X1X1X2X2X2XK.K.K.K.K.;X<X>X>X:X:X>X",
";X;X;X;X-X:X<X:X>X:X:X:X<X;XP.P.:XP.;XP.K.P.P.P.;X>X2X,X<X<X:X:X<X<X>X<X<X>X<X;X;XK.K.K.P.2X>X<X>X>X2X>X-XK.K.K.K.;X1X:X:X:X:X:X"
};
