/* XPM */
static char *result[] = {
/* columns rows colors chars-per-pixel */
"64 64 219 2 ",
"   c #842301",
".  c #8B2201",
"X  c #852E02",
"o  c #8B2A02",
"O  c #832B0E",
"+  c #942602",
"@  c #912D02",
"#  c #982C03",
"$  c #8B3101",
"%  c #8E3709",
"&  c #953502",
"*  c #933902",
"=  c #9C3806",
"-  c #8A2D12",
";  c #88341E",
":  c #943D18",
">  c #A52D04",
",  c #A23F04",
"<  c #A3320C",
"1  c #B23B11",
"2  c #8E3D26",
"3  c #984106",
"4  c #9C4908",
"5  c #995909",
"6  c #8F4218",
"7  c #96491A",
"8  c #954B1E",
"9  c #A74307",
"0  c #A44905",
"q  c #AC4C0E",
"w  c #B0430E",
"e  c #AE550B",
"r  c #A4590E",
"t  c #B9540C",
"y  c #B05D0C",
"u  c #A04C1F",
"i  c #B7571A",
"p  c #B47E0F",
"a  c #B06512",
"s  c #B96411",
"d  c #B46F18",
"f  c #BC7011",
"g  c #BA741F",
"h  c #964B24",
"j  c #9C5822",
"k  c #99562B",
"l  c #8B4734",
"z  c #945132",
"x  c #A34221",
"c  c #A45829",
"v  c #A75C34",
"b  c #9B6137",
"n  c #A56628",
"m  c #BA752B",
"M  c #A76437",
"N  c #AB7336",
"B  c #B47A32",
"V  c #C55717",
"C  c #CC670B",
"Z  c #C6761D",
"A  c #D87015",
"S  c #E17D19",
"D  c #D85C26",
"F  c #C17D22",
"G  c #D47C22",
"H  c #D26E37",
"J  c #E76D35",
"K  c #ED7A38",
"L  c #9B775C",
"P  c #A96A48",
"I  c #AA7949",
"U  c #B17E49",
"Y  c #A5785D",
"T  c #977666",
"R  c #9B7D6B",
"E  c #8C7F77",
"W  c #987E74",
"Q  c #A17C66",
"!  c #C07952",
"~  c #C18318",
"^  c #CD8B1C",
"/  c #CE9819",
"(  c #E99E08",
")  c #F39B04",
"_  c #F89B06",
"`  c #FF9D0C",
"'  c #E7881A",
"]  c #E29617",
"[  c #ED9A12",
"{  c #EE961F",
"}  c #F99818",
"|  c #F2A102",
" . c #FBA105",
".. c #F1AA05",
"X. c #FCAA07",
"o. c #FEA70F",
"O. c #EAB80C",
"+. c #FBB106",
"@. c #FAB80D",
"#. c #EAAB10",
"$. c #FEA214",
"%. c #FEA61F",
"&. c #FBAB19",
"*. c #FAB31F",
"=. c #F7B818",
"-. c #D78628",
";. c #CD992F",
":. c #D99D21",
">. c #D4902D",
",. c #DC9C34",
"<. c #D1973F",
"1. c #E89A29",
"2. c #E08B3B",
"3. c #F4973C",
"4. c #D7A72D",
"5. c #EAA822",
"6. c #FCA329",
"7. c #EFB725",
"8. c #EBBA2F",
"9. c #FFB12F",
"0. c #FFBA2F",
"q. c #EAA636",
"w. c #F0AC36",
"e. c #EAC90C",
"r. c #FBC406",
"t. c #F7CD07",
"y. c #FCCB06",
"u. c #FBD102",
"i. c #FED60F",
"p. c #E8CA1E",
"a. c #FEC418",
"s. c #FACD18",
"d. c #F1D81E",
"f. c #FFE00D",
"g. c #FFEB0B",
"h. c #FBF003",
"j. c #FBF608",
"k. c #F8E81F",
"l. c #FFF31D",
"z. c #EFC42D",
"x. c #FFC827",
"c. c #F7C228",
"v. c #F7CF2D",
"b. c #FED524",
"n. c #FDD82A",
"m. c #EFC33E",
"M. c #FCC635",
"N. c #FFCD3E",
"B. c #F6D836",
"V. c #F8D13B",
"C. c #FDEE2B",
"Z. c #F5E330",
"A. c #FDE330",
"S. c #FFE33C",
"D. c #FEEC3B",
"F. c #FDF834",
"G. c #AB8251",
"H. c #9F8163",
"J. c #9D826D",
"K. c #8F827A",
"L. c #9D8372",
"P. c #9E8875",
"I. c #94877F",
"U. c #968A7E",
"Y. c #988C7F",
"T. c #A4866A",
"R. c #B98564",
"E. c #A28574",
"W. c #A38A74",
"Q. c #A28C7E",
"!. c #C08B48",
"~. c #ED8E4C",
"^. c #D0A04F",
"/. c #E0AD44",
"(. c #F9A747",
"). c #E8B845",
"_. c #FBA959",
"`. c #F0B854",
"'. c #C39A6F",
"]. c #DCB76C",
"[. c #FFB263",
"{. c #EDC44E",
"}. c #F9C045",
"|. c #FCD841",
" X c #FAD64B",
".X c #FCD44D",
"XX c #F7DE49",
"oX c #ECC55C",
"OX c #FACC57",
"+X c #FCE942",
"@X c #FFF44A",
"#X c #FDFE48",
"$X c #FDE253",
"%X c #FDEE51",
"&X c #FEE65E",
"*X c #FDEF5C",
"=X c #FEFB54",
"-X c #FDDA60",
";X c #F4DA7B",
":X c #FEE36D",
">X c #FFFD69",
",X c #5467A3",
"<X c #948780",
"1X c #968981",
"2X c #9A8D85",
"3X c #9C8F88",
"4X c #9D9185",
"5X c #9E9189",
"6X c #A09487",
"7X c #A1948C",
"8X c #D4B390",
"9X c #EDD080",
"0X c #F9E982",
"qX c #F7E59A",
"wX c #E6CEB7",
"eX c #FFF7AF",
"rX c #FFFCCA",
"tX c #FDF3DE",
"yX c #FFFEE7",
/* pixels */
"I.U.<X<X<X2X1XI.1X1X2X2X3X1X2X2X2X2X3X7X3X5X4X3X5X6X3X5X5X3X3X7X5X3X5X5X3X2X5X1X1X2X1X1X2X3X3X5X5X5X5X7X3X5X2X5X2X5X7X5X3X5X2X2X",
"<X<X<X<XI.2X3XI.1X1X2X1X3X2X2X1X2X2X3X5X3X5X5X3X3X7X5X3X5X3X6X5X7X3X3X3X5X3X6X2X<X2X3X<X1X7X3X5X5X5X7X7X5X2X5X2X3X5X5X2X2X2X5X5X",
"1X<X1X<XI.2X3X<X1X1X2X<X3X2X2X1X1X2X5X7X3X5X3X5X3X7X5X3X3X5X3X7X5X3X5X6X5X5X7X1X2X2X2X1X1X5X3X5X5X5X7X7X5X2X3X2X3X5X7X5X2X5X5X5X",
"<X1X<XU.<X1X3X1X1X1X2X1X3X3X2X1X2X2X3X5X5X5X5X5X3X7X6X5X6X3X3X5X7X3X3X3X3X3X7X2X1X2X1X1X3X5X2X3X3X5X7X7X2X2X3X3X2X2X5X2X2X2X3X5X",
"U.<XI.I.I.1X2X<X1X<X2X1X3X2X1X2X<X2X3X6X5X5X5X5X3X7X7X5X5X5X3X7X7X5X3X3X6X5X5X2X1X1X2X1X2X5X3X5X5X5X5X7X3X3X5X3X2X5X7X5X5X3X3X5X",
"<X<XI.I.I.1X2X<X1X1X1X1X3X1X1X1X2X2X3X5X5X5X4X4X5XE.E.L.E.E.J.Q W R R Q W 3X5X2X<XQ.<X<X1X5X2X2X2X3X7X7X3X2X7X7X2X3X7X5X2X2X2X2X",
"4X3X5X3X4X7X7X3X6X5X5X5X6X3X3X2X2X3X5X7X5X5X4X5XQ M c c 8 c 7 x x x x x v Q E.W 3X3X5X5X7X5X2X2X2X5X2X7X7X7X7X7X7X7X7X5X7X5X7X5X",
"4X3X3X3X3X6X6X3X5X3X3X3X5X2X1XU.2X<X2X5X5X2X2XR h $ & q a e & # > > 1 > > 1 l ! T 3X2X3X7X2X1X1X2X2XY.7X7X7X7X7X7X7X7X2X5X5X5X3X",
"4X4X3X2X2X5X7X2X3X5X5X2X5X2X<X<X1X2X2X5X2X2XT.h # s 5.x.b.b.7.f # > V J D V < + l T.3X3X5X2X1X1X1X1X1X5X7X7X7X7X7X7X7X3X3X5X5X5X",
"4X2X3X2X2X5X7X5X5X5X3X3X6X2X1X<X<X2X2X5X2XH.N o G b.i.t.t.r.i.b.] & # D K K H 1 - l T.Y.2X2X1X1X1X1X1X3X7X7X3X5X7X7X7X7X5X5X5X5X",
"4X4X5X3X3X5X5X7X5X5X5X3X5X2X2X1X<X1X2X5XP.k & ~ A.s...| | | ..r.n.:.# = ~._._._.i + M E.5X1X1X2XI.1XI.7X7X3X5X7X7X7X7X7X5X5X5X5X",
"5X5X5X5X5X7X7X5X5X5X5X5X5X2X1X2X<X<X2X2XH.7 a b.r.| ) ` ` ` _ ( e.n.Z . i [._._._.1 h Y 2X1X1X2XI.I.I.3X7X4X5X7X7X7X7X7X2X2X3X5X",
"5X5X5X3X5X5X7X5X7X5X5X5X7X5X3X3X5X2X2XH.k 3 c.a.) _ } A C C } _ ) =.M.e o 2.[._.[.~.# v 1X7X2X2X3X1X2X7X7X3X4X7X7X7X7X5X5X3X3X3X",
"2X1X2X1X1X3X7X3X5X5X5X5X7X5X5X3X4X2XL.b o ^ b.| ) ` V @ 3 @ t } _ | s.4.o w 3.1.1.3.V : Y 7X5X5X3X3X7X7X2X3X1X2X1X3X3X<XP.2X2X<X",
"2X2X1X2X1X2X5X5X5X5X5X5X7X5X3X5X5X5XL 8 4 c.@.) _ ` w r .Xg = }  ._ +.b.y + G 3.1.1.2., h E.7X5X2X3X3X7X2X1X3X1X2X1X2X1X1XY.1X1X",
"1X2X2X1X1X2X7X5X5X5X5X5X7X5X2X3X5XP.N o ~ b.( o. .&.q r @Xp = 6.o. . .s.:.. s OX).}.OX-.. U W 5X5X3X3X7X3X3X1X2X2X2X2X1X1XY.2X2X",
"3X2X2X2X2X2X5X5X5X5X7X5X7X5X2X2X5XJ.j * 8.@. .o.6.S # 5 D.p   q G %.$.#.M.0 & `.OXOX-X`.= x W.3X5X5X5X7X3X3X1X2X2X3X1X<X1X2XY.2X",
"5X3X2X2X1X2X7X5X5X5X7X5X7X5X2X5X5XJ.8 a n.+.X.%.Z @ 5 4.l.e.^ 5 $ q { =.b.g . <.-X.X X-Xm 6 T.3X5X5X5X7X5X2X2X2X2X3X2XU.1XY.Y.2X",
"3X3X2X2X2X3X7X3X5X5X5X2X7X5X3X2X2XR 7 ^ b...9.G X d A.l.j.j.l.A.4.X s *.s.5.o i }.8.8.m.2.$ G.T.3X3X3X7X3X2X1X2X1X3X2XU.Y.1XY.1X",
"3X3X4X2X2X5X5X3X5X5X5X5X7X5X2X2XL.N * 8.a.*.q.* r A.j.h.h.h.h.j.S.4 i 0.e.c.3 = w.8.7.8.w.9 u W.5X5X3X7X3X7X6X5X3X6X7X6X6X7X6X5X",
"<X1X2X1X<X2X2X2X1X2X5X3X4X<XI.I.J.j 0 B.=.0.G X 8.l.h.h.h.h.h.j.n.4 s 0.7.n.a o /.$XXXXX&Xm 6 T.2XQ.2X4X1X2X3X1X<X2X7X3X5X5X5X3X",
"1X2X1X1XI.1X3X2X2X2X3X2X5X<XI.I.T 8 f n.7.0.e r A.h.g.h.h.j.j.j.n.3 f M.7.n.^   ^.>X*X*X>X^.o U E.4X4X4XU.U.<X2X<X1X7X5X5X5X3X5X",
"1X2X2X1X1X2X3X2X3X2X2X4X2X<X<X<XL 7 ^ b.0.w.* ~ l.h.g.k.g.p.p.C.v.% Z M.=.b.5.  m *X%X%X=XoX* n J.4X4X4X1XU.U.2XK.<X6X3X5X5X3X5X",
"1X<X<X1X1X2X3X2X2X1X2X2X5X<X<XR k o 4.b.M.q.$ :.g.g.p.p A.p X ~ ).& -.N.c.b.z.% r  XB.B.B.OX4 j H.4X4X5X3XY.2XU.E <X5X3X5X5X3X3X",
"<X1XI.I.I.Y.3X1X3X2X3XU.3X<XI.T n * 8.b.|.,.o 5.g.g./ 5 S.f # @ 4 $ >.N.M.v.V.4 3 m.z.p.z.}.r j J.2X2X6X5X2X<XI.I.<X7X3X3X5X3X2X",
"3X3X3X3X2X5X7X5X7X7X3X3X7X3X2XR n 4 B.n.|.,.$ 5.g.g.~ 5 +Xf , 2.4 a }.N.M.v.|.r $ {.%X+X+X&XF j J.3X3X7X4X3X2X2X2X3X7X3X3X4X3X3X",
"7X7X7X7X7X7X7X5X5X5X3X5X7X7X5XE.j r B.B..X,.$ 5.f.f./ 5 |.f 3 OX.XOX.XV.N.B.S.d O {.>X#X=X>X<.6 J.2X2X6X7X5X5X5X5X6X2X2X<X1XU.I.",
"5X4X3X7X5X5X7X5X5X5X5X3X7X6X5XT.j y A.B.XX/.$ ] f.i.s./ n.s & `.$X.XV..X XB.S.Z   ).>X#X=X>X/.: L 2X1X5X5X3X5X4X5X4X2X<X2XY.U.Y.",
"7X3X5X7X3X5X7X5X5X5X5X5X7X7X7XE.n d S.|.$X`.$ ^ i.u.u.i.i.^ * % <.-XV.XX X|.D.^ . ,.+XZ.Z.+X4.@ k R <X5X3X3X5X5X5X4X2XU.Y.Y.U.Y.",
"7X5X7X3X3X7X7X5X7X5X5X5X7X7X7XT.n g +XXX$XOX3 s s.t.y.u.t.x.w.e X <.-X+X$XXX+X/ . ^ v.p.p.d.,.o 8 R 2X7X5X5X5X5X4X4X4XU.U.2XU.U.",
"3X4X7X3X3X7X7X7X5X5X7X5X7X7X5XW.B Z @X$X$X&Xd * 7.y.y.y.t.r.a.6.9 * oX&X$X$X@X/   ;.+XZ.Z.D.).& 8 R 2X3X5X3X5X4X3X5X2XU.Y.Y.U.U.",
"5X3X3X3X3X5X7X5X5X7X3X3X7X7X5XW.B ~ @X%X:X*Xq.X G a.@.r.r.@... .' & m :X:X$X@X:.  ;.=X#X#X#XOX& 8 R 2X6X5X2X2X3X3X5X2XU.U.2X<XU.",
"2X4X4X4X4X5X7X7X7X7X7X5X7X7X5XW.B F @X*X&X%XN.e $ 1.a.+.X.| |  .$.t * OX*X*X=X:.  ;.=X#X#X#XOX* 8 J.4X7X5X2X5X5X5X7X7X3X5X3X3X3X",
"U.U.U.U.U.2X7X5X5X5X5X5X7X5X4XT.B F =X*X.X7.#.5.9 * G } `  . .| o.A + / V.*X=X:.. >.D.Z.Z.D.).& 8 J.4X5X2X2X2X5X5X5X3X2X2X2X2X2X",
"U.U.Y.U.1X4X5X5X5X5X2X3X7X5X2XE.n m =XV.#...+.@.5.e @ t $.$.$.X.+.{ # C &.8.@X/ . ^ t.e.e.s.:.@ 8 H.4X7X5X5X5X2X5X5X5X2X2X2X2X2X",
"U.Y.Y.1XU.2X5X5X7X5X5X5X5X4X3XL.n d B.( X.X.+.+.@.9.q 9 %.C ' +.X.6.9 V &.( v.^   ,.A.d.d.Z.4.o 8 R 4X7X5X2X5X5X5X5X5X2X2X<X2X2X",
"Y.U.U.Y.U.2X7X5X5X5X5X5X6X3X2XJ.j a v.| ` X.+.@.@.=.e 9 9.t t *.X.&.9 t %._ x.F   ).#XF.F.#X4.o G.H.4X5X5X5X5X2X2X5X5X2X2X<X2X2X",
"I.U.U.U.<X2X4X2X5X5X5X5X7X3X3XR j r V.| ` X.&.] { 9.e 9 9.t 9 &.+.=.9 t %.) N.d X m.#XF.F.#X;.: Y 2X5X5X5X4X2X2X3X5X5X3X2X2X<X2X",
"2X3X4X2X2X5X5X2X5X7X5X5X7X6X3XP.n 4  X.._ X.A @ & Z q 0 9.e 0 @.@.*.0 t $.(  Xr $ m.C.k.k.D.~ c T.5X5X7X5X5X5X4X3X5X5X5X5X2X3X3X",
"2X2X2X2X2X5X5X5X5X5X5X5X7X4X3XP.n * m.#.) o.t = i @ . q 9.y G a.r.*.* V $.#.OX3 0 7.e.e.e.c.e x T.5X5X5X2X2X2X2X2X3X5X4X3X2X2X1X",
"2X2X2X2X1X3X1X1X3X3X3X2X5X5X5XP.U X q.7.) o.t 9 9.] s f =.] =.@.r.5.# A  .=.oX* e v.e.e.s.c.0 8 L.3X2X5X1X2X1X2X<X2X4X4XY.Y.4XY.",
"1X2X2X2X2X3X5X1X2X3X2X2X5X5X5X5XT.7 ^.M.) $.q 9 @.r.=.=.r.y.r.r.y.' # A  .c./.  m @XC.C.F.m.= h R 3X3X5X2X1X2X2X2X2X4X4X4X4X4X4X",
"<X1X1X1X2X5X3X<X1X2X2X2X7X5X5X5XP.h m .X) $.w e a.r.r.r.y.r.r.r.x.e 9 } ) V.<.  ;.@XF.D.@X4.. U L.3X3X5X2X1X2X2X2X3X4XY.4X4XY.4X",
"2X2X2X2X2X2X2X2X1X1X2X2X7X7X5X5XP.h 5 -X[ } 9 t a.r.r.y.y.y.y.a.1.$ V $.| -Xn X q.A.A.b.S.g 7 T.3X3X3X5X2X2X1X1X2X2X2X1XY.4XY.4X",
"2X2X2X2X1X5X3X1X1X1X2X2X7X7X5X5XL.P % oX8.[ = i x.y.y.y.u.y.i.c.q = { ` #.;X7 3 5.O.O.O.5.9 c R 2X3X2X5X2X2X1X2X2X3X5X2X4X4X4X4X",
"7X7X7X7X7X7X5X2X3X2X2X2X7X7X7X7X5XT.h ^.OX[ t o Z 9.y.i.t.s.7.e @ S &.) m.].. y 7.O.O.=.-.# k L.2X5X2X7X5X5X5X5X2X5X5X2X4X4X5X5X",
"5X5X6X7X7X7X3X1X2X2X2X1X5X7X4X5X5XW.h n ;X5.{ t o = s ^ x.^ & # A &. .[ -XG.. >.XXV.V..Xg 7 L 1X2X<X2X5X5X2X2X1X<X4X2X<X<X3X4X2X",
"5X5X7X7X5X7X3X2X2X2X4X2X7X7X7X5X5XP.I % ;Xm.[ 6.S t @ 4 M.s & ' $. ._ w.0X6 , `.|..XXX{.3 j T 2X2X2X<X5X2X2X2X2X2X2X2X2X2X2X5X2X",
"7X7X7X7X7X7X4X2X2X1X2X<X6X7X5X7X6X6XT.h !.-X[ | o.6.q 0 N.s , `  . .( -X].. V OXM.}.OXZ o k R 1X<X2X<X5X5X2X2X2X2X2X3X<X2X3X3X3X",
"7X7X7X7X7X7X3X1X2X1X2X1X7X7X7X7X7X6XQ.k 8 qX).( _ $.q 9 q.e , }  .) q.qXc + ^ 1.{ 1.2.9 8 L 2X1X<X2X<X4X5X2X2X3X2X5X5X<X2X4X3X3X",
"7X7X7X7X7X7X2X<X<XU.1X<X6X7X7X7X7X6XE.b X '.qX( _ $.C @ # # t ` _ ] 0X].. 9 ' ' ' { V @ v L.1X1X<X<X<X5X3X3X5X2X3X5X2X<X1X3X2X2X",
"5X5X7X7X5X7X5X2X3X2X2X2X7X6X5X5X6X5X7XE.k = qX0X] ` } S A S } $.[ oXeXv + 2._.(._.2.> v Q 3X2X2X5X3X1X7X5X2X5X4X2X5X5X2X3X4X3X3X",
"2X<X2X<XU.2X2X2X1X1X2X<X3X1X<X<X1X<X2X2XY   P rX;X:.) $.$.o.| ( oXeXR.  i _._._._.q : L 5X2XU.1X1X2XU.4X3X2X2XY.U.1X4X4X4X4XY.4X",
"<X2X<X2X<X<X5X<X1X1X1X1X2X1X<X<X2X1X2X3XW.Y . R.rX;X/.4.[ [ q.9XrX8XO < ~.(._._.q # M J.3X2X1XU.U.2XY.4X2XY.2X<X<XY.4XY.Y.Y.Y.Y.",
"2X2XU.2X1X2X2X2X2X1X1X<X2X1X<X<X1X1X2X3X6XE.Y o R.rXrXqXqXqXrXyX8X- # D K K J w @ l T U.2X2XY.Y.U.U.U.4X2XY.U.<X<X2X4XY.4XY.4X4X",
"2X<X<X<X1X4X2X<X1X1X<XI.2X1X1X1X<X<X2X7X7X3XE.Y ; I wXtXyXtXwXY - > V J D V > - l T 2X1X2X2XU.2XY.U.U.2X2X2X<X2X<X1XY.Y.Y.4XY.4X",
"1X<X2X1X<X1X2X2X1X2X1X<X3X2X<X1X1X1X1X5X6X5X5XE.Y O % v P v % + # > 1 1 > # 2 l T 2X3X1X2X2XU.Y.Y.2X1X3X2X2X1X<X1X2X2X<X1X2XY.Y.",
"1X1X2X2X<X2X2X<X1X1X1X<X3X1X1X1X1X<X3X6X3X5X3X6XW Q M l l ; ; - ; ; ; 2 l z T W 2X2X2X2X3X3XU.2XY.Y.2X7X2X1X2X<X1X3X3X1X1X2XY.4X",
"2X3X3X2X3X3X7X6X6X3X5X5X6X3X3X2X2X1X3X6X2X2X1X2X2XQ.E.W 3X3X3X,X,X,X,XT W W 7X3X2X1X1X1X2X7X7X7X6X6X7X7X2X<X2X2X1X2X7X7X6X5X6X5X",
"1X1X1X2X1X2X3X3X3X2X3X3X3X<XI.U.1X<X1X1X<XU.Y.Y.Y.5X5X3X3X3X2X2X7X5X3X3X2X2X3X2XU.I.<XI.1X5X5X5X3X7X6X3X<X<XI.<X<X2X7X6X5X3X4X2X",
"1X1X2X1X<X3X4X2X2X2X2X3X5XI.<XY.Y.I.1X3XI.I.Y.1XP.6X5X3X3X3X2X5X5X3X5X3X2X2X3X1X1X<X1X1X2X7X6X3X6X7X7X3X<X<XI.I.<X2X7X5X3X2X2X3X",
"1X2X1X<X<X2X6X3X2X2X2X2X3XI.I.U.U.I.2X1XI.Y.Y.1X1X5X5X3X2X2X2X5X5X5X3X3X3X3X3X1X<X1XI.I.1X7X5X3X3X7X7X3XI.I.I.I.<X1X6X3X2X2X3X3X",
"1X1X1X1X1X3X4X2X3X2X2X2X3XI.Y.Y.U.U.3X2XI.U.U.Y.1X5X7X3X2X3X2X3X7X3X2X3X3X3X3X1X<X1X<X<X1X3X3X3X7X7X7X7XI.I.I.I.<X1X5X3X2X2X2X2X",
"1X1X<X2X<X2X5X2X3X2X2X3X3X1XU.U.Y.I.2X1XI.U.Y.I.1X5X7X5X5X5X2X3X5X5X3X7X3X3X7X1X<XI.<X<X2X3X3X6X3X3X7X3XI.I.I.I.I.2X5X2X2X2X2X2X"
};
