/* XPM */
static char *result[] = {
/* columns rows colors chars-per-pixel */
"64 64 225 2 ",
"   c #7F3729",
".  c #842600",
"X  c #8A2A03",
"o  c #8B2C02",
"O  c #962603",
"+  c #932B01",
"@  c #8D3201",
"#  c #8A3D01",
"$  c #943301",
"%  c #9B3002",
"&  c #953904",
"*  c #9D3903",
"=  c #893015",
"-  c #943D19",
";  c #A42C05",
":  c #A93B09",
">  c #B43B17",
",  c #81332C",
"<  c #973E21",
"1  c #954605",
"2  c #9D4105",
"3  c #9F4808",
"4  c #9D540A",
"5  c #98461B",
"6  c #94501B",
"7  c #A84609",
"8  c #B54408",
"9  c #A8500A",
"0  c #B5500C",
"q  c #A34E1F",
"w  c #BC4919",
"e  c #AB5A13",
"r  c #B85A11",
"t  c #A4660D",
"y  c #AF6514",
"u  c #B96814",
"i  c #BA7911",
"p  c #934A28",
"a  c #9D5626",
"s  c #884737",
"d  c #934E32",
"f  c #985732",
"g  c #A34824",
"h  c #A45827",
"j  c #A75934",
"k  c #B15C38",
"l  c #9E6032",
"z  c #A8682B",
"x  c #BB6922",
"c  c #BD7D24",
"v  c #A56836",
"b  c #AB7339",
"n  c #C25717",
"m  c #C5620F",
"M  c #CB6C18",
"N  c #D96E1E",
"B  c #C5771A",
"V  c #D77816",
"C  c #E07F1C",
"Z  c #D25A27",
"A  c #DF752E",
"S  c #D56830",
"D  c #8A5048",
"F  c #9A6E55",
"G  c #A66C48",
"H  c #B17643",
"J  c #A67A5B",
"K  c #997967",
"L  c #90736D",
"P  c #9C7D6B",
"I  c #987C74",
"U  c #A27C62",
"Y  c #A17F70",
"T  c #BA8531",
"R  c #C9861A",
"E  c #CA941C",
"W  c #DF921C",
"Q  c #EF9A05",
"!  c #EC9B0F",
"~  c #F69C03",
"^  c #FC9D03",
"/  c #FD9E0B",
"(  c #E78617",
")  c #FC9911",
"_  c #F4931B",
"`  c #FB9D19",
"'  c #EDA305",
"]  c #E7AD0F",
"[  c #FCA304",
"{  c #FEA904",
"}  c #FAA30A",
"|  c #F4AB09",
" . c #F6B707",
".. c #FCB205",
"X. c #FCBE05",
"o. c #E6A017",
"O. c #EFAE1A",
"+. c #FFAC12",
"@. c #F9A418",
"#. c #FEA419",
"$. c #EEBA17",
"%. c #FFB811",
"&. c #F4B519",
"*. c #FDB41E",
"=. c #D98721",
"-. c #D29821",
";. c #CD8630",
":. c #DB853A",
">. c #D8953A",
",. c #E69424",
"<. c #EC9330",
"1. c #DDA524",
"2. c #DBB029",
"3. c #FDA72D",
"4. c #F1AF2B",
"5. c #E4BD23",
"6. c #FCBE2A",
"7. c #E8A734",
"8. c #E4B93B",
"9. c #FCB937",
"0. c #E6CA0E",
"q. c #FBC604",
"w. c #FDCC04",
"e. c #F8C80C",
"r. c #FBDE03",
"t. c #F9D208",
"y. c #F4C11F",
"u. c #FFC019",
"i. c #FDCD1A",
"p. c #EFD21E",
"a. c #FFD210",
"s. c #FFD912",
"d. c #FDEA04",
"f. c #FFE40F",
"g. c #FDF003",
"h. c #FCF50A",
"j. c #FFE910",
"k. c #F6E01B",
"l. c #FFE21B",
"z. c #FFF91A",
"x. c #EECA27",
"c. c #EDC22B",
"v. c #F8CC2D",
"b. c #FDD721",
"n. c #FFDE22",
"m. c #F0DB2A",
"M. c #FBDF2F",
"N. c #FEC434",
"B. c #F0C937",
"V. c #FDCC3B",
"C. c #FCD830",
"Z. c #F7D33C",
"A. c #FFE821",
"S. c #FEE82D",
"D. c #FFF223",
"F. c #FBEF37",
"G. c #FFFA35",
"H. c #9F825F",
"J. c #AE854D",
"K. c #9A8067",
"L. c #9D826D",
"P. c #8F827A",
"I. c #9D8472",
"U. c #9D8774",
"Y. c #94877F",
"T. c #968A7E",
"R. c #998C7E",
"E. c #A48366",
"W. c #A2856C",
"Q. c #A28571",
"!. c #A48A72",
"~. c #A38D7D",
"^. c #C89245",
"/. c #DF9E47",
"(. c #EF914D",
"). c #D6AA54",
"_. c #F2A947",
"`. c #E9B047",
"'. c #E5BD56",
"]. c #FEB056",
"[. c #FFAE65",
"{. c #E5CA4C",
"}. c #F9CA48",
"|. c #FCD341",
" X c #FFD74F",
".X c #FDDA48",
"XX c #FBC553",
"oX c #F2D259",
"OX c #FAE342",
"+X c #FCE04E",
"@X c #FFF242",
"#X c #FEFF46",
"$X c #FBE359",
"%X c #FEEA5B",
"&X c #FBF051",
"*X c #FFF85E",
"=X c #FFD760",
"-X c #F5D76F",
";X c #E9C674",
":X c #FDEC63",
">X c #FFF76D",
",X c #FBEE79",
"<X c #526BAC",
"1X c #948780",
"2X c #968981",
"3X c #9A8D85",
"4X c #9C8F88",
"5X c #9D9085",
"6X c #9E9189",
"7X c #A09487",
"8X c #A1948C",
"9X c #A89E99",
"0X c #ABA19B",
"qX c #CC9E83",
"wX c #DABD92",
"eX c #F1DB8C",
"rX c #FDF390",
"tX c #FFFC9D",
"yX c #E7CBAC",
"uX c #F5E0A3",
"iX c #F4E6BE",
"pX c #FDF7BC",
"aX c #D2D0D6",
"sX c #FEF8D2",
"dX c #FFFFDE",
/* pixels */
"Y.T.1X1X1X4X2XY.T.2X3X3X4X3X2X3X4X4X4X8X4X5X4X4X4X8X4X7X6X6X5X8X6X6X6X6X6X4X5X2X3X3X2X2X3X6X6X6X6X6X6X8X4X4X5X4X4X4X8X4X4X4X4X3X",
"1X1X1X1XT.2X4XY.2X2X3X2X4X3X2X3X2X4X4X7X4X4X7X4X4X8X6X4X6X6X6X6X6X6X4X6X4X4X6X3X2X2X3X2X2X6X4X6X6X6X8X8X4X4X4X5X5X4X6X3X5X3X4X4X",
"2X1X2X1XY.4X4XY.2X2X3X1X4X3X3X2X2X3X4X8X8X4X4X4X4X8X6X4X5X6X6X6X6X6X6X6X6X6X6X2X3X4X4X2X3X6X3X6X6X4X8X8X4X5X5X4X4X4X8X5X3X5X8X4X",
"1X2X1XT.Y.2X3X2X2X2X3X2X4X4X2X3X3X2X4X6X4X7X6X6X4X8X8X6X6X6X6X6X8X6X4X5X6X6X6X5X2X2X2X2X3X6X3X6X6X6X8X8X3X3X4X3X3X4X8X3X4X4X5X4X",
"T.1XY.Y.Y.2X4X2X2X2X2X2X4X3X2X3X3X2X5X8X4X8X6X6X4X8X8X6X8X6X5X5X8X7X4X4X6X6X6X4X2X2X2X2X3X6X3X6X4X6X8X8X3X6X6X5X3X4X8X4X4X3X4X4X",
"1X1XY.Y.Y.2X2XT.3X2X2XT.4X2X2X2X3X2X4X8X4X6X4X5X4X7X7X5X6X6X5X5X8X4X4X4X6X5X6X2X2X1X2X2X2X6X3X4X3X6X8X8X3X3X6X6X3X4X8X5X3X5X4X3X",
"5X4X6X5X6X8X8X4X6X6X6X6X8X6X4X3X4X4X8X8X6X8X6X6XQ.Q.Q.!.W.!.W.!.W.P Y Y I Y Q.Q.Y 4X6X4X8X6X3X3X3X6X3X8X8X8X8X8X8X8X8X8X4X8X8X4X",
"5X4X4X4X4X6X8X4X6X4X6X4X6X2X2X2X2X1X3X5X4X3XU.K.v p g q z z h q 5 p g < < g < g j U Y 6X8X3X2X2X3X3X2X6X8X8X8X9X8X8X8X5X4X8X6X4X",
"5X3X4X3X3X6X8X5X6X4X6X4X6X2X2XT.1X3X3X6XU.U v - o : r i B R i y 7 % % % ; > > ; ; < k U 6X3X2X2X2X2X3X4X8X8X8X8X8X8X6X5X4X6X6X6X",
"6X3X4X5X4X6X6X6X6X6X6X4X8X2X2XY.3X1X3XU l 5 $ e -.c.b.b.b.s.b.b.&.1.u & O > S S n : O g U I.2X2X1X2X2X8X8X4X8X4X8X8X8X6X6X6X6X6X",
"6X5X4X4X4X6X8X6X8X6X6X3X8X3X2X2X1X1XK z @ 9 1.M.A.a.e.X. . .X.q.a.s.s.5.y + ; Z (.(.S > g k E.2X1X2X2X4X8X4X4X8X8X8X8X8X6X6X6X4X",
"6X6X6X6X6X8X8X6X6X6X6X4X6X3X2X3XT.U p o B m.l.t. .~ ~ [ ~ ^ ^ ~ '  .e.A.b.R % O Z [.[.(.w O k Y 1X1XI 5X8X8X8X8X8X9X8X6X3X3X6X6X",
"6X6X6X6X6X8X8X6X6X8X6X6X8X6X6X3XE.p @ =.C.s. .| ' ^ ^ ` _ _ _ ) / ^ ~  .a.n.1.* O S [.].[.x X H E.3X3X8X8X4X4X4X8X8X8X6X6X6X6X4X",
"3X2X2XT.2X3X6X4X6X6X6X6X8X6X4XE.b @ -.n.t.} ^ ^ ^ ^ _ 0 % $ % 8 ( / ^ ^ ~ t.A.1.$ o :.]._.].n O f I 6X8X3X3X3X3X2X4X5X1X2X2X2X2X",
"3X5X2X3X2X3X6X5X6X8X6X6X8X6X2Xf o R n.t.' ~ ^ ^ / } C O x -.R @ m } / ~ ~ ~ q.n.-.@ * :.<.,.<.8 q Y 8X6X3X3X3X3X3X3X5X1X1X2X2X2X",
"3X2X3X2X2X3X8X6X6X6X8X9X2X4XI 5 y C.e.| ~ ~ ^ ^ / #.V @ 8.G.m.1 m #.~ ~ } ^ ' q.M.B X w _.7.7.<.; h E.8X3X3X1X3X3X3X3X2X2X~.5X3X",
"4X3X3X3X2X3X8X4X6X6X0XaXF L L # x.t.| [ / #.#.#.( N 0   ] h.m.1 0 _ #.} / } ^ | a.C.e O :.=XXX=X/.@ H ~.4X3X3X2X4X3X3XY.T.1X3XR.",
"6X4X3X3X3X3X8X6X6X6X0XaXaXD X -.A. .| } ` V r * @ & 3 4 5.z.k.t # @ 0 =.3.} | /  .l.2.@ 3 XX XoX-Xu 5 E.6X3X3X3X3X6X5X3XT.R.T.5X",
"4X4X3X3X3X3X8X4X6X6X5XT.I 6 e s.e.| +.6.M + 1 i 2.x.n.A.h.h.h.k.5.-.3 . r 3.*.| | e.A.u . ;. X}.=X`.% b !.3X4X2X3X3X3X1XT.3X3X3X",
"5X4X4X5X3X4X8X3X6X6X6X5X1Xh 1.l.$.*.+.3.9 9 C.D.z.h.h.h.h.h.h.h.z.A.C.E X 7 3.*.*. .f.5.$ 2 4.8.5.9.r 5 K.6X6X5X4X6X7X6X6X6X6X5X",
"1X3X2X1X1X2X4X3X2X4X4XU.l 9 M.t.&.*.*.9.r 4 A.d.d.g.g.g.g.g.g.g.g.g.h.z.1.@ 9 3.4.&.e.S.u + =.}.5.B.>.$ v U.5X2X1X3X8X6X6X6X6X6X",
"1X2X3X3X1X3X4X2X3X3X3XK.6 E S.e.*.*.*.9.x 1 k.g.h.d.d.d.d.g.g.g.g.g.g.g.D.E . =.6.*.y.l.o.. y $X X$X$Xe z K.T.3X1X2X8X6X6X6X6X6X",
"3X1X3X2X1X3X4X3X3X3XU.v # x.n.c.6.6.6.N.M # p.h.h.j.A.A.h.g.d.z.g.d.d.d.g.S.3 8 9.6.*.s.m.2 1 oX*X:X>X^.- J T.3XP.1X6X5X6X6X5X5X",
"1X2X2X2X2X3X4X5X3X2XK.6 t S.i.6.6.6.c.N.;.@ c.S.c.E i 4 5.h.p.E p.j.d.d.d.D.E @ 7.N.c.i.f.i   >.*X&X%X{.$ v I.T.I 2X6X4X6X6X6X5X",
"1X1XY.Y.Y.2X6X2X4X5XJ 5 R S.i.N.N.N.v.V.A # :.x @ @ * + 1.j.x.# 4 n.d.d.r.j.7.@ =.V.N.i.l.1.. u B.x.B.}.8 h K.P.1X1X6X6X6X6X4X3X",
"4X8X4X5X3X4X8X6X8XQ.b o 2.A.v.V.N.V.v.V._.& . & B _.>.X 1.S.x.7 o 1.f.r.r.j.c.# ;. XV.v.A.B.@ 9 B.p.x.Z.u h L.3X3X3X6X6X6X6X6X4X",
"8X8X8X8X8X8X8X6X5XW.h & x.l.B.|.V.V.V.V.}._.;.}.}. X/.o 1.s.x.* @ ] f.d.r.f.c.# ;. XV.v.p.S.9 & }.@X&X*X>.p !.5X4X6X4X2X3X3X2XY.",
"4X6X4X8X4X8X8X4X5XL.z 9 S.k.Z.}.|.|.|.Z.|..X.X.X X=X>.$ 1.f.x.1 i b.t.t.w.s.4.@ ;. X|.Z.k.D.u X {.*X*X>X'.5 E.3X4X4X3X2XT.T.Y.T.",
"8X4X6X8X5X6X8X6X6XU.5 y S.S..X X.X.X|. X.XZ. XXX>.e @ $ 1.s.e.] i.t.t.t.t.s.1.X /.+X.X.XM.z.B   ).*X&X*XoX& f I.6X5X3XT.T.T.T.T.",
"8X6X8X6X4X8X8X8X7X!.z i z.M.+X.X.X.X X X.XoX/.3 X 7 B ] e.w.w.t.t.t.t.w.t.i.u @ XX+X.X XZ.D.E O ;.F.m.m.c.: z L.5X5X3XT.T.3XT.T.",
"5X6X6X4X4X8X8X6X6X!.z R A.M.$X.X+X+X$X+X=X;.o : W u.i.t.w.w.q.w.e.w.w.w.w.7.1 y oX+X+X$XOXG.1.X B M.0.p.c.7 z I.6X6X3XT.T.3XT.T.",
"6X4X5X4X4X8X8X6X6X!.T E D.OX$X$X$X$X$X:X^.o 0 _ +.....X.q.q.q.q.q.q.q.e.6.e # {.:X$X$X+XOXG.2.. c &XF.F.+X9 z I.5X6X5XT.T.T.T.3X",
"5X5X5X5X3X6X8X6X0X!.T E G.&X%X%X%X%X:X'.$ : _ / ~ ~ ~ [ | ..X.X.X.q.u.4.u X >.:X%X%X:X%X@XG.2.  c *X#X#X:Xe z W.6X8X8X4X6X4X4X6X",
"T.T.T.T.3X5X8X6X5X!.T E G.&X:X*X%X.X}.e % _ / ^ ^ ^ ^ ^ ~ [ | ..%.*.=.2 $ V c.B..X%X:X:X&XG.2.. i *XG.#X%Xe z L.6X6X6X3X4X2X2X3X",
"T.T.T.T.T.3X6X6X7X!.T E G.&X*X.Xc.&.,.% m ` ^ ^ ^ ^ / } } } [ V r * @ 9 ,.%...| | $.Z.%X&X@X2.. c S.m.m.Z.7 h Y 6X6X6X2X3X3X3X4X",
"3XT.T.2XT.3X6X6X6X!.z R G.OXc.] ' +.V + C } ^ [ ^ ^ #.V ( +._ & * u W *.%..... .{ | ] O.B.@X1.. B p.0.0.$.: z W.5X5X6X4X3X2X4X2X",
"T.T.T.T.T.3X6X6X6X!.a R @X] Q [ [ +.m % _ [ [ [ [ #.m + C 4._ % M 6.X.X. .....{ { [ [ ^ o.@X-.. E S.k.S.B.* h P 4X6X4X3X3X2X4X2X",
"T.T.T.T.2X3X6X5X6X!.6 t &X&.^ } [ +.m * ` { [ { ..( % % C %._ & M u. .X.%.*.*...{ [ } ~ ] @Xc . 8.#XG.#X{.$ j I.4X5X6X4X4X2X2X2X",
"3X4X5X3X3X6X6X5X5XU.z 4 $X$.~ ^ } +.m : @.{ { [ ..V % % ( %.,.% M N.*.@.V 0 m #.{ [ ^ ~ $.&Xe @ {.G.G.#X2.q J 5X4X6X8X5X6X5X6X4X",
"3X5X3X3X3X5X6X3X5XU.v # {.M.Q ^ [ +.M $ _ ........3.2 + =.u.@.* r i 9 & X : + V +.[ [ ~ v.$X2 * v.k.k.S.R g L.2X2X4X6X5X3X3X3X3X",
"2X4X3X3X3X4X2X3X3X4XH.q ).#X' ^ [ { ( o V %.......*.W 7 W u.@.& @ & 7 u ,.<.O V +.| ^ ~ F.{.. e y.e.0.c.0 p P 3X3X2X5XR.5XR.5XR.",
"2X3X3X3X2X4X4X2X3X3XL.a T >XO.~ ^ { _ % r 6... .X. .*.&.| q. .W o.O.*.*.i.O.$ M +.[ ~ ] *X>.. c S.b.p.c.: 5 P 3X3X6X5X5X5X5X5X5X",
"2X3X2X2X3X6X3X2X3X3XL.a 2 ,XB.Q [ ^ +.m + ,.X.X.X.X.X.q.q.q.q.e.w.w.w.w.w.&.* m +.^ ~ c.>Xy   8.@XS.@X8.@ v I.3X3X4X5XT.R.5X5XR.",
"2X3X3X3X3X3X4X2X2X2XK.J.X '.%X' ^ ^ [ _ * 7 *.%.X.q.q.q.w.q.q.q.w.w.w.t.t.$.7 0 #.} Q .X-X$ 1 +XF.F.&Xi 5 J 2X2X2X4X5X3X5X5X5X5X",
"3X5X3XT.2X6X6X2X3X1X3XE.5 T rX4.~ [ [ +.( X 9 4.i.w.q.q.q.w.w.w.t.w.e.t.t.i.9 8 #.~ O.,X^.X B C.p.Z.B.2 l L.3X3X2X5X6X3X5X3X3X5X",
"6X8X6X9X6X8X6X4X5X3X3XR.f & -X$Xo.~ [ [ @.V $ * =.6.i.t.w.t.e.t.t.t.t.i.u.W * 7 ` ~ oXrX3 + W | ] O.B 6 K 6X5X5X5X6X6X2X5X5X6X6X",
"6X6X8X8X6X6X4X2X3X3X3XT.W.6 T tX8.Q } [ [ #.( 7 o 7 B 1.y.t.e.&.4.o.=.u 2 @ : V ~ O.rX).. y 9.$.$.4.7 a P 2X2X2X2X5X4X1X2X3X5X3X",
"6X6X8X8X6X6X4X3X3X3X3X3X!.J & eX,X! ~ ^ ' } { ` V 7 $ @ W s.O.3 * $ O : 0 V _ / ! $XrXg o 2. XZ..X>.+ f I.4X4X4X4X5X3X4X2X4X5X4X",
"9X6X7X8X6X8X6X2X5X4X4X2X6X~.f b tXoX1.~ ~ [ [ [ +.#.V + =.s.O.& 0 V ( _ #.} / Q '.tX^.. u  X|. X}.7 a P 6X3X3X3X4X3X6X1X3X3X6X3X",
"6X6X7X8X6X8X6X2X2X2X2X2X6X8X!.d ).tX'.! ^ [ [ [ ^ { ( + <.V.4.& M &.{ [ } ^ ! 8.tX;X+ $ 7.9.9.XXu - E.5X6X3X3X3X3X6X6X1X3X4X3X6X",
"8X8X9X6X8X8X4X2X2X1X2X2X6X8X~.G - eXtX8.Q ^ [ [ ~ +.( + 7 r 0 O M } ^ ~ ^ ~ 7.uXrXa O m ,.( _ M + f P 4X3X6X6X3X3X6X3X1X3X3X4X3X",
"8X6X6X6X6X8X5X2X5X4X4X2X8X6X6XQ.v a iXpX`.Q ^ ^ [ ^ ` m 7 7 : 0 _ [ [ } ~ 7.rXpXG . w <.,.<.A % h E.3X6X6X4X6X5X4X6X6X3X3X6X3X6X",
"5X3X1X1XT.3X5X4X3X1X2XT.3X1X1XT.P G a iXpX;Xo.~ ^ [ ^ @.#.#.) #./ ^ ~ _ ).pXpXb . 7 [._.].(.* h K 2XT.5X5X3X3XT.T.1X5X5X5X5XR.5X",
"3XT.3X3X1X3X5X2X1X1X3X2X3X3X1X1X1XK.G a uXsXuX'.o.Q [ ^ ^ ^ ^ ~ ~ o.`.eXsXsXG O > (.].].(.; p F T.R.R.5XR.3X3X1X1XT.5X5X3XR.R.5X",
"3XT.1X1X1X3X5X2X3X2X2X1X3X1X1X1X3X1XK G - wXdXsXuX;X`.<.,.o.7.`.'.eXpXdXyXh O : (.].(.S O a K R.R.T.T.5X3X3XT.3X1X2X5XR.5X5XR.5X",
"1X3X1X3X1X5X2X2X2X2X1XY.3X3X2X2X1X1X1XU.G X b wXsXdXsXsXpXsXpXsXdXsXyXG = O w A A n : = j J T.3X3XT.T.3X3X3X1X1X2X2XR.T.T.R.5X5X",
"2X2X2X2X2X2X3X2X2X3X2X1X4X3X1X2X2X2X3X6XQ.J d = H ~.yXiXsXsXsXyXqXG - X ; w Z w : O < s U 3XT.T.T.R.5X6X2X4X2X2X2X3X2X1X3X5XT.5X",
"2X2X4X2X2X2X4XY.2X2X1XT.4X2X2X2X2X1X3X6X6X~.Q.U d d p - p g = X O O ; ; ; ; > < < d F I 4X4X3X1XT.3X3X6X4X5X2X2X2X5X4X4X1X5XT.R.",
"4X4X4X4X4X5X8X8X6X5X6X6X7X4X4X3X3X2X4X6X3XR.3XQ.!.7XQ.D , ,   s s d d d d d K P K I 2X1X4X8X8X8X6X6X8X8X2X2X2X2X2X5X8X8X6X6X6X6X",
"2XT.3X2X2X3X4X4X4X4X4X4X4X1XY.T.2X1X2X3XT.T.R.R.~.7X6XK <X<X<XL Y.I I P P I 5X1X1X1X1XY.2X6X6X6X6X8X6X5X1X1X1X1X1X2X8X6X6X3X6X5X",
"2X2X3X2X1X3X8X4X3X3X3X4X6XY.1XT.T.T.2X2XT.T.2XR.Y.6X8X5X3X4X3X4X6X4X5X4X2X4X4X2X1X1X1X1X5X6X6X6X6X8X8X6X1X1XT.T.1X4X8X6X5X3X3X5X",
"2X2X2X2X1X3X5X4X3X3X3X3X4XY.T.T.T.2X3X3XY.R.T.2XR.6X6X5X3X3X4X4X6X6X6X5X5X5X4X2XT.3X1XT.2X6X6X6X6X6X8X6X1XY.Y.Y.1X2X8X5X3X4X4X5X",
"2X2X2X2X2X4X6X3X4X3X3X3X4XT.T.3XT.2X3X3XY.T.Y.R.2X6X8X4X4X4X4X4X6X6X4X4X6X6X6X2X1X1X3X1X2X6X6X6X6X8X8X6XY.Y.1X1X1X2X6X5X4X4X2X5X",
"3X2X2X2X1X3X6X3X4X3X3X3X4XT.T.T.T.Y.3X2XY.T.R.T.2X4X8X6X5X4X4X4X6X6X4X6X6X5X6X2X1XY.T.1X2X6X6X6X6X6X8X6X1X1XY.P.1X2X6X3X2X4X2X4X"
};
