/* XPM */
static char *result[] = {
/* columns rows colors chars-per-pixel */
"64 64 190 2 ",
"   c #9B8E86",
".  c #998C84",
"X  c #988B83",
"o  c #978A82",
"O  c #9F928A",
"+  c #9A8D85",
"@  c #A0938B",
"#  c #9C8F87",
"$  c #9D9088",
"%  c #9E9189",
"&  c #968981",
"*  c #A1948C",
"=  c #958880",
"-  c #94877F",
";  c #A2958D",
":  c #A3968E",
">  c #968A7E",
",  c #93867E",
"<  c #9D9087",
"1  c #9C8F88",
"2  c #9C9084",
"3  c #9B8F83",
"4  c #9A8E82",
"5  c #978B7F",
"6  c #998D81",
"7  c #9E918A",
"8  c #9D9089",
"9  c #9B8E85",
"0  c #9A8D86",
"q  c #988C80",
"w  c #9F9289",
"e  c #9B8F84",
"r  c #9C8F86",
"t  c #998C85",
"y  c #978A83",
"u  c #9A8D84",
"i  c #9B8E87",
"p  c #9B8F82",
"a  c #A0938C",
"s  c #9C9083",
"d  c #998D80",
"f  c #9D9185",
"g  c #978B7E",
"h  c #988C7F",
"j  c #A1948B",
"k  c #968A7D",
"l  c #998C83",
"z  c #978B80",
"x  c #998D82",
"c  c #978A81",
"v  c #9D9189",
"b  c #9A8E83",
"n  c #988B84",
"m  c #978B81",
"M  c #A4978F",
"N  c #9E9188",
"B  c #9A8D82",
"V  c #9C9086",
"C  c #9F928B",
"Z  c #9B8E84",
"A  c #9A8E84",
"S  c #968980",
"D  c #A2958C",
"F  c #9D9086",
"G  c #968A7F",
"H  c #988B81",
"J  c #978A7F",
"K  c #92857D",
"L  c #9C9088",
"P  c #9C9085",
"I  c #968982",
"U  c #998E81",
"Y  c #948780",
"T  c #988B82",
"R  c #998C80",
"E  c #A1948D",
"W  c #9C8F89",
"Q  c #94887E",
"!  c #978A80",
"~  c #9E9187",
"^  c #9A8E86",
"/  c #9A8E81",
"(  c #9B8F81",
")  c #9B8F87",
"_  c #9C9082",
"`  c #9B8E83",
"'  c #95897F",
"]  c #988C81",
"[  c #A0938A",
"{  c #9C8F84",
"}  c #A09489",
"|  c #A1948A",
" . c #95897D",
".. c #9F9387",
"X. c #A2968A",
"o. c #96897F",
"O. c #A59890",
"+. c #A3968D",
"@. c #9D9187",
"#. c #9E9288",
"$. c #9F9388",
"%. c #9D8F88",
"&. c #95897E",
"*. c #9E9287",
"=. c #958981",
"-. c #958881",
";. c #A0928A",
":. c #978B83",
">. c #998D85",
",. c #9B8F86",
"<. c #988B80",
"1. c #958980",
"2. c #9F9288",
"3. c #A19589",
"4. c #9F918A",
"5. c #9C8E86",
"6. c #9C8E87",
"7. c #9B8E82",
"8. c #9F9389",
"9. c #9A8D83",
"0. c #9D9184",
"q. c #988C83",
"w. c #9E9285",
"e. c #968B7D",
"r. c #988C82",
"t. c #9E928A",
"y. c #A2958B",
"u. c #9E9286",
"i. c #9E9289",
"p. c #94877E",
"a. c #988D80",
"s. c #9C8F83",
"d. c #91847C",
"f. c #958A7E",
"g. c #9A8E85",
"h. c #93877F",
"j. c #9B9082",
"k. c #9A8D87",
"l. c #A09389",
"z. c #94887D",
"x. c #9B8D84",
"c. c #988C84",
"v. c #A0948C",
"b. c #968A80",
"n. c #948880",
"m. c #A3958E",
"M. c #968A7C",
"N. c #968A82",
"B. c #9C9184",
"V. c #998D84",
"C. c #998B84",
"Z. c #96897E",
"A. c #9B8F85",
"S. c #998D7F",
"D. c #A1958C",
"F. c #A09487",
"G. c #9A8F81",
"H. c #A09488",
"J. c #968A81",
"K. c #9B8E88",
"L. c #998C82",
"P. c #978B82",
"I. c #9E9284",
"U. c #9E9185",
"Y. c #978A7E",
"T. c #9D9085",
"R. c #9C8F85",
"E. c #A2948C",
"W. c #9D9186",
"Q. c #9A8E80",
"!. c #988B85",
"~. c #95887F",
"^. c #94887C",
"/. c #988D7F",
"(. c #A2968E",
"). c #968880",
"_. c #A29689",
"`. c #9F9188",
"'. c #9D9084",
"]. c #A1958B",
"[. c #A09486",
"{. c #9F9386",
"}. c #A19587",
"|. c #94887F",
" X c #9D9188",
".X c #8F827A",
"XX c #988D82",
"oX c #95897C",
"OX c #9B8D85",
"+X c #8C7F77",
/* pixels */
"- - - & = . . - & o . . $ . X .   + $ @ % % $ $ $ @ $ % % $ # O O $ % $ $   7 6 d q.X o . $ $ % % O $ * # $ # # # % * # # # #   ",
"= = - & = . + - & X . o $ + X . .   $ % # $ $ $ # v.% $ % $ % O O $ $ $ $   7 B q t . & X % # $ % O @ ; $   # # # $ O       L # ",
"& = & - - . + = o & X & #   . X . X $ @ $ % # $ # * % # # % % @ O $ % % $ % C L.U . . & . % # % % $ @ ; #   # # # $ @     # O % ",
"= & = - = X + & & & n o #   X X . . # O $ O % % $ * O % % $ $ O @ # # $ v $ @ u H q.X & . %   $ $ $ O *     # # + # @     # # $ ",
"- & = - - X + & o = X X   . X . . . # O $ @ % $ $ @ * % O % $ % @ O $ $ % % O X y y X & . % # % $ % O @ # $ $ #   # ; % #   # $ ",
"Y - , , K & X & X & & & $ X o . . X # O $ $ # $ # @ @ O % %   % @ $ # # $ # O X o & & = X % + # # $ % *     # + +   * #         ",
"r # 8 $ $ * * $ O % % $ * # + .     % ; % O % % % +.w $ r r 0 % : @ @ * O % M O $ # % $ @ % + +   $ # : ; ; ; : * ; : % O @ @ O ",
"2 r # # # % @ $ $ # $ # % . & & X & + % #   # $ 0 w 7.q R o y . @ $ % O % $ @ $ # 1 6.$ @ + & & X + o O ; ; : M : ; @ # $ % % # ",
"s e i   + % @ # $ $ $ # O n = = o o + $     #   + 8.2 4 R X o . O % O @ $ # O 6.# V V 9 @ + = = & X o % ; @ @ ; ; ; @ # # % % $ ",
"w.e 1 #   O @ $ $ O $ # O . & - o o + $ + . + #   2.2 3 6 o & X % O % # O $ % %.< 0.I.Q.A t I o = & & % * % % O * * @ $ $ % % % ",
"< # # # # % @ O O % $   @ + o o & & ^ $   . .   0 < B b 6 c Y X @ % $ % @ % O # # W.` 3 { y o . = & = % @ $ % O ; : * % $ $ % $ ",
"% 8 8 % O * @ % % O % $ O + X X & = . # + +     + < ] 6 r.& , o @ % % % O @ * ) 5.e e B + X o X - , , $ @ O O @ ; ; * $ # # $ % ",
"% % $ $ $ @ ; % O @ O @ ; %     # . $ @   # $ # # j r < 1 1 + $ * 8 7 % $ % : % $ < < X $ %       . . ; @ $ % O O ; ; % % < $ $ ",
". X X o &   O # % % # $ * % $ $ # + %   = = & = = O * O t.O w *   S c = S & $ $ + 0 . , X * O $ #   7 * + + . X X     = & o o & ",
". + X X o + % # O O % $ @ % $ $ $ # $ X , = = & - $ @ % [ w O E u k k k z S $ $   r   & & O $ #   # % O + + + . . .   & & H <.l ",
". X . X &   @ % % % O $ @ O # $ $ $ O X - - Y = - % * % O O @ a 9.g q h d J.#   # # $ . . % # $ O % $ @   + X + . .   & & H 4 6 ",
"$ . t . X + @ % % % O % * % + + # # O X - = = = - % * % @ O O @ V > z H x o $ # $ % @     @ % $ % % $ @ #   . .   # l = I c 6 U ",
"% %     X + * O O % @ % ; O   $ $   % y = = = & - $ * @ O @ @ * ~ U c y X . O % # % O # % @ $ $ $ O % @ < u . + 0 # 3 > 5 /.a.u ",
"$ # + . X   O # $ % %   @ % #     . $ o K , , - K # O $ # $ 8 O P z ! I & & % $   +   + O C W K.i 1 1 a $ u X . . 9 s.G J J T o ",
"# # $     % @   $ O @ % *   +   + . % ; @ @ * * O : % # $ % $ * : @ ;.@ O O O.; * @ @ O ; O # O O C 1 @  X@ @ $ # % D % a * O % ",
"& X o o = X # . .   #   # = , - & - o @ O O * ; * @ . X . X + # @ O O @ @ % ; O O O % < N A 5 4 s s.x F c XX< y = X a 8 i.t.$ $ ",
"o X o o - X $ X . + # # # = - - = - X O % O O @ @ * + . X . . # @ % % O % $ * O O % % # v i x 6 3 f 2 ~ &  .m n , o @ % O % # % ",
"o o X o & + % .   . +     - - - = & . O $ % % O * @ . . . . X # * O O O % % ; @ O % $ # % + x p 2 u.'.~ X > ! t .X- O # v % 1 $ ",
"& & I & & + $     . . + # & = = - = . % $ v % O * @ X . . . . # @ % O % % % ; @ O O % # %   z 3 3 2 { O OXH b S +X& O # $ % $ # ",
"= = - - - o $ . )     o   = - , - - o O % O O O @ O X o o X o + @ % O O O # @ O O % % $ $ + 5 G.7.3 4 w % 9 c d.d.& @ # $ $   + ",
"# $ $ # + % * $ O % $ # ; # + +     % : * * @ * @ : % $ # # # O * % % % $ # ; @ @ O O % * O u P V F F j < 1 + +   $ * $ # N < 1 ",
"@ @ * @ @ * @ % % % % % ; @ % O % % ; ; @ @ @ @ % ; * @ @ $ $ O . & o = - & O % $ % % $ @ O + +   + X @ @ % % % % O + X & r.z = ",
"% % % O % @ @ $ $ % % $ * @ % % % $ * ; @ O O @ @ ; O % % #   % . = o o o & % % $ % % $ O % +   + . X O % # $ $ % < b G x 5 > > ",
"O % O O $ O @ O % $ % % * O O % % $ O * O O O @ O ; O % O % # O + o & o o o % % O @ % $ @ % 0     . X % $ # % % $ % 4 > q h > 5 ",
"O % O % # @ * O @ % O % ; @ O O $ # O * O O % @ % ; @ O O % $ @ + o & o X & % O # # $ % O % #     # . O $ $ O % # % 3 J G 6 5 ^.",
"% % % $ % * * O O O O % ; @ O O % $ O * % % % O O ; * O O % $ O + & o & X o O O $   % O @ O   #     . % $ $ $ $ # % ` e.h q > &.",
"% # # # # @ * % % O % $ * @ % % % $ % @ $ # $ % $ ; O % % % # O   o o X X o v % % % $   O $ # # + 0 t @ $   # # # % 9 ' m m m o ",
"x.A.V F A < M @ : ; * O M * O O O @ ; @   %   $   ; * O @ @ * ; O + # O @ @ O.* * * * O : O @.*.#.2.~ +.# # % O O E E W 7 W W $ ",
"> > k g 5 l * % % O % $ @ $ +   +   % $ X & o . X % $ # % # # % # X   $ % @ ; % O O O # % # 2 s s s p w i     # % O v . . . X . ",
"5 5 > > 5 ,.C % % % # # @ #   #   + % O   . X . o % % # % #   % # +   # % @ : % O % $ # O $ e f 2 f 2 j % $ # # $ % $ + . . . + ",
"5 5 h z Z.9 O % O % $ # O #   # + + % @ $ # . o o $ %         O   .   $ * : : % % % % # % $ e 2 3 2 f D % $ $ # # 8 $ + + . + . ",
"g k e.S.M.u @ # % % %   O #   + + . $ * % %   X & % 8   + # # % # X   # @ : ; O % $ %   $ % p _ s s j.j % # # # # % $ + + X t . ",
"z.&.' G J l %   % % $ $ O     + + . # * * @ O $ X $ $ #   # # % + & o . $ O * % % % # + # # Z P Z e e O % #     # $ $     l o X ",
"0 i 1 i k.% @ # @ @ @ O M O # $ $ $ @ * $ @ * @ # ; O $ % % O * @ #   # $ % M @ O O % $ * @ 8 a 7 7 7 : % $ $ $ # % * 1 7 1 %.1 ",
"g.      + < #   $ % % $ * O $ % % $ @ + & + L   X O O $ $ % $ O % $ $       @ % % $ # $ * * % O O N # @ . + + . . # w { 3 ` b 6 ",
"X + + + .   . X # # $ + O @ % v $ # @ . = . ^   o % O $ $ % $ O % # # $ + + % $ % #   % O * O % % #   O X X X u X X u.p p p p / ",
"X . + . X #   o + +   . @ O % $ $ $ @ + = o . # X % O $ $ $ # % $ o X     + O % % $ $   # * $ $ $ #   % . X . . + r f p 3 f 2 4 ",
"& X X X + $   o o .     @ O % % $ $ @   & & X + . $ a O % $   % $ o + X X + O % % $ % $ # @ % %   $ # % + X + + . # 2 d 3 f 2 3 ",
"X . . . .   + X o X . + * @ % % $   @ . & o & & . O @ @ O $ $ O $     o o X O O $ % $ # $ O # $ $ $ # % + X X X .   P d 4 s B.s ",
"X . C.X . #   o X o X X @ O % 7 $   @ . = o X o o @ % $ O $ $ @ $ .   X X . % % $ O % + # @ # #   #   %   X X . . # $ l A 9 9 r ",
"* D.: m.* : O + #   +   ; (.* @ @ @ ; @   $ #   + : : @ @ $   O ; O O O O O : @ O $ $ # % $   # # #   ; O $ % # 9 % % t 1 % O $ ",
"7 O 3.} [ ;   o . + . o 4.j w.w 7 $ @ $ + + + + X O @ O $ # + # O     % # # @ R.U.b 4 R r + o . X X X $ #   + X o 9   = o # # + ",
"O C | 3.H.D # . + +   . O j [.} w `.j $ .   . + o O @ O % $   # % .     + . C e 2 f 4 h Z # X :.X X o $   + + + . i 9 . t   #   ",
"* @ @ j F.D # X . . . o O j ..X._.}.X.N #       X O O $ $ $ # $ % + c.X . . % Z p ..f 5 l i X X X X & $ $   + +       = + # # # ",
"* * @ E.} D   o X o X o O * | ].y.{.X.% . + + + & % $   % < # O N + + . . o # X b 2 $.d 9.t & & o & & $ $         $ # & + # # # ",
"* ; ; ; ; : . & o & X & % : * : E ..| $ . + + . & # # + # @.b 1 l.2 Z . X &   o P.x 3 3 9 . o o & o =.$ # # #     $ i =.X     + ",
"% O O O % * % + + + 0 n @ O $ 8 w r 8.* $ % % %   a $   # V 9 7 : #.< L   . @ # +   < ,.i.8 !.+ +   y a % 1 $ L   $ O + # $ # 1 ",
"o o o N.- .   o o & m ~.+ o - - y & X O $ $ $ $ $ O X X & = & + @ # # + X & # + >.+ + + $ u ' c y T ! $ r ] u c = T F 4 _ _ ( 4 ",
"X o X X & X # o o & y & u X = & o & . O % % #     % X & & & & . $   + . X = # . X + + . # + J >  .R 5 0.p 6 B & -.T 2 6 / ( ( 4 ",
". o & o & .   o X o o -.t & - = & & . O % % $ # # % X & & n.= o %   + . X & # + . . . X   5.] q 5 > Y.T.A x ! & & X e q 3 x 6 3 ",
"X o o & &   + & o o o , X o & & & & . O O $ $ #   # & & - = = . O     . o o $ $   . + .   . z 6 q > > # 0 n o o & X 4 g 6 4 3 2 ",
"& & X X & X + o o o X = + X & & & = . O O % % $ # $ = - - = - o $ ^   . X X %   + #   X   . G g q 4 h N . n o & & X V.b.<.4 6 4 ",
"o X . . & .   = o o & = # X & & o = + O $ % < < i $ = - = - - o $ >.+ . . + O + +   + X $ # 5 h g d d w + X X o o   0 o m d d / ",
".         $ ; O % $ % O *   + + . o # % l B U e B y.O $ $ $ # @ * $ % % $   @ + X X X o # ; O a @ a @ ; . X . . o   : @ ;.O [ 8 ",
"o o X X o . $ #       # # & - 1.).- o . Q k h q g *.% # #   + # O   # # + . # & - - - , o O 7 % 8 @ @ $ - - - = = :.* % $   $   ",
"o o X X = . %   + +   ) % = Y o.o.= X . Q > q q > $.@ #   #   # O # $ #   + # o & - = = X @ % $ % @ * O = = - - & X * %   9   # ",
"o o o & & + %     + +   # , o.k oX= + t Q g > z S w O # +     $ O % $ $ $ # # o = & = - o @ % $ % O * % = h., - - o @   +     # ",
"o & & o o   % +     + + 1 Q k a.g = 0 + p. .> 5 & 4.O $   #   # O # # $ % $ % & = & = - o $ $ % O @ * % , , , - - o O #     +   ",
"o & & o & . %     + +   1 m k > h |.. n p.> > f.1.% @ % % #   # O $ # % $ # % o & - - - o % # % % % O % = - , K , o % + + + . + "
};
