/* XPM */
static char *result[] = {
/* columns rows colors chars-per-pixel */
"64 64 256 2 ",
"   c #9D9088",
".  c #988B83",
"X  c #978A82",
"o  c #968981",
"O  c #9B8E86",
"+  c #9A8D85",
"@  c #998C84",
"#  c #9C8F87",
"$  c #9E9189",
"%  c #9F928A",
"&  c white",
"*  c #A0938B",
"=  c #958880",
"-  c #A1948C",
";  c #94877F",
":  c #A2958D",
">  c #383431",
",  c #9D9087",
"<  c #9E9188",
"1  c #9B8E87",
"2  c #978B7F",
"3  c #9B8E85",
"4  c #DB251B",
"5  c #9A8E80",
"6  c #998C80",
"7  c #9D9089",
"8  c #FFFEFF",
"9  c #9C8F86",
"0  c #393633",
"q  c #998C83",
"w  c #9C8F88",
"e  c #9A8D84",
"r  c #998C85",
"t  c #9B8F81",
"y  c #9D9185",
"u  c #9E918A",
"i  c #93867E",
"p  c #DE251E",
"a  c #A3958A",
"s  c #9F9288",
"d  c #A0938A",
"f  c #FEFFFF",
"g  c #978A81",
"h  c #A09087",
"j  c #9B8F83",
"k  c #968A7E",
"l  c #988B82",
"z  c #9F9189",
"x  c #9C9084",
"c  c #95897D",
"v  c #9C918A",
"b  c #322F2B",
"n  c #FEFEFE",
"m  c white",
"M  c #968A80",
"N  c #A49790",
"B  c #9C8F85",
"V  c #342E29",
"C  c #9B9189",
"Z  c #9B8E84",
"A  c #9E938C",
"S  c #36312D",
"D  c #FDF9FA",
"F  c #978B7D",
"G  c #9E928A",
"H  c #978D83",
"J  c #9C9087",
"K  c #9A8D88",
"L  c #FFFFFE",
"P  c #D9251F",
"I  c #9C948A",
"U  c #D5271F",
"Y  c #2A2623",
"T  c gray99",
"R  c #9D8F87",
"E  c #958983",
"W  c #32302F",
"Q  c #9D8C84",
"!  c #ABA49F",
"~  c #38362F",
"^  c #F9FBFA",
"/  c #948C81",
"(  c #CA241C",
")  c #0A7F37",
"_  c #383637",
"`  c #9B918C",
"'  c #9F9890",
"]  c #B8B4B3",
"[  c #C3BFBB",
"{  c #DB2921",
"}  c #2F3530",
"|  c #BD221A",
" . c #B82019",
".. c #9D908A",
"X. c #A09489",
"o. c #514A45",
"O. c #938B88",
"+. c #353331",
"@. c #F4F4F2",
"#. c #969487",
"$. c #D8D8D7",
"%. c #FFFEFB",
"&. c #DD2216",
"*. c #C32219",
"=. c #CF271F",
"-. c #BB2C26",
";. c #EF7C15",
":. c #AD731B",
">. c #79706A",
",. c #3C3734",
"<. c #9F958E",
"1. c #302926",
"2. c #9E8D89",
"3. c #D3D1CF",
"4. c #433C39",
"5. c #D82418",
"6. c #3A3235",
"7. c #A49F9B",
"8. c #F6F6F5",
"9. c #343236",
"0. c #D31E19",
"q. c #D3833E",
"w. c #9A8988",
"e. c #DC771F",
"r. c #9C9083",
"t. c #8B8079",
"y. c #68635F",
"u. c #F0F0EF",
"i. c #978F87",
"p. c #3C3231",
"a. c #B1AAA6",
"s. c #952421",
"d. c #E4261D",
"f. c #A88773",
"g. c #AE201A",
"h. c #F57A12",
"j. c #473F5A",
"k. c #786E68",
"l. c #978B84",
"z. c #CCC9C6",
"x. c #A29A94",
"c. c #B3AFAD",
"v. c #A2918D",
"b. c #E5E3E2",
"n. c #9C8A81",
"m. c #E8E9E8",
"M. c #A48F83",
"N. c #A32721",
"B. c #E0DEDC",
"V. c #A38C7B",
"C. c #CCC5C1",
"Z. c #AD7B75",
"A. c #AD8981",
"S. c #E0C8C3",
"D. c #D77E31",
"F. c #605582",
"G. c #1B7A34",
"H. c #137C34",
"J. c #BDB8B5",
"K. c #9A877C",
"L. c #EEECEC",
"P. c #908981",
"I. c #5E2622",
"U. c #682721",
"Y. c #BD716E",
"T. c #971811",
"R. c #CD3632",
"E. c #534867",
"W. c #B9711F",
"Q. c #8B8977",
"!. c #658668",
"~. c #463C4F",
"^. c #7265A1",
"/. c #655F58",
"(. c #5E5751",
"). c #ACA9A6",
"_. c #847A73",
"`. c #BE6764",
"'. c #8F847B",
"]. c #726764",
"[. c #C9B2AC",
"{. c #3B323B",
"}. c #4D2A21",
"|. c #A48E89",
" X c #3E2D27",
".X c #F9FDFE",
"XX c #AB3429",
"oX c #CA2724",
"OX c #B68259",
"+X c #B4A18E",
"@X c #AF6E64",
"#X c #802522",
"$X c #C2322F",
"%X c #A0886F",
"&X c #A16E67",
"*X c #8E8D80",
"=X c #A87F61",
"-X c #B22624",
";X c #B25E5A",
":X c #9D7339",
">X c #A67623",
",X c #357F4F",
"<X c #554A74",
"1X c #565175",
"2X c #6D6B6A",
"3X c #777574",
"4X c #B7ADA4",
"5X c #49413C",
"6X c #AF140E",
"7X c #D3CECA",
"8X c #A9150E",
"9X c #CCCBC9",
"0X c #B83F40",
"qX c #C2AEA8",
"wX c #E5D4D2",
"eX c #432B25",
"rX c #AC8861",
"tX c #882512",
"yX c #938E91",
"uX c #875130",
"iX c #D6BDA0",
"pX c #9C453F",
"aX c #BD534C",
"sX c #BF595A",
"dX c #E9E7D9",
"fX c #D96D1A",
"gX c #BD7436",
"hX c #D4BDB7",
"jX c #B8752C",
"kX c #A37B70",
"lX c #3E374C",
"zX c #542726",
"xX c #5B7B58",
"cX c #E07D36",
"vX c #856E33",
"bX c #467F54",
"nX c #695B8F",
"mX c #673E5D",
"MX c #732E38",
"NX c #87675C",
"BX c #D2A19D",
"VX c #C6433D",
"CX c #C27341",
"ZX c #CE9A98",
"AX c #B57A6E",
"SX c #AD9588",
"DX c #D27E30",
"FX c #B9753F",
"GX c #A36157",
"HX c #C68654",
"JX c #B6766E",
"KX c #C8844C",
"LX c #9A8683",
"PX c #93816C",
"IX c #9C6D29",
"UX c #41744A",
/* pixels */
"; ; ; o = @ @ = = o . @ # + . @ O K w * u $     # % $   u   # G A ..u   $ #   e 6 q . X r w     $ % $ -   # # # # $ -   # # # O ",
"= = = o = @ + = = . @ . O + . @ + + # $ # O 9 # O $   # # # #   % 7       #   3 6 q q X l.      $ % % - $ O # # #   * # O O # O ",
"= = = = ; . + o o X X o O O @ @ @ @ # % * : : : : N N : : N N N N ,   $     $ + q q q X . 7       $ * :   O # # #   % # O # $ $ ",
"= o = ; ; . + X o o X X O # @ . @ X 7 <.'.>.k.>.k.>.>.k.k.k.>.>._.z R 7 $   % 3 q q . o @   #       % -   O O # + # % # O #     ",
"; o = ; i X + X o = X . + + . . . C '.(.,.V b V V V V V V V b Y o.*   $ $ $ % @ X X X g . < #       % * # #   # O O - % # O O # ",
"; ; i i i = . o X o o g 9 r o + E y.4.V > 0 _ 0 0 0 0 0 > S +.b o.G #       $ @ o o X = X , O # # $ % * # #   O + # * $ O O # # ",
"3 + + 1 3 < % # $   w R z 2.q / (.b 6.~ ~ 0 > > S S b b S > 0 b o.- s % $ $ : % # O # # $ $ O + O #   - - - - - % * : $   % * % ",
"y , , 7 w % - $ $   $ , z w.# ].1.W 9.+.9.W V b b S S > 0 > 0 b o.G $ % $ $ - %   , #   * # X X . + . $ : : : N : : -     $ $   ",
"r.Z O 1 K ..*   #     # $ r X t.4.E.lX<XF.9.> > > 0 > > > > 0 b o.G s % $ # $ # O 9 3 3 % # = = o . X   - * * : : : *   #   $   ",
"y 3 # w 1 $ *   # % $ J % K ; i.y.E.F.j.^.~.S 0 > > > > > > 0 b o.G   #     $   # y r.j O + o o o = o   - % % * - - %     $ $ $ ",
", O # # 9 < * % $ $   O G 1 M / P.~.F.~.nXF.W > > > > > > > 0 b o.N * - : % $ # # y r.t 3 . X . o = = # * $ $ % - : - $         ",
"$       $ d - % $ %   J G # l M K ].j.1Xj.^.lXS > +.+.> p.+._ b 5X_./.(.t.- - 7 O 9 B Z O . . . = i i O * % % * : : - $   # 7 u ",
"$ $     $ * - $ $ * % % - $ O O O yXj.F.j.nX1XW p.p.> > ~ _ } }.U.p.+.V 5XX N %     # @ O   + + + . . % - $ $ % % - : % $   w 7 ",
"+ + @ . X O %   $ $ # $ - $     1 I _.E.<XE.^.{.S ~ _ _ } S I.oXN.W _ > 4.t.%   O O + ; X * %   # O   *   + + + @ O   . X . X X ",
"@ @ . X o @   # $ % $   % % $   R J w.~.1Xj.^.<XW } 9. XI.s.=.d.#XS 0 S 4.t.v # # O + o o $ $ # O # $ G + + + . . @ + o = . l l ",
"@ @ @ @ o + % $ $ $ $   % %     # N y.1.MXMXmXmXzXU.#XN.oXp d.N. X~ > S 4.O...O O # # @ .     # $ $   $ # + @ + @ @ O X o . q 5 ",
"# + @ @ . + % % $   % $ * G O + 7 E 5X} #Xp ( *.=.P p d.d.U s.eX6._ 0 1.2Xz.v #   $ % # + % %   $ $   %   + @ @ + O + = o . q t ",
"    O O . @ % * % $ % $ - % + + - >.S 9.eXs.oXU P P =.-.N.U.V 9.6.> ,.1.[ D c.A 9 $ % # R * u w 7 u u % $ + @ @ + 9 3 o g q . @ ",
"$   O @ . + %     $ $ # * % # O * /.S 6.~  X}.zXI.U.I.}.V } 0 6.> ,.Y 3X& & m.7.O O 1 1 z % # O O # , % $ O @ @ e 3 9 l o l l X ",
"# # # O +   % # # % %   *   + + % /.V 0 9._ 6.+.} } } 6.{.{.p.0 0 Y y.@.f T & z.<.A % $ - % w   $ $ # % $ $ %   O , X.,   s $   ",
"X @ @ . X . # @ @ #   #   X ; ; + ].S ,.0 > > > > ~ ~ +.> 0 ~ V Y 3X@.& T n & L.! v d z % J 6 e , , Z J + +   @ o q d s % * s   ",
"= . X X ; X # @ . + O # # o ; ; ; P.y.b 1.> 0 _ _ ,.,.0 S 1.Y o.] T n T n n f L J.C < , v 3 6 6 j x j , X = . . ; o $ % % $ w   ",
"X X . . o @   + + @ + O O o ; ; ; K.r O.y._ Y Y Y Y Y b 5X2X] @.& T T L n 8 n & z.A , R $ 3 6 t x y y < q o o @ i i $ $ $ % # , ",
"o o o o o @ # O O @ @ + # o = = = = 7 b.& b.[ c.7.).J.3.u.& & & T n & & & & n & $.: , w z B 6 t x x x < 3 l q g t.i $     $ , # ",
"= = ; ; ; X # + O O O . O X ; ; ; i A L.L 8 f f f f f f & T T n & & & & & & n & 7XA z 7   Z 2 e j j j < < 3 l i '.= $     $ # O ",
"O O # O @ # *     %   # % # @ @ @ q v z.& T T T T T T T n & & & & & & & & & n & [ G d ..* < e 3 9 9 R * $ O @ . @ 1 d 7 # < # # ",
"* * * * % * * % $ $     : * $ $ $ z A ] D f n & & & & & & & & & & & & & & n & 8.a.3 s v A d O 3 O 3 e % %     $ $ s 9 q g l q g ",
"$ $ % % % % * $   $ $   * * $ $ $ J A ! m.& T & 8 & & & 8 & & & & & & & & n & b.x.R h C A % + + + @ .   %         , e g X g k k ",
"% $ % % $ % - % $   $ $ - * % $ $ - ! 3.n n T %.%.8 n n f f L L L L & L & .Xf n 7X! -   G $ O O O @ .     #   $   $ Z F 2 6 k 2 ",
"$ $ $ $ # % - % % $ $ $ - * % %   x.9XL L.$.n L T f %.T n 8 8 f & 8 & n L T $.@.n [ <.$ % $ # O O O @     # % $ J $ B F c 6 6 c ",
"u u u ....* - % % % % $ - - % z   ' ] L.8.3.$.f n D ^ D D ^ D D ^ ^ T & %.3.3.^ L.] ' ..* % w w 1 1 r     #   < w 7 3 2 F l M c ",
"$   w w   * - % $ % $   * - G z J 7.B.^ & u.B.D m.f & & & f f & & & 8 m.^ $.8.& 8.$.x.w % u # # O + r % $ O # # w 7 9 g g X g g ",
"3 O 9 # O   : - - : * % : - % % G ' ! B.u.& n & [ +XS.ZXY.`.`.Y.BXS.+XC.& n & u.$.! x.$ - %     <     - $ O   $ u - * 9 # w w # ",
"2 2 2 l 2 e - * % * %   * $ O # 9 e ' a.C.m.u.$.a uXtXT.8X6X6X8XT.tXuX+XB.L.b.[ [ ! C   s , B x , y x %   O #   u - % O + K r + ",
"k k k k k e % $ $ $   # %   + O 3 Q #.v.a.7.a.N &XXXU { { { { { { U XX&X7.c.a.).: :   # 7 , Z , 3 3 x % $ # # # # $   O + @ @ @ ",
"F F F F c t % $ $ % # O %   O # O e #.* R 2.i.@X$X| { U 4 4 4 4 4 {  .$XZ.' N <.$ < $ # $ , j x j x y - %     # #     O + @ r + ",
"F F F 6 F 6 % $ $ $   # % # + O + r R d z A Z.R.( | p P 4 4 4 4 4 P | 0.VXA.N v.$ $   #   < j x x x x * % # # # #     O + @ @ @ ",
"c c k g k q 7 # # $     % # O O r K 2.v.<.a aXp ( *.p P &.4 4 4 4 4 | =.P sX' I z $ # + 1 # Z x B B B s $   O O # # $ O + @ X . ",
"@ + O O r w % # % * % % : % # # R R < A : `.U p *.( p U 5.4 4 4 4 p *.( p U AXN z % z # % % , s <   < - %       #   *   J # 1 1 ",
"1 1 1 w 1 7   O   % %   : *     z , * C f.R.&.p | ( 4 P U 4 p U 5.p ( | p &.R.A.u C #.7 A : % % % $   * # + O + @ # % J B 3 Z e ",
"@ @ + 3 @ O @ . #     O % * $ $ J x v.H pX=.p U  .P 5.P p p &.U P 4 U  .4 p ( GX: R 3   G v.% $ $ # O $ @ . . @ . r , r.t j t 5 ",
". @ + @ . O O . + O O @ $ % $ 7 R 2.<.@X-X .*.-X .{ &.&.P g.5.4 P 5.p g.-X|  .-.kXh |.1 J * u   # # O   + X . @ r 1 , t t x r.5 ",
"o . @ . +   1 l.X . + O % % $ % $ ` <.@X-.0.( s.-.p 4 P s.NX0X0.4 &.d.N.s.=.0.| &X#.C C J I %   # # # $ + . + + r w J 5 5 x x j ",
"X . @ @ @ # O . X X . + % * $ $ , t A C.hXaX-.g.g.( 0.0X[.m.wXXX4 =.*. .g.-.;XS.C.#.|.R R z   #     #   O @ . . . 1 9 5 5 x y y ",
". @ @ @ @ 1 O . X X . . % * $ $   3 ).8.& ^ Z.*.=.| T.[.& ^ & [.T. .| {  .A.n & L.! < Q i.A , # # # # $ # @ @ @ r w , t 5 j j B ",
"* * - d d : % + + + @ + - : * d % z C..XB.[ sX&.p 0.pX@.n T T f Z.g.5.d.0.Y.z.b.D ] + B C v O # # O O * %   # # +   $ e 3   <   ",
"% * : - - :   . @ + @ . 7 - d s s B 7X9X] ' ;XR.-.Y.wXf T n n .XD S.;X-.$XJX7.] 3.J.2 t 1 1 . @ @ @ @     # O @ X O # o X #   O ",
"$ % - - - :   . @ + + q , X.X.s s r.4XJ.! x.A.Z.S.& T ^ 8 n %.%.D .X& hXkXt 7.! c.4X2 6 j O @ . X . X # # + + @ . + + . . + # O ",
"- * d - d :   @ @ @ @ . < X.s X.X.X.a N ` i.Q I [ 8.& n n n n .Xf & @.] C 6 ` K C < y 6 q O @ . . X o O   O + + + O O X @ # # # ",
"- - d d d a # X . X . X 7 - X.a - X.a h + r K w.*Xf.iXdXD T T ^ dXiX%Xl.w.n.K Q q x s q q @ X o o X o O   O O O O # # X @ # # # ",
"* : : : : : O o X o X E ..: : : : d d s @ Q Z H X CXfXgXSXc.a.A.gXfXFX5 O.g H l l e B 3 O r o o o X o O   O O # O 7 # X l.O O O ",
"$ * * * % - $ @ @ @ + .   * $ $ %   % *     ..z 5 q.;.e.rXi.H =Xe.;.q.2.i.q y w + + O O $ 7 r r r + l.7 % # #   1 7 $ + O , 9 9 ",
". . @ . o @ # . X X . o + . = = X X @ G $   < v h q.;.cXf.LXw.%Xe.h.q.t n.n.#.K + + + +   9 g g g q g , < e e q o l , Z x y Z Z ",
"X o . . = X O . X o X o @ . ; = X o . $ $ $ O # / :XW.:XQ.E w.PXIXW.:XQ./ = Q K . + + @ O e 2 k c 2 6 x x 6 6 F c 2 j 5 5 t t t ",
"@ X X X o . O . X X o = @ . ; = X o @ $ % $ O |.!.G.G.H.xXX *X!.G.G.G.!.1 = B i.q @ @ . O Z 6 6 2 k 2 B 3 q l M c 6 j 6 t 6 6 t ",
". X X o o @ + X X X X ; X . o o o o @ u %   J #.,X) ) H.!.w./ bX) ) ) bXH g 2.v + + + @ + e 6 6 6 k k O + . X X o l e 2 6 6 e x ",
"o o . . o . + X o X . = @ @ o o o o O.z h A *XUXH.) H.) bXK.*X,XH.) ) H.xX/ ` w + # O @ O q F F 6 6 6 O + . X o o . @ M 6 t 6 t ",
"X X . @ X . + o o X o = O + o o o = r h ` s OXW.:.:.:.:.vXQ.'.vX:.:.:.:.W.OX% Q @ O O @ # 9 2 2 2 6 6 $ # X . X X r + g 2 6 6 5 ",
"@ + O + +   -   #   # $ % # @ @ @ O.Q M.yXV.q.;.;.;.h.h.q.5 5 cXh.h.;.;.h.q.M.i.l @ . . # - $ $ $ $ % - O . @ @ . + * s < < < # ",
"X . @ @ . + $ $ # # #   < . o g o E l.n.E c OXDXDXDXD.D.HXM.V.KXe.fXe.e.D.rXj w.; = ; ; X % % % % * - % o ; = o = . - * < , < # ",
"X X X . = .   # @ + + O , g i = c c O.n.K.P.F V.%XV.M.V.5 3 3 t f.=X=Xf.V.Q 2.. = ; ; ; X % %   < d * $ o ; ; i o . * u # O O O ",
"o X X X o + $ # + + + O 9 = ; o c K.i.K = / F / E C I i.K e K ` X.I < ` C R 2.F = = = ; o % %   $ % - $ o ; i ; ; X %   + 1 1 # ",
"X o o X X + $ O + O + O # = c 6 2 c @ + ; c F c M   *   O 9 O R z J 1 J < 7 7 M = o = ; o       % % - $ = i i ; ; X $ # O O + O ",
"X o o X o @ $ O + O + K # l c F 2 = q @ ; c k c = w * $   # O # %   # $   ,   . = = ; ; o       $ % % $ o i i i i o   O + + @ @ "
};
