/* XPM */
static char *result[] = {
/* columns rows colors chars-per-pixel */
"64 64 256 2 ",
"   c #9D9088",
".  c #988B83",
"X  c #978A82",
"o  c #968981",
"O  c #9B8E86",
"+  c #998C84",
"@  c #9A8D85",
"#  c #9E9189",
"$  c #9C8F87",
"%  c #9F928A",
"&  c #A0938B",
"*  c white",
"=  c #958880",
"-  c #A1948C",
";  c #94877F",
":  c #A2958D",
">  c #9B8E85",
",  c #FEFFFF",
"<  c #9D9087",
"1  c #383331",
"2  c #9C8F86",
"3  c #9C9084",
"4  c #9B8E87",
"5  c #978A81",
"6  c #988B82",
"7  c #9D9186",
"8  c #978B7F",
"9  c #9D9189",
"0  c #998C83",
"q  c #9D9089",
"w  c #9A8E82",
"e  c #9B8F83",
"r  c #9E9188",
"t  c #9A8D84",
"y  c #A1948B",
"u  c #93867E",
"i  c #968A7F",
"p  c #9A8E86",
"a  c #9C8F88",
"s  c #998D81",
"d  c #A0938A",
"f  c #9E938B",
"g  c #9F9289",
"h  c #9E918A",
"j  c #383531",
"k  c #968A7D",
"l  c #DA2519",
"z  c #FFFFFE",
"x  c #988A80",
"c  c #FFFEFE",
"v  c #998C85",
"b  c #9C8F8C",
"n  c #9C9081",
"m  c #FDFDFC",
"M  c #988B85",
"N  c #9F928C",
"B  c #988C80",
"V  c #DE251D",
"C  c #9A9186",
"Z  c #A39791",
"A  c #9B9288",
"S  c #A69A93",
"D  c #9D8E83",
"F  c #E2271F",
"G  c #968883",
"H  c #A08E88",
"J  c #ECEAE8",
"K  c #95887F",
"L  c #F4F3F3",
"P  c #9E9088",
"I  c #FEFFFE",
"U  c #9B8F88",
"Y  c #989289",
"T  c #978D82",
"R  c #B9AFAB",
"E  c #9D938F",
"W  c #9F948D",
"Q  c #FAFBFA",
"!  c #978E87",
"~  c #FAFEFC",
"^  c #D4261B",
"/  c #CECDCD",
"(  c #BA211C",
")  c #9C8E89",
"_  c #9E8D86",
"`  c #A3908A",
"'  c #9E9488",
"]  c #9D897C",
"[  c #968B89",
"{  c #DBDBD8",
"}  c #DB2522",
"|  c #B32119",
" . c #F9F7F6",
".. c #C3251D",
"X. c #D3D2D1",
"o. c #433C52",
"O. c #322E2A",
"+. c #938A7B",
"@. c #A09085",
"#. c #9B8B83",
"$. c #A0968B",
"%. c #D7D5D4",
"&. c #A48A7C",
"*. c #343631",
"=. c #BD231B",
"-. c #AF835B",
";. c #F7F7F8",
":. c #CE2722",
">. c #B7332C",
",. c #C7C1BD",
"<. c #AD201B",
"1. c #C57937",
"2. c #E0771A",
"3. c #E67A19",
"4. c #ED7919",
"5. c #7E7675",
"6. c #989183",
"7. c #A4938B",
"8. c #E7E4E4",
"9. c #A1908C",
"0. c #413A36",
"q. c #95918D",
"w. c #9F816A",
"e. c #DEDEDD",
"r. c #E5E3E0",
"t. c #32312D",
"y. c #ABA6A7",
"u. c #383241",
"i. c #7263A6",
"p. c #998C89",
"a. c #8B817A",
"s. c #8E847F",
"d. c #ABA29B",
"f. c #978D84",
"g. c #948A85",
"h. c #D9D3CE",
"j. c #B37744",
"k. c #3B3435",
"l. c #A59185",
"z. c #A27F79",
"x. c #C06312",
"c. c #B38768",
"v. c #BCB6B4",
"b. c #B57E54",
"n. c #A31F16",
"m. c #D76E13",
"M. c #352E32",
"N. c #D07B32",
"B. c #C8211C",
"V. c #484258",
"C. c #6F639E",
"Z. c #54455F",
"A. c #6E645E",
"S. c #90837B",
"D. c #615C57",
"F. c #48423D",
"G. c #928A82",
"H. c #383228",
"J. c #B46825",
"K. c #938E82",
"L. c #A57B56",
"P. c #D38B8A",
"I. c #9B6D29",
"U. c #CF7928",
"Y. c #077534",
"T. c #8F7546",
"R. c #03833B",
"E. c #188138",
"W. c #AB8A73",
"Q. c #832824",
"!. c #C8C9C7",
"~. c #D57420",
"^. c #331F18",
"/. c #6B5D96",
"(. c #635681",
"). c #978682",
"_. c #847E72",
"`. c #594C48",
"'. c #9A8A87",
"]. c #958878",
"[. c #CB3C37",
"{. c #C3BDB6",
"}. c #D4CDC7",
"|. c #AC5952",
" X c #565A58",
".X c #8C8D8D",
"XX c #466926",
"oX c #23773E",
"OX c #D3ADA9",
"+X c #BE7A44",
"@X c #F0F0EF",
"#X c #CC6E1C",
"$X c #A7938A",
"%X c #BB7934",
"&X c #836258",
"*X c #4C4741",
"=X c #CC201E",
"-X c #BD594F",
";X c #D52725",
":X c #4F2C26",
">X c #9F2B25",
",X c #972218",
"<X c #AC4B44",
"1X c #6F2723",
"2X c #5B1D18",
"3X c #BA2926",
"4X c #534A6C",
"5X c #665B86",
"6X c #776C6C",
"7X c #948683",
"8X c #E2DDD9",
"9X c #C07420",
"0X c #667327",
"qX c #B8AAA2",
"wX c #5D6E2E",
"eX c #858976",
"rX c #427226",
"tX c #087D36",
"yX c #BB7C77",
"uX c #9E9D97",
"iX c #AA6A5D",
"pX c #81504E",
"aX c #2E772D",
"sX c #C36819",
"dX c #A4716C",
"fX c #E4D0C9",
"gX c #845D33",
"hX c #A3333E",
"jX c #AA723C",
"kX c #68645F",
"lX c #817288",
"zX c #952A25",
"xX c #C18856",
"cX c #323038",
"vX c #CFB6AD",
"bX c #63597F",
"nX c #CA0D11",
"mX c #B54239",
"MX c #917E65",
"NX c #78897A",
"BX c #4A895C",
"VX c #B9939B",
"CX c #776E1B",
"ZX c #607F5C",
"AX c #D51910",
"SX c #823123",
"DX c #9D473C",
"FX c #936E64",
"GX c #A18F72",
"HX c #544759",
"JX c #E6CDB1",
"KX c #BD9895",
"LX c #3D3549",
"PX c #B25301",
"IX c #C0A49A",
"UX c #B29A7C",
/* pixels */
"; ; ; o = . . = = o + + $ @ . + O @   % # # a A   % # A 9 # $ # %   # # # $   t s 0 . . M $   # # %   %   $   $ $ # &   $ a $ $ ",
"= = = = = + @ = = . + . O O . + @ @   # $   a A < 9.% U 9     % %         O   > B 0 0 X M #     # % % : # $ $ $ $   % $ O O   $ ",
"= = = = ; . @ o X X X X O 2 + + + + $ %   # $   O % % $ a # # % %   # # #   % @ 0 0 0 o . # $   #   % :   O O $ $   % $ O $ % # ",
"= o = ; ; . @ o = o . . O $ + . + + $ % # #   q W S W h #     # &   $ $     & > 6 0 . o +   $ $     % - $ O $ $ @ $ & $ O $     ",
"; = = ; ; X @ X o = X X @ @ . + + + O % $ # W E a.D.`.A.: P $   & h     # # % t X X . o . #         # &   $   $ @ $ - # O O $ $ ",
"; = ; u u o . o X o o X $ + X + + . $ % : p _.D.k.O.O.0.S.- p   & 9 $ $     # v o o X K 6   U $     h -   $   O + O &   O O O $ ",
"> @ @ O > r % $     < a d < v v @ > 2 Z s.`.j t.1 j k.O.D.W + P : W % & %   : N a > 2 O h h @ @ O $ $ : - - - - & - : # # % %   ",
"7 < < q a % - % #   # < g 4 . o 6 5 9 _.0.O.1 j 1 1 1 1 F.s.. t % h h & #   - %   2 2   & $ X o X @ . # : : : Z Z : -     # #   ",
"n > O 4 p h &   $     3 # p.= ; o [ 5.0.H.j 1 1 j 1 1 j O.A.p X   # % &   $ # O O 2 2 2 % $ = = o . X $ : - & : : : & $ $   q   ",
"7 > $ a 4 # &   $ #   3 N p.= ; [ lXV.M.j H.j 1 1 1 1 j 1 F.s..   % #   # $ #   2 < 7 t O @ o X = o X   - # # & - : &     #   # ",
"9 O $ $ $ r & % # #   2 N ) k v lX/./.o.t.j 1 1 1 1 1 1 j t.A.O   %     & h % < 2 7 3 e > . X . o o = $ & #   % - : - #         ",
"#       # d - # # % #   N ) t s.HX/.i.5Xu.1 j 1 1 *.*.1 j 1 F.u 9.Y # P d g y < O 2 > > > . X . = u u $ - % % & : : : # $ $ h h ",
"# #     # & : % # & # g - h [ 6XLXo.C.i.bXcXj *.k.1 j 1 H.j M.D.$.H q # 9 h : %       + O   O O @ X . % -   # % % - : %       q ",
"@ @ + . X O #   # # $ r d & s.o.bXLXo.i.i.4XM.1 j 1 1 *.*.k.M.:Xw.O i 5 X . b q O @ @ = . & %   $ O   - $ @ @ + + $   . X . . X ",
"+ + . X o +   $ # % # q & 7 ' 5.o.5XLXV.C.C.4Xt.j 1 k.k.t.:XQ.3X[.z.+.].x K P & O O O o o # # $ O $ # % @ @ + + . + @ o = X 5 5 ",
"+ + + + o @ % # # # g q N d n : 5.V.5Xu.V.C.C.V.M.j *.H.1X| V F <.&XS p u 9 }.W +     + .       #     % O @ . @ + + @ X o X t s ",
"$ v + + . @ % % #   % 7 % % > 0 Z 5.V.(.u.V.i./.o.t.:X>X;XF :.1X^.uX .r.X.J 8.R d.4 & O @ % %   # #   &   O + + O $ @ o = X s s ",
"#   O @ . @ & & % # % # & % O $ p $.5.Z.bXcXZ.i.(.1X..V } >.2X0.v.* c * * * Q  .R q & < U N h a a h # g < t 0 0 t 2 > o 5 6 6 0 ",
"#   p + . @ # #   # % $ % &   $ p M $X6X4X(.u.Z.hX:.F ;XQ.^.kX8.* m c c c m * c m R G < r %   2 O     g r t 0 0 t > 2 5 o 5 6 5 ",
"  O $ O @   & $ $ % & # &   @ > @ T w S 6XZ.Z.,XV V 3X2Xt.y.c I m c * * c c c { %.J d.p y d     # # < d g r r 2 2 < d < < g #   ",
"X + + . o . $ + + $   $ $ X ; K G g.8 9.S `.>XF } zX^. X{ * Q ~ z , , * c c { 8.J %.h.f r < 6 > 3 < w < 0 t r 0 o . d g % & % # ",
"o . X X ; o $ + . @ $ $ $ = u ; ; 7XM H E z.>.3X2XO.q. .* Q ~ m I , * * * m ;.e.%.J L v.f.2 B B e 3 e < 5 K 6 6 u o # % % h $   ",
"X X . . o + 9 @ @ + @ O O = u = = G K.# E S &X^.*X!.* m Q I c c I , * * * m %.J 8.%.* 8XU e w w e 7 7 r 0 K 5 6 S.u     # # < < ",
"o o o o o +   O O + + @ O X = = = K . f ! kX1 5.L * Q c * * * * * * * c * e.e.* ;./ * @XS w B w e 3 3 r > 5 + 5 a.; #     # < < ",
"= = ; ; ; X O @ O O O . @ X ; u ; u . s.*X0.5.r.* Q z , * * * * * * * * m / Q c z / ;.c qX8 x w e e e r r > 6 u S.= %     # $ O ",
"O O $ O @ $ & # # #   $ % $ . . + + # . A.g.Z r.* m z , * * * * * * c * J X.* m * / L * qX0 > 2 2 2 < & # $ @ X + O & # $   q $ ",
"& & & & % & & % # # # # : & # %   # - Z S : 9 %.* I z , * * * * * * m * { 8.* m * / ;. .d.P O @ O > + % & # # #   g $ + 5 0 0 5 ",
"# # % % # & & #   # # # & & # # # # & : % d @ {.* I z , * * * * * , c * / @X* ;.e.X.m 8.f g O @ @ + . % %       r < t 5 6 5 k k ",
"% # % %   % & % #   # # & & % % #   # - f f $ R Q c I , , * z z z z m * X.L * y.D.X.* }.e % O 4 4 f..   # $   #     > 8 B B i 8 ",
"% # # #   % & % % # % # - - % % #   % - f f X d. .* I m c * * * * I ~ m X. .*  Xk.e.Q y.Y % $ O p C f.  #   # #     O 8 k B 8 +.",
"h h h q q & - & % # % # - - % % #   % - 9 A R J * ;.Q z z * , , , , m m X.;.c 0.*Xh.R ] 7.N 2 O > p v   #       $   2 5 8 B i ; ",
"#   a a   & - % # % #   & - # # #   # & 9 T }.* Q / r.* m , , , I m I z X.L , *XgXN.%Xl..X! q 2 e t + % # $ $ $ $ # O o 5 6 5 5 ",
"> O 2 $ O   : - & : & % : : % % % % - & p $.8Xc m @X,.J * c m Q m I J J !.e.JX%X2.4.3.c..Xq.9 7 3 7 < -   O   # % & & O $ O @ O ",
"8 8 8 B x t - & % % %   & # $ O $ $ % % . f {.L * c @XQ * ;.* c * vX1.1.1.1.~.4.3.3.m.J.&XS.@.3 3 3 2 % $ O $   # % % O O @ + + ",
"k i k k k w % # # #   $ %   O O @ @   % $ ; W h.J m m L y.pXyXOXfXb.2.m.m.m.2.2.2.3.m.#XJ.I.w.A e D 2 % # $ $ $ $ #   @ + + + + ",
"8 8 8 k k w % # # #   $ %   @   O @   -   2 : U qXv.{ qXzX( n.<.3XQ.j.U.#XsXx.x.x.x.sXx.J.L.] C n n C - %     $ $     @ @ + @ @ ",
"k k k B k s % # # #   $ % $ O @ @ + $ - # P ! K.k [ Z DX^ F =X<...=.iXGXc.xX-.-.-.-.-.L.w.l.2 6.n n C - % $ $ $ $ #   O @ . + + ",
"; K i i i 0 q $   #     h   @ @ @ + $ - - f ` H T Z FX3XF l ..=.;Xl -XU b ` : E E 9 @._ b b ! e w w 3 % % $ O O O     O O + X . ",
"+ @ O O @ a %   % & % % : % $ $ $ < % y # f $XH Y z.SX^ l V ( ^ F l -X9 Y b Z l.@.N b ) E E $ 9 A 7 @.- %       $ # &   q $ 4 4 ",
"4 4 4 U 4 a # O   % %   - &     # 9 f $ #._ 4 uXy.pXn.F l :.( V l } mXX U _ W ' 9 b a 7 d : g % f 9 H & O @ @ @ @ $ g < 2 2 > e ",
"+ + @ @ + @ @ . O $   O # & # 9   a 9 p G G [ { OXQ.B.l V =...V l } >.] Y #.h A P   O   % - % % #   O # @ X . + . + 7 n n e n s ",
". + @ + . O O . @ O O + # & # 9   P g p G.G.{.P.>.,X:.V } | :.l ^ V [.&.Y p 9.r 9   < O $ & # #   $ O # @ . + + v O < e e 3 n w ",
"o . . . +   $ . X . @ O # % # # a A d P S.v.P.nX^ | } l ^ | } l ^ V [.z.T T h % 9   # $ $ & # # $ $ $ g @ . v @ v $ 3 s n 3 3 e ",
"X . + + + $ @ . X X . @ % & % % a C 9.$ ; h.|.l :.( } l ..=.V l l l >.z.6 T 9 f P     $   %         $ # O X . . M O 3 s s e 3 3 ",
". + + . + O O . X X . . % & # # a p ` 4 s.{ yXAX..| l l ( B.F ^ V ^ |.@ o 6 9 ' P # # O $ %   $ O $ $ # O . X . @ 4 < w w e e 3 ",
"& & y g g y % @ O @ + @ - : & & g h 7.d G.r.fX( B.( F F <.<.^ V F =.iX: b A 7.f # r 9 $   # $ $ $ O $ - # $   $ O a # t >   r < ",
"% & : y y -   . + @ + .   - d g g # y d f.,.* P.<.<...( n.<.=.=...| hXD b @.` 9 r 2 t t < O . + @ + +     $ O + . O O X 6 $ P O ",
"# % y d d : # + + @ @ 0 < y d g 7 r d r f.v.L * KX,XB.B.=X| :.>.>X<.P.,.9.6 9 U 3 3 e s w $ + . . . X $ $ @ @ + . @ O . . O $ @ ",
"y & & y d : # + + + + . r y g y y y y g p S ,.m ~ <XB.>.-X<X<XdX|.OX~ { R K.7 6.e 7 3 B s O + . . X o $   O @ @ @ O O X + O $ $ ",
"- - d d d : $ X . X . X r - y y y ' $.# v X E ,.L vXIXJ m r.S dXVX* L / d.).2 T s 3 r w B t X o X X o $   O O O O $ O o + $ $ $ ",
"- : : : : : O o X o X X q : - : y ' $.A T @ 4 L.xXUX,.*  .X.d.D Z !.}.{.S ).p.. 6 0 > t t @ X o o X o $   O $ $ 4 q a X . O O @ ",
"# & & & % - # + + + @ .   - # # % b ` N E 9.W.N.3.PXb./ !.R f.D 7.6.C q M v # $ @ @ $ $ # < + v + + 6 < # $   a 4 q % @ @ $ $ O ",
". . + . o + $ . X X . o @ + = K T +.&.' K.&.N.4.4.1.jX-.S l.x ! 7.H b _ #.x p p @ O O @   2 5 5 6 6 5 7 < + t 0 o . < > 2 7 > > ",
". o . . = X O . o o X o + . ; = k +XjXZXE.T.4.3.2.c.w.~.~.J.w.q.C b ! T #.G b p.6 @ @ + O > 8 k k x B 3 3 0 0 o ; 5 e w w n e w ",
"+ X X . o . O . X X o o . . K o ].N.CXY.R.aX#X~.-.` #.+X4.3.gXNX: C ! p.M o D > + + + . @ e B 8 8 k 8 3 e 0 6 o K 5 e s w s s w ",
". X X o o @ @ X X X X ; o . o o g.-.I.E.tXR.rXL.h p f.w.I.wXE.oXeX&.W.&.x G.3 7 O + @ + @ t 6 6 6 o o > > . X o o 6 + 8 s w e e ",
"o o . . o . @ X o X X = . . o o g.] T.aXE.Y.BXq.H D T _.oXR.tXY.XXU.U.b.] [ b U > $ O + > w k 8 8 s B $ @ . X o = . + 5 5 t w w ",
"X X . + X . @ o o X o o @ + X X 5 G .XT.I.XXMX$Xp 7 '.eXoXY.R.rX9X2.1.c.0 w @.> @ $ @ . O 3 8 8 8 B s # $ . . 5 5 + O X o + s s ",
"+ @ O O @   -   $ $ $   & $ t + #.i 6.W.N.2.~.+X] E P T.XX0X0XwXb.c.H Y C n ` ) . + . X $ & g # # # # y O X + + X O - %   9 r < ",
"X . + + . @ # # $ $ $     . = X X ).i ! w.j.%Xj.] ' &.j.9XU.j.].' q.Y A _ _ b [ K = = ; . % % % % & - % o ; = = = . & & #     $ ",
"X X X . = .   $ + @ @ O   X u o o ).g.[ K +.k '.x n 7.H &.8 4 H P _ H H _ v 6.8 = ; = ; X # #     % & % o ; ; ; = . & % $ p O O ",
"o X X o o + # $ @ @ @ O $ = ; o K +.[ D k o 8 8 ] Y f q q.> 6.U ` h b < C Y ) #.o = = ; o # %     % - & X ; u u ; o %   + O O $ ",
"X o o o X @ # O O O @ @ $ i k B i i @ t ; = k +.i a % P U D > C g A U < 9 a q X ; = = ; o $   # % % - % = u u ; ; X # $ @ O @ O ",
"X o o X X +   $ O O @ 4 4 x k k 8 o . v K k k k = $ & # #   O $ %   $ 9 # < 9 . = = ; ; o       # % % # o u u u u X # $ @ @ + + "
};
