/* XPM */
static char *result[] = {
/* columns rows colors chars-per-pixel */
"64 64 256 2 ",
"   c #9D9088",
".  c #9A8D85",
"X  c #978A82",
"o  c #A0938B",
"O  c #9F928A",
"+  c #998C84",
"@  c #988B83",
"#  c #9E9189",
"$  c #9C8F87",
"%  c #9B8E86",
"&  c #968981",
"*  c white",
"=  c #A1948C",
"-  c #958880",
";  c #94877F",
":  c #9D9087",
">  c #9E9188",
",  c #FEFFFF",
"<  c #9B8F84",
"1  c #978A81",
"2  c #A2958D",
"3  c #383431",
"4  c #978B7F",
"5  c #9C8F86",
"6  c #998C83",
"7  c #9B8E87",
"8  c #968A7D",
"9  c #9F9289",
"0  c #9B8E85",
"q  c #9D918A",
"w  c #93867E",
"e  c #9A8D84",
"r  c #9A8E82",
"t  c #9C9084",
"y  c #988B82",
"u  c #998D81",
"i  c #9E918A",
"p  c #9C8F88",
"a  c #FDFDFD",
"s  c #9A8D86",
"d  c #9D9085",
"f  c #968980",
"g  c #9C8F82",
"h  c #9E9087",
"j  c #988C7F",
"k  c #9F918D",
"l  c #988B84",
"z  c #3A3532",
"x  c #FFFEFF",
"c  c #A0968D",
"v  c #9D9188",
"b  c #9E8F8A",
"n  c #34302D",
"m  c #9C938D",
"M  c #9C9188",
"N  c #998C85",
"B  c #DD261F",
"V  c #96897F",
"C  c #FFFFFD",
"Z  c #D62721",
"A  c #FCFCFA",
"S  c #A0928B",
"D  c #A2958A",
"F  c #9E9285",
"G  c #988F8A",
"H  c #978A88",
"J  c #DC241A",
"K  c #9A8F89",
"L  c #35352F",
"P  c #DBD9D8",
"I  c #998C82",
"U  c #B52218",
"Y  c #A29287",
"T  c #A08F84",
"R  c #F8F8F9",
"E  c #E5E4E3",
"W  c #F7F6F4",
"Q  c #E4791C",
"!  c #9F938C",
"~  c #A3978F",
"^  c #988E85",
"/  c #999187",
"(  c #9F8C85",
")  c #D1D2D1",
"_  c #E02419",
"`  c #988C81",
"'  c #8F827B",
"]  c #9B908C",
"[  c #ED7A14",
"{  c #E0DEDD",
"}  c #B5B0AB",
"|  c #CC251F",
" . c #AE211B",
".. c #A4968D",
"X. c #A09488",
"o. c #C02016",
"O. c #968B84",
"+. c #E9E9E9",
"@. c #D5D5D5",
"#. c #A09591",
"$. c #9B8F92",
"%. c #362E28",
"&. c #EFECEC",
"*. c #C68248",
"=. c #BD231B",
"-. c #7A7274",
";. c #088239",
":. c #CF6B14",
">. c #6E6099",
",. c #4D415F",
"<. c #92887F",
"1. c #A2908A",
"2. c #A29291",
"3. c #9B8F7F",
"4. c #958884",
"5. c #FAFEFD",
"6. c #A79D96",
"7. c #C3BDB9",
"8. c #D1CBC8",
"9. c #9A887F",
"0. c #A18872",
"q. c #A69996",
"w. c #AF723E",
"e. c #BEB8B4",
"r. c #C2231E",
"t. c #CA1F19",
"y. c #443C51",
"u. c #655987",
"i. c #6D645E",
"p. c #A08C7F",
"a. c #948B80",
"s. c #A49993",
"d. c #CBC6C4",
"f. c #433B36",
"g. c #928E84",
"h. c #A9A09A",
"j. c #8F8685",
"k. c #A68D84",
"l. c #3B3235",
"z. c #FBF9F8",
"x. c #AC7A4A",
"c. c #969389",
"v. c #C2783A",
"b. c #756B69",
"n. c #097636",
"m. c #E62720",
"M. c #B8733A",
"N. c #DA2420",
"B. c #95261C",
"V. c #DD751C",
"C. c #D47623",
"Z. c #3D3A4C",
"A. c #373242",
"S. c #E1D3CF",
"D. c #857B75",
"F. c #645D57",
"G. c #9F7A5B",
"H. c gray95",
"J. c #524C48",
"K. c #AEA8A2",
"L. c #CECDCD",
"P. c #C56310",
"I. c #908873",
"U. c #AE8A78",
"Y. c #CA4139",
"T. c #B32D27",
"R. c #A88B7F",
"E. c #286F2D",
"W. c #B18260",
"Q. c #B85F55",
"!. c #AE403F",
"~. c #C97E3C",
"^. c #D0251F",
"/. c #E42519",
"(. c #B58960",
"). c #DDB3B2",
"_. c #6F63A1",
"`. c #7464A4",
"'. c #58514E",
"]. c #A7836C",
"[. c #A46B1E",
"{. c #7E776B",
"}. c #9C897B",
"|. c #C66814",
" X c #87784F",
".X c #9A9892",
"XX c #9B7068",
"oX c #A41E18",
"OX c #BB651C",
"+X c #482C28",
"@X c #35782C",
"#X c #44702F",
"$X c #9C713B",
"%X c #D21C16",
"&X c #363436",
"*X c #494653",
"=X c #A3A1A0",
"-X c #E3700E",
";X c #6A5D7D",
":X c #9F2C28",
">X c #D7C0AC",
",X c #C12922",
"<X c #454139",
"1X c #DFC7C2",
"2X c #D88037",
"3X c #C67775",
"4X c #B67D56",
"5X c #5F544E",
"6X c #C9342C",
"7X c #7A261D",
"8X c #934E37",
"9X c #351F19",
"0X c #AD8B6A",
"qX c #838A70",
"wX c #1B732C",
"eX c #8B6F20",
"rX c #606562",
"tX c #5B6B37",
"yX c #2C7D4A",
"uX c #86838A",
"iX c #A6665F",
"pX c #403848",
"aX c #5A1D19",
"sX c #6F2523",
"dX c #C79E9C",
"fX c #60547C",
"gX c #CA7222",
"hX c #BE6C6C",
"jX c #BD5858",
"kX c #C68277",
"lX c #C17022",
"zX c #D2CABF",
"xX c #5B4865",
"cX c #2F2822",
"vX c #3F1C18",
"bX c #8C7467",
"nX c #A87B5E",
"mX c #815E5C",
"MX c #99544C",
"NX c #A43331",
"BX c #E4842B",
"VX c #D33C36",
"CX c #8C7D96",
"ZX c #ACB2AF",
"AX c #807D79",
"SX c #BA4846",
"DX c #657626",
"FX c #863423",
"GX c #4C8559",
"HX c #74836A",
"JX c #488153",
"KX c #AEA2A1",
"LX c #93364C",
"PX c #662730",
"IX c #967351",
"UX c #B25915",
/* pixels */
"; ; ; & - @ @ - - & + + $ . @ + % .   O # #       O #   # # $ # 9 h v # # $   e u u y X l $   # # O   O   $   $ $ # o   $ p $ $ ",
"- - - - - + . - - @ + @ % % @ + . .   # $       $ O O   #     O O 5 % % $ %   < j I 6 X l #     # O O 2 # $ $ $ $   O $ % %   $ ",
"- - - - ; @ . & X X X X % 5 + + + + $ O   # $   $ o O $ $ # # O ! c ~ 2 =   > e I 6 6 & @ # $   #   O 2   % % $ $   O $ % $ O # ",
"- & - ; ; @ . & - & @ @ % $ + @ + + $ O # # # #   o o   q   h S ] i.F.i.D.! ~ . X 6 l & l   $ $     O = $ % $ $ . $ o $ % $     ",
"; - - ; ; @ . X & - X @ . . @ + + + $ #   O #     o o # i # h = D.n n n z '.D.K y - @ & + #         # o   $   $ . $ = O % % $ $ ",
"; - ; w w f @ & X & & X $ + X + + @ $ O         $ o = O i # 0 2 i.n z z z n z F.' e & - X   $ p     O =   $   % + % o # % % % $ ",
"0 . s % 0 > O $ # # $ $ o   + + . .   = i > i i # = X.F 5 5 5 ' f.3 3 3 3 z 3 n f.b.= 0 q i % s 7 $ $ 2 2 = = = o = 2 # # O O   ",
"d d :     O = O #     $ O % X X @ @ . O # :     $ 9 t u 6 f $ i.n z 3 3 3 3 3 3 n l.b.2 9 5 1 f X . @ # 2 ~ 2 ~ ~ 2 =   # O #   ",
"g 0 % 7 s q o   $     $ i + - - & X + $ % % $ p . # d u y @ <.J.3 z 3 3 3 3 3 L z n ,.CXk 0 - ; f @ X $ 2 o o 2 2 2 o   $       ",
"d < $ p 7 # o   $ #   $ i . & ; & X . p % + s 7 % 9 d r I 7 F.n z 3 3 3 3 3 3 z n y.>.>.uXp 4.1 - f &   = # # o = 2 o     #   # ",
"v % $ $ $ > o O # #   $ O % X & & & .   s + N 7 0 % < u 5 ' f.L 3 3 3 3 3 3 z n pX>._.u.*Xj.H l f - & $ o #   O = 2 = #         ",
"#       # o = # # O #   O $ @ X & - N p s N $ N O.! I 4 / F.3 L 3 l.3 3 3 3 &X&Xu.`.>.pXy.;XH l - w w $ = O O o 2 ~ 2 # $ $ i i ",
"# #     # o 2 O # o # O = # % % % + p k K . = {.<X{.= ..XX+Xn L L L L 3 L 3 n fX`.>.Z.y.fXpXj.$ + y y O = # # O O = 2 O         ",
". . + @ X % #   # # $ # = #     $ %   b @ 1 <.<.5X%.5X9.SXr.7X%.l.3 L z l.n xX`._.Z.pXu.pX-.#.5 $ $ : = $ . . + + $   @ X @ @ X ",
"+ + @ X & +   $ # O #   O O     p $   + w ' } G 4.AX<X%.:Xm.J T.sX%.&Xz n ,._._.y.A.u.y.-.s.M < 7 p > O . + . + @ + . & - X 1 1 ",
"+ + + + & . O # # # #   O O     p M S 1 ! } P P 8.&.E -.9X7XZ m.Z B.+Xn Z.>.>.*XA.u.y.-.$.7 t M ] q h O % . @ . + + . X & X e u ",
"$ N + + @ . O O #   O # o # . . % $ O 7 } W R x * x x , ZXl.aXT.B m.=.PXu.`.,.A.;X,.-.D u S # M m q d o   % + + % $ . & - X u u ",
"#   % . @ . o o O # O # o O % % $ 5 N h.z.* a a a , a a * E rX9XB.Z B | LX,.A.;X,.-.q.g v O i p p i # 9 : e 6 6 e 5 0 f 1 y y I ",
"#   s + @ . # #   # O $ O o   $ $ X s.{ P P a * , , * * z.C A .XcXaX,X/.N.B.xX,.b.2 e 7 ] !   $ %     9 > e 6 6 e 0 5 1 f 1 y 1 ",
"$ $ $ % .   o $ $ O o # o   . % . O.8.P +.E @.a * , * * 5.A z.* ) J.vX:XZ m.:Xb.~ F S k m !   v # # : X.9 > > 5 5 : o : : 9 #   ",
"X @ + @ & @ $ + + $   $ $ X w f w K.W +.P { H.z., , * * , , C A * W uXcXsX,XQ.q.! S k q F t ` 0 t d r : 6 e > 6 & @ o 9 O o O # ",
"& X @ & ; & $ + @ . $ $ $ - w - ' d.* P { +.@.* a , * * x x C 5.5.A * e.f.vXbXq.k > #   h t j j < t < : 1 - y y w & # O O i $   ",
"X @ @ X & + v . . + . % % - ; w 7 +.* L.H.* { { * , * * , , C x x a z.* +.rX%.i.~ X.d 5 h < r r t F d > 6 - 1 y ' w     # # : : ",
"& & & & & +   % % + + . % X & w s.R , L.z.* A L.R * * * * * * * * C C A * P b.f.J.O.S 5 > t 4 r < t t > 0 1 + 1 ' ; #     # : : ",
"- - ; ; ; X % . % % % @ . X - ' s.W a ) a a * @.+.* , * * * * * * C C , * &.K.D.J.; = $   < 4 r < < r > > 0 y w ' - O     # $ % ",
"% % $ % + % o # # #   $ O $ N - 6.z.A ) a a * E P * , * * * * * * x x x * E 6.= 2 ! O # o > e 5 5 5 : = # $ s X + % o # $     $ ",
"o o o o o o o O # # # # 2 o # $ h.&.* ) { W * H.) * , * * * * * * x x x * 8.q O # M M h 1.S % . % 0 + O o # # #   9 $ + 1 6 6 1 ",
"# # O O O ! o #   # # # o o O > 2 P * @.-.=X* W ) * * * * * * * * * , * A } ^ 9 h v M   b O % . . + @ # O $     > : e 1 y 1 8 8 ",
"O # O O   O o O #   # v ! ! q q p } C E *X'.* z.L.a x , , C , , , C a * H.K.O.> O ! #   S O . % % + @   # $   #     0 4 ` j V 4 ",
"O # # #   O o O O # # v X.X.Y S p #.zXP '.%.W A L.a C a , * x x x * z.A * &.e.=   $ : # O # $ % % $ +   #   # #     % 4 8 j 4 w ",
"i i i     o = O O O O k 2.= Y F / c.w.~.8Xz R W 8.* A A x , x a , * E ) , z.d.q.$ %   O o O p 7 7 7 .   #       $   5 1 4 j f ; ",
"#   p p   o = O # O O v = #.m m .XU.Q [ V.M.S.+.L.W R 5.a a 5.5.* &.d.H., W 7.] # #   $ O O $ $ % s + 9 # $ $ $ $ # 5 & 1 y 1 1 ",
"0 % 5 $ %   2 o = 2 = F X.c 1.U.nXM.V.Q Q [ C.*.*.*.*.>X* , C A * R &., * W 7.! = = o # o O       v p =   %   # O o o % $ % . % ",
"4 4 4 ` j e = o O o O ] #.S 0.w.lX:.:.Q Q Q V.-X:.:.-X4X{ 1XdXmX7.R , * E 7.q o O o o   # > t t d d 5 O $ % $   # O O $ % . + + ",
"8 8 8 8 8 r O # # #   ] S h p.G.[.OXOXP.P.P.P.|.|.C.w.FXT.T.oXoX8Xe.E ) d.2.~ 9 O O   $ #   0 t t t 5 O # $ $ $ $ #   . + + + + ",
"4 4 4 8 8 r O # # #   $ Y : G T G.G.G.x.w.M.v.v.x.0XXX .r. .U m.| MXh.~ 6.s.c 1.v # # $     < g g t d = O     $ $     . . + . . ",
"8 8 8 j 8 u O # # #   7 > 5 G G K G m = 9 q g 9.H Y Q.N.^. .| J B B.XXY 9 c c 1.  # # $   > < g g g t o O $ $ $ $ #   % . @ + + ",
"; V V V V 6   $   #   K q : 0 % N H 7 = D Y F g 9.c.jXJ _ U N.B Z  .!.0.( q ! i #     . % : 0 t t < 5 O O $ % % %     % % + X @ ",
"+ . % % . p O   O o O 9 c i ( T $ T Y D O o 2.m b k.Y.J N.U N.N.| U | iX=Xj.6.= O O # $ O o $ > > v   = O       $ # o     $ 7 7 ",
"7 7 7 p 7 p # %   O i h = !     v M ! K O.H b t H k.Y.J | U Z B t.U /.NX7.) j.#.v # :   = 2 O O O #   o % . . . . $ 9 d 5 5 0 < ",
"+ + . . + . . @ %     % # o #     $ # . - @ % 0 H k.Y._ | =.B B =.U B  .!.).} 2.m $ 5   O = O O #   % # . X @ + l + d g g < 3.3.",
"@ + . + @ % % @ . % % + # o #       # % - 1 N ( ^ k.VX/.=.t.J N.U | r.r._ =.).e.N   : % $ o # #   $ % # . @ + + N % d g g t g r ",
"& @ l @ +   $ @ X @ . % # O # #     O $ X f O.( ^ T Y.J  .Z _ Z U ,X=.N._ %XQ.8.q $ > : $ o # # $ $ $ # . @ + . N $ t u g t t < ",
"X @ + + + $ . @ X X @ . O o O O   $ O % & X & 9.O.= Q.r.=.B _ | B.=.Z J B %X3XW s.% > $   O         $   % @ @ @ l % t u u < t t ",
"@ + + @ + % % @ X X @ @ O o # #   7 O % - & O.4 1 #.].oX^._ Z  . .B J Z _ o.1Xa 6.$ 9 % $ O   $ % $ $ # % @ @ @ s 7 d r r < < t ",
"o o = 9 9 = O . % . + s = ~ o o 9 O = O s % p ^ r 3.!.| U N.^.U B J B Z t.3X* S.~   > $   # $ $ $ % % = i $   $ % p # e 0   > : ",
"O o 2 = = =   @ + . + @   = o 9 9 # o O % % ( s $.} hXt.Z U U Z /.B %Xo.kXz.H.h.0 5 e e : % @ + . + +     $ % + @ % % X y $ # % ",
"# O = D o 2 # + + . . 6 : = X.X.F > o # + . l K e.&.A kXt.,X!.r.o.=.jX).A x 7.j > t 3.u e $ + @ @ @ X $ $ . . + @ . % @ @ % $ . ",
"o o o o o 2 # + + + + @ > = 9 D D D D 9 % % ^ b .X) * * U.iXS.).dXS.a * a 8.] t < F t j I % + @ @ X & $   % . . . % % X + % $ $ ",
"= = o o o 2 $ X @ X @ X > = = = D X.D 9 e . K l 6.d.@.{ KXc.=Xe.>XS.zX>X(.IXb . u t F r I . X & X X & $   % % % % $ % & + $ $ $ ",
"o = ..2 2 ..% & X & X X   2 = ..= 9 D > + N % N $.$.} K.y T m bXOX:.UX:.-XlX0.N X r g r ^ e X & & X & $   % $ $ 7   p X @ % % s ",
"# o o o O = # + + + . @   = # # O   O o   p h h $.m h.q.( h G M.[ [ gXC.[ V.M.R./ 1.d c.h h l N + + y : # $   p 7   O . . $ $ % ",
"@ @ + @ & + $ @ X X @ & . + - ; X X + O #   M F 5 m g.& l H 0.C.[ V.(.W.Q [ Q $XGXqXx.].h < 1 1 y y 1 d d + e 6 & @ : 0 5 d < 0 ",
"@ & @ @ - X % @ & & X & + @ ; - X & @ # # h p ^ g > ^ 9.a.qX$X[ [ ~.6 R.~.Q C.@X;.n.eX~.@ % 4 8 8 j j t t I 6 f ; 1 < r r g < r ",
"+ X X @ & @ % @ X X & & @ @ ; - X & @ # # v h $ G b 6 4.O.JXE.eXgXW.< u }.x.#X;.;.;.$X4X3.3.I 4 4 8 4 t < 6 y f - 1 < u r u u r ",
"@ X X & & . . X X X X ; & @ & & & & @ # # v T p c.W.*.*.tXn.;.;.#XI.h O.H I.yXn.;.E. X( 0 r @ y y f f 0 0 @ X & & y + 4 u r < < ",
"& & @ @ & @ . X & X X - @ @ & & & - l # # > h ] / (.2XQ [.@X;.n.yXg.$.` a.( HXE.DX Xg.g.G r 8 4 4 u ` $ . @ X & - @ + 1 1 e r r ",
"X X @ + X @ . & & X & & . + X X X & + O # > F d G q 0.x.v.tX#X@XE. X( e j 0Xv.:.v.R.b X $ t 4 4 4 j u # $ @ @ 1 1 + % X & + u u ",
"+ . % % .   =   $ $ $   o $ + + + X % # 0 + g p.r m m / j {.w.gX[.w.3.$.R.*.BX2X0.H + H T o 9 # # # # o % @ + + X % = O   v > : ",
"X @ + + @ . # # $ $ $     @ - X X - X e V - ` j j T Y T T m }.W.W.].K b p.0.U.p.j.I.<.- a.q S O O o o O & ; - - - @ o o #     $ ",
"X X X @ - @   $ + . . %   X w - & ; f 6 ; 8 4 ` a./ m G b ^ < K 2.: : / K s G O.}.<.- 4.H 9 #     O o O & ; ; ; - @ o O $ s % % ",
"& X X & & + # $ . . . % $ - - & - - 6 e 8 8 j 4 V M O p r r K ] v # b M p $ d ` 9.4.4.w V 9 O     O = o X ; w w ; & O   + % % $ ",
"X & & & X . # % % % . s $ V 8 j 1 V + . - V 8 8 a.: 9 h < % 7 p q b $   #   h X - - <.w V $   # O O = O - w w ; ; X # $ . % . % ",
"X & & X X +   $ % % . 7 7 j 8 8 4 f @ + - V 8 8 - $ o # #   % % O   $ # # p v @ - - ; ; &       # O O # & w w w w X # $ . . + + "
};
