/* XPM */
static char *c4755baaee574cd2bcbd8c8685009fc3GhXrlGRJ2orjFiNY[] = {
/* columns rows colors chars-per-pixel */
"64 64 256 2 ",
"   c None",
".  c #100908",
"X  c #3A0102",
"o  c #321808",
"O  c #2F2B10",
"+  c #36332C",
"@  c #393532",
"#  c #3A3734",
"$  c #2D2F2B",
"%  c #490302",
"&  c #540300",
"*  c #581B02",
"=  c #4F100A",
"-  c #670E02",
";  c #582604",
":  c #5B3516",
">  c #532C0E",
",  c #662901",
"<  c #683704",
"1  c #763904",
"2  c #643B13",
"3  c #673B17",
"4  c #733D14",
"5  c #6C2C0A",
"6  c #453A36",
"7  c #553628",
"8  c #653925",
"9  c #763A30",
"0  c #2E5A38",
"q  c #784606",
"w  c #7B5306",
"e  c #6B4318",
"r  c #744A1C",
"t  c #774917",
"y  c #7C521B",
"u  c #7B5317",
"i  c #6D4207",
"p  c #4B443B",
"a  c #584A38",
"s  c #57482B",
"d  c #6B4624",
"f  c #754B25",
"g  c #795529",
"h  c #785736",
"j  c #694E34",
"k  c #746C3B",
"l  c #5B4F22",
"z  c #473E4F",
"x  c #504E46",
"c  c #775A46",
"v  c #6C564C",
"b  c #78694A",
"n  c #564B73",
"m  c #727170",
"M  c #5C6263",
"N  c #235A47",
"B  c #B40809",
"V  c #88360A",
"C  c #B42C15",
"Z  c #BC2823",
"A  c #AF312D",
"S  c #971D1A",
"D  c #D20D0B",
"F  c #C9241D",
"G  c #DB251C",
"H  c #D7271D",
"J  c #CD351D",
"K  c #E5251A",
"L  c #F0241B",
"P  c #D30920",
"I  c #C82822",
"U  c #D82A24",
"Y  c #CF3629",
"T  c #EB2117",
"R  c #874803",
"E  c #865504",
"W  c #975904",
"Q  c #844B16",
"!  c #845A1C",
"~  c #865618",
"^  c #965919",
"/  c #944D0D",
"(  c #AB560E",
")  c #98641B",
"_  c #936710",
"`  c #A56719",
"'  c #B06F0F",
"]  c #845C24",
"[  c #8A5C23",
"{  c #835C2B",
"}  c #845727",
"|  c #855A36",
" . c #8F552A",
".. c #AE4D32",
"X. c #8C632B",
"o. c #896428",
"O. c #936323",
"+. c #92662B",
"@. c #996928",
"#. c #99742C",
"$. c #896637",
"%. c #966B35",
"&. c #9C7334",
"*. c #98763A",
"=. c #877937",
"-. c #A46C26",
";. c #A3732C",
":. c #A8772A",
">. c #B47728",
",. c #A46A38",
"<. c #A37534",
"1. c #AB7C34",
"2. c #A37B3C",
"3. c #A67938",
"4. c #B77B36",
"5. c #B86931",
"6. c #CB5811",
"7. c #CB6F11",
"8. c #E77413",
"9. c #CC4932",
"0. c #CC752E",
"q. c #E87A26",
"w. c #885843",
"e. c #896945",
"r. c #976C46",
"t. c #987647",
"y. c #886C53",
"u. c #997C56",
"i. c #8D7450",
"p. c #A57A46",
"a. c #B0734B",
"s. c #8F7565",
"d. c #B9665C",
"f. c #C8744C",
"g. c #C4605A",
"h. c #018A3E",
"j. c #2E8C3E",
"k. c #0F8441",
"l. c #44824C",
"z. c #B4860C",
"x. c #908436",
"c. c #AA8339",
"v. c #B78639",
"b. c #B88A2E",
"n. c #CA8C17",
"m. c #FD821A",
"M. c #F18611",
"N. c #C58529",
"B. c #C78A39",
"V. c #CE9231",
"C. c #F1902C",
"Z. c #E3AC36",
"A. c #9A8459",
"S. c #9D8247",
"D. c #A98548",
"F. c #B58946",
"G. c #B9944A",
"H. c #AD8B53",
"J. c #A68857",
"K. c #B58B55",
"L. c #B89659",
"P. c #AC9352",
"I. c #BCA358",
"U. c #9B8467",
"Y. c #998674",
"T. c #8C826C",
"R. c #A78A66",
"E. c #AD9469",
"W. c #B59866",
"Q. c #A89576",
"!. c #B79C75",
"~. c #AE8873",
"^. c #BAA169",
"/. c #B9A477",
"(. c #B7AA7F",
"). c #C58C44",
"_. c #C79647",
"`. c #D59B47",
"'. c #C59956",
"]. c #D18F54",
"[. c #D6A74A",
"{. c #CAA358",
"}. c #D6A755",
"|. c #D1AD52",
" X c #E7B758",
".X c #F7B959",
"XX c #EBAE50",
"oX c #C99469",
"OX c #C8A867",
"+X c #D7B769",
"@X c #C5A87A",
"#X c #CEB373",
"$X c #EBB969",
"%X c #E69C45",
"&X c #F7C458",
"*X c #D7C378",
"=X c #E8C46A",
"-X c #F9C969",
";X c #FDD369",
":X c #E6C577",
">X c #F6CA75",
",X c #FEDB74",
"<X c #FBD677",
"1X c #E9D179",
"2X c #FEE37C",
"3X c #DAC251",
"4X c #645789",
"5X c #6B5D97",
"6X c #635882",
"7X c #877780",
"8X c #7F8D8F",
"9X c #928E8A",
"0X c #B39B85",
"qX c #AB9A8C",
"wX c #B7A889",
"eX c #B7AB95",
"rX c #BAB3A8",
"tX c #BDBCB9",
"yX c #AAA9A7",
"uX c #C7A988",
"iX c #C9B687",
"pX c #D6BA86",
"aX c #C8B897",
"sX c #CFB299",
"dX c #C7B9A9",
"fX c #C8BBB6",
"gX c #D29E8C",
"hX c #D5C387",
"jX c #D6C698",
"kX c #F9D885",
"lX c #EDD090",
"zX c #FDE786",
"xX c #FCE597",
"cX c #FDF290",
"vX c #CCC5B7",
"bX c #D7C7B8",
"nX c #D6C9AD",
"mX c #E7D6AD",
"MX c #F7E6AF",
"NX c #C8CAC9",
"BX c #D4CDC7",
"VX c #DDDCDC",
"CX c #D7D7D5",
"ZX c #D7D4CB",
"AX c #E4DCCD",
"SX c #F3EFD3",
"DX c #E4E4E4",
"FX c #ECECEB",
"GX c #E8E8E6",
"HX c #F8F8EC",
"JX c #F5F4F4",
"KX c #FDFDFD",
"LX c #F8F7F5",
"PX c #EFF1F2",
"IX c #DAE1E1",
"UX c #BABFBD",
/* pixels */
"HXhXw X +.b.-.:.B.>.>.V.XXXX$.tXBXOX| = :.V.' 1 ^ ^ t y.T.M p + # + @ 6 s a y J.hXt.) ) @.e :.+.V p.SXMX2X,X;XXXlXcXcXcXcXcXcXcX",
"lXOXi.2 ~ y Q ^ @.E OX#XOXb.fXeX#X>XjX4 /.MX+X+XL.$.* $.v # + @ # # @ # # p a a b g q R ~ R }.L.G.=XxXkX<X<XkXcXkXkX,XcXzXzXzXcX",
"N.^.A.; e X y 4.v.^ L.E.J.N.dXdX0X'.mX0X0XuX^.$X}.1.R e.a # $ @ + @ + @ + # # # 6 x 7Xs.{ p.[.'.OX,XzX2X>X<XkXkX;XkXxXkX,X<X,XzX",
"T.E.e.& : > p.}.[.v.E , t.+Xp.dXyXp qXbX0X. 2 [.+X].` 6 x # # @ @ @ @ @ # # # + 6 4X5X5Xb E.wXL.|.<XcXzX<X<X-X}.-XxXMXkX<X;X<X2X",
"5Xm e : % =.'.[.v.@.E #./.nXj s.iX@X& fXrX$.%._.bXnXa.= z 6 # @ + @ @ @ @ @ @ + z 5X6Xn n m fXuXZ.2XcXMXMX,XzX<X>X$X$X$X>X,XzX,X",
"5Xv e e i @.z.{.aXwXK.K.R.y.g P.H.f -.W.R.$.d 1 E.nXfX( a @ + # @ @ + @ @ # O # n 5Xn 6X5Xy.R.).&X2XzXkX,X2X<X<XXX}.$X$XkX;X-XzX",
"n a u ~ h jXOX#.T.U.D.2.%.E @.c.O., ] :.W.Q.e u.+.Q.bX#Xx # # # @ @ @ @ + @ O x 4X4X4Xn m >.1 >.&X2X,X-X.X-X<X,X X}.$XkX<X-X>X<X",
"p g q ! H.jXOXR ; E E ~ #.D.@.! ) -.; g R.Q.{ E.$.c wXpXx @ $ $ $ @ @ @ @ $ $ n 5Xn 4Xn X.N.^ V.=X,X,X;X=X X;X;X.X}.$XkX>X>X>X<X",
"*.@.e g B.;.E t ~ @.w *.G.L.O.w @.>.y e < E *.y.i.g E G.j z 6 6 # # # @ + O z n 5Xn 6Xv V..XXX.X;X;X,X,X<X;X-X-X-X.X$X$XxXkX>X-X",
"X g 3.c.i r [ ) ) ~ q I.*XF.z.) o._ q 3 Q ) ) i.k s j h S A A A A 6 $ $ $ o n 6Xn 4Xn u..X&X&X.X&X;X,X;X;X-X-X-X.X$X$X>XkXzX2XzX",
"d _ W.aX9X. Q c.+.x.c.G.OXpXlXOXn.n.o.2 y c.c.b p @ $ . X - - - % . $ # z $ # n n 4Xs.'.-X:X&X&XzXMX;X;X;X-X&XxX$XXX$X<X,X2XzX2X",
"r q u.wXeXiXI.#.~ B.c.) v.$XlXpX:X+X~ & ` _.I.p o o # p M 6Xm m M z . . . # + # z n K. X-X<X&XZ.xXHXxX-X-X>X>X>X$XXX$X>X[.}.=X.X",
"; e.f w OXzX*XD.*.b.~ r.'.Z.`.$XlXOX1 & ^.*Xc.v M i.Q.yXvXNXNXNXNXyX9XM x $ # # @ a {.=X=X;X%XM.kXSXMX-X&X>X<X%XC.>XxXOX4 R 0.V.",
"q ^./.h h - P.hXhX7 V #XmXG.|._.>.R i j vXmXz.qXtXCXPXKXKXKXKXKXKXKXLXCX9Xx . $ 6 a #XxXkXXXB.' }.lX*X[.&X;X&X.X&XxXAXz X % O.{.",
") g j g { W S.(.iX/.| 4 D.#X+X_.0._.I.b.3X3Xy.vXJXKXKXKXKXKXKXKXKXKXKXKXLXNXm . + # T.aX'.b.`.B.v.[.XXV.C..X[.XXXX_.c : , ^ >.c.",
"! u i e ~ _ X.A.W.S.g , u D.H.O.) _. Xb.b.(.BXGXJXLXKXKXKXKXKXKXKXKXKXLXLXKXVX9X. @ b Y.) :.v._._.B.Z.0.>.' ' C.`.@.% { <.:.>.-.",
"i < u o.#.) q g +.q #.3._ 1 1 = t b.}.( R.bXKXFXGXDXFXLXKXKXKXKXKXKXPXDXDXPXLXBXM $ p e.E <.@.).[._.0.F./ Q d.oXa.g f <.4.1.1.v.",
"q j t.c.#._ q ; i D._.v.-.` ] y O.>.' V sXDXLXVXVXVXDXJXKXKXKXKXKXLXGXVXVXCXPXFXfX# p $.@.#.~ 1.'.}.-.).( s.NXtXs.5 $.O. .+.c.}.",
"` iXwXh q N.@.; g hXA.5 `  X3X Xv.W M.3.dXKXDXJXVXVXPXKXKXKXKXKXKXKXLXDXCXFXFXDXVXm p t.}.).u ! F.`.&.N.' uXHXwXh - f ; * q 3.L.",
"G.L.S.~ _ 3Xc.% c.:Xf.- ` &X|.%.2 ~ V.@XVXKXPXVXPXPXIXJXKXKXKXKXKXLXGXDXJXDXGXKXJXyXb { 1.<.y t O.4.4.V.n.a.Q.v a.).L.H.aX!.D.eX",
"G._.W  .#X1Xc.5 G. X X|.OX}.G.&.{ [ [ jXPXKXJXVXLXLXDXGXKXKXKXKXKXFXDXPXKXDXDXKXKXNXR., o._._.v.>.` ,.lX$Xn., & %.D.p.OXiX(.qXBX",
"F.F.D.~.mX+X#.} D.[.1XlXhXp.H.F.1.X.X vXLXKXFXDXLXKXPXVXLXKXKXKXKXDXDXKXKXDXDXLXKXDXpXE f {.}._.>.1.wXMXlX' h r e & 3 L.#.u.qXIX",
"D./ oXmXsX3.` +.~ B.wXrXwXW [ f t ! ! dXLXKXGXGXLXKXJXCXLXKXKXKXLXDXDXKXKXGXGXHXKXDXlX'.e : < 8 q K.SXMXR.% y ! e 2 t  .! e i.VX",
"r ^ O.K.hXD.t < ~ G.{.H.| y ] g y / / rXLXKXDXDXLXKXKXVXJXKXKXKXLXDXPXKXKXFXGXLXLXCX-X%Xv.OXW #X=X}.AXsX<.q r } < t O.q F.{.hXZX",
"` ) R / G.+.= y '.'.K.*.^ <.t 3 r h u.qXGXKXGXGXLXLXDXDXFXLXKXKXFXDXDXPXKXDXGXLXKXdX3.>.4.B./ a.'.B.R.a.( W ~ ^ %.&.o.* g %.A.qX",
":.>.O.i W @.c.F.).p.e.g O.F.Q , g p.u.s.ZXKXFXDXLXVXyXCXFXLXKXKXPXVXtXUXKXDXDXKXLXs.= ! 7.W 1 & R ` V W oXuXe.O.1.3.t.U.8 % > 9 ",
"+.v.5.< u #. X}./ &.] y  .3.[ , $.'.+.t.dXJXJXDXLXUX$ tXDXJXLXLXPXNXm 9XKXDXFXKXJXU.g @.c.*.: % ; Q 0.' pXBXr.-.` @.i.@Xc ; h b ",
">.O.Q r ~ ^ ` / t +XP.v.).+.Q 5 o.S.u.R.R.eXKXGXLXBX6 yXVXbXsXdXDXtXm 9XLXVXPXKXLXfXQ.a.).+X*.V / ` >.[.XXV.@.S.D.;.[ 4 3 d y.E.",
"Q D.c.^ ) -.^ - 8 pXW.-.~ 3 e & t.OXqXe.h Y.BXBXJXIX9X9XqXd...d.qX7X9XNXJXPXGXFXFXBX0Xu.*.o.W ( ) Q W v.>.0.}._.:.y h U.* | A.e ",
"*.*.c.p.R V.|.D.%.@XL.%.1 q 4 Q 4.OXqXg * y.aXuXfXbXqX5.r.w. .| r.r.~.fXbXBXCXGXVXR.i.t.t.| L.a.W b.#XF.V ^ %X0.~ 2 k u.wXQ.s.wX",
"P.o.$.S.9 hX1X[.>.:.D.3.~ Q r R K.@XY.$.3 u.aXoXf.].oX6.5.e.y.r.,.6.f.f...gXCXPXBXi.c e.p.t.E.r.( Z.$XK.4 , 7.V.1.+.g : hXeXwXnX",
"S.=.~ X.U.AXlX' @.t #.b.1.q f , Q.nXY.s.R.sXZXBXd.6.8.q.0.6.7.7.0.0.8.8...dXJXLXvXwXY.i.o.g R ` >.5.( ).%.% / |. X`.%.O 7 iXjX/.",
"y *.E././.mXkX+X>.! u O.O.4 3 V @XmXY.qXNXPXKXLXVXeX( >.7.0.7.q.8.6.6.R.NXFXKXJXVXCXQ.i.o.*.@.) t ; w.nXQ.& f V.Z..XXXL.p.3.~.dX",
"o.X.*.u.J.#X$X Xb.#.#.] W ) d - Q.AXT.t.E.aXvXAXCXqXB 6.6.6.( ( 6.6.C s.ZXDXvXqXdXeXY.e.d f ;.) [ | r.u.H.<.8 / W n.{.pX,.R -.K.",
"_ y t { D.J.}.}.#.O.J.P.D.3.t % s.eXwX<.&.J.Q.0X0Xg.B Z Y A ..C J Z B A gX!.c e.Q.!.u.h 8 % ;.b.-.g +.E.oX3.5 > ; 1 %./.'.' ' 0.",
"o.o.} e.P.J.{.{.#.) J./.E.W.t.h u c.*XF.1.A.c V D D Z F P ( ' 5.P Z Z B D S q [ i.u.c d : * c._.3.% j pX@X%.r.d g f 7 c OX`.7.N.",
"o.%.o.$.P.W.{.+X{.v.) o.A.iXpX^.G.G.D.b.<.$.e.Y U I I G P 6.n.7.F G H I H U ..o.i j h 8 ; = P.|.G.V [ E y U.aX7 e.W.A.% s.oXV.n.",
"e g < y.BXQ.G.V.#._.c.#.*.r.j g c.[.q > r.u...K I I F K G U Y Y U G H F F L 9.p.%.| f : ; h jXQ.q f , t.H.t.w.3 K.'.<.* 7 &.0.n.",
"< r < e.jXR.:.b.c.[.`.G.2.q ; * q &.A.E.R.,.U L F F H G G G P P G K G F I K U A h d 3 - y.vXSXuXV f * X.S.<.W Q 3.a.! : ; q O.-.",
"e t t o.G.;.) :.b._._.P.D.%.Q | b c A./.a...K U F F G G G G G G G G G F Z U L Y | = g q u.mXmXOXW Q  .] o.&.-.^ ~ q > 2 2 2 u O.",
"g y o.#.V.) ~ #.c.c.c.o.S.^.Q u.^.J.& u ,.I G G Z F G H G G G G G G G G Z F G U ..5 *.x.) 7.W q f [ 3.&.X.+.c.o.f 4 2 2 > r O.@.",
"3 i ] #.@.N.b.P.OXc.|.G.) V.( [ o.o.f V U T Z Z Z F T G G H G G G F G U I S Z P D S <.<./ 0.G.&.Q Q 1.+.q +.I.P.| & e 3 : ] @.+.",
"4 f H.|.G.:X{.` S.P.L.c.#.[.-.E o.#.w 9 g.9.D S Z F G G G G K K G G K G C A D D g.0XF.@.V ~ } %.<.&.X.W.t.1 W ! 4 3 2 e * ) v.x.",
"1 -.G.G.1.+X{.) u D.*.o.#.`.c._ #.H./.Y.~.~.g.A Z F F F F F H F F F F I Z B d.gXbXfXOXF.Q 9 : } %. .e J.%.e.pXA.3 , } [ % _ b.F.",
"4 :.#.$.$.G.G.&.o.P.t.o.W ' v.` &./.nXrXs.8 | 9.U F Z F I I Z Z F F Z I G B qXrXDXVXjX@X$.f 3 e 2 ; 8 ^ R W.MX@Xu.$.#.<.3 J.I.S.",
"#., k W.L._.V.c.h hX!.$.E Q c.@.*.#XbXtXyXs.oXY K U G G T Z w.g.G G G G G D d.yXNXBXbXnXH.5 < 3 : : r.c.F.0.( }.#X#X:.>.%.rXdXv ",
"~ H.P.g w 3.c.c.L.^.^./.H.} 2 @.<.2./.dXrXqXoXG T K K L L ..d | U L K G T L ..9XUXGXdXjXmXt.% % d g d w OX$XN.o.$.*.-.4.F.L.E.s.",
"< %.g h Q.D.c.:.*.*.u.S.<.W X #.v.@.p.uXiXiX]...9.U G Y ..r.f < a.Y U U U A a.eXrXrXK.jXMX1X@Xb X | H.&.3.'.).K.f * ! 1.v._ i.wX",
"=.y , $.wXP.#.+.#.*.i i t.!.7 %.F.&.p.oX:X:X4.p. .A .. .$.$.f 3  . .....,.} W./.y.*.t.aXxX=XlXL.f +.'.%.p.L.G.H.$.d X.-.-.W t.^.",
"P.*.u $.R.D.] o.D.*.q g Q.vXv } t.%.O.'.1X*X^ &.1.r.w.i.u t t f ,.} e.u.{.G.Q % , F.P.^.L.'  XOXD.W -.w /.lXF.% $.S.*.R Q 1.N._ ",
"J.t.$.$.o.! t t y X._ g 9XBXe.R $.} 1 #XlX:X) g D.p.0.0.r.$.g h p.0.q.].c : ; * t H.K.*.q [ G.c.[ q %.O.K.W. .Q v.c., i g ) >.` ",
"W.i.o.o.o.H.o.i &.<.< r wXSX/.q , } ! %.pXlXE.} ~ ,.q.m.0.t.g ~ f.q.8.].8 * % y v.3.*.+.! #.p.&.+.o.] +.#.) 5 R W w & < ` >.) ~ ",
"/.E.t.i o.D.*.+.3.#.g $./.mX/.A.e.~ ] E K.^.J.q t a.q.M.5.+.y Q 4.m.q.0.y e & 4 -.t g %.=.f g } 2.F.[ 1 Q.0X9 oX{.N.z.b.'.*.q @.",
"/.!.t.i u <.c.D.c.O.$.=.t.F.K.E.u.X.t.p.%.X._ ) g K.q.V.,.e 2 o.*.q.q.0.o.g { ] 1 h : g $.* ; y 2.G.v.q !.aXj @XxXxXxXmX#Xe.- -.",
"pXt.q ] E D.P.G.v.D.y 4 O.c.*.[ } p.!.p.E.E.E D.$.k =.=.b i u <.k x.x.b l l v.G.O.P.h = : 2 e ] @.3.{.L.1.W q , ZXHXHXHXsX%.1 : ",
"! u y g w _.OX'.:.~ <.1.<.-.L.*.%.H.+.t.*.} t o.l l.j.j.l.e +.4.k j.j.j.x g o.' 0.<.H.=.< 2 ; 2 Q :.}. X|.&.& c mXSXxX!.r.i > : ",
"pXJ.o.g ! K.L.H.b.+.B.v.+.[ @.@.<.F.~ ] D.G.%.a 0 h.h.h.k.> ` 5.k.h.h.h.h.x S.*.2.%.OXA.e r.h d h p.B.).c.O.o.8 uXlX|.w R @.O.t ",
"iXP.*.$.%.1.c.D.L.H.).-.t ~ D.t.X.@.} ~ v._.p.$.=.x.x.#.b t ^ -.=.x.#.*.x.<.D.$.o.&.D.P.P.J.c e t.OX@.Q u ~ o.e V.:XsXb r ! [ t ",
", @.2.o.+.2.{.OXJ.R.*.@.! Q @XR.g 1 [ @.<.,.r.q.8.8.8.8.q./ Q -.0.8.8.8.8.m.a.h r.+.} L.#XA.O > P.OX4 < ! o.< h G.hXbXs.d ; > : ",
"r ;.4.-.R !.aX/.1 * r.H.p.E } H.H.* t +.&.*.,.m.m.m.m.m.q. .u a.C.q.m.m.m.C.5.E.iX3 wX@X*.- Q Q 4 > i ; $.c.u ; _ _ y > : : : e ",
"w ).`.D.r.W.R.e.& ; e o.X.t.&.$.d j !.2.+.e.e.,.0.B.)...4.2.X.$.a.5.0.0.0.,.1 e.E.e b uXuX& t e < < 2 = &.D.t y ^ ~     > : d u ",
"$.].`.G.e.!.R.e.g $.h r o.p.+.y $.u.L.1.@.t.A.A.Q.~.a. .$.*.t.i.%.r.p.p.4 h , f A.f % Y.uXy.3 2 e e i : w W g t.:._     j d i w ",
"e.F.F.3.$.E.U.y.i.J.e.y g t.r y t.u.;.-.@.e.b m m M x x p a v c s h J.A.f ] | t.H.f % h R.R.: : d e e < y.T.k *.G.3.%   b i.e.t.",
"o.~ ~ $.r.,.< d U.E.X.< h $.e 2 ; ; %.%.$.a p p p 6 6 # p # # @ p : J.uXp.q u.W.u.< < 2 t ^ 2 : 2 3 d X qXvXv i I.P.* t.*.Q.Q.Q."
};
