/* XPM */
static char *result[] = {
/* columns rows colors chars-per-pixel */
"64 64 256 2 ",
"   c #9D9088",
".  c #9A8D85",
"X  c #978A82",
"o  c #968981",
"O  c #998C84",
"+  c #9F928A",
"@  c #988B83",
"#  c #9E9189",
"$  c #9C8F87",
"%  c #9B8E86",
"&  c white",
"*  c #A0938B",
"=  c #A1948C",
"-  c #958880",
";  c #94877F",
":  c #9D9087",
">  c #9F928A",
",  c #A2958D",
"<  c #383431",
"1  c #9B8E85",
"2  c #9E9188",
"3  c #9D9189",
"4  c #9C9088",
"5  c #9C8F86",
"6  c #978A81",
"7  c #9A8D84",
"8  c #988C80",
"9  c #988B82",
"0  c #9B8F82",
"q  c #DA241D",
"w  c #383533",
"e  c #968980",
"r  c #FEFEFE",
"t  c #9A8E82",
"y  c #9A8D86",
"u  c #A0938A",
"i  c #9C9084",
"p  c #978B7F",
"a  c #9C9085",
"s  c #968A7E",
"d  c #998D81",
"f  c #95887F",
"g  c #D6261C",
"h  c #9F938D",
"j  c #9D938A",
"k  c #9A8E80",
"l  c #988C87",
"z  c gray83",
"x  c #342F2E",
"c  c #9F8F8A",
"v  c #998E89",
"b  c #9F968F",
"n  c #DB2619",
"m  c #A49890",
"M  c #9B8E89",
"N  c #F9F9F8",
"B  c #D0271F",
"V  c #F7F7F6",
"C  c #A19389",
"Z  c #292926",
"A  c gray82",
"S  c #9D9185",
"D  c #95897D",
"F  c #C4261B",
"G  c #DF2520",
"H  c #F27A14",
"J  c #2F2C29",
"K  c #147D36",
"L  c #EEEEED",
"P  c #EAE9E9",
"I  c #C86D1D",
"U  c #BC1F1B",
"Y  c #F5F1F0",
"T  c #CBCBCB",
"R  c #9B8E84",
"E  c #DCDDDC",
"W  c #E2E3E3",
"Q  c #9E9488",
"!  c #999189",
"~  c #988F86",
"^  c #A18E84",
"/  c #CECECE",
"(  c #A9221A",
")  c #B72219",
"_  c #F3F3F4",
"`  c #786F6A",
"'  c #37322E",
"]  c #716661",
"[  c #98918E",
"{  c #928882",
"}  c #BBB8B7",
"|  c #A09793",
" . c #D91E14",
".. c #FBFBFB",
"X. c #B22119",
"o. c #ADA49F",
"O. c #F0F0F1",
"+. c gray88",
"@. c #978B7C",
"#. c #978A80",
"$. c #332E29",
"%. c #3E3835",
"&. c #323030",
"*. c #4A405F",
"=. c #9C918C",
"-. c #FCFCFB",
";. c #7B756E",
":. c #A6928E",
">. c #968F83",
",. c #958A86",
"<. c #E3251C",
"1. c #C62222",
"2. c #A2897A",
"3. c #B4ACA7",
"4. c #D12017",
"5. c #D9D7D6",
"6. c #C9C6C4",
"7. c #0A7F33",
"8. c #E6E6E5",
"9. c #D7781E",
"0. c #E17B20",
"q. c #988A82",
"w. c #9D8C85",
"e. c #A79B94",
"r. c #A08D8A",
"t. c #A89D98",
"y. c #B2AEAE",
"u. c #9C8881",
"i. c #C0BCB9",
"p. c #C44919",
"a. c #ABA9A6",
"s. c #A68569",
"d. c #91847D",
"f. c #915827",
"g. c #897E7A",
"h. c #978C83",
"j. c #53486E",
"k. c #685D8C",
"l. c #DC2623",
"z. c #DD2215",
"x. c #91261D",
"c. c #A21E16",
"v. c #B8B4B1",
"b. c #EC7B18",
"n. c #AD8057",
"m. c #EBE3DC",
"M. c #C3A281",
"N. c #6F2621",
"B. c #352F36",
"V. c #3D3548",
"C. c #706599",
"Z. c #CDC9C8",
"A. c #908F82",
"S. c #4B4341",
"D. c #514E4C",
"F. c #A68D7B",
"G. c #A58E89",
"H. c #9A9796",
"J. c #AF6764",
"K. c #AA3730",
"L. c gray63",
"P. c #C77F42",
"I. c #B64A40",
"U. c #B7554E",
"Y. c #20201E",
"T. c #71896F",
"R. c #B57319",
"E. c #B8701D",
"W. c #D4D2CC",
"Q. c #92693B",
"!. c #C1681B",
"~. c #CD6812",
"^. c #72686F",
"/. c #5B5552",
"(. c #625780",
"). c #413955",
"_. c #C8C2C0",
"`. c #C9312F",
"'. c #A28A6E",
"]. c #AD8577",
"[. c #9B9383",
"{. c #C13C39",
"}. c #DD7324",
"|. c #605A5A",
" X c #A65951",
".X c #D8D3D0",
"XX c #C71E14",
"oX c #AC706B",
"OX c #B07120",
"+X c #287138",
"@X c #C88583",
"#X c #1F7A3F",
"$X c #B77840",
"%X c #A07D76",
"&X c #A6521B",
"*X c #A16736",
"=X c #CE6D16",
"-X c #AD9A86",
";X c #B35E14",
":X c #E6E9EC",
">X c #453E3D",
",X c #592A23",
"<X c #472C29",
"1X c #8B858C",
"2X c #4A3F4C",
"3X c #5B5165",
"4X c #66615C",
"5X c #B74619",
"6X c #595073",
"7X c #AD8C6D",
"8X c #CA2822",
"9X c #E0DED9",
"0X c #7F342C",
"qX c #897F60",
"wX c #D67627",
"eX c #C75714",
"rX c #B3312F",
"tX c #BC5F5A",
"yX c #A46E20",
"uX c #477B51",
"iX c #848A79",
"pX c #D37631",
"aX c #B17133",
"sX c #C3A39C",
"dX c #9A7569",
"fX c #C4B2A7",
"gX c #C91607",
"hX c #C66467",
"jX c #745F35",
"kX c #B66A1C",
"lX c #D4C0AF",
"zX c #E4D5C3",
"xX c #9E6E4C",
"cX c #DCC7C5",
"vX c #A76024",
"bX c #C99025",
"nX c #786B84",
"mX c #8F1C08",
"MX c #AE3E31",
"NX c #BA2C24",
"BX c #BD432D",
"VX c #D5ACA7",
"CX c #9E2017",
"ZX c #C57633",
"AX c #956E25",
"SX c #52845C",
"DX c #768061",
"FX c #397A4B",
"GX c #A53411",
"HX c #9D7A4C",
"JX c #C27024",
"KX c #D09499",
"LX c #EDDADA",
"PX c #150F07",
"IX c #8E4946",
"UX c #8B6A54",
/* pixels */
"; ; ; o - @ @ - - o O O $ . @ O % .   + # #   3 4 + # c   a ~ 4 3 % 5 : 2 1   k 8 l @ @.9 $   # # +   +   $   $ $ # *   $ 4 $ $ ",
"- - - - - O . - - @ O @ % % @ O . .   # $     3 $ * + + * = m m m , , h 3 4 5 7 d d O X O 2     # + + , # $ $ $ $   + $ % %   $ ",
"- - - - ; @ . o X X X X % 5 O O O O $ +   2 $ 3 : u + { d.g.` ` ` ` ` g.! X ,   9 @.d ,.@ 2 $   #   + ,   % % $ $   + $ % $ + # ",
"- o - ; ; @ . o - o @ @ % $ O @ O O $ + 3 # 3 3 2 C , /.%.w $.$.$.$.$.< %.>X] g.M t p o O   $ $     + = $ % $ $ . $ * $ % $     ",
"; o - ; ; @ . X o - X @ . . @ O O O $ #   + # 4 : u m D.J w w w w w w < ' ' x %.|.1X[ s q.# :       # *   $   $ . $ = + % % $ $ ",
"; ; ; ; d.e @ o X o o X $ O X O O @ $ +     4 4 5 # m ] x w w w w w < < w w w x *.k.^.{ v 3 % $     + =   $   % O % * # % % % $ ",
"1 . y % 1 2 + $ #   $ $ *   O O . .   = # # 3 3 # u , ;.< < < < < < < w < < < B.k.(.V.nXv + . . % $ $ , = = = = * = , # # + +   ",
"S : :     + = + #       + % X X @ @ . + #   4 4 4 2 Q ` ' < < < < < < w < < ' ).C.*.6Xj.] , o o X . @ # , , , m m , =     # #   ",
"0 R % y y 3 *   $     $ # O - - o X O $ % % % % y : Q ` ' < < < < < < w < < B.(.k.).k.V.g.+ - - o @ X $ , = * , , , = $ $       ",
"S 1 $ $ % # *   $ #   $ # . o ; o X . $ % O O % y 5 Q ;.< w w < < < < w < ' V.C.*.6Xj.|.=.O o X - o o   = # # * = = *     #   # ",
"3 % $ $ $ 2 * + # #   $ + % X o o o .   % O h.. + + , ;.x x &.&.&.w < w w x j.k.).(.2X{ : X X O o - o $ * #   # = , = #         ",
"#       # u = # # + #   + $ @ X o - O $ % O 5 % ] 4X] ] N.x.x.0X,X$.J J J B.C.j.j.*.] = y @ X @ - ; ; $ = + + * , , , # $ $ # # ",
"# #     # * , + # * # + = # % % % O $ + $ . = ] J Y.J <X,XN.N.N.<Xx B.' x &.*.*.(.2Xv 7 %   % % . X @ + = # # + + = , +         ",
". . O @ X % #   # # $ # = #     $ %     X o h.%.x H.&.Y.Z Z J Z Z Z x %.w < Z V.*.^.h ; 9 * + 4 $ %   = $ . . O O $   @ X @ @ X ",
"O O @ X o O   $ # + #   + +       $   O ; ; ,.^.S.6.y.[ T 5.+.z i.1XD.Z x %.w J >Xv % e o # # $ % $ # + . O . O @ O . o - X 6 6 ",
"O O O O o . + # # # #   + +         # . ; ; ! H.Z.A & r & & & & & & V y.D.Z %.< $.;.= 9 @       #     + % . @ . O O . X o X 7 d ",
"$ . O O @ . + + #   + # * # . . % $ + 7 - ; [ } P & ..N ..-.-.N ....r & Y ` Z %.x S.h 5 t + +   # #   *   % O O . % . o - X d d ",
"#   % . @ . * * + # + # * + % % $ v 2 9 ; [ E ..V V & r & & & r r & r _ -.r ;.J w %.{ # : + # $ 4 # # + : 7 O O 1 5 . e 6 9 9 d ",
"#   y O @ . # #   # + $ + *   $ % y : 9 { Z...z A / z N & & & r & P / z T +.N /.J S.{ :   +   5 %     + 2 7 O O 7 1 5 6 e 6 9 6 ",
"  % $ % .   * $ $ + * # *   . . . O   3 3.Y A L 8.P _ V & & & r & _ _ E _ E W 6.J S.,.* * *     # # : u + 2 2 5 5 : C 2 : + #   ",
"X O O @ o @ $ O O $   $ $ X ; - o - X h 5.W P L A z P & r & & r r & E 5./ r 5._ 4X' l + # 5 9 R a : t : O 7 2 O o @ u + u * # # ",
"o @ X X ; o $ O @ . $ $ $ - ; ; ; ; - | P r ..T V r T ..& & & r & P z & +.E & & H./.| $   i 8 8 0 i R : 6 f 9 9 ; o # # + + $   ",
"X X @ @ o O 3 . . O . % % - ; - - o X t.Y & _ A r & E W & r & r & A O.& _ / & & .Xb j $ # R t t R S S 2 O f 6 9 d.;     # # 4 : ",
"o o o o o O   % % O O . % X - - - - #.e.Y & L z & & L A & r r & V / r & N A r & Y o.1 : 3 1 8 t 0 i i 2 1 6 O 6 g.; #     # : : ",
"- - ; ; ; X % . % % % @ . X ; ; ; ; f e.Y & P z & r N / r & r & P z & r -.z -.& P t.5 : 4 7 #.t R R R 2 2 1 9 ; d.- +     # $ % ",
"% % $ % O % * # # #   $ + $ @ @ O . R t.Y & L z & r & A O.& r & E W & r ..A -.& .X| 2 # h 2 7 5 5 5 : * # $ y X O % * # $     $ ",
"* * * * * * * + # # # # , * # +   3 C e.5.& O.A & 6.L.W 8.& ..& z W H.O.N T & & i.v # 2 j + % . % 1 O + * # # #   + $ O 6 O O #.",
"# # + + + * * #   # # # * * # # 3 4 u b 6.& V T & a.&.T W & r r E a.Z 8._ z & L y.| % : 3 + % . . O @ + +       2 : 7 6 q.6 s D ",
"+ # + +   + * + #   # # * * + + # : m v.L & & / N v.PXv.+.lXM.zX8.;.Y.N E W & r +.v.h   * + . % % O @   # $   #     1 p 8 8 s p ",
"+ # # #   + * + + # + # = = + + # % 3.L & 5.L L +.:XY.t.s.&X!.f.sX|.D.& W.-.E :X& W.|   * # $ % % $ O   #   # #     % p s 8 p D ",
"# # #     * = * + # + # = = + + # ! a.z r +./ m.M..XUXf.*XxXjXxX*Xf.-XcXfXm.W.L V } =.+ * * M % % % .   #       $   5 6 p 8 e ; ",
"#   $ $   * = + # + +   * = # # 3 b _.Y r -.:XM.;XI 0.=Xf.f.f.Q.vX9.9.~.vXlX_ & -.9Xo.  + + $ $ % y O + # $ $ $ $ # 5 o 6 9 6 6 ",
"1 % 5 $ %   , * = , = + , , + + # b b i.L V & m.n.!.0.~.I !.I !.I =X0.;XM.N & L +.a.m * = +       3 4 =   %   # + * * % $ % . % ",
"#.p p 8 8 7 = * + * +   * # $ % % a v 3.o.5.W L 3.Q.;XI I I I I I I &XdX6.Y 8.T Z.3.4   # 2 a a S S 5 + $ % $   # + + $ % . O O ",
"s s s s s t + # # #   $ +   % % . >.3 r.b o.o.e.%X0XGXp.p.5X&Xp.p.p.x.IXG.3.o.y.o.m   $ #   1 i i i 5 + # $ $ $ $ #   . O O O O ",
"p p p s s 0 + # # #   $ +   .   % w.c * Q w.v %X{.( ( ) 1.c.mXX.1.U c.) U.| :.G.$   # $     R 0 0 i S = +     $ $     . . O . . ",
"@.@.@.8 @.d + # # #   $ + $ % % O w.^ Q j # a I.g ) 8XU ( 5XbX( ( F F XXB oXm r.+ # # $   2 R 0 0 0 a * + $ $ $ $ #   % . @ O O ",
"; D e e e O   $   #     +   % % . >.0 :.| | J.g n X.B n G B p.g G <.F ) G {.2.b 2 #   . % : 1 i i 0 5 + + $ % % %     % % O X @ ",
"O . % % . $ +   + * + + , + $ $   4 Q :.b ].`.z.B U g g n q q n n n F ) q  .I.:.+ + # $ + * $ 2 2 :   = +       $ # *     $ % % ",
"% % % M % $ # %   + +   = *     c r.Q $ l I. .n F U <.q q q g g g q B U q n 4.J.b r.M 2 C , + + + #   * % . . . . $ + : 5 5 R R ",
"O O . . O . . @ % $   % # * # 2 4 $ + 4 dXrXl.G U F <.g q q q n q z.n ) 4.<.B K.2.j M r.j h + + #   % # . X @ O @ O S 0 0 0 k k ",
"@ O . O @ % % @ . % % O # * # # 4   | u.MXU X.1.c.B z.l.q q q q q q G F ( 1.) U  X[.M r.4 j # #   $ % # . @ O O l % : 0 0 i 0 k ",
"o @ @ @ O   $ @ X @ . % # + # # : ^ :.s K.4.4.X.x.l.q q g g q q G q G 8Xx.1.4.1. XC =.! ^ C # # $ $ $ # . @ O . O $ a d 0 i a R ",
"X @ O O O $ . @ X X @ . + * + + 4 i 4 y.m.@X{.( c.1.B g <.<.<.n n g F X.CXNXU.VX9X| c ~ a +         $ # % X @ @ O % a k k 0 i i ",
"@ O O @ O % % @ X X @ @ + * # # 4 v b } W O.W.K.g F X.X.) ( c.( X.) U B F J._ 8.E o.+ w.! j   $ % $ $ # % @ @ @ y % : k k 0 0 i ",
"* * = + + = + . % . O y = , = * + c t.i.} T fX`.q l.q B B K.oX) g B G l. .tX6._.} i.b 5 # 3 $ $ $ % $ = # $   $ % $ # 7 1   2 : ",
"+ * , = = =   @ O . O @   = u + 2 4 a./ } L.sXXXn G n l.XX@XN I.z.G q g  .BX:.a.} _.! O 5 % @ O . O O     $ % O @ % % X 9 $ # % ",
"# + = u u , # O O . . O : = u Q Q ~ 6.6.y.L.t.U.F 4. .gXtXY & cXrXgX4.g `.tX:.} v.3.~ 8 R : O @ @ @ X $ $ . . O @ . % @ @ % $ . ",
"= * * = u , # O O O O @ 2 = 2 = = Q e.e.h $ ,.^ oXJ.hXKXV -.N & LX@XhX X%X[ c = j j 0 8 d 5 O @ @ X o $   % . . . % % X O % $ $ ",
"= = u u u , $ X @ X @ X 2 = * , = C C 2 7 7 1 t 4 -XM.m.V ..& V Y zX-XM >.A.^ q.h.a Q t 9 7 X o X X o $   % % % % $ % o O $ $ $ ",
"= , , , , , % o X o X X   , = , = u = + l l ~ l u.n.~.I n.i.T o.$X=XJX2.O u.y A.q.O R 7 . 7 X o o X o $   % $ $ %   $ X @ % % y ",
"# * * * + = # O O O . @   = # # +   + *   : 4 [.: $X0.b.aX,.>.s.wXb.0.].v h.c ^ . y % $ # : O O O O 9 : # $   $ M   + . . $ $ % ",
"@ @ O @ o O $ @ X X @ o . O - ; X X O + # 4 c 3 [.P.H H P.s ,.2.pXH 0.7X>.q.r.w.. % % .   5 6 6 9 9 6 S : O 7 O o @ : 1 5 S 1 R ",
"@ o @ @ - X % @ X o X o O @ ; - X o @ # # 2 M r.[.Q.OXOXHX#.{ e Q.E.aXqXA.e v ~ @ . . O % R p s D 8 8 i i d O e ; #.R t k 0 0 t ",
"O X X X o @ % @ X X o o @ @ ; - X o @ # # # ~ 2 T.+XK K FX; u.iX#X7.K uX>.u.~ . O O O @ . R 8 p p s p i R O 9 e f 6 R d k d d t ",
"@ X X o o O % X X X X ; o @ o o o o @ # #   $ = SX7.7.7.#XiXl T.K 7.7.#XT.7 w.c y O . O . 7 9 9 9 e e 1 1 @ X o o 9 O p d t R R ",
"o o @ @ o @ . X o X X - @ @ o o o - @ + + : C DX+XK K K K T.l uXK K K 7.+X;.h 1 % $ % O 1 t s p p d 8 $ . @ X o - @ O 6 6 7 t t ",
"X X @ O X @ . o o X o o . O X X X e O + 2 j s.yXR.E.R.R.AXqX{ jXyXE.E.R.OX*XF.% . $ . @ % a p p p 8 d # $ @ @ 6 6 O % X o O d d ",
"O . % % .   =   $ $ $   * $ O O O X % # R ~ n.b.H b.H H b.n.k ZXH H H H H 0.7X! @ O @ X $ * + # # # # = % X O O X % = +   3 2 : ",
"X @ O O @ . # # $ $ $     @ - X X o @ y e D '.P.}.9.9.}.pXs.^ $X9.9.9.}.wXP.F.,.f - - ; @ + + + + * = + o ; - - - @ * * #     $ ",
"X X X @ - @   $ O . . %   X ; - o ; X O ; D p @.s.].'.F.^ % v ^ F.2.'.'.2.2.[ h.e ; - ; X # #     + * + o ; ; ; - @ * + $ y % % ",
"o X X o o O # $ . . . % $ - f o - f O . - s q.s A.=.b 3 v R ~ =.h [ 3 =.[ $ ! p o - - ; o # +     + = * X ; ; ; ; o +   O % % $ ",
"X o o o X . # % % % . y $ e D 8 #.f O y f D s s f : Q   5 5 5 $ +   $ c c : 2 q.- - - ; o $   # + + = + - d.; ; ; X # $ . % . % ",
"X o o X X O   $ % % . % % 8 @.@.p e @ O f s s D - $ * # # $ % $ +   %   3 $ # @ - - ; ; o       # + + # o ; ; ; ; X # $ . . O O "
};
