/* XPM */
static char *result[] = {
/* columns rows colors chars-per-pixel */
"64 64 256 2 ",
"   c #9C8F87",
".  c #9E9189",
"X  c #808183",
"o  c #998C84",
"O  c #968981",
"+  c #9A8D85",
"@  c #818284",
"#  c #9D9088",
"$  c #9B8E86",
"%  c #988B83",
"&  c #978A82",
"*  c #A4A8AB",
"=  c #958880",
"-  c #9F928A",
";  c #A0938B",
":  c #94877F",
">  c #A9ADB0",
",  c #A6AAAD",
"<  c #A5A9AC",
"1  c #A8ACAF",
"2  c #A3A7AA",
"3  c #9B8E87",
"4  c #A1948C",
"5  c #A7ABAE",
"6  c #AAAEB1",
"7  c #93867E",
"8  c #858688",
"9  c #848587",
"0  c #A0A4A7",
"q  c #978A83",
"w  c #7F8082",
"e  c #968A7E",
"r  c #9B8F83",
"t  c #998D81",
"y  c #9B8E85",
"u  c #A3A7AB",
"i  c #A1A5A8",
"p  c #978B7F",
"a  c #9A8D84",
"s  c #828385",
"d  c #7C7D7F",
"f  c #737475",
"g  c #9A8E81",
"h  c #838486",
"j  c #A5A9AC",
"k  c #A8ABAE",
"l  c #747577",
"z  c #717274",
"x  c #9B9EA1",
"c  c #9EA2A5",
"v  c #988B82",
"b  c #988B84",
"n  c #9D9189",
"m  c #A3968D",
"M  c #ABAFB3",
"N  c #757678",
"B  c #ACB0B3",
"V  c #797A7C",
"C  c #988C80",
"Z  c #95897D",
"A  c #7A7B7D",
"S  c #595A5B",
"D  c #968A7F",
"F  c #9C8F88",
"G  c #A5AAAD",
"H  c #9C9FA2",
"J  c #8D9093",
"K  c #6C6E70",
"L  c #A9AEB1",
"P  c #6A6A6B",
"I  c #6E6F70",
"U  c #706762",
"Y  c #9A8D86",
"T  c #92857D",
"R  c #998C83",
"E  c #A0A3A6",
"W  c #7E7F81",
"Q  c #9DA0A3",
"!  c #9E918A",
"~  c #958981",
"^  c #A6ABAE",
"/  c #96999C",
"(  c #A7ABAD",
")  c #909496",
"_  c #5F6061",
"`  c #8A8D8F",
"'  c #8E9092",
"]  c #968A7D",
"[  c #9C8F86",
"{  c #95887F",
"}  c #948780",
"|  c #A2A6A9",
" . c #7B7C7E",
".. c #929597",
"X. c #999C9F",
"o. c #ABAEB1",
"O. c #8C8F91",
"+. c #848789",
"@. c #888B8E",
"#. c #86888A",
"$. c #8A8C8D",
"%. c #998D82",
"&. c #A0938A",
"*. c #8B7F77",
"=. c #8F837C",
"-. c #6B6C6E",
";. c #877C75",
":. c #777879",
">. c #545455",
",. c #646566",
"<. c #95989B",
"1. c #6F7072",
"2. c #909194",
"3. c #87898B",
"4. c #5B5B5C",
"5. c #988C82",
"6. c #808184",
"7. c #978A81",
"8. c #998C85",
"9. c #968A82",
"0. c #93877F",
"q. c #968982",
"w. c #8E827A",
"e. c #8F9395",
"r. c #67686A",
"t. c #7B716B",
"y. c #555657",
"u. c #7D7E80",
"i. c #A6A9AC",
"p. c #666768",
"a. c #999C9E",
"s. c #5D5E5F",
"d. c #AEB3B6",
"f. c #9C9084",
"g. c #94887D",
"h. c #6A625D",
"j. c #A7A8AA",
"k. c #75787A",
"l. c #444444",
"z. c #49494A",
"x. c #6D6663",
"c. c #9A9DA0",
"v. c #939698",
"b. c #929292",
"n. c #9E9188",
"m. c #A19489",
"M. c #978B7E",
"N. c #ADB1B4",
"B. c #636465",
"V. c #837871",
"C. c #828487",
"Z. c #979B9E",
"A. c #59524E",
"S. c #585859",
"D. c #857A73",
"F. c #373636",
"G. c #999DA0",
"H. c #696B6D",
"J. c #6E6560",
"K. c #3D3D3E",
"L. c #7F8183",
"P. c #505051",
"I. c #2F2C2A",
"U. c #978A80",
"Y. c #9E9287",
"T. c #808284",
"R. c #6C6969",
"E. c #655E59",
"W. c #7F756F",
"Q. c #887D77",
"!. c #746B65",
"~. c #78797B",
"^. c #8C8179",
"/. c #756C67",
"(. c #959799",
"). c #87898C",
"_. c #403B39",
"`. c #939699",
"'. c #606163",
"]. c #544D49",
"[. c #313132",
"{. c #96989A",
"}. c #D6D6D8",
"|. c #9B8E84",
" X c #818283",
".X c #9D9185",
"XX c #9F928B",
"oX c #9C9088",
"OX c #998D85",
"+X c #6B6663",
"@X c #7D726C",
"#X c #545150",
"$X c #676261",
"%X c #4E4946",
"&X c #786F69",
"*X c #635C57",
"=X c #848486",
"-X c #434140",
";X c #494440",
":X c #464747",
">X c #5E5E5D",
",X c #413E3C",
"<X c #4C4E4F",
"1X c #9D9E9F",
"2X c #A3A5A7",
"3X c #726963",
"4X c #818384",
"5X c #989A9C",
"6X c #8D8D8F",
"7X c #BBBCBC",
"8X c #B2B3B4",
"9X c #CACBCC",
"0X c #978B81",
"qX c #9C8E86",
"wX c #6B6460",
"eX c #818285",
"rX c #68696A",
"tX c #5A5552",
"yX c #969697",
"uX c #ACAEB0",
"iX c #98999A",
"pX c #181819",
"aX c #939495",
"sX c gray12",
"dX c #A1A1A2",
"fX c #ADADAE",
"gX c #CDCED0",
"hX c #65615E",
"jX c #5C5855",
"kX c #4D4B4A",
"lX c #92867E",
"zX c #696462",
"xX c #646261",
"cX c #504D4B",
"vX c #3C3835",
"bX c #605955",
"nX c #393939",
"mX c #B0B1B2",
"MX c #838282",
"NX c #D8DADB",
"BX c #D0D1D3",
"VX c #6C6867",
"CX c #78797A",
"ZX c #73716F",
"AX c #656362",
"SX c #615C59",
"DX c #615F5F",
"FX c #B5B7BA",
"GX c #B6B6B8",
"HX c #BFC0C2",
"JX c #C3C4C6",
"KX c #6E6B69",
"LX c #7C7876",
"PX c #101112",
"IX c gray5",
"UX c #CFD1D4",
/* pixels */
": 7 : = = % % : = & % o   o & o + +   - . # #   # - # # .     . . # # #   $ # %.C 5.q O %   # # . . # ; #     $ $ . ;   $ $ $ $ ",
": : : = = % o : = % % &   + % % o +   .     #     XX.   # # # . . # # #   $ # %.C b b O & #     . . - 4 # $ $   $ # . $ + $     ",
"= = = : : % o = O O & O $ $ % % % %   - # #       ; .     # . - - # # #   # ! a C R b O % #   # # # - 4   + $   $ # - $ + $ . . ",
"= O = : : % o O = O q & $ $ % % % % $ . # . . # # ; .         . -     # # # - a v 5.% O o # $   #   - ;   $   $ +   -   + $   # ",
"7 = : 7 7 & o O O = & q + o & % % o $ . # - n     . - oX#   $ 3 n # $ $ F # . % q.q.& = % #   # # # - -       $ + $ ; . $ + $   ",
"} : 7 7 T O % O & O O &   o & % o % $ - # $ + Y $ - 4 #     $ . ; .   $   $   9.} : = { % # y $     . ;   $   + + $ ; # $ $ $ $ ",
"y y 3 $ $ - -   # #     -   % % o b 3 ; # # # # . &.0.@X3X&XV.=.Y oX. ; . . m .   $   $ n oX% q o Y $ ; ; - 4 4 ; 4 m . # - - . ",
"f.[       . ; #     3 $ # o = = & & $ ; . $ 0.Q.t.J.h.hXxX$X$X$Xh.E.J.&X@XV.*.=.0.8.qX- m # % & o + % . 4 4 m m m m ;   # . .   ",
"r r Y Y + # - $ $ Y + + # o O 7.O T =.w.;.W./.hX#XP.H.9 O.#.A I '.>.kXkX#XjXhXx./.t.W.D.^.*.;.*.w.T T   m 4 ; m m 4 -   $ # #   ",
".Xr 3 $ y . - # . ; ! F 3 } =.;.@XJ.tX;X_.#Xr.A ).`.c , 1 5 2 E H 5Xe.@.#.L.CXI B.y.cX-XvX_.;X].bXh.U D.^.D.;.9.; 4 - #   # . # ",
".X[ 3   $ . -   Y q w.W.J.A.;X_.kXAXI N w O.Z.0 k uX> k k k 1 > > > > 1 , u E x <.e.` 9  .N f f f z DX-XI.I.cXSXQ.4 ; #   # # # ",
"# # # # . XXQ.*X].;XvXI._.S H.k.@./ E < > 6 > > k i.* 2 2 2 2 * < < , 5 1 > 6 6 6 M M L 6 6 > < G.C.S [.nXy.s.l./.4 4 #     # . ",
"# #   $ . q A.F.z.l.[.pX[.r.@.Q 1 d.d.d.M 1 G * 2 2 * 2 * * * < < * * * * * * 2 2 < ( 1 B B ^ a.+.I S S f =XN #Xt.; ; # #       ",
"o R % 9.% Q._.y.' @.l s.<Xz.P.s.1.4X' a.i , 6 6 1 , < * * * 2 * * * * * * * * * 2 5 6 k Q @.-.:XF.>.f s $.@ p.E.D.$ + O O & & O ",
"% o & = % =.;X'.2X6 2 Q v.+.k.r.y.:X-X<X_ N ).<.E k M B M > , * 2 2 2 2 2 * , M B , / A S.K.z.s.I W u.1.V A S x.=.o b = = U.U.v ",
"o % % q.& = ].4.Q B > 1 k G 0 Z.' @ N H.'.S y.S.B.z T.' c.2 > B B M > 5 1 o.1 Q ).K >.z.P._ z w @ N _ <XI V <X&X% o o O O 7.t t ",
"  o o % % = A.S Z.5 * , > L 6 M M o.k c ..C.f ,.S >.y.s.P N s O./ c < , i <.w ,.:XF.l.s.N 9 h ~.-.B.S >.f :.l.W.# + v = = 7.t t ",
". # Y + % = bX4./ L * i 2 * i.< < G 5 6 M M 1 2X5X@.V rX>.l.-X<Xs.-. .9 N z.pXsXl.,.A +.9  .I rXI ~.N K d z ,XV.# + g e e M.p R ",
"#   + o % & E.4.`.N.Q C.A ' X.c | u * * < , 5 > L 1 , i X.O.L.z _ z.[.sXpXIXK.P d 8 +.h d N :. .h 9 :.f d I %X;.$ o |.p U.p v & ",
"$ $   o o + h.>X) d.G.k.K #.' ..c.i * * 2 2 u , > 6 L L L > , 0 c...K sXPX>.u.#.8 s X w u.W T.s 9 @ l :.A -.E.=.  $ - # . - .   ",
"O % % O } O J.DX' N.H 9 3.H x X.H i * < < * 0 Q Q E * ^ L 6 6 > B FXJ nXK.d ).@ w w X @ @ h s L.@ X N A ~.,.!.T O & XX! . ! # # ",
"O & & = 7 = /.xX` M c 2.a.B 6 , < * * < G u c / ) ) `.Z.H i * 2 < M 8 F.P.X 8 w X X @ T.@ @ @ X eXX N u.l DXW.q.7 = . . . #   # ",
"& & % O : % t.AX#.M 0 J ..i.G * < < * * * * 2 0 a.O. X:.:.W J 0 , uXX [.y.@ 9 X X @ X X X X X X s X CXX 1.jX;.+ =.7 . # # n F # ",
"= = O } : % W.zXh 6 i O.) < < 2 * * * < < < , < < | Q (.).p.p.`.> o.u.[.s.s h X X @ X X @ @ T.X @ w d 9 -.tXw.7.*.7 .     #   $ ",
"= = : 7 T & V.zXW 1 i J ) 5 ( 2 * * ^ 1 k k 1 > ( ( k ^ G @.:...> o. .[.B.9 s X X @ X @ @ X X @  XX eX#.rXA.*.: w.= - #   # $ + ",
"$     + %   ^.+X .k | O.e., , 2 * , < H v.2.) Q * * 2 G N.E 2./ 1 > V F.P 8 @ X X @ X @ X X X @ X X =X#.rXA.=.+ %   ; # $ # [ 3 ",
"- - ; - # ; =.x.k.G | J ) , , 2 , u 5XaXX l s ` Q 5 * * , E Z.H 5 , k.nXI 8 @ X X @ X @ @ X @ @ X X 9 9 P *XO . F . $ % & 5.0XO ",
". . . .   ; lX+Xz u < e.2., , i.* / ' 8Xj.1XFXiX' E 5 * < c c.0 1 * N K.z 8 @ @ X @ @ @ @ X @ @ X X 8 s R.wX& #   # %.D 0Xp Z Z ",
". # . n $ - ~ +XK * < h V x 1 1 x aX7X}.gX9X}.fXW @.> 5 < O.W Z.L 2 l l.N 8 X @ @ X @ @ @ X @ @ w X 8 w R.!.o # $ # g e p p e e ",
". . - # + ; OXU P i c h l W | k ' $.7XGX8X9XNX7Xb.@.i > c ` =X(.> i f z.V 8 X @ @ @ X @ @ X @ @ w @ 8  .R.@X  oXY # r e D C p g.",
". # #   $ 4 3 /.P Z.X.dXa.u.x 0 @.MXb.s 4XdXJXgXGXiX{.6 / yX1X{., E z P.d 8 X @ @ @ @ @ @ X @ @ w 4X#.:.VXD.  $ $ # a ] M.p e g.",
"#     $ + ; # &XrXJ 1X7X9XmXE ..` MX1.v.#.,.{.NXgXa.` > <.yX1X{., c z >.u.9 w X @ X @ @ @ X X @ w @ #.f VX*.  Y $ . y D p 0X0X7.",
"|.a y y 5.# ; /.,.`.{.mX}.}.j.3.3.$.).d.c H.X 9XHX6X3.> x ' b.{.> H 1.S.W 9 w X @ X @ @ @ X @ @ w @ 8 1.+X=.. F # ; XX3 F 3 3   ",
"e e e M.e a # U s.H c aX1XfXyX$.aXb.8 H L.P.#.JX2XA @.> * ..' H M X.1.4.L.9 w X @ X @ @ @ X @ X w s 8 -.+XlX  $ # - n + 8.8.b o ",
"e e ] Z Z + F J.4.Q > 6XV ` 5X{.v.b.3.s I :.8XBXj.6...1 5 Q X.2 M / I _ @ C.w X @ X @ 6.@ @ X @ X s 8 r.x.9.  +   #   OX% % % o ",
"p p p D Z a   3X4.x o./ ` c o.E O.b.uX5X5X7XBXNXmXe.Q 5 < , , i.o.(.K B.@ @ W X @ X X  X@  X6.@ X s 9 ,.+Xq n.$   # F + o o 8.o ",
"] Z ] M.Z %.  U S c.> v.O.i.L 2 v.iX9XgXUXUXHX8X{.`.5 i.2 5 5 * 6 ..K p.X W d @ @ X @ 6.X 6. X@ X h h '.zX9.  $ 3 # F + o % b % ",
"g.Z { D Z R $ U S c.> 2.#.| ^ , E b.6XfX}.}.dXA ' 2 5 * * 0 c < M e.K P X A  .s 6.X @ X @ X @ @ X =Xh _ wX9.  + $ # # $ Y R & % ",
"o + $ + b # # U S c.6 ' s E G * ( c.N =XfXmX6X+.Q 1 * 5 E +.4X2XN.J -.-.w :.A s X X @ X X @ @ X 6.9 h s.wXq #   $ # ; F #   $ 3 ",
"+ $ $ $ o # + U S x o.$.d i > * ( < <.$.$.' v.2 5 * * 1 / u.W x B O.H.I u.l A h X X @ X @ X X X @ 9 T.>Xh.} $ o o $ . [ r |.a %.",
"% o + o % + & J.4.x B ).z X.> ( G G 6 * G.x ( 1 * 2 < < e.yX1XZ.6 ` P z  .f V h X X @ @ X w X X @ 9 X 4.E.T o % % % .Xr g g g t ",
"& % o % & $ % U >Xc.N.2.H.k.2.c < ^ 5 5 5 ^ < < * 2 < * J iXdX/ > ` P z A 1.~.h X X @ eX@ @ 9 9 s #.8 S.jXT o % o y f.r r f.r g ",
"O & % % %   o 3X>XG.6 0 v.3.8 3.e.G.E * , < * * * 2 * < ..' (.x > 3.rXf ~.K :.h @ h @ X h 9 u.W 8 3.:.jXU } o o o $ f.t g f.f.g ",
"& % % % & $ % !.B.c > i.1 i Z.e.J ..x | < * * < , , 5 ^ H 2.) | L C.rXl :.-.A #.X d  .V l r.y._ z f R.t.^.& & % % + r t t r r r ",
"% o o % %   o U s.H B < * 1 B L 2 c c | * 2 | E 0 | < 1 , (.2., 6 L.r.N l K A X N z I B.>.,XI.K.#XzX;.+ $ & % % o $   R %.|.y [ ",
"- - 4 4 - 4 # 3Xz.W 2XuX1 | 2Xk M B L 5 < * 0 / e.) Z.0 u 2.).j.6 u.p.:.f ,.r.P r.K S -X%XJ.wXA.*X=.qX; .     $ a # # o Y # . F ",
"! - m.m.&.4   ^.U tXP a.o.(.1.l O.H < 6 B o., 0 G.) ` @.9 I V i.> A ,.V 1.:XP.1.f y.%XE.*.O 0.^.w.R q 3   $ + % & y $ O &     + ",
"! ! &.m.m.&.$ o 0.&Xx.LXw P F.K.xXZXf d ) i o.N.1 i x <.` d 3.i.1 ~.'.V :.'.I d P cXh.T .X$ % % % O ~ $ $ o o o % Y + % b Y $ + ",
"; ; ; &.m.4 3 & o % } W.h.bX,X].U !.E.tXVXN +.X.1 M > , 0 x Q ^ , :._ A 6.W 3.h ,.!.Z C O 8.q O q.O O   # + + + + $ + O o $     ",
"4 ; ; ; m.4 $ O O 9.% O q.q ~ 5.[ r %.lX/.%XnXp.$.E 1 5 , k , , 2 f 4.V +.9 3.W R.*.Y.C v b O = O ~ O [ # $ + + $   $ O R $ $ $ ",
"4 4 m 4 m m + O O O O O . m m m ; Y.m.&.& *.@XU ].d L d.> , < , i K S. .3.#.w P SX^.f.g a o & O O O ~     3 3 $ $ # 3 q.q $ $ + ",
"# . . . . ; # o o o o q # . $ 3 # y # .   &.; q.t.ZX' c * 1 M d.< H.S s #.1.4.+X;.% [ + n F b o o o q ! . 3   3 +   # OXy   $ 3 ",
"& & % 9.= o $ % & & 7.O + q 0.} q 9.% #   $   . F Q.KX-.z eX) c X.'.P.I _ >.*X;.+ + OX+   + ~ 9.q v 7.  [ R a v = v [ a r r r g ",
"& O & & = & + & O O O O R & : = O = % n n.# $ % $ $ V.A.vX,XS.P r.K.[.:X,XJ.: o & % o o $ a U.Z Z p p r r C t O } 7.r t t g g t ",
"o & O O O o + & & & O = b O : = O O o . . #   $ + # % w.V.h.]._.I.pXsX%XD.= $ b q % % % + y C p e ] M.r a 5.U.O = v a C g %.t g ",
"& & O O O + + O O & O : & & = = O O % . - # #   $ + = O & T ;.V.D.t.t.*.R O +   + o o o + o p C C e e y Y % 7.O O 0X%.M.C %.g r ",
"O O & & O % o O O & & { % % O = = = % . - # #     $ : T 7 : = a 4 ! # y O O   $ + $ + % + o D ] p C C [ 8.q & O O q 5.D U.t t g ",
"O & o o O % + O & & O O $ % O O O = o . # # # [ 3   O : } 7 T O $ o o % % + . + o $ + %   [ p M.p t t n.+ % % & & + Y & 0Xt t g ",
"% + + + +   ; .       # - $ o o % O $ # o R t a a &.. $ $ $ + . ;     #   $ . + & & & & $ ; . . . . - ; o & % % & + ; - n.n.n.oX",
"& & % % & o # # $ $ $     & : ~ = : & o { Z p p M..X-     $ +   -   3   + o qX& : : : 7 & ! - . ! XX; # = : : = = q ; - #   # 3 ",
"O O & & = % # $ o o + $   = 7 { { : & % g.Z p p e .X-   + $ + $ .       + + $ & = : : : & . .   # - 4 . = : 7 7 = q - . + a y $ ",
"& & & O O o # $ + + OX$ $ : g.] Z { o o g.] e D O n.-   + + $   . # #       $ & = = = : & . .   n.- 4 . = 7 7 7 : & .   o + $ $ ",
"O O O O & + # + + + o + 3 { Z p ] { 8.8.: g.] e O # -   $ $ +   .   qX# # # # & : = = 7 O   # # . - ; # : T 7 7 7 O n   + + + + ",
"O O = O O o # $ + + o + 3 0XZ e p : % b : Z e Z ~ # ; . #   + $ . # $ # #   # & = : : : &     # . . - # = 7 7 T T O # $ + + o o "
};
