/* XPM */
static char *result[] = {
/* columns rows colors chars-per-pixel */
"64 64 235 2 ",
"   c black",
".  c #010101",
"X  c gray1",
"o  c gray2",
"O  c gray3",
"+  c #0B0A0B",
"@  c #0E0E0E",
"#  c gray7",
"$  c #141415",
"%  c #171718",
"&  c #1C1C1D",
"*  c #1F1F20",
"=  c #222123",
"-  c #252426",
";  c #262627",
":  c #29282A",
">  c #2C2C2D",
",  c #2F2F31",
"<  c #313233",
"1  c #333335",
"2  c #373739",
"3  c #393A3B",
"4  c #3C3C3E",
"5  c #3E3E40",
"6  c #414142",
"7  c #434445",
"8  c #464648",
"9  c #48484A",
"0  c #4A4A4D",
"q  c #4D4D4F",
"w  c #4F4F51",
"e  c #515254",
"r  c #525255",
"t  c #545456",
"y  c #555557",
"u  c #585554",
"i  c #565759",
"p  c #595859",
"a  c #5B5858",
"s  c #59595B",
"d  c #5B5A5B",
"f  c #5E5A59",
"g  c #5B5B5E",
"h  c #5D5E5F",
"j  c #605C5A",
"k  c #645E5B",
"l  c #68615F",
"z  c #5E5F61",
"x  c #606062",
"c  c #626264",
"v  c #646466",
"b  c #696563",
"n  c #666769",
"m  c #696868",
"M  c #68686B",
"N  c #6A696A",
"B  c #6A6A6D",
"V  c #6C6C6E",
"C  c #706964",
"Z  c #756C69",
"A  c #716E6D",
"S  c #7A706B",
"D  c #7E756D",
"F  c #6E6E70",
"G  c #707072",
"H  c #757271",
"J  c #707174",
"K  c #727375",
"L  c #747577",
"P  c #7B7977",
"I  c #757678",
"U  c #77777A",
"Y  c #787778",
"T  c #78797C",
"R  c #7A7B7E",
"E  c #837971",
"W  c #807974",
"Q  c #887C75",
"!  c #8A7F77",
"~  c #807C7A",
"^  c #84807D",
"/  c #89807B",
"(  c #8F8379",
")  c #8C817A",
"_  c #8F837C",
"`  c #8F847E",
"'  c #91867A",
"]  c #92857D",
"[  c #93867E",
"{  c #94877E",
"}  c #94877F",
"|  c #95887D",
" . c #95897D",
".. c #95897F",
"X. c #968A7E",
"o. c #978A7F",
"O. c #978B7F",
"+. c #7C7D80",
"@. c #7E7F82",
"#. c #7E8183",
"$. c #808183",
"%. c #858281",
"&. c #818284",
"*. c #828487",
"=. c #878584",
"-. c #8B8885",
";. c #848688",
":. c #85878A",
">. c #878A8C",
",. c #888889",
"<. c #898B8E",
"1. c #8D8C8C",
"2. c #938780",
"3. c #918882",
"4. c #948880",
"5. c #958880",
"6. c #958981",
"7. c #968981",
"8. c #978A81",
"9. c #968982",
"0. c #978A82",
"q. c #978A83",
"w. c #928984",
"e. c #908A87",
"r. c #968D87",
"t. c #988B82",
"y. c #988B83",
"u. c #998B83",
"i. c #988C80",
"p. c #998D81",
"a. c #9A8E81",
"s. c #998D82",
"d. c #9C8F83",
"f. c #988C84",
"g. c #998C84",
"h. c #9A8C84",
"j. c #9A8D84",
"k. c #9A8D85",
"l. c #9B8D85",
"z. c #9A8E84",
"x. c #9B8E85",
"c. c #998D86",
"v. c #9B8E86",
"b. c #9B8E87",
"n. c #9C8F86",
"m. c #9C8F87",
"M. c #928C89",
"N. c #948F8C",
"B. c #998E88",
"V. c #9C8F88",
"C. c #9D9085",
"Z. c #9D9087",
"A. c #93908E",
"S. c #9A908A",
"D. c #9D9088",
"F. c #9D9189",
"G. c #9E9188",
"H. c #9E9189",
"J. c #9F9189",
"K. c #9F9289",
"L. c #9E918A",
"P. c #9E928A",
"I. c #9F928A",
"U. c #99918C",
"Y. c #9D938C",
"T. c #8B8D90",
"R. c #8C8F91",
"E. c #8E9093",
"W. c #979391",
"Q. c #909295",
"!. c #919497",
"~. c #949495",
"^. c #979595",
"/. c #9D9591",
"(. c #9B9896",
"). c #949699",
"_. c #969799",
"`. c #96999C",
"'. c #979A9D",
"]. c #9B9B9C",
"[. c #999C9F",
"{. c #9F9D9D",
"}. c #A0938A",
"|. c #A0938B",
" X c #A1938B",
".X c #A09488",
"XX c #A1958A",
"oX c #A0948C",
"OX c #A1948C",
"+X c #A2958D",
"@X c #A0958E",
"#X c #A3968E",
"$X c #A4978F",
"%X c #A29891",
"&X c #A59890",
"*X c #A79991",
"=X c #A09994",
"-X c #A09B98",
";X c #A69E99",
":X c #A5A19E",
">X c #ADA29B",
",X c #9A9DA0",
"<X c #9CA0A3",
"1X c #9FA2A4",
"2X c #A0A4A7",
"3X c #ABA8A5",
"4X c #A3A6A9",
"5X c #A3A7AA",
"6X c #A4A7AA",
"7X c #A4A8AB",
"8X c #A6A9AC",
"9X c #A7A9AC",
"0X c #A6AAAD",
"qX c #A7AAAD",
"wX c #A7ABAE",
"eX c #A7ACAF",
"rX c #A8AAAD",
"tX c #A8ABAE",
"yX c #A8ACAF",
"uX c #A9ACAF",
"iX c #A8ADAF",
"pX c #A8ACB0",
"aX c #A9ACB0",
"sX c #A8ADB0",
"dX c #A9ADB0",
"fX c #AAADB1",
"gX c #AAAEB1",
"hX c #ABAFB2",
"jX c #ACAFB3",
"kX c #ACB0B3",
"lX c #ADB0B3",
"zX c #AEB1B5",
"xX c #AFB3B6",
"cX c #B0B4B7",
"vX c #B2B6B9",
/* pixels */
"{ g.} 5.5.0.g.5.} 7.y.g.m.k.0.y.k.k.m.I.H.D.D.m.D.I.D.D.H.D.m.H.I.D.D.D.m.v.D.s.i.t.q.7.y.m.D.D.H.H.D.|.D.m.m.v.m.D.|.m.v.v.v.v.",
"{ j.} 5.5.0.k.5.5.0.y.0.v.v.y.y.g.k.m.H.m.m.D.m.m.I.H.m.D.D.D.H.H.D.V.D.m.v.D.j.i.f.y.7.0.m.m.m.H.H.I.OXD.v.v.m.v.D.H.v.k.v.m.m.",
"5.l.5.} [ 0.k.7.5.7.0.7.k.v.g.y.y.y.v.I.D.D.m.m.m.I.I.m.m.D.H.I.I.D.D.D.V.D.L.j.i.g.y.7.y.D.m.D.D.D.I.OXm.k.v.m.v.D.I.v.k.v.H.H.",
"5.x.5.} } 0.k.0.5.7.q.0.k.v.y.0.y.y.v.H.D.H.H.D.D.|.I.D.D.D.D.H.I.D.m.D.D.D.I.x.t.t.y.7.y.D.v.m.D.m.H.|.m.v.m.m.k.m.I.m.k.v.m.D.",
"{ l.5.[ [ 7.g.0.7.5.7.0.k.g.0.y.g.y.v.H.D.H.H.D.m.I.|.H.H.H.m.D.I.H.m.m.D.D.H.g.9.9.0.5.y.D.m.D.D.D.I.I.m.m.m.v.k.v.|.H.v.k.v.m.",
"5.j.} [ ] 5.y.7.0.7.7.7.v.g.0.y.g.y.v.H.D.D.m.m.m.H.|.|.P.L.m.D.I.G.m.m.m.m.H.g.9.7.7.5.y.D.v.v.m.m.H.|.m.v.m.k.k.v.|.D.v.v.v.v.",
"x. Xv.v.v.H.|.D.D.D.m.m.I.D.g.y.k.k.m.|.H.D.D.G.I.+X%X=X/.=X%X@X$XoX|.OX|.H.+XK.v.l.v.v.D.D.g.g.v.m.m.OXOX|.OXOX|.OX+XH.D.I.I.H.",
"x.XXm.m.m.H.|.H.D.m.D.m.H.v.7.5.0.7.g.I.I.F.L.@X/.N.W.~.E.~._.~.A.e.M.B.B.F.oXP.F.F.H.I.+XD.t.7.t.g.0.D.OXOX+X$X#X+X|.m.D.H.H.m.",
"x..Xv.k.k.m.I.D.m.m.m.v.D.k.5.7.y.q.f.B.B./.-X^.&.G U >.E.T.;.+.I V V G Y %.1.A.W.U.U.B.S.B.r.f.q.f.f.I.$X#XOX+XOXOXI.m.m.D.D.m.",
"Z.XXv.b.k.D.I.D.Z.I.I.H.I.c.4.2.r.U.-.H N L &.:.>.R.`.2X0X7X1X[.).E.<.:.:.:.;.*.$.Y G N v V P =.A.(.-X;X/.U.Y.%X+XOX|.V.m.D.D.H.",
"Z.+Xv.m.m.D.|.F.F.Y.S.U.N.%.H N Y ,.:.@.+.:.Q.,X5XyXgXfXfXfXgXgXdXdXyX0X6X2X<X'.!.T.:.#.R R @.;.R.!.,.F s s G ,.:X&X|.H.H.H.m.m.",
"Z.#Xm.D.H.|.P.W A H N d x G I T >.).<X4X8XtXtXdXdXwX8X7X5X5X5X7X8X0XwXdXgXgXgXgXgXdXuX8X8X8X8X6X,X;.z 3 3 t z B 3X>XD.f.4.! S ` ",
"Z.#Xm.m.m.F.W p 8 7 7 2 4 c ;.`.5XhXcXcXxXhXtX0X5X4X5X4X5X5X5X7X7X7X5X7X7X7X7X7X7XqXdXkXxXcXdX[.;.G g i F &.I I ].3.Z l f p t W ",
"u.J.y.0.0.6.b w 1 @ % : 1 6 e c J &.E.'.2X7XyXdXeXwXqX8X7X7X5X5X5X5X5X5X5X4X4X5X5XwXdX0X<XR.K r 8 d K +.$.J h g d d N T T.T.s D ",
"u.J.y.0.8.6.A g 2 o   o O + $ * > 5 0 i v I ,._.2X0XgXhXgXaXwX7X7X5X5X5X5X7X0XfXhX0X'.$.c 0 0 t s h z i y p v U :.[.8XhXvX<Xd Q ",
"u.G.y.y.7.q.P c 4 O           . X O # & : 3 9 i v K &.E.,X5XyXhXhXgXyXwXyXhXdX1X<.K g q 7 7 0 e p h B R R.,X8XjXzXzXhXdXzX!.a ! ",
"Z.I.y.g.0.q.^ n 6 +                   . X O @ % ; 1 7 r c L *.E.'.1X8XwX5X`.$.M q 3 3 7 e c K *.Q.1XwXjXzXzXkXgXdXwX0X0XzXT.f ( ",
"H.#Xv.k.y.y.-.G 8 @                           . X o + % = < 5 q g B R #.G t 7 8 w c I >.'.4XaXkXzXkXhXfXyXtXqXqXeXyXtXyXxX:.f ( ",
"Z.+Xv.g.y.k.M.U q #                                     . X O # * > 7 w i v T R.<X0XjXlXkXkXgXdXyXwXwXwXeXyXiXsXyXyXwXyXzX&.j ) ",
"x.OXm.v.h.V.N.$.y $                                             . o 3 @.1XqXkXzXkXhXgXyXwXwXwXwXwXyXyXyXpXpXpXpXyXyXwXyXzX+.l 4.",
"7.G.y.0.5.y./.<.s %                                               . 3 ).vXhXpXyXwXwXwXyXwXyXdXdXyXdXyXiXaXaXuXuXsXdXwXpXkXU C q.",
"7.Z.0.7.} 9.=X~.z &                                               . 2 E.kXqX0XeXyXyXyXyXyXyXyXdXdXyXdXaXiXiXiXiXuXsXwXdXgXL C g.",
"0.Z.0.0.5.y.=X].c & .                                             . 1 T.zXyXtXdXyXsXyXyXdXyXyXdXyXdXyXyXaXyXyXyXdXiXwXfXuXG Z c.",
"5.x.5.5.5.y./.].v * .                                             . < T.zXyXyXsXyXyXsXsXyXdXdXyXdXdXdXdXdXdXiXyXdXyXwXgX0XV Z g.",
"5.l.} } } 7.Y.^.M ; X                                             . , >.zXyXyXdXyXyXuXyXsXyXyXdXyXdXdXdXdXdXyXyXdXyXwXgX7XM S g.",
"x.OXm.v.g.v.oXW.B : .                                         .   . > >.zXyXyXsXyXdXsXdXdXsXdXdXdXdXdXdXdXdXyXpXdXyXwXhX4Xc E V.",
"I.&X}.|.I.|.oXW.G , X                                               : :.zXyXwXsXpXyXsXpXsXdXsXdXdXdXdXdXdXdXyXpXdXyXwXkX2Xg D t.",
"H.$XH.I.H.I.|.N.J < X                             . . o + @ $ & = > 4 *.zXdXwXsXsXuXpXsXdXdXdXdXdXdXdXdXdXdXyXaXdXyXwXlX1Xd D O.",
"H.#XH.H.D.H.|.M.J 1 .             . X O + # % * : , 3 7 q s v F R @.r @.kXdXqXsXpXuXsXaXdXdXdXdXdXdXdXdXdXdXuXyXdXyXtXlX,Xd E p.",
"H.$XH.H.m.H.|.e.F 2 @ + $ % & - > < 4 9 t z B I #.>.Q.`.1X4X8XyXxX8Xs T kXfXqXpXpXuXsXpXdXdXdXdXdXdXdXdXdXdXyXyXdXyXyXlX[.d E O.",
"H.#Xm.D.D.I.|./ x 8 6 8 q z J @.:.R.!.[.1X7XtXdXkXzXlXlXhXhXgXuXzX2Xi U kXfXqXaXpXiXaXsXdXdXdXdXdXdXdXdXdXdXyXdXdXwXyXzX`.p E O.",
"H.+Xm.m.m.H.OXw.N 6 : 1 7 g T E.2XlXvXvXzXhXfXyXyXwXwXtXtXtXtXqXhX2Xi I jXgXqXpXpXuXsXpXdXdXdXdXdXdXdXdXdXdXyXyXdXwXyXzX`.a Q h.",
"x..Xv.n.z.x.+Xr.F 2 o X + % ; 3 e B #.).2XdXkXhXdXwXwXwXwXwXtXyXzX2Xi K jXgXqXsXpXuXsXaXdXdXdXdXdXdXdXdXdXdXdXyXdXyXwXxX).a ) H.",
"X.d.X.O.O.8.I.w.B 3 O         . O % > 6 s K >.].9XlXzXhXdXyXyXwXjX2Xi J gXgXqXsXpXuXiXpXdXdXdXdXdXdXdXdXdXdXyXyXdXyXtXxX!.a ! m.",
"X.d.X. .X.f.L.w.m 4 O               . o @ = 1 q v +.Q.2XuXzXkXfXlX4Xi G gXgXqXsXpXuXsXuXdXdXdXdXdXdXdXdXdXdXdXyXdXyXeXxXQ.a ! n.",
"X.C.X.O.X.s.H.w.N 5 O                       X O % : 5 y F ;.'.5XcXqXi V gXhXqXsXpXuXiXaXdXdXdXdXdXdXdXdXdXdXyXyXdXwXeXxXE.f ) v.",
"X.d.X.O. .i.H.w.N 6 O                             . o @ & , 9 x R >.y V yXgXqXiXyXaXiXuXdXdXdXdXdXdXdXdXyXdXyXyXdXwXeXxXR.f ) l.",
"{ a.X.X.X.t.D.3.N 6 O                                     . O # - 3 6 V rXgXqXiXyXuXsXuXdXdXdXdXdXdXdXdXdXdXyXyXdXyXyXxXE.f ! k.",
"u.I.v.k.g.m.I.3.m 7 +                                           . X * B uXgXwXiXyXaXiXuXdXdXdXdXdXdXyXyXyXyXyXyXdXyXwXxXR.j _ D.",
"x. Xv.v.k.n.D.3.m 7 +                                               $ n uXhXwXiXyXaXiXaXdXdXdXdXyXdXyXyXyXdXyXyXyXyXyXxXT.j ( d.",
"u.K.k.j.g.k.k.` m 7 +                                           .   $ v wXhXwXyXyXaXiXyXyXyXyXyXyXyXdXdXdXdXdXyXyXwXwXxXT.j ( d.",
"0.G.y.g.y.k.v.` m 7 +   .                                           $ x qXhXwXyXyXaXiXyXdXyXdXuXyXdXyXyXyXsXyXwXwXqXyXvXR.j ( d.",
"7.Z.y.y.g.m.m.` m 7 @                                               $ x rXhXwXyXyXaXdXsXyXdXyXyXdXdXyXwXwXwXwXtXdXlXxXzX*.f ' C.",
"0.G.y.y.y.k.l.` A z 7 : $ o                                         # g 8XhXwXyXyXaXiXyXyXyXyXsXyXyXqXwXyXdXlXxXuX,X;.B p C i.d.",
"u.J.y.y.y.v.m.! m Q.,X+.s 4 - # o                                   @ d 8XhXwXyXyXpXyXyXyXyXtXwXwXwXyXlXxXgX<X<.F p f C Q 7.x.n.",
"I.*X}.OX|.OX X` c *.6XjX8XE.J y 4 = @ X .                           @ i 6XhXwXiXyXyXyXeXwXwXwXuXhXxXkX1X<.J d a C Q [ 9.D.H.H.V.",
"L.&X}.XX|.+XH.0./ P @.,XlX[.U G I M w 2 = @ X                       @ y 5XhXyXyXyXwXwXwXyXhXxXzX2XE.U h a C E ) } Z.D.9.9.v.m.k.",
"H.&X}..X.XOXD.g.k.r.^.9X,XK 7 q *.].,.G x w 2 * + .                 @ t 2XhXwXwXtXdXgXzXzX5XQ.T h u l E _ 6.n.n.f.g.j.0.y.k.v.k.",
"|.*X}.|..XXXH.y.y.k.Y.:X{.,.N Y (.:XW.%.,.&.B g 0 , % O .           @ r 1XgXeXhXzXzX7X!.@.c u k S Q _ D.I.v.g.g.k.v.k.7.g.v.m.m.",
"OX*X}. X.XOXD.0.0.7.8.g.@X;X;X;X$X.X.XV.U.~ n @.:.R n 9 : % O .     @ r 2XcXkX8X).@.v a k S Q ( 0.y.7.v.m.v.k.k.v.m.v.7.g.v.v.v.",
"|.*X+X+X+X#Xm.7.7.7.0.7.n.$X&X&XOXG..XK.v.4.3.(.1.T.4X2X*.c 7 : $ o # r <X[.R n p k S ! ] g.h.q.7.7.6.v.m.b.m.v.v.D.b.9.q.l.v.k.",
"Z.$X}.H.H.|.H.g.g.g.g.y.D.I.m.V.H.n.Z.I.D.D.|.oX=X1X'.2XqX7X[.&.x 4 1 0 x r y H ` [ x.G.P.V.q.y.g.g.q.D.H.b.m.b.k.m.D.k.x.m.v.b.",
"0.D.y.q.5.y.v.y.0.0.8...g.g.5.} 0.0.t.H.H.m.m.m.oX3X1X;.U *.`.4X_.c 9 9 0 F ~.%XP.v.k.g.m.k.7.7.q.t.o.m.n.s.j.t.5.t.n.z.d.d.d.a.",
"0.m.0.0.5.7.k.y.7.7.7.7.y.y.} } 7.5.0.D.H.D.m.v.k.oX;X1.F v K R F 7 1 e T :X;XV.7.f.g.g.v.k.o. . .o.O.d.d.i.p.7.} 8.d.p.p.a.a.p.",
"u.D.5.7.7.y.k.y.0.0.9.5.q.0.} } 7.7.y.D.H.D.D.v.v.Z.v.B.U.e.~ m w < 3 Y ;XoXv.k.g.g.g.y.k.l.i.O.X. .X.d.z.t.o.7.5.t.z.i.a.s.p.a.",
"u.Z.5.7.5.g.k.0.7.0.0.} 7.0.5.5.7.5.y.D.I.D.D.m.v.m.0.5.y.f.4.] ` / ) S.V.7.v.D.k.g.g.g.k.g.O.i.i.X.X.x.k.y.8.7.7.0.s.O.i.s.a.d.",
"7.n.0.0.7.0.g.0.7.7.0.5.t.y.7.5.5.5.0.D.I.H.D.D.m.m.7.[ ] [ [ 0.K.|.J.k.7.q.m.m.k.v.k.y.k.g...X.O.i.i.n.k.q.0.7.7.0.f.X.o.p.p.a.",
"7.Z.y.g.0.0.v.0.7.0.7.5.k.g.7.7.7.5.y.H.D.D.Z.n.b.V.0.[ 5.} } 7.v.f.f.g.g.g.H.v.g.v.k.y.m.m.i.O.O.p.p.G.v.q.y.0.0.k.k.0.8.p.p.a.",
"u.I.k.k.k.v.|.H.m.m.m.D.I.m.g.g.y.7.k.D.j.s.p.z.s.K.H.b.v.v.l.D.|.D.m.D.m.v.H.v.0.0.0.7.v.|.H.H.H.H.I.|.k.0.y.y.0.k.|.I.G.G.G.m.",
"0.Z.y.y.0.y.m.D.v.v.v.m.D.y.} ..7.} 7.g... .O.i.O.C.K.V.m.v.k.m.I.m.v.m.k.g.v.0.} } } [ 7.H.I.H.L.I.|.D.5.} } 5.5.q.|.I.D.m.D.b.",
"7.m.0.0.5.0.m.v.g.g.k.v.D.0.[ | | } 9.y.4. .O.O.X.C.I.m.k.v.k.v.H.m.m.m.k.g.v.0.5.} } } 0.H.H.m.D.I.OXH.5.} [ [ 5.0.I.H.z.j.x.v.",
"0.Z.0.7.5.y.D.v.k.k.g.k.m.5.} X. .} y.g.5. .X.X...n.I.m.k.k.v.m.H.H.D.m.m.m.m.0.5.5.5.} 7.H.H.m.D.I.OXH.7.[ [ [ } 0.H.m.g.l.v.v.",
"0.n.5.7.7.g.D.v.k.v.k.k.b.7.| O.O.| y.k.5.| X.X.7.V.I.D.v.v.v.v.H.D.v.m.D.D.D.0.} 5.5.[ 7.m.D.D.H.I.|.H.} ] [ [ [ 7.D.m.k.k.k.k.",
"0.n.5.7.7.y.m.v.k.k.g.k.b.t. .X.O.4.q.y.} | X. ...m.|.H.D.m.k.v.H.D.v.D.D.m.D.y.5.} } } 7.m.m.D.H.H.I.H.5.[ [ ] ] 7.D.v.k.k.g.g."
};
