/* XPM */
static char *result[] = {
/* columns rows colors chars-per-pixel */
"64 64 256 2 ",
"   c #625847",
".  c #807664",
"X  c #544C3C",
"o  c #564E3E",
"O  c #5D5340",
"+  c #6B604E",
"@  c #5D5543",
"#  c #554C3A",
"$  c #514838",
"%  c #534B39",
"&  c #726856",
"*  c #645A44",
"=  c #5F5543",
"-  c #534A36",
";  c #514B39",
":  c #5F5747",
">  c #595240",
",  c #655C49",
"<  c #7F7363",
"1  c #605844",
"2  c #82735F",
"3  c #625643",
"4  c #6B5E49",
"5  c #504935",
"6  c #857A63",
"7  c #635A4A",
"8  c #57503E",
"9  c #6C6351",
"0  c #635A47",
"q  c #564D3B",
"w  c #736655",
"e  c #928673",
"r  c #4C4533",
"t  c #685D47",
"y  c #4E4734",
"u  c #59503D",
"i  c #665B46",
"p  c #6E614C",
"a  c #8C7B62",
"s  c #80725A",
"d  c #716450",
"f  c #877D6C",
"g  c #5E5645",
"h  c #8F826A",
"j  c #7C7059",
"k  c #807660",
"l  c #887A5F",
"z  c #8D7E65",
"x  c #938876",
"c  c #5C5441",
"v  c #4C4330",
"b  c #908063",
"n  c #847867",
"m  c #7F705C",
"M  c #7E7160",
"N  c #958469",
"B  c #5A523D",
"V  c #817968",
"C  c #8F7F67",
"Z  c #756B5C",
"A  c #5F5540",
"S  c #7C6D58",
"D  c #83735B",
"F  c #7D6E5D",
"G  c #776756",
"H  c #7A6F61",
"J  c #897B68",
"K  c #837763",
"L  c #6F6150",
"P  c #6C5F46",
"I  c #595040",
"U  c #9E927D",
"Y  c #847A6A",
"T  c #756956",
"R  c #887762",
"E  c #5B5241",
"W  c #837760",
"Q  c #867C68",
"!  c #574C37",
"~  c #625740",
"^  c #776D59",
"/  c #796B59",
"(  c #7B6D5B",
")  c #766959",
"_  c #776C5D",
"`  c #675D4A",
"'  c #88775E",
"]  c #95866B",
"[  c #6E6555",
"{  c #6A5E4E",
"}  c #8C816B",
"|  c #756953",
" . c #9C8D74",
".. c #908470",
"X. c #8B7E6B",
"o. c #92876E",
"O. c #665D4D",
"+. c #796E55",
"@. c #5A5343",
"#. c #8C826F",
"$. c #8B7F6E",
"%. c #685F50",
"&. c #6A634E",
"*. c #706653",
"=. c #998D77",
"-. c #8C8068",
";. c #897E69",
":. c #6A5C4A",
">. c #9C917E",
",. c #837454",
"<. c #7A7261",
"1. c #86785D",
"2. c #685F4B",
"3. c #5B503A",
"4. c #574F39",
"5. c #665A4A",
"6. c #948471",
"7. c #897C62",
"8. c #7C725D",
"9. c #837665",
"0. c #9C8C79",
"q. c #847562",
"w. c #968975",
"e. c #81755C",
"r. c #8E8372",
"t. c #79705D",
"y. c #80735C",
"u. c #675D44",
"i. c #948A78",
"p. c #A29379",
"a. c #796F5A",
"s. c #998F7C",
"d. c #84765D",
"f. c #9C8C71",
"g. c #6F644D",
"h. c #726953",
"j. c #897960",
"k. c #736A59",
"l. c #91816E",
"z. c #5D5345",
"x. c #877867",
"c. c #887F6E",
"v. c #5C543D",
"b. c #978870",
"n. c #958972",
"m. c #9C8F77",
"M. c #9E927B",
"N. c #706246",
"B. c #867558",
"V. c #6D634E",
"C. c #A29582",
"Z. c #A59883",
"A. c #95896E",
"S. c #766752",
"D. c #7D7461",
"F. c #6B6254",
"G. c #AA9A7F",
"H. c #645D4B",
"J. c #756B55",
"K. c #A0957F",
"L. c #706757",
"P. c #62553C",
"I. c #605740",
"U. c #96856E",
"Y. c #8A7A64",
"T. c #73664C",
"R. c #A4947E",
"E. c #817357",
"W. c #5F543D",
"Q. c #544833",
"!. c #998C72",
"~. c #98886E",
"^. c #6F6453",
"/. c #796B55",
"(. c #A09078",
"). c #615949",
"_. c #968D7A",
"`. c #524633",
"'. c #7F6F55",
"]. c #716349",
"[. c #706750",
"{. c #A5977D",
"}. c #9B896E",
"|. c #998B70",
" X c #494331",
".X c #8F7F6D",
"XX c #928167",
"oX c #998A75",
"OX c #998C79",
"+X c #54503E",
"@X c #A29280",
"#X c #91846B",
"$X c #6B604B",
"%X c #A99F8D",
"&X c #A99B83",
"*X c #ADA18D",
"=X c #756B59",
"-X c #5C503E",
";X c #746750",
":X c #9C8E7B",
">X c #8D7D60",
",X c #9E8F74",
"<X c #8F8776",
"1X c #69604A",
"2X c #968B77",
"3X c #8A7E65",
"4X c #7D6D4F",
"5X c #9D8F70",
"6X c #75644E",
"7X c #72675A",
"8X c #958673",
"9X c #8D7D69",
"0X c #93846D",
"qX c #928466",
"wX c #796A50",
"eX c #554839",
"rX c #9E9482",
"tX c #A89880",
"yX c #8C7A5D",
"uX c #887E62",
"iX c #988973",
"pX c #4D4737",
"aX c #7D6E55",
"sX c #AB9C87",
"dX c #A0957C",
"fX c #A19274",
"gX c #695A3D",
"hX c #645941",
"jX c #453F2E",
"kX c #A39987",
"lX c #5B4D35",
"zX c #675A41",
"xX c #72684F",
"cX c #98896A",
"vX c #5F513F",
"bX c #B1A48F",
"nX c #A89E8A",
"mX c #B0A088",
"MX c #554C36",
"NX c #705E48",
"BX c #746349",
"VX c #5F5038",
"CX c #504530",
"ZX c #6A5A44",
"AX c #7D7156",
"SX c #8C8164",
"DX c #837257",
"FX c #898271",
"GX c #8B7969",
"HX c #A69B89",
"JX c #6C5F41",
"KX c #837054",
"LX c #746A4F",
"PX c #B5A994",
"IX c #AE9D7F",
"UX c #BAAF9D",
/* pixels */
"5.$.8.k =.s.#.FX0 J.Z.w.n *.T x 2X, @ #.OXw.o.6 3 I , u.p w / L._ wX~ ; /.|.(.R.iX..%.= a 6 l uXk xX[.p v.8 n Q n e i.f <.k.[   ",
"-XX.M t.< < . Q 0 Z $.Y k T.AXK J O.9 Z.C.C.C.K.J z.^ L.7XL._ Z ) !.o.g Y.q.Y.a 2 } g 1X|.;.;.< M < 6 A.[.1 >.HX%X%XnXnXkX>.rXZ ",
"jXH M w d w 7XL.I : L d d p p 4 4 E g . . H H < _ % V.9 F.F.k.O.L m i r , :.* ZX4 w ; [.-./ n ;.;.$.f 6.* ` =.x x e e #.c.f <XZ ",
"jXO * 3 4.u z.  O u 8 B O I.O 3.3.-X# 8 : : o z.H.1 4 d 1X@ X % X pXX o I I I @ 1 0 ; + M M < < < M x.X.E   q.y.s m e.s F < l.` ",
"y.qX>X7.d.4.*.XXXXC h *.@.<X<XFXc.<.t.& =Xt.q LXD.H k uXSX6 $ ^.V V Y f FXV H < V Y I : t.6 ;.f n 9.f < X  Xz.= 3 hXgXJXN.].T.! ",
"K Q _ 7X. , [ <.Z < Y k @ c.>._._.FXY f Y < @ J.t.7X[ L.L.a.@ Z <Xr.Y V . M a.^ *.w X +Xk.8.t.< < . . k.5 0 h.V.5.= v.- B @ o 5 ",
"X ).%.%.7 ; q 1 c 1 , 2.+X4.$X4 t P NXS.$X~ v $ @ 1 hXi 7 : pX> : 7 { > - ! q ! 3.# ; pXI O.O.[ & ^.[ H.5 L F m m G + v A :.{ E ",
"z.I o 5 8 7 + &.&., 0 1 1 c @ 8 8 8 q # o : 0 9 9 H.@.; $ 4.I.$Xu.A q % H.&.z.8 9 + k.& `   g g   > q I o  XX 8 8 @ ).O MX- y z.",
"H H 7Xq D.c.Y FXr.#.c.r.r.FX#.$.f < [ > V K.>.K.i.f n ` 0 ..l.e ]  .7 9.>.$.H g Y Y c.r.<Xc._ + q *.} W 6 h m.8.{ $.X.0X!.W o %.",
". n <.: <.f <.<.<.f V H . V V 6 . _ & > Z J K e.e.< 9X&.& Z.6.q.R l.5.< l.6.l.  Y V V f Y n . ^ +XQ (.j.b }.!.J.T X.7X[ =.M o _ ",
"9.Q H : 5.$.$.;.J .X9XJ q.( G G ) ) F.E S D DXD D DXd.@ _ C.oXj.s m = H 0.0.oXg t.^ J.J./.a.^ + ; +.l aX' XXdX*.+ / w D.l.+ X 9.",
"9._ 7X0 5.< D.. ;.9XR /.H . t.w w /.:.u S j T a.2 2 D., *.0.oXGXq.< @.k.oX.XFXg V.g.& =X| L d zX5 [.d.7.'.wXS u 5.) w Q X.3 5 W ",
"W ( Z 2.@ 9 L d G G L 4 %.d d P ZXZX3 $ 9 Z Z & L.< r.& z.2 a a j.R H.%.0.6.< g ` $X^.7X[ { P u.; F.& ^ | /.| 4.5.) 7X) ( + 5 +.",
"v.I.0 X y ! `.CXQ.eXX o Q.Q.Q.! -Xy jXjX+X> ` *.F ( ).y pX1 P | | h.@.% n ;.L.r 5 MX@ O., P.P.-Xv @.: 3     1 r X E = O.{ , r % ",
"8.` jX0 7.] #Xe.wX*.g o 8.h !.k g . #.#.. ^ 8.J.q q ^.8.e.| I r = 4 t i v.1 z.E : %.A CXv `.$ v.4X,.+.a.h.1X` 9 =X*.V.4 > o + M ",
":Xm.A ' G.!.{.IXIXPXw.i R.] ,XR.t %X%XnXU m.R.bX& 0 mXtXp. .x.7 m U.,XR.oXp.R.0.r.s.>...t.).&.fXG.G.mXbX*X*X*X%XnXkXrXU V $ h M.",
"k.D.B S p.U.6.X.M 6.R A / S.D cXv.d 2 q.J 6.GX0.s 1 GX8X8Xl.J a.B :.R 8X.Xb.{.Z.i.@XZ.C.n./.).9.U.!.b.U.w.:Xw.oXK.K.U rX2XI.k <.",
"Z L.c T.}.}.f.XXR Y.1.i T 1.>XE.% + z b.b.n.z j.4 @.) ( F 2 q.L.pX* 6XBX6XaXs 2 q.q.D R ' NX+Xw S s /.6XNXNXNX6XS R 2 6 J B 2.h.",
"I.3 +XpX= i g.j /.].* > > > u # y $   v.q % 5 % ; r ; H.0 2.A ; ; # A -XlXvXvXVXVXlXlXVXP.! r : :.3 -XeXeX`.eXvX= E O O I v MXzX",
"A X X ^ y.y.W ` 5 D.#.<X<Xf V <.Q k 1X$ ^.D 2 k n 0XxX XjX%.} x.^ & =X2.).X ; : c 3 h.k . f } 6 D.= `.6 } } f I $ O 7 O.H.^.[.i ",
"m.V V.{.mXG.G.k 0 kX%X%XbXbX*X*X%XnXo.q l.tXtX(.0.R.G.6 $ < R.l.l.=.$.k.$.%.# S d.h o.o.M.C.nX*XK.j * mXsXoXm.= H.n.:Xw.OX:XOXw.",
"d.< &.J 9Xb.M.& + dXZ.bXsXp.p.!.h ;.#XhXS.F R oX(.5X{.IX* { 9Xl.0.=._ %..XZ # S a 3Xy.1.a l uXh d.4 A !.j.KXNXCX%.;.9XR 2 m /.S.",
"6XL @ ^ G K Y.g p ,X}.f.~.] ,XU.0X=.-.W.4X4XaXD C XXb ;.c w 0.@X0..Xx.9...) q h.XX~.j.a C >XB.BXT.t 3.E.B.4XVX`.%./ G G S.S.S.6X",
"4 = r = ` d L o g.f.cXcXfXf. .f.f.tXW r B P.P.zXN.| d   $ :.'.S G :.:.` L O. X~ d.'.6XwXwXP zXP.zX3.-XP P.eXCX`.5.T w k.) / ) G ",
"u 1 2.1XI.`.eX+XxXcXb b cXN fX{.,X,X6 % 9 & F., O X $ r X ; q `.`.CXQ.# $ o # # @ -X`.Q.`.$ $ $ E i g.t 4.u # % 8 8 > g : ).0   ",
"dX&X&XZ.=.x r.%.hXb >XB.4X4X,.N XX}.a +  . .0.Z.C.w vXm x.K K } A.p.nXHXs.0.U >.x Y <.F.@ A 2 X.@X*X&XZ.M.M.=.o.f n   $ 8.J.5 k ",
"..e e _.C.nXPXc.~ B.B.,.,.,.,.,.4Xb 4X4 6 -.o.=.l.q.gX>X] oXoX0Xn.K.K.R.bXUXUXPXbXbX*XsXD.4.D fX&XPX*X%XHXkXK.dX=.#.0 E OXc.; Z ",
"q.2 q.q..X6.U H ! ,.,.,.,.4X,.B.B.aXA   ) < J $..X2 MXP ,.' d.d.s j aX'.a b. .p.tX&XmXmXn.o 4 1.XXN ] !.(.U.0XC 7.R , v.d.T Q.T ",
"S.6Xp p hX:.L @.* N.W.O ~ i i 1 I.I.).@.r % ^.k.7 # r 5 ! hXT.T.].T.P P.VXgXgXN.BXN.ZXp * pX3.gXN.6XT.4 zXzXZXNXP ZX! VXKXd r P ",
"vX`.5 ; 5 X q  XJXE.# s G.f.5XC 0 V :Xw.X.^ > % 9 Y Q k k Z @.&.} OXM.;.h.i = O B O $Xa.k.F.%.0 A o H.9 [ <._ q MXB v  Xc @. X- ",
"; : W 7.#X#X7.d.j J.3.t iXz #XC 3 M 0Xh 6.R.` :.p.tXtXR.oXb.L S !.-.A.M.dXb.9X* X.@XR.sX(.] l.6.s j *X&X&XdX{.xX;X0Xq.& L.L.*.c ",
"8 9 @Xp.p.,X,X(.p.(.T.5 L L p t jX8 & ^.+ T @.q d $X:.5.3 vX5 q ( F ( Z t.2 m 8 j z d.2 2 2 s 1.T.xXSXl l E.aX0 E & < Y x.x.x.K ",
"5 k.i.oXU.0XU.oXOXo.s 8 0 1Xh.J.+ u pXpX; A +   u u - 5 y $ u @ o O @ z.3 , ,   i N.t * c @ i P.eXE i ~ I.B A % @.@.@ , O.2.&.1 ",
"q w #.#X~. .&X&Xf 9.q., h m.m.R.p.h 7   uXn.!.cX#XC l * F.R |.X.M b.| * A.U.b.fXf.3X| + 9 | y.l   2.Q x x x _.s.rX>.f > B W ;.W ",
"u [ iXXXf.G.G. .x.iX-.O m Y.Y.j.9X .J hXSXA.e i.2X_.~.].4 a C d.z U.e.4.s Y.R C l 1.a D 1.d.E.DXzXO ^ ;.r.$.=.>.s.x c.2.i 6.6.x.",
"MX9 N z ~.] N z U.&XqX4.  = = :.G G B 5 1 ].].S.+.AXy.t ~ 4XwX].P ].u.% # W.W.W.vX3.lXVXlXlXVXP.3.jXv ! A W.lX! MX3.W.# $ 5.5.5.",
"+XT.>Xj.a a >XXXsXtXa ! g   = I $ ).^.L.9 p 4 ~ 4.MXeX> 0 zX3   O O g 8 ; : & [ *.9 F.t.t.p - a.. K / ` v %.V . K ) 9 + [ Z L.9 ",
"o s f.N N N b ,XU (.E.4 C GXGX( q l.iXU.U.U.6.9X7 @ ..A. . .] A.!.m.0.Q o ;.@Xi.s.C.HXrXC.m.0 e } J 6.8XA Q *XK.K.M.M.0.OX>.@Xx ",
"v g | ;X;Xj 1.D AXe.p I.,.Y.z d.0 ( S.6XNX6X/.F 3 ! } A.SX' d.AX1.z o.Q X *.F G G /.m y.SXe.v i + :.G R u B ].LX+.s 1.' s | | | ",
"2.X...i.. 7 : c * p +Xr Q.I.u.I.; $ % u I O A = u 8 4.B - MX- 5 - 5 - 4.# $ y y y $ MX4.O 9 H.g g H.0 O 5 5 q B 1 @ c * = I q 8 ",
"s.>.U U x V . H.h.D g 7 =X^ t.<.9.f D.< x s.=.2Xe x 2.H.-.!.#X3Xo.SX3Xh o...;.} 3X-.e.u Z >.K.kXC.HXkXrXrXrXs.f . <.9 X ` ( F J ",
"=.e r.J 9.#.U H.g.6Xq V.J V < Y Q c.$.f x x r.Y n 9.q ;.p.6.8XN w.U U M.M.M.m.n.n.] 7.8 _ e x x m.M.M.Z.Z.kXkX>.i.<Xc.0 n.sX@XR.",
"s G ) _ ) $.M.0 p BXMXP j _ ^.| T T ) _ _ ^ J.w 9 u.CXW l '.' D E.E.'.AXl qXqXqXl D +.X D.8XY.z z b z z z 9XJ R 6 ..H > Q U e x.",
"S F ( m 6 e iX3 P BXMXgXS.w & a._ ) j j +.+.h.F.;XJXr T.>Xb qXe.wX'.B.N fXfX3XY.R 8.& X k m.3XW 1.yXyXyXyXyXyXB.B.j.m E 6 8Xq./ ",
"3 L m q.9.r.Q ; * 4 y P.u.H.O.t u.1X2.+ V.V.9 &.u.B r - v.A # v `.3.W.].T.ZXI @.I o X % e. .o.9.uXqXN qXqXb b ' E.DX'.@ + 2.-XvX",
"t ` 7 @.O.&.%.%.O.7 @ 8 B CXMX  0     : c @ z.8 V.AX6 . [.+.j j J.5.P ! `.g.LXj J.+.T I F.n 6 6 } x.#X5X|.5Xf.7.1.DXT.B g.u.u.p ",
" .:X& I Q n Q #X-.;.6 W j B %.V <Xi.<X_.#.#.7 o 3XN XX}.p.{.G.tXp.m.dXo.3 M w.Z.=.2Xe B [ 9.( ) F y.k 3X~.f.~.z e.;XO.* C A.|.~.",
"E.k { : M E.AXS s j s l aXW.& ;.8X2X2X_.i.i.+ 1 e.d.s j.C -.] ~.] qX] 1.A n w.#.9.n x.% [.,XN qX7.y.j s ' j.' m ;Xh.` * 6 W e.1.",
"[.F.7 $ { S.aXwXN.P ].p @.- &.M / L $X+ i V.c u ].u.~ u.4 p g.p p ].].JXy H.H.8 > + + y o V.a.e.l j.1.e.wX/./.;XV.p   r g ` 5.+ ",
"  , &.1Xv.y $ = 1 i *.a.t.D.7 $ o ` * W.v.1 @.5.1 c u y 3 4 hXv.W.! u I.3 3 * a.[.5 0 8.t.[ [.9 { & j ^ $X-XX 1 P xXj S.;Xp 4 u ",
"-.W j.z 3X1X@.x OX2XOXM.oXe x.H.&.(. .a KX'.DXyXC 6.n 8 K b.7.q.7.~ =Xn ..e OX:XJ 4.Y ..2Xs.s.>.x x ..x.9.d v._ 7.] o.#X7.uXy.@ ",
"p 4 t 3 , o ; k.T ( / +.J.*.:.I 5 S.S.4 ZXBXP O.{ d 3 ; & H 7XZ a.u p d d G / L z. X@   1 1 O u u E : 7 O.c  XE t 4 $Xp d h.0 5 ",
"&   X , 2.2.0 v.# $ y 5 X o u 1 1 B o  XjXv v v r r r 4.v.c @ I.c # % % $ eXeXo * g.xX0 : 7 H.9 _ [ o y O.h.8.n ..Q 6 M   5 > 5.",
"%Xc.;X} Y.h b.#XA.u.X k.M M Y.o.n.o.#.^ % &.8.8.j 8.W ] |.A.A.] |.o.;.K | - &.{.G.G.sX>.e i.kX*X%X%XD.o 2X&XsXmXC._.rXsXy.# Q e ",
"e + O + 7 H.%.T S.q 5 = T & =X( ( 8.< ) -Xl A.|.}.~.5XfX] } K } m. . .l.}.P W p.h n.M.U @Xs.<Xi.s.kXZ B |. .!.,XZ.>.J m.g.3 .Xe ",
"2 c o 9 & T ` % g =X2.  7 @ E @ O I -XW.pX=Xf.~.U.a XX|.5X5X5Xf.A.~.b.h }.P | N C m.=.n.w.#.. D.w.>.a.# h ~.z ' j.d.z f./.:.9X.X",
"w I +.b.0Xh l.# H @X.X9Xl.l.q.( *.W.g.l ).:.p.~.b >XS R C C 0X0XC W y.d.cX;X[.U.N SX-.o.h 7.h h iX{.7.- s XXa j.' XX}.yXW.` 9.) ",
"w E @ Y.l d.#XO 7 < M t.H . M H ) 1 *.-.` + (.N z F G D 2 F ( / *.+.DX'.N S 1X-.m d.d.' B.b }.}.N a p  Xg.DXB.B.' ' ' 2 q H.F T ",
"5.8 r v.zXu.* r r X +X@.@.E : ` ~ r g ^ @./ fXb yXm G m 8.8.e._ F.a.D / ] 1.O v.; z.1 v.-X# X 4.A , L t @.q % - ! -X*   % $ = 0 ",
"@ g - g t.k a.6 W e.> L.-.6 3XK k Y =Xt ; 6 b.7.a a ' d.l y.( *.F.y.y.y.5XE.-X^.r.U :XK.(.] 7 $ $.dX{.{.U e 7 1 K 6 e _.$.: E @ ",
"#.s.2.h.K.2Xx s.OXe %.F sXsXZ.Z.C.:Xl.e.* 8.} k y.>Xl S ,.DXS /.+.j wXuX5XT.= 8XU 0.0.OXb.b ^.c (.M.s._._.<X& h.C.#.n w.rX>._.i.",
"r.r., J.K._.s.i.f f *.AX#X-.o.o.-.2 / d 0 H.8.& L.S s D >Xz b cXb B.B.b b P : Y.Y.Y.2 S m G 0 % f =.8X#X} W h.&.2X8X.XX.} X.Q $.",
"J 2 O a.K._._.w.;.Y ` t g.I.t xX[.V.:.3 8 o { { [./.q.z b >Xl E.LXT.].'.4X~ # ` + { L w w L @ $ M n k.k.H k $X> ^ a.W q.q.K W l ",
"W.3.y B * i g.i I.1 $ 5 # y y 4.u B q # ; 5 c 0 H.p g.u.zXJXP.4.MXy `.B u - y % # @.E q q # % v 5.9 &.[.t + E # q $ ! * t i 3 = "
};
